%TF.GenerationSoftware,KiCad,Pcbnew,9.0.3*%
%TF.CreationDate,2025-08-08T14:41:56-05:00*%
%TF.ProjectId,baquelita,62617175-656c-4697-9461-2e6b69636164,rev?*%
%TF.SameCoordinates,Original*%
%TF.FileFunction,Legend,Top*%
%TF.FilePolarity,Positive*%
%FSLAX46Y46*%
G04 Gerber Fmt 4.6, Leading zero omitted, Abs format (unit mm)*
G04 Created by KiCad (PCBNEW 9.0.3) date 2025-08-08 14:41:56*
%MOMM*%
%LPD*%
G01*
G04 APERTURE LIST*
%ADD10C,0.200000*%
%ADD11C,0.150000*%
%ADD12C,0.000000*%
%ADD13C,0.120000*%
%ADD14C,0.127000*%
G04 APERTURE END LIST*
D10*
X52369673Y-152867219D02*
X52369673Y-151867219D01*
X52369673Y-151867219D02*
X52703006Y-152581504D01*
X52703006Y-152581504D02*
X53036339Y-151867219D01*
X53036339Y-151867219D02*
X53036339Y-152867219D01*
X53512530Y-152867219D02*
X53512530Y-152200552D01*
X53512530Y-152391028D02*
X53560149Y-152295790D01*
X53560149Y-152295790D02*
X53607768Y-152248171D01*
X53607768Y-152248171D02*
X53703006Y-152200552D01*
X53703006Y-152200552D02*
X53798244Y-152200552D01*
X54131578Y-152867219D02*
X54131578Y-151867219D01*
X54703006Y-152867219D02*
X54274435Y-152295790D01*
X54703006Y-151867219D02*
X54131578Y-152438647D01*
X55131578Y-152867219D02*
X55131578Y-151867219D01*
X55131578Y-151867219D02*
X55464911Y-152581504D01*
X55464911Y-152581504D02*
X55798244Y-151867219D01*
X55798244Y-151867219D02*
X55798244Y-152867219D01*
X56226816Y-151962457D02*
X56274435Y-151914838D01*
X56274435Y-151914838D02*
X56369673Y-151867219D01*
X56369673Y-151867219D02*
X56607768Y-151867219D01*
X56607768Y-151867219D02*
X56703006Y-151914838D01*
X56703006Y-151914838D02*
X56750625Y-151962457D01*
X56750625Y-151962457D02*
X56798244Y-152057695D01*
X56798244Y-152057695D02*
X56798244Y-152152933D01*
X56798244Y-152152933D02*
X56750625Y-152295790D01*
X56750625Y-152295790D02*
X56179197Y-152867219D01*
X56179197Y-152867219D02*
X56798244Y-152867219D01*
X57417292Y-151867219D02*
X57512530Y-151867219D01*
X57512530Y-151867219D02*
X57607768Y-151914838D01*
X57607768Y-151914838D02*
X57655387Y-151962457D01*
X57655387Y-151962457D02*
X57703006Y-152057695D01*
X57703006Y-152057695D02*
X57750625Y-152248171D01*
X57750625Y-152248171D02*
X57750625Y-152486266D01*
X57750625Y-152486266D02*
X57703006Y-152676742D01*
X57703006Y-152676742D02*
X57655387Y-152771980D01*
X57655387Y-152771980D02*
X57607768Y-152819600D01*
X57607768Y-152819600D02*
X57512530Y-152867219D01*
X57512530Y-152867219D02*
X57417292Y-152867219D01*
X57417292Y-152867219D02*
X57322054Y-152819600D01*
X57322054Y-152819600D02*
X57274435Y-152771980D01*
X57274435Y-152771980D02*
X57226816Y-152676742D01*
X57226816Y-152676742D02*
X57179197Y-152486266D01*
X57179197Y-152486266D02*
X57179197Y-152248171D01*
X57179197Y-152248171D02*
X57226816Y-152057695D01*
X57226816Y-152057695D02*
X57274435Y-151962457D01*
X57274435Y-151962457D02*
X57322054Y-151914838D01*
X57322054Y-151914838D02*
X57417292Y-151867219D01*
X58369673Y-151867219D02*
X58464911Y-151867219D01*
X58464911Y-151867219D02*
X58560149Y-151914838D01*
X58560149Y-151914838D02*
X58607768Y-151962457D01*
X58607768Y-151962457D02*
X58655387Y-152057695D01*
X58655387Y-152057695D02*
X58703006Y-152248171D01*
X58703006Y-152248171D02*
X58703006Y-152486266D01*
X58703006Y-152486266D02*
X58655387Y-152676742D01*
X58655387Y-152676742D02*
X58607768Y-152771980D01*
X58607768Y-152771980D02*
X58560149Y-152819600D01*
X58560149Y-152819600D02*
X58464911Y-152867219D01*
X58464911Y-152867219D02*
X58369673Y-152867219D01*
X58369673Y-152867219D02*
X58274435Y-152819600D01*
X58274435Y-152819600D02*
X58226816Y-152771980D01*
X58226816Y-152771980D02*
X58179197Y-152676742D01*
X58179197Y-152676742D02*
X58131578Y-152486266D01*
X58131578Y-152486266D02*
X58131578Y-152248171D01*
X58131578Y-152248171D02*
X58179197Y-152057695D01*
X58179197Y-152057695D02*
X58226816Y-151962457D01*
X58226816Y-151962457D02*
X58274435Y-151914838D01*
X58274435Y-151914838D02*
X58369673Y-151867219D01*
X59322054Y-151867219D02*
X59417292Y-151867219D01*
X59417292Y-151867219D02*
X59512530Y-151914838D01*
X59512530Y-151914838D02*
X59560149Y-151962457D01*
X59560149Y-151962457D02*
X59607768Y-152057695D01*
X59607768Y-152057695D02*
X59655387Y-152248171D01*
X59655387Y-152248171D02*
X59655387Y-152486266D01*
X59655387Y-152486266D02*
X59607768Y-152676742D01*
X59607768Y-152676742D02*
X59560149Y-152771980D01*
X59560149Y-152771980D02*
X59512530Y-152819600D01*
X59512530Y-152819600D02*
X59417292Y-152867219D01*
X59417292Y-152867219D02*
X59322054Y-152867219D01*
X59322054Y-152867219D02*
X59226816Y-152819600D01*
X59226816Y-152819600D02*
X59179197Y-152771980D01*
X59179197Y-152771980D02*
X59131578Y-152676742D01*
X59131578Y-152676742D02*
X59083959Y-152486266D01*
X59083959Y-152486266D02*
X59083959Y-152248171D01*
X59083959Y-152248171D02*
X59131578Y-152057695D01*
X59131578Y-152057695D02*
X59179197Y-151962457D01*
X59179197Y-151962457D02*
X59226816Y-151914838D01*
X59226816Y-151914838D02*
X59322054Y-151867219D01*
X60845864Y-152486266D02*
X61607769Y-152486266D01*
X62798245Y-152819600D02*
X62941102Y-152867219D01*
X62941102Y-152867219D02*
X63179197Y-152867219D01*
X63179197Y-152867219D02*
X63274435Y-152819600D01*
X63274435Y-152819600D02*
X63322054Y-152771980D01*
X63322054Y-152771980D02*
X63369673Y-152676742D01*
X63369673Y-152676742D02*
X63369673Y-152581504D01*
X63369673Y-152581504D02*
X63322054Y-152486266D01*
X63322054Y-152486266D02*
X63274435Y-152438647D01*
X63274435Y-152438647D02*
X63179197Y-152391028D01*
X63179197Y-152391028D02*
X62988721Y-152343409D01*
X62988721Y-152343409D02*
X62893483Y-152295790D01*
X62893483Y-152295790D02*
X62845864Y-152248171D01*
X62845864Y-152248171D02*
X62798245Y-152152933D01*
X62798245Y-152152933D02*
X62798245Y-152057695D01*
X62798245Y-152057695D02*
X62845864Y-151962457D01*
X62845864Y-151962457D02*
X62893483Y-151914838D01*
X62893483Y-151914838D02*
X62988721Y-151867219D01*
X62988721Y-151867219D02*
X63226816Y-151867219D01*
X63226816Y-151867219D02*
X63369673Y-151914838D01*
X63655388Y-151867219D02*
X64226816Y-151867219D01*
X63941102Y-152867219D02*
X63941102Y-151867219D01*
X64560150Y-152771980D02*
X64607769Y-152819600D01*
X64607769Y-152819600D02*
X64560150Y-152867219D01*
X64560150Y-152867219D02*
X64512531Y-152819600D01*
X64512531Y-152819600D02*
X64560150Y-152771980D01*
X64560150Y-152771980D02*
X64560150Y-152867219D01*
X66322054Y-151914838D02*
X66226816Y-151867219D01*
X66226816Y-151867219D02*
X66083959Y-151867219D01*
X66083959Y-151867219D02*
X65941102Y-151914838D01*
X65941102Y-151914838D02*
X65845864Y-152010076D01*
X65845864Y-152010076D02*
X65798245Y-152105314D01*
X65798245Y-152105314D02*
X65750626Y-152295790D01*
X65750626Y-152295790D02*
X65750626Y-152438647D01*
X65750626Y-152438647D02*
X65798245Y-152629123D01*
X65798245Y-152629123D02*
X65845864Y-152724361D01*
X65845864Y-152724361D02*
X65941102Y-152819600D01*
X65941102Y-152819600D02*
X66083959Y-152867219D01*
X66083959Y-152867219D02*
X66179197Y-152867219D01*
X66179197Y-152867219D02*
X66322054Y-152819600D01*
X66322054Y-152819600D02*
X66369673Y-152771980D01*
X66369673Y-152771980D02*
X66369673Y-152438647D01*
X66369673Y-152438647D02*
X66179197Y-152438647D01*
X67226816Y-152200552D02*
X67226816Y-152867219D01*
X66798245Y-152200552D02*
X66798245Y-152724361D01*
X66798245Y-152724361D02*
X66845864Y-152819600D01*
X66845864Y-152819600D02*
X66941102Y-152867219D01*
X66941102Y-152867219D02*
X67083959Y-152867219D01*
X67083959Y-152867219D02*
X67179197Y-152819600D01*
X67179197Y-152819600D02*
X67226816Y-152771980D01*
X68083959Y-152819600D02*
X67988721Y-152867219D01*
X67988721Y-152867219D02*
X67798245Y-152867219D01*
X67798245Y-152867219D02*
X67703007Y-152819600D01*
X67703007Y-152819600D02*
X67655388Y-152724361D01*
X67655388Y-152724361D02*
X67655388Y-152343409D01*
X67655388Y-152343409D02*
X67703007Y-152248171D01*
X67703007Y-152248171D02*
X67798245Y-152200552D01*
X67798245Y-152200552D02*
X67988721Y-152200552D01*
X67988721Y-152200552D02*
X68083959Y-152248171D01*
X68083959Y-152248171D02*
X68131578Y-152343409D01*
X68131578Y-152343409D02*
X68131578Y-152438647D01*
X68131578Y-152438647D02*
X67655388Y-152533885D01*
X68560150Y-152867219D02*
X68560150Y-152200552D01*
X68560150Y-152391028D02*
X68607769Y-152295790D01*
X68607769Y-152295790D02*
X68655388Y-152248171D01*
X68655388Y-152248171D02*
X68750626Y-152200552D01*
X68750626Y-152200552D02*
X68845864Y-152200552D01*
X69179198Y-152867219D02*
X69179198Y-152200552D01*
X69179198Y-152391028D02*
X69226817Y-152295790D01*
X69226817Y-152295790D02*
X69274436Y-152248171D01*
X69274436Y-152248171D02*
X69369674Y-152200552D01*
X69369674Y-152200552D02*
X69464912Y-152200552D01*
X70179198Y-152819600D02*
X70083960Y-152867219D01*
X70083960Y-152867219D02*
X69893484Y-152867219D01*
X69893484Y-152867219D02*
X69798246Y-152819600D01*
X69798246Y-152819600D02*
X69750627Y-152724361D01*
X69750627Y-152724361D02*
X69750627Y-152343409D01*
X69750627Y-152343409D02*
X69798246Y-152248171D01*
X69798246Y-152248171D02*
X69893484Y-152200552D01*
X69893484Y-152200552D02*
X70083960Y-152200552D01*
X70083960Y-152200552D02*
X70179198Y-152248171D01*
X70179198Y-152248171D02*
X70226817Y-152343409D01*
X70226817Y-152343409D02*
X70226817Y-152438647D01*
X70226817Y-152438647D02*
X69750627Y-152533885D01*
X70655389Y-152867219D02*
X70655389Y-152200552D01*
X70655389Y-152391028D02*
X70703008Y-152295790D01*
X70703008Y-152295790D02*
X70750627Y-152248171D01*
X70750627Y-152248171D02*
X70845865Y-152200552D01*
X70845865Y-152200552D02*
X70941103Y-152200552D01*
X71417294Y-152867219D02*
X71322056Y-152819600D01*
X71322056Y-152819600D02*
X71274437Y-152771980D01*
X71274437Y-152771980D02*
X71226818Y-152676742D01*
X71226818Y-152676742D02*
X71226818Y-152391028D01*
X71226818Y-152391028D02*
X71274437Y-152295790D01*
X71274437Y-152295790D02*
X71322056Y-152248171D01*
X71322056Y-152248171D02*
X71417294Y-152200552D01*
X71417294Y-152200552D02*
X71560151Y-152200552D01*
X71560151Y-152200552D02*
X71655389Y-152248171D01*
X71655389Y-152248171D02*
X71703008Y-152295790D01*
X71703008Y-152295790D02*
X71750627Y-152391028D01*
X71750627Y-152391028D02*
X71750627Y-152676742D01*
X71750627Y-152676742D02*
X71703008Y-152771980D01*
X71703008Y-152771980D02*
X71655389Y-152819600D01*
X71655389Y-152819600D02*
X71560151Y-152867219D01*
X71560151Y-152867219D02*
X71417294Y-152867219D01*
D11*
X102620476Y-156004819D02*
X102620476Y-156719104D01*
X102620476Y-156719104D02*
X102572857Y-156861961D01*
X102572857Y-156861961D02*
X102477619Y-156957200D01*
X102477619Y-156957200D02*
X102334762Y-157004819D01*
X102334762Y-157004819D02*
X102239524Y-157004819D01*
X103620476Y-157004819D02*
X103049048Y-157004819D01*
X103334762Y-157004819D02*
X103334762Y-156004819D01*
X103334762Y-156004819D02*
X103239524Y-156147676D01*
X103239524Y-156147676D02*
X103144286Y-156242914D01*
X103144286Y-156242914D02*
X103049048Y-156290533D01*
X104239524Y-156004819D02*
X104334762Y-156004819D01*
X104334762Y-156004819D02*
X104430000Y-156052438D01*
X104430000Y-156052438D02*
X104477619Y-156100057D01*
X104477619Y-156100057D02*
X104525238Y-156195295D01*
X104525238Y-156195295D02*
X104572857Y-156385771D01*
X104572857Y-156385771D02*
X104572857Y-156623866D01*
X104572857Y-156623866D02*
X104525238Y-156814342D01*
X104525238Y-156814342D02*
X104477619Y-156909580D01*
X104477619Y-156909580D02*
X104430000Y-156957200D01*
X104430000Y-156957200D02*
X104334762Y-157004819D01*
X104334762Y-157004819D02*
X104239524Y-157004819D01*
X104239524Y-157004819D02*
X104144286Y-156957200D01*
X104144286Y-156957200D02*
X104096667Y-156909580D01*
X104096667Y-156909580D02*
X104049048Y-156814342D01*
X104049048Y-156814342D02*
X104001429Y-156623866D01*
X104001429Y-156623866D02*
X104001429Y-156385771D01*
X104001429Y-156385771D02*
X104049048Y-156195295D01*
X104049048Y-156195295D02*
X104096667Y-156100057D01*
X104096667Y-156100057D02*
X104144286Y-156052438D01*
X104144286Y-156052438D02*
X104239524Y-156004819D01*
X82316666Y-63174819D02*
X82316666Y-63889104D01*
X82316666Y-63889104D02*
X82269047Y-64031961D01*
X82269047Y-64031961D02*
X82173809Y-64127200D01*
X82173809Y-64127200D02*
X82030952Y-64174819D01*
X82030952Y-64174819D02*
X81935714Y-64174819D01*
X82745238Y-63270057D02*
X82792857Y-63222438D01*
X82792857Y-63222438D02*
X82888095Y-63174819D01*
X82888095Y-63174819D02*
X83126190Y-63174819D01*
X83126190Y-63174819D02*
X83221428Y-63222438D01*
X83221428Y-63222438D02*
X83269047Y-63270057D01*
X83269047Y-63270057D02*
X83316666Y-63365295D01*
X83316666Y-63365295D02*
X83316666Y-63460533D01*
X83316666Y-63460533D02*
X83269047Y-63603390D01*
X83269047Y-63603390D02*
X82697619Y-64174819D01*
X82697619Y-64174819D02*
X83316666Y-64174819D01*
X96666666Y-63214819D02*
X96666666Y-63929104D01*
X96666666Y-63929104D02*
X96619047Y-64071961D01*
X96619047Y-64071961D02*
X96523809Y-64167200D01*
X96523809Y-64167200D02*
X96380952Y-64214819D01*
X96380952Y-64214819D02*
X96285714Y-64214819D01*
X97047619Y-63214819D02*
X97666666Y-63214819D01*
X97666666Y-63214819D02*
X97333333Y-63595771D01*
X97333333Y-63595771D02*
X97476190Y-63595771D01*
X97476190Y-63595771D02*
X97571428Y-63643390D01*
X97571428Y-63643390D02*
X97619047Y-63691009D01*
X97619047Y-63691009D02*
X97666666Y-63786247D01*
X97666666Y-63786247D02*
X97666666Y-64024342D01*
X97666666Y-64024342D02*
X97619047Y-64119580D01*
X97619047Y-64119580D02*
X97571428Y-64167200D01*
X97571428Y-64167200D02*
X97476190Y-64214819D01*
X97476190Y-64214819D02*
X97190476Y-64214819D01*
X97190476Y-64214819D02*
X97095238Y-64167200D01*
X97095238Y-64167200D02*
X97047619Y-64119580D01*
X113666666Y-43174819D02*
X113666666Y-43889104D01*
X113666666Y-43889104D02*
X113619047Y-44031961D01*
X113619047Y-44031961D02*
X113523809Y-44127200D01*
X113523809Y-44127200D02*
X113380952Y-44174819D01*
X113380952Y-44174819D02*
X113285714Y-44174819D01*
X114047619Y-43174819D02*
X114714285Y-43174819D01*
X114714285Y-43174819D02*
X114285714Y-44174819D01*
X117004819Y-130139523D02*
X117719104Y-130139523D01*
X117719104Y-130139523D02*
X117861961Y-130187142D01*
X117861961Y-130187142D02*
X117957200Y-130282380D01*
X117957200Y-130282380D02*
X118004819Y-130425237D01*
X118004819Y-130425237D02*
X118004819Y-130520475D01*
X118004819Y-129139523D02*
X118004819Y-129710951D01*
X118004819Y-129425237D02*
X117004819Y-129425237D01*
X117004819Y-129425237D02*
X117147676Y-129520475D01*
X117147676Y-129520475D02*
X117242914Y-129615713D01*
X117242914Y-129615713D02*
X117290533Y-129710951D01*
X118004819Y-128187142D02*
X118004819Y-128758570D01*
X118004819Y-128472856D02*
X117004819Y-128472856D01*
X117004819Y-128472856D02*
X117147676Y-128568094D01*
X117147676Y-128568094D02*
X117242914Y-128663332D01*
X117242914Y-128663332D02*
X117290533Y-128758570D01*
X86198095Y-129354819D02*
X86198095Y-130164342D01*
X86198095Y-130164342D02*
X86245714Y-130259580D01*
X86245714Y-130259580D02*
X86293333Y-130307200D01*
X86293333Y-130307200D02*
X86388571Y-130354819D01*
X86388571Y-130354819D02*
X86579047Y-130354819D01*
X86579047Y-130354819D02*
X86674285Y-130307200D01*
X86674285Y-130307200D02*
X86721904Y-130259580D01*
X86721904Y-130259580D02*
X86769523Y-130164342D01*
X86769523Y-130164342D02*
X86769523Y-129354819D01*
X87198095Y-129450057D02*
X87245714Y-129402438D01*
X87245714Y-129402438D02*
X87340952Y-129354819D01*
X87340952Y-129354819D02*
X87579047Y-129354819D01*
X87579047Y-129354819D02*
X87674285Y-129402438D01*
X87674285Y-129402438D02*
X87721904Y-129450057D01*
X87721904Y-129450057D02*
X87769523Y-129545295D01*
X87769523Y-129545295D02*
X87769523Y-129640533D01*
X87769523Y-129640533D02*
X87721904Y-129783390D01*
X87721904Y-129783390D02*
X87150476Y-130354819D01*
X87150476Y-130354819D02*
X87769523Y-130354819D01*
X45333333Y-138609580D02*
X45285714Y-138657200D01*
X45285714Y-138657200D02*
X45142857Y-138704819D01*
X45142857Y-138704819D02*
X45047619Y-138704819D01*
X45047619Y-138704819D02*
X44904762Y-138657200D01*
X44904762Y-138657200D02*
X44809524Y-138561961D01*
X44809524Y-138561961D02*
X44761905Y-138466723D01*
X44761905Y-138466723D02*
X44714286Y-138276247D01*
X44714286Y-138276247D02*
X44714286Y-138133390D01*
X44714286Y-138133390D02*
X44761905Y-137942914D01*
X44761905Y-137942914D02*
X44809524Y-137847676D01*
X44809524Y-137847676D02*
X44904762Y-137752438D01*
X44904762Y-137752438D02*
X45047619Y-137704819D01*
X45047619Y-137704819D02*
X45142857Y-137704819D01*
X45142857Y-137704819D02*
X45285714Y-137752438D01*
X45285714Y-137752438D02*
X45333333Y-137800057D01*
X45666667Y-137704819D02*
X46285714Y-137704819D01*
X46285714Y-137704819D02*
X45952381Y-138085771D01*
X45952381Y-138085771D02*
X46095238Y-138085771D01*
X46095238Y-138085771D02*
X46190476Y-138133390D01*
X46190476Y-138133390D02*
X46238095Y-138181009D01*
X46238095Y-138181009D02*
X46285714Y-138276247D01*
X46285714Y-138276247D02*
X46285714Y-138514342D01*
X46285714Y-138514342D02*
X46238095Y-138609580D01*
X46238095Y-138609580D02*
X46190476Y-138657200D01*
X46190476Y-138657200D02*
X46095238Y-138704819D01*
X46095238Y-138704819D02*
X45809524Y-138704819D01*
X45809524Y-138704819D02*
X45714286Y-138657200D01*
X45714286Y-138657200D02*
X45666667Y-138609580D01*
X55833333Y-64034819D02*
X55500000Y-63558628D01*
X55261905Y-64034819D02*
X55261905Y-63034819D01*
X55261905Y-63034819D02*
X55642857Y-63034819D01*
X55642857Y-63034819D02*
X55738095Y-63082438D01*
X55738095Y-63082438D02*
X55785714Y-63130057D01*
X55785714Y-63130057D02*
X55833333Y-63225295D01*
X55833333Y-63225295D02*
X55833333Y-63368152D01*
X55833333Y-63368152D02*
X55785714Y-63463390D01*
X55785714Y-63463390D02*
X55738095Y-63511009D01*
X55738095Y-63511009D02*
X55642857Y-63558628D01*
X55642857Y-63558628D02*
X55261905Y-63558628D01*
X56166667Y-63034819D02*
X56785714Y-63034819D01*
X56785714Y-63034819D02*
X56452381Y-63415771D01*
X56452381Y-63415771D02*
X56595238Y-63415771D01*
X56595238Y-63415771D02*
X56690476Y-63463390D01*
X56690476Y-63463390D02*
X56738095Y-63511009D01*
X56738095Y-63511009D02*
X56785714Y-63606247D01*
X56785714Y-63606247D02*
X56785714Y-63844342D01*
X56785714Y-63844342D02*
X56738095Y-63939580D01*
X56738095Y-63939580D02*
X56690476Y-63987200D01*
X56690476Y-63987200D02*
X56595238Y-64034819D01*
X56595238Y-64034819D02*
X56309524Y-64034819D01*
X56309524Y-64034819D02*
X56214286Y-63987200D01*
X56214286Y-63987200D02*
X56166667Y-63939580D01*
X97833333Y-146609580D02*
X97785714Y-146657200D01*
X97785714Y-146657200D02*
X97642857Y-146704819D01*
X97642857Y-146704819D02*
X97547619Y-146704819D01*
X97547619Y-146704819D02*
X97404762Y-146657200D01*
X97404762Y-146657200D02*
X97309524Y-146561961D01*
X97309524Y-146561961D02*
X97261905Y-146466723D01*
X97261905Y-146466723D02*
X97214286Y-146276247D01*
X97214286Y-146276247D02*
X97214286Y-146133390D01*
X97214286Y-146133390D02*
X97261905Y-145942914D01*
X97261905Y-145942914D02*
X97309524Y-145847676D01*
X97309524Y-145847676D02*
X97404762Y-145752438D01*
X97404762Y-145752438D02*
X97547619Y-145704819D01*
X97547619Y-145704819D02*
X97642857Y-145704819D01*
X97642857Y-145704819D02*
X97785714Y-145752438D01*
X97785714Y-145752438D02*
X97833333Y-145800057D01*
X98214286Y-145800057D02*
X98261905Y-145752438D01*
X98261905Y-145752438D02*
X98357143Y-145704819D01*
X98357143Y-145704819D02*
X98595238Y-145704819D01*
X98595238Y-145704819D02*
X98690476Y-145752438D01*
X98690476Y-145752438D02*
X98738095Y-145800057D01*
X98738095Y-145800057D02*
X98785714Y-145895295D01*
X98785714Y-145895295D02*
X98785714Y-145990533D01*
X98785714Y-145990533D02*
X98738095Y-146133390D01*
X98738095Y-146133390D02*
X98166667Y-146704819D01*
X98166667Y-146704819D02*
X98785714Y-146704819D01*
X31804819Y-85283333D02*
X32519104Y-85283333D01*
X32519104Y-85283333D02*
X32661961Y-85330952D01*
X32661961Y-85330952D02*
X32757200Y-85426190D01*
X32757200Y-85426190D02*
X32804819Y-85569047D01*
X32804819Y-85569047D02*
X32804819Y-85664285D01*
X31804819Y-84378571D02*
X31804819Y-84569047D01*
X31804819Y-84569047D02*
X31852438Y-84664285D01*
X31852438Y-84664285D02*
X31900057Y-84711904D01*
X31900057Y-84711904D02*
X32042914Y-84807142D01*
X32042914Y-84807142D02*
X32233390Y-84854761D01*
X32233390Y-84854761D02*
X32614342Y-84854761D01*
X32614342Y-84854761D02*
X32709580Y-84807142D01*
X32709580Y-84807142D02*
X32757200Y-84759523D01*
X32757200Y-84759523D02*
X32804819Y-84664285D01*
X32804819Y-84664285D02*
X32804819Y-84473809D01*
X32804819Y-84473809D02*
X32757200Y-84378571D01*
X32757200Y-84378571D02*
X32709580Y-84330952D01*
X32709580Y-84330952D02*
X32614342Y-84283333D01*
X32614342Y-84283333D02*
X32376247Y-84283333D01*
X32376247Y-84283333D02*
X32281009Y-84330952D01*
X32281009Y-84330952D02*
X32233390Y-84378571D01*
X32233390Y-84378571D02*
X32185771Y-84473809D01*
X32185771Y-84473809D02*
X32185771Y-84664285D01*
X32185771Y-84664285D02*
X32233390Y-84759523D01*
X32233390Y-84759523D02*
X32281009Y-84807142D01*
X32281009Y-84807142D02*
X32376247Y-84854761D01*
X117534819Y-82793333D02*
X118249104Y-82793333D01*
X118249104Y-82793333D02*
X118391961Y-82840952D01*
X118391961Y-82840952D02*
X118487200Y-82936190D01*
X118487200Y-82936190D02*
X118534819Y-83079047D01*
X118534819Y-83079047D02*
X118534819Y-83174285D01*
X118534819Y-81793333D02*
X118534819Y-82364761D01*
X118534819Y-82079047D02*
X117534819Y-82079047D01*
X117534819Y-82079047D02*
X117677676Y-82174285D01*
X117677676Y-82174285D02*
X117772914Y-82269523D01*
X117772914Y-82269523D02*
X117820533Y-82364761D01*
X62333333Y-138609580D02*
X62285714Y-138657200D01*
X62285714Y-138657200D02*
X62142857Y-138704819D01*
X62142857Y-138704819D02*
X62047619Y-138704819D01*
X62047619Y-138704819D02*
X61904762Y-138657200D01*
X61904762Y-138657200D02*
X61809524Y-138561961D01*
X61809524Y-138561961D02*
X61761905Y-138466723D01*
X61761905Y-138466723D02*
X61714286Y-138276247D01*
X61714286Y-138276247D02*
X61714286Y-138133390D01*
X61714286Y-138133390D02*
X61761905Y-137942914D01*
X61761905Y-137942914D02*
X61809524Y-137847676D01*
X61809524Y-137847676D02*
X61904762Y-137752438D01*
X61904762Y-137752438D02*
X62047619Y-137704819D01*
X62047619Y-137704819D02*
X62142857Y-137704819D01*
X62142857Y-137704819D02*
X62285714Y-137752438D01*
X62285714Y-137752438D02*
X62333333Y-137800057D01*
X63190476Y-138038152D02*
X63190476Y-138704819D01*
X62952381Y-137657200D02*
X62714286Y-138371485D01*
X62714286Y-138371485D02*
X63333333Y-138371485D01*
X82333333Y-139109580D02*
X82285714Y-139157200D01*
X82285714Y-139157200D02*
X82142857Y-139204819D01*
X82142857Y-139204819D02*
X82047619Y-139204819D01*
X82047619Y-139204819D02*
X81904762Y-139157200D01*
X81904762Y-139157200D02*
X81809524Y-139061961D01*
X81809524Y-139061961D02*
X81761905Y-138966723D01*
X81761905Y-138966723D02*
X81714286Y-138776247D01*
X81714286Y-138776247D02*
X81714286Y-138633390D01*
X81714286Y-138633390D02*
X81761905Y-138442914D01*
X81761905Y-138442914D02*
X81809524Y-138347676D01*
X81809524Y-138347676D02*
X81904762Y-138252438D01*
X81904762Y-138252438D02*
X82047619Y-138204819D01*
X82047619Y-138204819D02*
X82142857Y-138204819D01*
X82142857Y-138204819D02*
X82285714Y-138252438D01*
X82285714Y-138252438D02*
X82333333Y-138300057D01*
X83285714Y-139204819D02*
X82714286Y-139204819D01*
X83000000Y-139204819D02*
X83000000Y-138204819D01*
X83000000Y-138204819D02*
X82904762Y-138347676D01*
X82904762Y-138347676D02*
X82809524Y-138442914D01*
X82809524Y-138442914D02*
X82714286Y-138490533D01*
X44333333Y-43034819D02*
X44000000Y-42558628D01*
X43761905Y-43034819D02*
X43761905Y-42034819D01*
X43761905Y-42034819D02*
X44142857Y-42034819D01*
X44142857Y-42034819D02*
X44238095Y-42082438D01*
X44238095Y-42082438D02*
X44285714Y-42130057D01*
X44285714Y-42130057D02*
X44333333Y-42225295D01*
X44333333Y-42225295D02*
X44333333Y-42368152D01*
X44333333Y-42368152D02*
X44285714Y-42463390D01*
X44285714Y-42463390D02*
X44238095Y-42511009D01*
X44238095Y-42511009D02*
X44142857Y-42558628D01*
X44142857Y-42558628D02*
X43761905Y-42558628D01*
X44714286Y-42130057D02*
X44761905Y-42082438D01*
X44761905Y-42082438D02*
X44857143Y-42034819D01*
X44857143Y-42034819D02*
X45095238Y-42034819D01*
X45095238Y-42034819D02*
X45190476Y-42082438D01*
X45190476Y-42082438D02*
X45238095Y-42130057D01*
X45238095Y-42130057D02*
X45285714Y-42225295D01*
X45285714Y-42225295D02*
X45285714Y-42320533D01*
X45285714Y-42320533D02*
X45238095Y-42463390D01*
X45238095Y-42463390D02*
X44666667Y-43034819D01*
X44666667Y-43034819D02*
X45285714Y-43034819D01*
X31804819Y-104363333D02*
X32519104Y-104363333D01*
X32519104Y-104363333D02*
X32661961Y-104410952D01*
X32661961Y-104410952D02*
X32757200Y-104506190D01*
X32757200Y-104506190D02*
X32804819Y-104649047D01*
X32804819Y-104649047D02*
X32804819Y-104744285D01*
X31804819Y-103410952D02*
X31804819Y-103887142D01*
X31804819Y-103887142D02*
X32281009Y-103934761D01*
X32281009Y-103934761D02*
X32233390Y-103887142D01*
X32233390Y-103887142D02*
X32185771Y-103791904D01*
X32185771Y-103791904D02*
X32185771Y-103553809D01*
X32185771Y-103553809D02*
X32233390Y-103458571D01*
X32233390Y-103458571D02*
X32281009Y-103410952D01*
X32281009Y-103410952D02*
X32376247Y-103363333D01*
X32376247Y-103363333D02*
X32614342Y-103363333D01*
X32614342Y-103363333D02*
X32709580Y-103410952D01*
X32709580Y-103410952D02*
X32757200Y-103458571D01*
X32757200Y-103458571D02*
X32804819Y-103553809D01*
X32804819Y-103553809D02*
X32804819Y-103791904D01*
X32804819Y-103791904D02*
X32757200Y-103887142D01*
X32757200Y-103887142D02*
X32709580Y-103934761D01*
X32374819Y-53793333D02*
X33089104Y-53793333D01*
X33089104Y-53793333D02*
X33231961Y-53840952D01*
X33231961Y-53840952D02*
X33327200Y-53936190D01*
X33327200Y-53936190D02*
X33374819Y-54079047D01*
X33374819Y-54079047D02*
X33374819Y-54174285D01*
X32708152Y-52888571D02*
X33374819Y-52888571D01*
X32327200Y-53126666D02*
X33041485Y-53364761D01*
X33041485Y-53364761D02*
X33041485Y-52745714D01*
X117534819Y-94833333D02*
X118249104Y-94833333D01*
X118249104Y-94833333D02*
X118391961Y-94880952D01*
X118391961Y-94880952D02*
X118487200Y-94976190D01*
X118487200Y-94976190D02*
X118534819Y-95119047D01*
X118534819Y-95119047D02*
X118534819Y-95214285D01*
X117963390Y-94214285D02*
X117915771Y-94309523D01*
X117915771Y-94309523D02*
X117868152Y-94357142D01*
X117868152Y-94357142D02*
X117772914Y-94404761D01*
X117772914Y-94404761D02*
X117725295Y-94404761D01*
X117725295Y-94404761D02*
X117630057Y-94357142D01*
X117630057Y-94357142D02*
X117582438Y-94309523D01*
X117582438Y-94309523D02*
X117534819Y-94214285D01*
X117534819Y-94214285D02*
X117534819Y-94023809D01*
X117534819Y-94023809D02*
X117582438Y-93928571D01*
X117582438Y-93928571D02*
X117630057Y-93880952D01*
X117630057Y-93880952D02*
X117725295Y-93833333D01*
X117725295Y-93833333D02*
X117772914Y-93833333D01*
X117772914Y-93833333D02*
X117868152Y-93880952D01*
X117868152Y-93880952D02*
X117915771Y-93928571D01*
X117915771Y-93928571D02*
X117963390Y-94023809D01*
X117963390Y-94023809D02*
X117963390Y-94214285D01*
X117963390Y-94214285D02*
X118011009Y-94309523D01*
X118011009Y-94309523D02*
X118058628Y-94357142D01*
X118058628Y-94357142D02*
X118153866Y-94404761D01*
X118153866Y-94404761D02*
X118344342Y-94404761D01*
X118344342Y-94404761D02*
X118439580Y-94357142D01*
X118439580Y-94357142D02*
X118487200Y-94309523D01*
X118487200Y-94309523D02*
X118534819Y-94214285D01*
X118534819Y-94214285D02*
X118534819Y-94023809D01*
X118534819Y-94023809D02*
X118487200Y-93928571D01*
X118487200Y-93928571D02*
X118439580Y-93880952D01*
X118439580Y-93880952D02*
X118344342Y-93833333D01*
X118344342Y-93833333D02*
X118153866Y-93833333D01*
X118153866Y-93833333D02*
X118058628Y-93880952D01*
X118058628Y-93880952D02*
X118011009Y-93928571D01*
X118011009Y-93928571D02*
X117963390Y-94023809D01*
X56333333Y-43034819D02*
X56000000Y-42558628D01*
X55761905Y-43034819D02*
X55761905Y-42034819D01*
X55761905Y-42034819D02*
X56142857Y-42034819D01*
X56142857Y-42034819D02*
X56238095Y-42082438D01*
X56238095Y-42082438D02*
X56285714Y-42130057D01*
X56285714Y-42130057D02*
X56333333Y-42225295D01*
X56333333Y-42225295D02*
X56333333Y-42368152D01*
X56333333Y-42368152D02*
X56285714Y-42463390D01*
X56285714Y-42463390D02*
X56238095Y-42511009D01*
X56238095Y-42511009D02*
X56142857Y-42558628D01*
X56142857Y-42558628D02*
X55761905Y-42558628D01*
X57285714Y-43034819D02*
X56714286Y-43034819D01*
X57000000Y-43034819D02*
X57000000Y-42034819D01*
X57000000Y-42034819D02*
X56904762Y-42177676D01*
X56904762Y-42177676D02*
X56809524Y-42272914D01*
X56809524Y-42272914D02*
X56714286Y-42320533D01*
X60809819Y-56951904D02*
X61619342Y-56951904D01*
X61619342Y-56951904D02*
X61714580Y-56904285D01*
X61714580Y-56904285D02*
X61762200Y-56856666D01*
X61762200Y-56856666D02*
X61809819Y-56761428D01*
X61809819Y-56761428D02*
X61809819Y-56570952D01*
X61809819Y-56570952D02*
X61762200Y-56475714D01*
X61762200Y-56475714D02*
X61714580Y-56428095D01*
X61714580Y-56428095D02*
X61619342Y-56380476D01*
X61619342Y-56380476D02*
X60809819Y-56380476D01*
X61143152Y-55475714D02*
X61809819Y-55475714D01*
X60762200Y-55713809D02*
X61476485Y-55951904D01*
X61476485Y-55951904D02*
X61476485Y-55332857D01*
X41833333Y-64034819D02*
X41500000Y-63558628D01*
X41261905Y-64034819D02*
X41261905Y-63034819D01*
X41261905Y-63034819D02*
X41642857Y-63034819D01*
X41642857Y-63034819D02*
X41738095Y-63082438D01*
X41738095Y-63082438D02*
X41785714Y-63130057D01*
X41785714Y-63130057D02*
X41833333Y-63225295D01*
X41833333Y-63225295D02*
X41833333Y-63368152D01*
X41833333Y-63368152D02*
X41785714Y-63463390D01*
X41785714Y-63463390D02*
X41738095Y-63511009D01*
X41738095Y-63511009D02*
X41642857Y-63558628D01*
X41642857Y-63558628D02*
X41261905Y-63558628D01*
X42690476Y-63368152D02*
X42690476Y-64034819D01*
X42452381Y-62987200D02*
X42214286Y-63701485D01*
X42214286Y-63701485D02*
X42833333Y-63701485D01*
D12*
%TO.C,G\u002A\u002A\u002A*%
G36*
X89712778Y-51359299D02*
G01*
X89716438Y-51368056D01*
X89701559Y-51396397D01*
X89683818Y-51414212D01*
X89658823Y-51428219D01*
X89651377Y-51405678D01*
X89651198Y-51395128D01*
X89664183Y-51357632D01*
X89683818Y-51348972D01*
X89712778Y-51359299D01*
G37*
G36*
X92023891Y-51181102D02*
G01*
X92043316Y-51195804D01*
X92043321Y-51196063D01*
X92027558Y-51208455D01*
X92012901Y-51205454D01*
X91978268Y-51207020D01*
X91969092Y-51215444D01*
X91975236Y-51238161D01*
X91997503Y-51250374D01*
X92043642Y-51283782D01*
X92057199Y-51335790D01*
X92052008Y-51357702D01*
X92019442Y-51390352D01*
X91967445Y-51402474D01*
X91940025Y-51397987D01*
X91914007Y-51377541D01*
X91924020Y-51356522D01*
X91956335Y-51348972D01*
X91991658Y-51339023D01*
X91999828Y-51325189D01*
X91981673Y-51301142D01*
X91956335Y-51290033D01*
X91919798Y-51260942D01*
X91912842Y-51226829D01*
X91920412Y-51189655D01*
X91951711Y-51176112D01*
X91978081Y-51174999D01*
X92023891Y-51181102D01*
G37*
G36*
X96481936Y-51181298D02*
G01*
X96501364Y-51196475D01*
X96501369Y-51196746D01*
X96483155Y-51214415D01*
X96457876Y-51218492D01*
X96424223Y-51230708D01*
X96414386Y-51273614D01*
X96414383Y-51274895D01*
X96428927Y-51325382D01*
X96457876Y-51342671D01*
X96493107Y-51358897D01*
X96501369Y-51370928D01*
X96483887Y-51394173D01*
X96444115Y-51400095D01*
X96407633Y-51389120D01*
X96381313Y-51355794D01*
X96371182Y-51290185D01*
X96370890Y-51271778D01*
X96372837Y-51212030D01*
X96384013Y-51183893D01*
X96412415Y-51175500D01*
X96436129Y-51174999D01*
X96481936Y-51181298D01*
G37*
G36*
X88234905Y-51192151D02*
G01*
X88228978Y-51245032D01*
X88218677Y-51283732D01*
X88188378Y-51358129D01*
X88157091Y-51389973D01*
X88126230Y-51379019D01*
X88097213Y-51325024D01*
X88090739Y-51305821D01*
X88070097Y-51232703D01*
X88065353Y-51192104D01*
X88076152Y-51176200D01*
X88084823Y-51174999D01*
X88104408Y-51193643D01*
X88124195Y-51239179D01*
X88126141Y-51245676D01*
X88146334Y-51316352D01*
X88175023Y-51245676D01*
X88204012Y-51189059D01*
X88225277Y-51172356D01*
X88234905Y-51192151D01*
G37*
G36*
X88409300Y-51182370D02*
G01*
X88445578Y-51197837D01*
X88470515Y-51242331D01*
X88475236Y-51302712D01*
X88459031Y-51355993D01*
X88450787Y-51366369D01*
X88409421Y-51386866D01*
X88355637Y-51391317D01*
X88308805Y-51380259D01*
X88289822Y-51361915D01*
X88283634Y-51319909D01*
X88284025Y-51301314D01*
X88328632Y-51301314D01*
X88350646Y-51339047D01*
X88378341Y-51348972D01*
X88404540Y-51330553D01*
X88411643Y-51283732D01*
X88400117Y-51236258D01*
X88373692Y-51216584D01*
X88344595Y-51229751D01*
X88332521Y-51251112D01*
X88328632Y-51301314D01*
X88284025Y-51301314D01*
X88284880Y-51260635D01*
X88285068Y-51258619D01*
X88295914Y-51207192D01*
X88323126Y-51184632D01*
X88353155Y-51178865D01*
X88409300Y-51182370D01*
G37*
G36*
X88555740Y-51194292D02*
G01*
X88563315Y-51242487D01*
X88563869Y-51261986D01*
X88567516Y-51318895D01*
X88582258Y-51344047D01*
X88607362Y-51348972D01*
X88642700Y-51358079D01*
X88650855Y-51370718D01*
X88631958Y-51385987D01*
X88586427Y-51392463D01*
X88585616Y-51392465D01*
X88546995Y-51390089D01*
X88527737Y-51375483D01*
X88521108Y-51337427D01*
X88520376Y-51283732D01*
X88524288Y-51221706D01*
X88534289Y-51182337D01*
X88542123Y-51174999D01*
X88555740Y-51194292D01*
G37*
G36*
X88823303Y-51206473D02*
G01*
X88856804Y-51268134D01*
X88861169Y-51280394D01*
X88881026Y-51348632D01*
X88880467Y-51381700D01*
X88857722Y-51383720D01*
X88824104Y-51366789D01*
X88785758Y-51349625D01*
X88767837Y-51360406D01*
X88765808Y-51365282D01*
X88745269Y-51391582D01*
X88725381Y-51381580D01*
X88718263Y-51343535D01*
X88728265Y-51272859D01*
X88781335Y-51272859D01*
X88792716Y-51301804D01*
X88802399Y-51305479D01*
X88814364Y-51289538D01*
X88810946Y-51272859D01*
X88795510Y-51244245D01*
X88789881Y-51240239D01*
X88782279Y-51257997D01*
X88781335Y-51272859D01*
X88728265Y-51272859D01*
X88730662Y-51255918D01*
X88755474Y-51202467D01*
X88787941Y-51185285D01*
X88823303Y-51206473D01*
G37*
G36*
X89136415Y-51191678D02*
G01*
X89148513Y-51245770D01*
X89150335Y-51289169D01*
X89148719Y-51353402D01*
X89143145Y-51380646D01*
X89130981Y-51377386D01*
X89119912Y-51364129D01*
X89094219Y-51339710D01*
X89078631Y-51352957D01*
X89078507Y-51353256D01*
X89061304Y-51363930D01*
X89029456Y-51338608D01*
X89021944Y-51330253D01*
X88977054Y-51278914D01*
X88977054Y-51335689D01*
X88969899Y-51377697D01*
X88955307Y-51392465D01*
X88942902Y-51372907D01*
X88935028Y-51322899D01*
X88933561Y-51283732D01*
X88940326Y-51210022D01*
X88958957Y-51176438D01*
X88986955Y-51183989D01*
X89021822Y-51233681D01*
X89027903Y-51245676D01*
X89062438Y-51316352D01*
X89076831Y-51245676D01*
X89095662Y-51188724D01*
X89117161Y-51171694D01*
X89136415Y-51191678D01*
G37*
G36*
X89344402Y-51182370D02*
G01*
X89380681Y-51197837D01*
X89405618Y-51242331D01*
X89410339Y-51302712D01*
X89394134Y-51355993D01*
X89385890Y-51366369D01*
X89344524Y-51386866D01*
X89290739Y-51391317D01*
X89243908Y-51380259D01*
X89224925Y-51361915D01*
X89218737Y-51319909D01*
X89219497Y-51283732D01*
X89281506Y-51283732D01*
X89291231Y-51335526D01*
X89314126Y-51348972D01*
X89340023Y-51329521D01*
X89346746Y-51283732D01*
X89337020Y-51231938D01*
X89314126Y-51218492D01*
X89288229Y-51237943D01*
X89281506Y-51283732D01*
X89219497Y-51283732D01*
X89219983Y-51260635D01*
X89220171Y-51258619D01*
X89231016Y-51207192D01*
X89258229Y-51184632D01*
X89288258Y-51178865D01*
X89344402Y-51182370D01*
G37*
G36*
X89528482Y-51176378D02*
G01*
X89573726Y-51178151D01*
X89578346Y-51183978D01*
X89545204Y-51198642D01*
X89542465Y-51199750D01*
X89488099Y-51221745D01*
X89549232Y-51254130D01*
X89596733Y-51294579D01*
X89606211Y-51337697D01*
X89579352Y-51372740D01*
X89528196Y-51388254D01*
X89476269Y-51386350D01*
X89445757Y-51372542D01*
X89445363Y-51371944D01*
X89451829Y-51354482D01*
X89486815Y-51348972D01*
X89531202Y-51339092D01*
X89540189Y-51316664D01*
X89510543Y-51292510D01*
X89504408Y-51290072D01*
X89455069Y-51258112D01*
X89443379Y-51220817D01*
X89466896Y-51189719D01*
X89523178Y-51176348D01*
X89528482Y-51176378D01*
G37*
G36*
X89961638Y-51182675D02*
G01*
X89975942Y-51200013D01*
X89952280Y-51218480D01*
X89928467Y-51224892D01*
X89879537Y-51234316D01*
X89928467Y-51237277D01*
X89969941Y-51249234D01*
X89971939Y-51270492D01*
X89933903Y-51290033D01*
X89898608Y-51309190D01*
X89890410Y-51325189D01*
X89908604Y-51344504D01*
X89933903Y-51348972D01*
X89969241Y-51358079D01*
X89977396Y-51370718D01*
X89958499Y-51385987D01*
X89912968Y-51392463D01*
X89912157Y-51392465D01*
X89873536Y-51390089D01*
X89854278Y-51375483D01*
X89847650Y-51337427D01*
X89846917Y-51283732D01*
X89848342Y-51219365D01*
X89857106Y-51187267D01*
X89879940Y-51176220D01*
X89912157Y-51174999D01*
X89961638Y-51182675D01*
G37*
G36*
X90116021Y-51193783D02*
G01*
X90149437Y-51241332D01*
X90151497Y-51245676D01*
X90183989Y-51316352D01*
X90190803Y-51245676D01*
X90201239Y-51191165D01*
X90215233Y-51175968D01*
X90228605Y-51196598D01*
X90237175Y-51249571D01*
X90238355Y-51285327D01*
X90236126Y-51350771D01*
X90227105Y-51382338D01*
X90207791Y-51389518D01*
X90200299Y-51388496D01*
X90162438Y-51364452D01*
X90140776Y-51332535D01*
X90114809Y-51290951D01*
X90095025Y-51290723D01*
X90086221Y-51331362D01*
X90086129Y-51338099D01*
X90078685Y-51378967D01*
X90064383Y-51392465D01*
X90051978Y-51372907D01*
X90044104Y-51322899D01*
X90042636Y-51283732D01*
X90045354Y-51217592D01*
X90055855Y-51184712D01*
X90077658Y-51175071D01*
X90080821Y-51174999D01*
X90116021Y-51193783D01*
G37*
G36*
X90408270Y-51180461D02*
G01*
X90433417Y-51193892D01*
X90434075Y-51196746D01*
X90417526Y-51217860D01*
X90412328Y-51218492D01*
X90398710Y-51237785D01*
X90391136Y-51285980D01*
X90390581Y-51305479D01*
X90385758Y-51359950D01*
X90373710Y-51390247D01*
X90368835Y-51392465D01*
X90355217Y-51373172D01*
X90347643Y-51324977D01*
X90347088Y-51305479D01*
X90341702Y-51244994D01*
X90323846Y-51220071D01*
X90314468Y-51218492D01*
X90285529Y-51206750D01*
X90281849Y-51196746D01*
X90300966Y-51182372D01*
X90347973Y-51175187D01*
X90357962Y-51174999D01*
X90408270Y-51180461D01*
G37*
G36*
X90626274Y-51177572D02*
G01*
X90646962Y-51193838D01*
X90649564Y-51236613D01*
X90648428Y-51257601D01*
X90649231Y-51318400D01*
X90657481Y-51361837D01*
X90659704Y-51366334D01*
X90658896Y-51388615D01*
X90641268Y-51392465D01*
X90603825Y-51374851D01*
X90594165Y-51359845D01*
X90572819Y-51331068D01*
X90562227Y-51327225D01*
X90544988Y-51344873D01*
X90542807Y-51359845D01*
X90531065Y-51388785D01*
X90521061Y-51392465D01*
X90508656Y-51372907D01*
X90500782Y-51322899D01*
X90499314Y-51283732D01*
X90499314Y-51251112D01*
X90542807Y-51251112D01*
X90560215Y-51279943D01*
X90575427Y-51283732D01*
X90604258Y-51266325D01*
X90608047Y-51251112D01*
X90590640Y-51222281D01*
X90575427Y-51218492D01*
X90546596Y-51235900D01*
X90542807Y-51251112D01*
X90499314Y-51251112D01*
X90499314Y-51174999D01*
X90576308Y-51174999D01*
X90626274Y-51177572D01*
G37*
G36*
X90848189Y-51181750D02*
G01*
X90867467Y-51197344D01*
X90848431Y-51214794D01*
X90809203Y-51224663D01*
X90749400Y-51233722D01*
X90809203Y-51236981D01*
X90855853Y-51247677D01*
X90867047Y-51266456D01*
X90840408Y-51283742D01*
X90821780Y-51287656D01*
X90778022Y-51303994D01*
X90765708Y-51327447D01*
X90786640Y-51345661D01*
X90812827Y-51348972D01*
X90854555Y-51356197D01*
X90869006Y-51370718D01*
X90849889Y-51385092D01*
X90802882Y-51392277D01*
X90792893Y-51392465D01*
X90716780Y-51392465D01*
X90716780Y-51283732D01*
X90716780Y-51174999D01*
X90792893Y-51174999D01*
X90848189Y-51181750D01*
G37*
G36*
X91095915Y-51192315D02*
G01*
X91105988Y-51239479D01*
X91108218Y-51283732D01*
X91100994Y-51357226D01*
X91081202Y-51391818D01*
X91051662Y-51386075D01*
X91015195Y-51338565D01*
X91011924Y-51332662D01*
X90979480Y-51272859D01*
X90978610Y-51332662D01*
X90967394Y-51380270D01*
X90945119Y-51392465D01*
X90924606Y-51380825D01*
X90914587Y-51340523D01*
X90912499Y-51283732D01*
X90914793Y-51218506D01*
X90924519Y-51185976D01*
X90945945Y-51175460D01*
X90955930Y-51174999D01*
X90999081Y-51196067D01*
X91030269Y-51245676D01*
X91061177Y-51316352D01*
X91062951Y-51245676D01*
X91069498Y-51191294D01*
X91082118Y-51174880D01*
X91095915Y-51192315D01*
G37*
G36*
X91300287Y-51217523D02*
G01*
X91325974Y-51284807D01*
X91340253Y-51354698D01*
X91334744Y-51386807D01*
X91308968Y-51382327D01*
X91291824Y-51369689D01*
X91256793Y-51351762D01*
X91217512Y-51365396D01*
X91212033Y-51368743D01*
X91184412Y-51383424D01*
X91173614Y-51375268D01*
X91175462Y-51336096D01*
X91179463Y-51304998D01*
X91187472Y-51272859D01*
X91230834Y-51272859D01*
X91234068Y-51300939D01*
X91249571Y-51305479D01*
X91270866Y-51290857D01*
X91268309Y-51272859D01*
X91254115Y-51244285D01*
X91249571Y-51240239D01*
X91237625Y-51257172D01*
X91230834Y-51272859D01*
X91187472Y-51272859D01*
X91199835Y-51223245D01*
X91230279Y-51180930D01*
X91265522Y-51178780D01*
X91300287Y-51217523D01*
G37*
G36*
X91613510Y-51181273D02*
G01*
X91626041Y-51207115D01*
X91630008Y-51263055D01*
X91630136Y-51283732D01*
X91625420Y-51352254D01*
X91613255Y-51387639D01*
X91596616Y-51386478D01*
X91578478Y-51345361D01*
X91577959Y-51343535D01*
X91565872Y-51309621D01*
X91552538Y-51315582D01*
X91539906Y-51335906D01*
X91520901Y-51362203D01*
X91502788Y-51357724D01*
X91475498Y-51325033D01*
X91435384Y-51272859D01*
X91434901Y-51332662D01*
X91427722Y-51376072D01*
X91412670Y-51392465D01*
X91400265Y-51372907D01*
X91392391Y-51322899D01*
X91390924Y-51283732D01*
X91393445Y-51218052D01*
X91403571Y-51185337D01*
X91425150Y-51175222D01*
X91431271Y-51174999D01*
X91469361Y-51195942D01*
X91492752Y-51245676D01*
X91513886Y-51316352D01*
X91530246Y-51245676D01*
X91552637Y-51191761D01*
X91588371Y-51174999D01*
X91613510Y-51181273D01*
G37*
G36*
X91847054Y-51194089D02*
G01*
X91860502Y-51229700D01*
X91863669Y-51305106D01*
X91835689Y-51361659D01*
X91781997Y-51390521D01*
X91760399Y-51392465D01*
X91709436Y-51383370D01*
X91682288Y-51361915D01*
X91676100Y-51319909D01*
X91676955Y-51279257D01*
X91722472Y-51279257D01*
X91728058Y-51305673D01*
X91752427Y-51344402D01*
X91780569Y-51345909D01*
X91800707Y-51313592D01*
X91804109Y-51283732D01*
X91794701Y-51232632D01*
X91772772Y-51218492D01*
X91733122Y-51234987D01*
X91722472Y-51279257D01*
X91676955Y-51279257D01*
X91677346Y-51260635D01*
X91677534Y-51258619D01*
X91686475Y-51210144D01*
X91710094Y-51188002D01*
X91762525Y-51179402D01*
X91765319Y-51179167D01*
X91820006Y-51178513D01*
X91847054Y-51194089D01*
G37*
G36*
X92351310Y-51183758D02*
G01*
X92347551Y-51215125D01*
X92324812Y-51276742D01*
X92321922Y-51283732D01*
X92294645Y-51343885D01*
X92272423Y-51383245D01*
X92263324Y-51392174D01*
X92249829Y-51373154D01*
X92229669Y-51324670D01*
X92215630Y-51283441D01*
X92197264Y-51215314D01*
X92196862Y-51181318D01*
X92206870Y-51174999D01*
X92234347Y-51192653D01*
X92254251Y-51223929D01*
X92276108Y-51272859D01*
X92291659Y-51223929D01*
X92314912Y-51185892D01*
X92337160Y-51174999D01*
X92351310Y-51183758D01*
G37*
G36*
X92609664Y-51181708D02*
G01*
X92629935Y-51195983D01*
X92616209Y-51213094D01*
X92581549Y-51222417D01*
X92542744Y-51241223D01*
X92532619Y-51283732D01*
X92544585Y-51328548D01*
X92581549Y-51345048D01*
X92623128Y-51358842D01*
X92626330Y-51376822D01*
X92594297Y-51390220D01*
X92564556Y-51392465D01*
X92513945Y-51383336D01*
X92486911Y-51361915D01*
X92480723Y-51319909D01*
X92481969Y-51260635D01*
X92482157Y-51258619D01*
X92492322Y-51207951D01*
X92519083Y-51185879D01*
X92559802Y-51179058D01*
X92609664Y-51181708D01*
G37*
G36*
X92843756Y-51276908D02*
G01*
X92837831Y-51340003D01*
X92824979Y-51371830D01*
X92796719Y-51384588D01*
X92766245Y-51388417D01*
X92705686Y-51384014D01*
X92683163Y-51363304D01*
X92676598Y-51320209D01*
X92677541Y-51269579D01*
X92718664Y-51269579D01*
X92726511Y-51319431D01*
X92748529Y-51345317D01*
X92773122Y-51336505D01*
X92790560Y-51300012D01*
X92793578Y-51271047D01*
X92783690Y-51220729D01*
X92761256Y-51207619D01*
X92731520Y-51225829D01*
X92718664Y-51269579D01*
X92677541Y-51269579D01*
X92677712Y-51260379D01*
X92677876Y-51258619D01*
X92686598Y-51210593D01*
X92709598Y-51188384D01*
X92760822Y-51179628D01*
X92767643Y-51179049D01*
X92850441Y-51172225D01*
X92843756Y-51276908D01*
G37*
G36*
X93123001Y-51203991D02*
G01*
X93130650Y-51261986D01*
X93131026Y-51321056D01*
X93131962Y-51359980D01*
X93132281Y-51364738D01*
X93117233Y-51385363D01*
X93110534Y-51388297D01*
X93093488Y-51375475D01*
X93085685Y-51334474D01*
X93083498Y-51292965D01*
X93076017Y-51291973D01*
X93060615Y-51321789D01*
X93031724Y-51363668D01*
X93003764Y-51362799D01*
X92980166Y-51332662D01*
X92963436Y-51309063D01*
X92957900Y-51324484D01*
X92957339Y-51343535D01*
X92943491Y-51383887D01*
X92921339Y-51392465D01*
X92898098Y-51383429D01*
X92895406Y-51349135D01*
X92899593Y-51324507D01*
X92909429Y-51262620D01*
X92913184Y-51215774D01*
X92924579Y-51181231D01*
X92950947Y-51178323D01*
X92980566Y-51204346D01*
X92995766Y-51234802D01*
X93016733Y-51294605D01*
X93040533Y-51234802D01*
X93071034Y-51184291D01*
X93100843Y-51174720D01*
X93123001Y-51203991D01*
G37*
G36*
X93344783Y-51283732D02*
G01*
X93345625Y-51392465D01*
X93270757Y-51392465D01*
X93195890Y-51392465D01*
X93195890Y-51325594D01*
X93243551Y-51325594D01*
X93254048Y-51345424D01*
X93272003Y-51348972D01*
X93299068Y-51337938D01*
X93300454Y-51325594D01*
X93278004Y-51303127D01*
X93272003Y-51302217D01*
X93246504Y-51319147D01*
X93243551Y-51325594D01*
X93195890Y-51325594D01*
X93195890Y-51283732D01*
X93195890Y-51218492D01*
X93239383Y-51218492D01*
X93257084Y-51237577D01*
X93273286Y-51240239D01*
X93295795Y-51229696D01*
X93293749Y-51218492D01*
X93265947Y-51197575D01*
X93259846Y-51196746D01*
X93239969Y-51213333D01*
X93239383Y-51218492D01*
X93195890Y-51218492D01*
X93195890Y-51174999D01*
X93269915Y-51174999D01*
X93343941Y-51174999D01*
X93344783Y-51283732D01*
G37*
G36*
X93526111Y-51206426D02*
G01*
X93539738Y-51234802D01*
X93568681Y-51315620D01*
X93579844Y-51364121D01*
X93573960Y-51387343D01*
X93556174Y-51392465D01*
X93526306Y-51381164D01*
X93522088Y-51370718D01*
X93504474Y-51351425D01*
X93489468Y-51348972D01*
X93460529Y-51360714D01*
X93456849Y-51370718D01*
X93439119Y-51389732D01*
X93422501Y-51392465D01*
X93400371Y-51383728D01*
X93398282Y-51350344D01*
X93403519Y-51322502D01*
X93410272Y-51300861D01*
X93470279Y-51300861D01*
X93479278Y-51305479D01*
X93497969Y-51287854D01*
X93500342Y-51272859D01*
X93495689Y-51243844D01*
X93491795Y-51240239D01*
X93477773Y-51257244D01*
X93470731Y-51272859D01*
X93470279Y-51300861D01*
X93410272Y-51300861D01*
X93429446Y-51239414D01*
X93461019Y-51190763D01*
X93494490Y-51178962D01*
X93526111Y-51206426D01*
G37*
G36*
X93743549Y-51179319D02*
G01*
X93778557Y-51190247D01*
X93783047Y-51196746D01*
X93765433Y-51216039D01*
X93750427Y-51218492D01*
X93727746Y-51232856D01*
X93718399Y-51280471D01*
X93717807Y-51305479D01*
X93712421Y-51365963D01*
X93694566Y-51390886D01*
X93685188Y-51392465D01*
X93662506Y-51378101D01*
X93653160Y-51330487D01*
X93652568Y-51305479D01*
X93647181Y-51244994D01*
X93629326Y-51220071D01*
X93619948Y-51218492D01*
X93591008Y-51206750D01*
X93587328Y-51196746D01*
X93606765Y-51183777D01*
X93655942Y-51175997D01*
X93685188Y-51174999D01*
X93743549Y-51179319D01*
G37*
G36*
X93857927Y-51186640D02*
G01*
X93867946Y-51226941D01*
X93870033Y-51283732D01*
X93866541Y-51352110D01*
X93854451Y-51385507D01*
X93837414Y-51392465D01*
X93816900Y-51380825D01*
X93806881Y-51340523D01*
X93804794Y-51283732D01*
X93808286Y-51215354D01*
X93820376Y-51181957D01*
X93837414Y-51174999D01*
X93857927Y-51186640D01*
G37*
G36*
X94130577Y-51182369D02*
G01*
X94132097Y-51191309D01*
X94135318Y-51221279D01*
X94142106Y-51277296D01*
X94145297Y-51302630D01*
X94150070Y-51362036D01*
X94143134Y-51386990D01*
X94127882Y-51387360D01*
X94106054Y-51360477D01*
X94104402Y-51335842D01*
X94106806Y-51307896D01*
X94095718Y-51313988D01*
X94077137Y-51336930D01*
X94046588Y-51364597D01*
X94020501Y-51355808D01*
X94017829Y-51353240D01*
X93983783Y-51329318D01*
X93967033Y-51336129D01*
X93970902Y-51359845D01*
X93969945Y-51387774D01*
X93959346Y-51392465D01*
X93944482Y-51372347D01*
X93936268Y-51318006D01*
X93935273Y-51283732D01*
X93940794Y-51211562D01*
X93956044Y-51179339D01*
X93979051Y-51188179D01*
X94007847Y-51239194D01*
X94009053Y-51242037D01*
X94037240Y-51309074D01*
X94065008Y-51242037D01*
X94090504Y-51196115D01*
X94115178Y-51174095D01*
X94130577Y-51182369D01*
G37*
G36*
X94373100Y-51204005D02*
G01*
X94391886Y-51257523D01*
X94391951Y-51261672D01*
X94385264Y-51336170D01*
X94361140Y-51376822D01*
X94313487Y-51391774D01*
X94294092Y-51392465D01*
X94234361Y-51381839D01*
X94209432Y-51358067D01*
X94199569Y-51311103D01*
X94197400Y-51278295D01*
X94265531Y-51278295D01*
X94266280Y-51329055D01*
X94284556Y-51348046D01*
X94294092Y-51348972D01*
X94318411Y-51337696D01*
X94324043Y-51297524D01*
X94322653Y-51278295D01*
X94312150Y-51230153D01*
X94295724Y-51207813D01*
X94294092Y-51207619D01*
X94277442Y-51226667D01*
X94266096Y-51273051D01*
X94265531Y-51278295D01*
X94197400Y-51278295D01*
X94196232Y-51260621D01*
X94205771Y-51210547D01*
X94241071Y-51186530D01*
X94249029Y-51184323D01*
X94323996Y-51178801D01*
X94373100Y-51204005D01*
G37*
G36*
X94562862Y-51180215D02*
G01*
X94577858Y-51194253D01*
X94576578Y-51197101D01*
X94550516Y-51209646D01*
X94542675Y-51206690D01*
X94507772Y-51204665D01*
X94498761Y-51208808D01*
X94496207Y-51227555D01*
X94525944Y-51248790D01*
X94568908Y-51291010D01*
X94576797Y-51327867D01*
X94569221Y-51366327D01*
X94538035Y-51383797D01*
X94506121Y-51388406D01*
X94457480Y-51386907D01*
X94435599Y-51373661D01*
X94435444Y-51372096D01*
X94454046Y-51354716D01*
X94489811Y-51348972D01*
X94530682Y-51341669D01*
X94544177Y-51327640D01*
X94525725Y-51307027D01*
X94489811Y-51292662D01*
X94446195Y-51267852D01*
X94435444Y-51227008D01*
X94441443Y-51191963D01*
X94467830Y-51177473D01*
X94512841Y-51174999D01*
X94562862Y-51180215D01*
G37*
G36*
X94799700Y-51179123D02*
G01*
X94853348Y-51187061D01*
X94876272Y-51206230D01*
X94881243Y-51247858D01*
X94881249Y-51250814D01*
X94872028Y-51302080D01*
X94840261Y-51323408D01*
X94837756Y-51323915D01*
X94793298Y-51344584D01*
X94776872Y-51362269D01*
X94750640Y-51391455D01*
X94731130Y-51379753D01*
X94720047Y-51329479D01*
X94718150Y-51282419D01*
X94718150Y-51251112D01*
X94783390Y-51251112D01*
X94795132Y-51280052D01*
X94805136Y-51283732D01*
X94824429Y-51266118D01*
X94826883Y-51251112D01*
X94815140Y-51222173D01*
X94805136Y-51218492D01*
X94785843Y-51236106D01*
X94783390Y-51251112D01*
X94718150Y-51251112D01*
X94718150Y-51172374D01*
X94799700Y-51179123D01*
G37*
G36*
X95038646Y-51193223D02*
G01*
X95061999Y-51234802D01*
X95090942Y-51315620D01*
X95102104Y-51364121D01*
X95096220Y-51387343D01*
X95078434Y-51392465D01*
X95048566Y-51381164D01*
X95044349Y-51370718D01*
X95026135Y-51353050D01*
X95000855Y-51348972D01*
X94965518Y-51358079D01*
X94957362Y-51370718D01*
X94940814Y-51391833D01*
X94935616Y-51392465D01*
X94914976Y-51375554D01*
X94913869Y-51367805D01*
X94919746Y-51332401D01*
X94934336Y-51275269D01*
X94935039Y-51272859D01*
X94979109Y-51272859D01*
X94990851Y-51301798D01*
X95000855Y-51305479D01*
X95020149Y-51287865D01*
X95022602Y-51272859D01*
X95010859Y-51243919D01*
X95000855Y-51240239D01*
X94981562Y-51257853D01*
X94979109Y-51272859D01*
X94935039Y-51272859D01*
X94939058Y-51259072D01*
X94968168Y-51197845D01*
X95003376Y-51175499D01*
X95038646Y-51193223D01*
G37*
G36*
X95294071Y-51187450D02*
G01*
X95324508Y-51221287D01*
X95317295Y-51271240D01*
X95310298Y-51283822D01*
X95298215Y-51324440D01*
X95310853Y-51345819D01*
X95326934Y-51373996D01*
X95313264Y-51385471D01*
X95281886Y-51375575D01*
X95265672Y-51363336D01*
X95222504Y-51331612D01*
X95200732Y-51335688D01*
X95196575Y-51359845D01*
X95184832Y-51388785D01*
X95174828Y-51392465D01*
X95162423Y-51372907D01*
X95154549Y-51322899D01*
X95153081Y-51283732D01*
X95153081Y-51251112D01*
X95196575Y-51251112D01*
X95213982Y-51279943D01*
X95229194Y-51283732D01*
X95258025Y-51266325D01*
X95261814Y-51251112D01*
X95244407Y-51222281D01*
X95229194Y-51218492D01*
X95200363Y-51235900D01*
X95196575Y-51251112D01*
X95153081Y-51251112D01*
X95153081Y-51174999D01*
X95229877Y-51174999D01*
X95294071Y-51187450D01*
G37*
G36*
X95516352Y-51194473D02*
G01*
X95542803Y-51254506D01*
X95543376Y-51256549D01*
X95561786Y-51333360D01*
X95563805Y-51376370D01*
X95549486Y-51392042D01*
X95544520Y-51392465D01*
X95523405Y-51375916D01*
X95522773Y-51370718D01*
X95504559Y-51353050D01*
X95479280Y-51348972D01*
X95443943Y-51358079D01*
X95435787Y-51370718D01*
X95419238Y-51391833D01*
X95414040Y-51392465D01*
X95397580Y-51373886D01*
X95392294Y-51339122D01*
X95402611Y-51271575D01*
X95457533Y-51271575D01*
X95468887Y-51301329D01*
X95479280Y-51305479D01*
X95500404Y-51289871D01*
X95501027Y-51285016D01*
X95485219Y-51255563D01*
X95479280Y-51251112D01*
X95460663Y-51256042D01*
X95457533Y-51271575D01*
X95402611Y-51271575D01*
X95402937Y-51269444D01*
X95430042Y-51211406D01*
X95466366Y-51178291D01*
X95481749Y-51174999D01*
X95516352Y-51194473D01*
G37*
G36*
X95741088Y-51197376D02*
G01*
X95757893Y-51244973D01*
X95761653Y-51278295D01*
X95768742Y-51319605D01*
X95784824Y-51323623D01*
X95803363Y-51293683D01*
X95814917Y-51251112D01*
X95831848Y-51200323D01*
X95854870Y-51175552D01*
X95858577Y-51174999D01*
X95875995Y-51191700D01*
X95875876Y-51233172D01*
X95862342Y-51286467D01*
X95839516Y-51338640D01*
X95811519Y-51376744D01*
X95790713Y-51388165D01*
X95761225Y-51384821D01*
X95740508Y-51357835D01*
X95721558Y-51297736D01*
X95720381Y-51293097D01*
X95707297Y-51224635D01*
X95707690Y-51183227D01*
X95720417Y-51174151D01*
X95741088Y-51197376D01*
G37*
G36*
X96040963Y-51181793D02*
G01*
X96065244Y-51196861D01*
X96058338Y-51212227D01*
X96017508Y-51219871D01*
X95984998Y-51222079D01*
X95989936Y-51230063D01*
X96022944Y-51245389D01*
X96060180Y-51263236D01*
X96059029Y-51271815D01*
X96028381Y-51278143D01*
X95990277Y-51296949D01*
X95980980Y-51324664D01*
X96001682Y-51345758D01*
X96022944Y-51348972D01*
X96058282Y-51358079D01*
X96066438Y-51370718D01*
X96047321Y-51385092D01*
X96000313Y-51392277D01*
X95990325Y-51392465D01*
X95914212Y-51392465D01*
X95914212Y-51283732D01*
X95914212Y-51174999D01*
X95990325Y-51174999D01*
X96040963Y-51181793D01*
G37*
G36*
X96296309Y-51194557D02*
G01*
X96304182Y-51244565D01*
X96305650Y-51283732D01*
X96298089Y-51357162D01*
X96278033Y-51392066D01*
X96249417Y-51386918D01*
X96216180Y-51340188D01*
X96207592Y-51321789D01*
X96176873Y-51251112D01*
X96176022Y-51321789D01*
X96168004Y-51371803D01*
X96149895Y-51393930D01*
X96128389Y-51380952D01*
X96125610Y-51376155D01*
X96119287Y-51345896D01*
X96113863Y-51289793D01*
X96112572Y-51267422D01*
X96112543Y-51208902D01*
X96123320Y-51181955D01*
X96150028Y-51175034D01*
X96153593Y-51174999D01*
X96198674Y-51195811D01*
X96229735Y-51245676D01*
X96260454Y-51316352D01*
X96261306Y-51245676D01*
X96267740Y-51197556D01*
X96282267Y-51175198D01*
X96283903Y-51174999D01*
X96296309Y-51194557D01*
G37*
G36*
X96696562Y-51181287D02*
G01*
X96705475Y-51196551D01*
X96674283Y-51215395D01*
X96642722Y-51224732D01*
X96614779Y-51232825D01*
X96628037Y-51236495D01*
X96648158Y-51237716D01*
X96689624Y-51249301D01*
X96691674Y-51270447D01*
X96653595Y-51290033D01*
X96615688Y-51310665D01*
X96616074Y-51334156D01*
X96652238Y-51348316D01*
X96665752Y-51348972D01*
X96702751Y-51355875D01*
X96707962Y-51370718D01*
X96678564Y-51386386D01*
X96630565Y-51392465D01*
X96592700Y-51389983D01*
X96573817Y-51375061D01*
X96567321Y-51336484D01*
X96566609Y-51283732D01*
X96566609Y-51174999D01*
X96647071Y-51174999D01*
X96696562Y-51181287D01*
G37*
G36*
X96843878Y-51179123D02*
G01*
X96898762Y-51188067D01*
X96923944Y-51209490D01*
X96932308Y-51245676D01*
X96929006Y-51292297D01*
X96911649Y-51305479D01*
X96895317Y-51311824D01*
X96910205Y-51331575D01*
X96934577Y-51368492D01*
X96923229Y-51389814D01*
X96906007Y-51392465D01*
X96872436Y-51374924D01*
X96863197Y-51359845D01*
X96840190Y-51331030D01*
X96828250Y-51327225D01*
X96808355Y-51344828D01*
X96805821Y-51359845D01*
X96794079Y-51388785D01*
X96784075Y-51392465D01*
X96771733Y-51372893D01*
X96763853Y-51322794D01*
X96762328Y-51282419D01*
X96762328Y-51251112D01*
X96805821Y-51251112D01*
X96823229Y-51279943D01*
X96838441Y-51283732D01*
X96867272Y-51266325D01*
X96871061Y-51251112D01*
X96853653Y-51222281D01*
X96838441Y-51218492D01*
X96809610Y-51235900D01*
X96805821Y-51251112D01*
X96762328Y-51251112D01*
X96762328Y-51172374D01*
X96843878Y-51179123D01*
G37*
G36*
X88661311Y-49935690D02*
G01*
X88694772Y-49944351D01*
X88710683Y-49959644D01*
X88715527Y-49982981D01*
X88715798Y-50006121D01*
X88711660Y-50071934D01*
X88702935Y-50123638D01*
X88688839Y-50154416D01*
X88660691Y-50159992D01*
X88621826Y-50150821D01*
X88525982Y-50133795D01*
X88431372Y-50134449D01*
X88354073Y-50152004D01*
X88329496Y-50165017D01*
X88308875Y-50182254D01*
X88295126Y-50205168D01*
X88286867Y-50242080D01*
X88282715Y-50301311D01*
X88281288Y-50391181D01*
X88281164Y-50455933D01*
X88282478Y-50574043D01*
X88286917Y-50655406D01*
X88295222Y-50706703D01*
X88308135Y-50734615D01*
X88312615Y-50739098D01*
X88356269Y-50753708D01*
X88439516Y-50759434D01*
X88518148Y-50758070D01*
X88605334Y-50755454D01*
X88658513Y-50757620D01*
X88687072Y-50766407D01*
X88700398Y-50783652D01*
X88703866Y-50794434D01*
X88717042Y-50882481D01*
X88702270Y-50940826D01*
X88667165Y-50965573D01*
X88599376Y-50975827D01*
X88508247Y-50979463D01*
X88408055Y-50977089D01*
X88313078Y-50969312D01*
X88237594Y-50956737D01*
X88205051Y-50945939D01*
X88143945Y-50905042D01*
X88100230Y-50847776D01*
X88071062Y-50767026D01*
X88053597Y-50655682D01*
X88046541Y-50549543D01*
X88043127Y-50367904D01*
X88051717Y-50224529D01*
X88074631Y-50115281D01*
X88114188Y-50036020D01*
X88172706Y-49982611D01*
X88252506Y-49950916D01*
X88355906Y-49936796D01*
X88390796Y-49935394D01*
X88515806Y-49932622D01*
X88603816Y-49932251D01*
X88661311Y-49935690D01*
G37*
G36*
X89326613Y-49930399D02*
G01*
X89389998Y-49937974D01*
X89439401Y-49955378D01*
X89480361Y-49979460D01*
X89531306Y-50015554D01*
X89567984Y-50051242D01*
X89592971Y-50094437D01*
X89608840Y-50153053D01*
X89618166Y-50235005D01*
X89623525Y-50348206D01*
X89625703Y-50426200D01*
X89627549Y-50578788D01*
X89623114Y-50694620D01*
X89610439Y-50780217D01*
X89587566Y-50842102D01*
X89552536Y-50886795D01*
X89503392Y-50920818D01*
X89472607Y-50936006D01*
X89390720Y-50960265D01*
X89284664Y-50974448D01*
X89172851Y-50977358D01*
X89073689Y-50967792D01*
X89053167Y-50963345D01*
X88968146Y-50922375D01*
X88894084Y-50850882D01*
X88858049Y-50792630D01*
X88842199Y-50751408D01*
X88832066Y-50701650D01*
X88826916Y-50634390D01*
X88826014Y-50540662D01*
X88826097Y-50536338D01*
X89066158Y-50536338D01*
X89074047Y-50639765D01*
X89093109Y-50709883D01*
X89124387Y-50751305D01*
X89152228Y-50765164D01*
X89236034Y-50773726D01*
X89319121Y-50756605D01*
X89372502Y-50725566D01*
X89390916Y-50702390D01*
X89402677Y-50667064D01*
X89409159Y-50610622D01*
X89411734Y-50524100D01*
X89411986Y-50467798D01*
X89410841Y-50362927D01*
X89406319Y-50291380D01*
X89396783Y-50243024D01*
X89380599Y-50207723D01*
X89366914Y-50188463D01*
X89318950Y-50145806D01*
X89255555Y-50131463D01*
X89240591Y-50131164D01*
X89172198Y-50135857D01*
X89125454Y-50154559D01*
X89095833Y-50194203D01*
X89078811Y-50261719D01*
X89069864Y-50364040D01*
X89068396Y-50394989D01*
X89066158Y-50536338D01*
X88826097Y-50536338D01*
X88828185Y-50427946D01*
X88831989Y-50308692D01*
X88837030Y-50224065D01*
X88844751Y-50165199D01*
X88856597Y-50123228D01*
X88874014Y-50089286D01*
X88886346Y-50071032D01*
X88946289Y-50004373D01*
X89018925Y-49961257D01*
X89114151Y-49937666D01*
X89234578Y-49929681D01*
X89326613Y-49930399D01*
G37*
G36*
X90042636Y-50347493D02*
G01*
X90042636Y-50761814D01*
X90249229Y-50761814D01*
X90455821Y-50761814D01*
X90455821Y-50870547D01*
X90455821Y-50979280D01*
X90139813Y-50979280D01*
X90006766Y-50978213D01*
X89912353Y-50974738D01*
X89851762Y-50968449D01*
X89820179Y-50958938D01*
X89813185Y-50951605D01*
X89810365Y-50922622D01*
X89808347Y-50856763D01*
X89807191Y-50760641D01*
X89806960Y-50640867D01*
X89807713Y-50504053D01*
X89808431Y-50435124D01*
X89814297Y-49946318D01*
X89928467Y-49939745D01*
X90042636Y-49933171D01*
X90042636Y-50347493D01*
G37*
G36*
X91065766Y-49936860D02*
G01*
X91159579Y-49963090D01*
X91236122Y-50012189D01*
X91282191Y-50058415D01*
X91302782Y-50083489D01*
X91317385Y-50109295D01*
X91327028Y-50143405D01*
X91332738Y-50193392D01*
X91335543Y-50266829D01*
X91336473Y-50371288D01*
X91336557Y-50458916D01*
X91335987Y-50590300D01*
X91333806Y-50685175D01*
X91329309Y-50750514D01*
X91321792Y-50793291D01*
X91310551Y-50820481D01*
X91298501Y-50835597D01*
X91269201Y-50871382D01*
X91260444Y-50891486D01*
X91242164Y-50909681D01*
X91196178Y-50934393D01*
X91173018Y-50944299D01*
X91077978Y-50969173D01*
X90965773Y-50979136D01*
X90852904Y-50974380D01*
X90755871Y-50955095D01*
X90716441Y-50939014D01*
X90651530Y-50892170D01*
X90595434Y-50832300D01*
X90591737Y-50827065D01*
X90571939Y-50794692D01*
X90558318Y-50760007D01*
X90549734Y-50714408D01*
X90545049Y-50649291D01*
X90543124Y-50556055D01*
X90542809Y-50458070D01*
X90782020Y-50458070D01*
X90783073Y-50574982D01*
X90787817Y-50655945D01*
X90798628Y-50708482D01*
X90817879Y-50740117D01*
X90847948Y-50758375D01*
X90879879Y-50768030D01*
X90943018Y-50772262D01*
X91014892Y-50761939D01*
X91072282Y-50740886D01*
X91081035Y-50734894D01*
X91094314Y-50706045D01*
X91103015Y-50642553D01*
X91107459Y-50541116D01*
X91108218Y-50455933D01*
X91107693Y-50345890D01*
X91105195Y-50271016D01*
X91099343Y-50222990D01*
X91088753Y-50193489D01*
X91072044Y-50174194D01*
X91059887Y-50165017D01*
X90992842Y-50137915D01*
X90914738Y-50133458D01*
X90845292Y-50151469D01*
X90821789Y-50167154D01*
X90804418Y-50188409D01*
X90792888Y-50220287D01*
X90786067Y-50271069D01*
X90782821Y-50349034D01*
X90782020Y-50458070D01*
X90542809Y-50458070D01*
X90542807Y-50457362D01*
X90543364Y-50335919D01*
X90545795Y-50249332D01*
X90551241Y-50188969D01*
X90560842Y-50146198D01*
X90575740Y-50112387D01*
X90591811Y-50086626D01*
X90660808Y-50007196D01*
X90745012Y-49957337D01*
X90853456Y-49932990D01*
X90942680Y-49928925D01*
X91065766Y-49936860D01*
G37*
G36*
X91737808Y-49937353D02*
G01*
X91775327Y-49949487D01*
X91800560Y-49981458D01*
X91822427Y-50027867D01*
X91851707Y-50100447D01*
X91874609Y-50168910D01*
X91879014Y-50185530D01*
X91899381Y-50253470D01*
X91925392Y-50321446D01*
X91957028Y-50393545D01*
X91988955Y-50466085D01*
X92011063Y-50522864D01*
X92022652Y-50565455D01*
X92023046Y-50569382D01*
X92030757Y-50574180D01*
X92047256Y-50544690D01*
X92047399Y-50544349D01*
X92072639Y-50485080D01*
X92089358Y-50446489D01*
X92104415Y-50408902D01*
X92130398Y-50340837D01*
X92163375Y-50252694D01*
X92192169Y-50174657D01*
X92275903Y-49946318D01*
X92393388Y-49946318D01*
X92510873Y-49946318D01*
X92525051Y-50337756D01*
X92530535Y-50474251D01*
X92536773Y-50605191D01*
X92543213Y-50720470D01*
X92549300Y-50809984D01*
X92553314Y-50854237D01*
X92567399Y-50979280D01*
X92458869Y-50979280D01*
X92393892Y-50975519D01*
X92348759Y-50965930D01*
X92337756Y-50958919D01*
X92332707Y-50930177D01*
X92328477Y-50867454D01*
X92325534Y-50780260D01*
X92324369Y-50687087D01*
X92322835Y-50588358D01*
X92319266Y-50507879D01*
X92314201Y-50454203D01*
X92308486Y-50435825D01*
X92294903Y-50454917D01*
X92270687Y-50506080D01*
X92239847Y-50580426D01*
X92220178Y-50631544D01*
X92146949Y-50827054D01*
X92033566Y-50827054D01*
X91920183Y-50827054D01*
X91834963Y-50615025D01*
X91749742Y-50402996D01*
X91743675Y-50691138D01*
X91737607Y-50979280D01*
X91630788Y-50979280D01*
X91567476Y-50976248D01*
X91525163Y-50968523D01*
X91516055Y-50962970D01*
X91514158Y-50936490D01*
X91514138Y-50874229D01*
X91515713Y-50783845D01*
X91518602Y-50672994D01*
X91522521Y-50549336D01*
X91527189Y-50420529D01*
X91532324Y-50294229D01*
X91537643Y-50178097D01*
X91542865Y-50079788D01*
X91547707Y-50006962D01*
X91551888Y-49967276D01*
X91552882Y-49963197D01*
X91581774Y-49944817D01*
X91646428Y-49935988D01*
X91672403Y-49935444D01*
X91737808Y-49937353D01*
G37*
G36*
X93128814Y-49936981D02*
G01*
X93221455Y-49943144D01*
X93288386Y-49956259D01*
X93338467Y-49978654D01*
X93380558Y-50012657D01*
X93407892Y-50042157D01*
X93446153Y-50114816D01*
X93459680Y-50204654D01*
X93448518Y-50294640D01*
X93412713Y-50367746D01*
X93407010Y-50374309D01*
X93357171Y-50428086D01*
X93417883Y-50483713D01*
X93451229Y-50518846D01*
X93469533Y-50556235D01*
X93477186Y-50610217D01*
X93478595Y-50681984D01*
X93472484Y-50777680D01*
X93451002Y-50850991D01*
X93409431Y-50904689D01*
X93343048Y-50941544D01*
X93247134Y-50964328D01*
X93116968Y-50975810D01*
X92972987Y-50978761D01*
X92739212Y-50979280D01*
X92739212Y-50783561D01*
X92978424Y-50783561D01*
X93071445Y-50783561D01*
X93142237Y-50775671D01*
X93202035Y-50756080D01*
X93212797Y-50749708D01*
X93253477Y-50698928D01*
X93255654Y-50637663D01*
X93225139Y-50584117D01*
X93178851Y-50555510D01*
X93103042Y-50544634D01*
X93083786Y-50544349D01*
X92978424Y-50544349D01*
X92978424Y-50663955D01*
X92978424Y-50783561D01*
X92739212Y-50783561D01*
X92739212Y-50663955D01*
X92739212Y-50457362D01*
X92739212Y-50370376D01*
X92978424Y-50370376D01*
X93063857Y-50370376D01*
X93131162Y-50361546D01*
X93180084Y-50339273D01*
X93183463Y-50336203D01*
X93212378Y-50279998D01*
X93215110Y-50206651D01*
X93204436Y-50165562D01*
X93180204Y-50142631D01*
X93125251Y-50132309D01*
X93084830Y-50131164D01*
X92978424Y-50131164D01*
X92978424Y-50250770D01*
X92978424Y-50370376D01*
X92739212Y-50370376D01*
X92739212Y-50250770D01*
X92739212Y-49935444D01*
X93001600Y-49935444D01*
X93128814Y-49936981D01*
G37*
G36*
X93870033Y-50456226D02*
G01*
X93870033Y-50979280D01*
X93760618Y-50979280D01*
X93686251Y-50973761D01*
X93645390Y-50958288D01*
X93640583Y-50951605D01*
X93637762Y-50922622D01*
X93635744Y-50856763D01*
X93634589Y-50760641D01*
X93634357Y-50640867D01*
X93635110Y-50504053D01*
X93635829Y-50435124D01*
X93641694Y-49946318D01*
X93755864Y-49939745D01*
X93870033Y-49933171D01*
X93870033Y-50456226D01*
G37*
G36*
X94698862Y-50207277D02*
G01*
X94736133Y-50326893D01*
X94774102Y-50449995D01*
X94807881Y-50560667D01*
X94829129Y-50631335D01*
X94854150Y-50711647D01*
X94876414Y-50776232D01*
X94891772Y-50813197D01*
X94893614Y-50816181D01*
X94907559Y-50852210D01*
X94917195Y-50903167D01*
X94924742Y-50968407D01*
X94806176Y-50968407D01*
X94687610Y-50968407D01*
X94663847Y-50870547D01*
X94640084Y-50772688D01*
X94472475Y-50766335D01*
X94382062Y-50764493D01*
X94324906Y-50772040D01*
X94290832Y-50796033D01*
X94269668Y-50843531D01*
X94251689Y-50919477D01*
X94241166Y-50953816D01*
X94220656Y-50971645D01*
X94178262Y-50978335D01*
X94119290Y-50979280D01*
X94051139Y-50978378D01*
X94017073Y-50972103D01*
X94007685Y-50955103D01*
X94013567Y-50922025D01*
X94014185Y-50919477D01*
X94027730Y-50869725D01*
X94050021Y-50793915D01*
X94076527Y-50707407D01*
X94079839Y-50696838D01*
X94104179Y-50615992D01*
X94122237Y-50549604D01*
X94123252Y-50544857D01*
X94356255Y-50544857D01*
X94370684Y-50560437D01*
X94414308Y-50568604D01*
X94450681Y-50571813D01*
X94513237Y-50577343D01*
X94554791Y-50582184D01*
X94563267Y-50583922D01*
X94565237Y-50567382D01*
X94560532Y-50521127D01*
X94556905Y-50496676D01*
X94540641Y-50418456D01*
X94517013Y-50329742D01*
X94507366Y-50298623D01*
X94485284Y-50240971D01*
X94466161Y-50218989D01*
X94447216Y-50234530D01*
X94425665Y-50289450D01*
X94403363Y-50367940D01*
X94383956Y-50439155D01*
X94366528Y-50499764D01*
X94361556Y-50515930D01*
X94356255Y-50544857D01*
X94123252Y-50544857D01*
X94130730Y-50509903D01*
X94130992Y-50506261D01*
X94140858Y-50464530D01*
X94151595Y-50440757D01*
X94167940Y-50400442D01*
X94191687Y-50329155D01*
X94219459Y-50238061D01*
X94247876Y-50138322D01*
X94273560Y-50041105D01*
X94278198Y-50022431D01*
X94296856Y-49946318D01*
X94456952Y-49946318D01*
X94617047Y-49946318D01*
X94698862Y-50207277D01*
G37*
G36*
X95272966Y-49936285D02*
G01*
X95319944Y-49941830D01*
X95346310Y-49956613D01*
X95363504Y-49985168D01*
X95372275Y-50006121D01*
X95392088Y-50051295D01*
X95426504Y-50126218D01*
X95471152Y-50221503D01*
X95521659Y-50327764D01*
X95536879Y-50359503D01*
X95672733Y-50642208D01*
X95679303Y-50294263D01*
X95685873Y-49946318D01*
X95794605Y-49946318D01*
X95903338Y-49946318D01*
X95903338Y-50457362D01*
X95903338Y-50968407D01*
X95757665Y-50974812D01*
X95611992Y-50981216D01*
X95457607Y-50670404D01*
X95403729Y-50563198D01*
X95355364Y-50469315D01*
X95316288Y-50395906D01*
X95290280Y-50350123D01*
X95282518Y-50338887D01*
X95274093Y-50350790D01*
X95267728Y-50403588D01*
X95263593Y-50494723D01*
X95261858Y-50621637D01*
X95261814Y-50648732D01*
X95261814Y-50979280D01*
X95153081Y-50979280D01*
X95044349Y-50979280D01*
X95044349Y-50457362D01*
X95044349Y-49935444D01*
X95193936Y-49935444D01*
X95272966Y-49936285D01*
G37*
G36*
X96484700Y-49939990D02*
G01*
X96635912Y-49946318D01*
X96685951Y-50098544D01*
X96717930Y-50198744D01*
X96750496Y-50305393D01*
X96772567Y-50381249D01*
X96795264Y-50458224D01*
X96816418Y-50523351D01*
X96828430Y-50555222D01*
X96845877Y-50603767D01*
X96868958Y-50679695D01*
X96893504Y-50768015D01*
X96915346Y-50853736D01*
X96930094Y-50920705D01*
X96941598Y-50981737D01*
X96825576Y-50975072D01*
X96757991Y-50969545D01*
X96721608Y-50958149D01*
X96704158Y-50933615D01*
X96695222Y-50897864D01*
X96677129Y-50832887D01*
X96648771Y-50792405D01*
X96600828Y-50770849D01*
X96523981Y-50762649D01*
X96467552Y-50761814D01*
X96384051Y-50762384D01*
X96333421Y-50769421D01*
X96305065Y-50790916D01*
X96288389Y-50834861D01*
X96272926Y-50908604D01*
X96262643Y-50948965D01*
X96244793Y-50970002D01*
X96207402Y-50978009D01*
X96138499Y-50979280D01*
X96138465Y-50979280D01*
X96070078Y-50978373D01*
X96035728Y-50972114D01*
X96025957Y-50955191D01*
X96031309Y-50922296D01*
X96031956Y-50919477D01*
X96045446Y-50868923D01*
X96071379Y-50779950D01*
X96108853Y-50655536D01*
X96135170Y-50569718D01*
X96370877Y-50569718D01*
X96386021Y-50573417D01*
X96434332Y-50573501D01*
X96520101Y-50569926D01*
X96562158Y-50567668D01*
X96579439Y-50553306D01*
X96579398Y-50508259D01*
X96575632Y-50484545D01*
X96561912Y-50425611D01*
X96546989Y-50385196D01*
X96544485Y-50381249D01*
X96531003Y-50347609D01*
X96516838Y-50289199D01*
X96512437Y-50264994D01*
X96499677Y-50212551D01*
X96485191Y-50187815D01*
X96478944Y-50188881D01*
X96468026Y-50214271D01*
X96449885Y-50269689D01*
X96427963Y-50342999D01*
X96405705Y-50422066D01*
X96386556Y-50494752D01*
X96373957Y-50548923D01*
X96370877Y-50569718D01*
X96135170Y-50569718D01*
X96156963Y-50498655D01*
X96214805Y-50312286D01*
X96266655Y-50146582D01*
X96333487Y-49933662D01*
X96484700Y-49939990D01*
G37*
G36*
X99120702Y-50035880D02*
G01*
X99151312Y-50053428D01*
X99146184Y-50064776D01*
X99133988Y-50065924D01*
X99104499Y-50050130D01*
X99100239Y-50044426D01*
X99103739Y-50032069D01*
X99120702Y-50035880D01*
G37*
G36*
X85910787Y-50033304D02*
G01*
X85899914Y-50044177D01*
X85889040Y-50033304D01*
X85899914Y-50022431D01*
X85910787Y-50033304D01*
G37*
G36*
X85975777Y-49995763D02*
G01*
X85976027Y-50000684D01*
X85959309Y-50021595D01*
X85952997Y-50022431D01*
X85940009Y-50009108D01*
X85943407Y-50000684D01*
X85962948Y-49979938D01*
X85966437Y-49978938D01*
X85975777Y-49995763D01*
G37*
G36*
X99038470Y-49986186D02*
G01*
X99041072Y-50011995D01*
X99038470Y-50015182D01*
X99025541Y-50012197D01*
X99023972Y-50000684D01*
X99031929Y-49982784D01*
X99038470Y-49986186D01*
G37*
G36*
X91594355Y-48266332D02*
G01*
X91631170Y-48315259D01*
X91633627Y-48339394D01*
X91626975Y-48342124D01*
X91594253Y-48346072D01*
X91528426Y-48352854D01*
X91439714Y-48361449D01*
X91358304Y-48369017D01*
X91165034Y-48388484D01*
X90953993Y-48412899D01*
X90734628Y-48440927D01*
X90516381Y-48471230D01*
X90308697Y-48502474D01*
X90121020Y-48533321D01*
X89962796Y-48562437D01*
X89901283Y-48575144D01*
X89805364Y-48595865D01*
X89689091Y-48620904D01*
X89574641Y-48645487D01*
X89553338Y-48650053D01*
X89448257Y-48673385D01*
X89342873Y-48698133D01*
X89256057Y-48719833D01*
X89238013Y-48724654D01*
X89156954Y-48746295D01*
X89054406Y-48772994D01*
X88951099Y-48799359D01*
X88940337Y-48802068D01*
X88830980Y-48831397D01*
X88705119Y-48867907D01*
X88587310Y-48904437D01*
X88570646Y-48909873D01*
X88475698Y-48940155D01*
X88387348Y-48966665D01*
X88320095Y-48985108D01*
X88302910Y-48989146D01*
X88245812Y-49004334D01*
X88207382Y-49019904D01*
X88205051Y-49021458D01*
X88166813Y-49040393D01*
X88139811Y-49049345D01*
X88095194Y-49063469D01*
X88020412Y-49089181D01*
X87925975Y-49122663D01*
X87822394Y-49160098D01*
X87720176Y-49197668D01*
X87629831Y-49231557D01*
X87561869Y-49257948D01*
X87536264Y-49268569D01*
X87493010Y-49287262D01*
X87417997Y-49319381D01*
X87319517Y-49361388D01*
X87205860Y-49409746D01*
X87117722Y-49447172D01*
X86976230Y-49509109D01*
X86811996Y-49584051D01*
X86640716Y-49664656D01*
X86478087Y-49743580D01*
X86391599Y-49786866D01*
X86250098Y-49858477D01*
X86143681Y-49911639D01*
X86068840Y-49947953D01*
X86022065Y-49969022D01*
X85999847Y-49976449D01*
X85998675Y-49971835D01*
X86009734Y-49961235D01*
X86039955Y-49940735D01*
X86097745Y-49905722D01*
X86174609Y-49860955D01*
X86262054Y-49811193D01*
X86351585Y-49761194D01*
X86434707Y-49715716D01*
X86502925Y-49679519D01*
X86547745Y-49657361D01*
X86560420Y-49652739D01*
X86587213Y-49638904D01*
X86588555Y-49636429D01*
X86609294Y-49622411D01*
X86662205Y-49593107D01*
X86740254Y-49552059D01*
X86836408Y-49502812D01*
X86943632Y-49448909D01*
X87054895Y-49393892D01*
X87163161Y-49341307D01*
X87261397Y-49294695D01*
X87324314Y-49265765D01*
X87452782Y-49208004D01*
X87547176Y-49166005D01*
X87612976Y-49137442D01*
X87655661Y-49119985D01*
X87680711Y-49111307D01*
X87693133Y-49109075D01*
X87721479Y-49100551D01*
X87777194Y-49078177D01*
X87848354Y-49046749D01*
X87850151Y-49045923D01*
X87938009Y-49008206D01*
X88026758Y-48974315D01*
X88085444Y-48955130D01*
X88148676Y-48935335D01*
X88194673Y-48917460D01*
X88205051Y-48911784D01*
X88236989Y-48897197D01*
X88303780Y-48872545D01*
X88398542Y-48840017D01*
X88514398Y-48801806D01*
X88644467Y-48760100D01*
X88781871Y-48717091D01*
X88919730Y-48674969D01*
X89051165Y-48635925D01*
X89169296Y-48602148D01*
X89227140Y-48586333D01*
X89741809Y-48462298D01*
X90288694Y-48356392D01*
X90859863Y-48270015D01*
X91325684Y-48216240D01*
X91532277Y-48195594D01*
X91594355Y-48266332D01*
G37*
G36*
X98980479Y-49946318D02*
G01*
X99001225Y-49965859D01*
X99002225Y-49969348D01*
X98985400Y-49978688D01*
X98980479Y-49978938D01*
X98959568Y-49962220D01*
X98958732Y-49955908D01*
X98972055Y-49942920D01*
X98980479Y-49946318D01*
G37*
G36*
X93633033Y-48216618D02*
G01*
X94068755Y-48263605D01*
X94474280Y-48318638D01*
X94844767Y-48381013D01*
X95066095Y-48425503D01*
X95148924Y-48443222D01*
X95217574Y-48457604D01*
X95258854Y-48465891D01*
X95261814Y-48466429D01*
X95347207Y-48484054D01*
X95464371Y-48512059D01*
X95605774Y-48548304D01*
X95763885Y-48590648D01*
X95931171Y-48636953D01*
X96100100Y-48685076D01*
X96263141Y-48732879D01*
X96412761Y-48778221D01*
X96541427Y-48818962D01*
X96641609Y-48852961D01*
X96697088Y-48874253D01*
X96756246Y-48899395D01*
X96794948Y-48915770D01*
X96840757Y-48932967D01*
X96908549Y-48956158D01*
X96947174Y-48968703D01*
X97035350Y-48999893D01*
X97130309Y-49038011D01*
X97164640Y-49053155D01*
X97243064Y-49087676D01*
X97319239Y-49118945D01*
X97349486Y-49130398D01*
X97422412Y-49159309D01*
X97528486Y-49205139D01*
X97661985Y-49265294D01*
X97817185Y-49337179D01*
X97988364Y-49418201D01*
X98056249Y-49450767D01*
X98133589Y-49489264D01*
X98232757Y-49540486D01*
X98346481Y-49600482D01*
X98467489Y-49665295D01*
X98588512Y-49730974D01*
X98702276Y-49793563D01*
X98801512Y-49849109D01*
X98878947Y-49893657D01*
X98927311Y-49923254D01*
X98935173Y-49928707D01*
X98935173Y-49943205D01*
X98913719Y-49936561D01*
X98860365Y-49913169D01*
X98781882Y-49876190D01*
X98685041Y-49828781D01*
X98620493Y-49796416D01*
X98500737Y-49736353D01*
X98380753Y-49677043D01*
X98272148Y-49624167D01*
X98186528Y-49583405D01*
X98163815Y-49572903D01*
X98008805Y-49502624D01*
X97868205Y-49439820D01*
X97746841Y-49386579D01*
X97649540Y-49344990D01*
X97581128Y-49317140D01*
X97546432Y-49305117D01*
X97544064Y-49304794D01*
X97514981Y-49296545D01*
X97459967Y-49275236D01*
X97409933Y-49253821D01*
X97333212Y-49220763D01*
X97261933Y-49191685D01*
X97229879Y-49179528D01*
X97177589Y-49160884D01*
X97099969Y-49133262D01*
X97012673Y-49102232D01*
X97001540Y-49098278D01*
X96918103Y-49068146D01*
X96846264Y-49041316D01*
X96799559Y-49022862D01*
X96794948Y-49020858D01*
X96752665Y-49005477D01*
X96683166Y-48983695D01*
X96601299Y-48960162D01*
X96599229Y-48959593D01*
X96512833Y-48934737D01*
X96434225Y-48910165D01*
X96381763Y-48891695D01*
X96332136Y-48874851D01*
X96253538Y-48851494D01*
X96159235Y-48825484D01*
X96109931Y-48812586D01*
X96003837Y-48785211D01*
X95897980Y-48757621D01*
X95809855Y-48734385D01*
X95783732Y-48727399D01*
X95683804Y-48702279D01*
X95545961Y-48670368D01*
X95375059Y-48632751D01*
X95175959Y-48590514D01*
X95098715Y-48574469D01*
X94915456Y-48539663D01*
X94700058Y-48503824D01*
X94463797Y-48468505D01*
X94217950Y-48435260D01*
X93973793Y-48405643D01*
X93742602Y-48381208D01*
X93609075Y-48369205D01*
X93502918Y-48360257D01*
X93411330Y-48352182D01*
X93343698Y-48345833D01*
X93309412Y-48342062D01*
X93308549Y-48341924D01*
X93301544Y-48324996D01*
X93328271Y-48283677D01*
X93343381Y-48266090D01*
X93406906Y-48195108D01*
X93633033Y-48216618D01*
G37*
G36*
X88411643Y-49283047D02*
G01*
X88409635Y-49320344D01*
X88396473Y-49339756D01*
X88361451Y-49347124D01*
X88293866Y-49348287D01*
X88292037Y-49348287D01*
X88223536Y-49349698D01*
X88187868Y-49357157D01*
X88174390Y-49375502D01*
X88172431Y-49402653D01*
X88175956Y-49434919D01*
X88193947Y-49451016D01*
X88237527Y-49456505D01*
X88281164Y-49457020D01*
X88345531Y-49458445D01*
X88377628Y-49467209D01*
X88388676Y-49490043D01*
X88389896Y-49522260D01*
X88387521Y-49560880D01*
X88372915Y-49580138D01*
X88334859Y-49586767D01*
X88281164Y-49587499D01*
X88172431Y-49587499D01*
X88172431Y-49696232D01*
X88171005Y-49760599D01*
X88162242Y-49792697D01*
X88139408Y-49803744D01*
X88107191Y-49804965D01*
X88041951Y-49804965D01*
X88041951Y-49511386D01*
X88041951Y-49217807D01*
X88226797Y-49217807D01*
X88411643Y-49217807D01*
X88411643Y-49283047D01*
G37*
G36*
X88629109Y-49445732D02*
G01*
X88629511Y-49547391D01*
X88631926Y-49613776D01*
X88638162Y-49653108D01*
X88650030Y-49673606D01*
X88669341Y-49683490D01*
X88682239Y-49686992D01*
X88731643Y-49692087D01*
X88758352Y-49686123D01*
X88768957Y-49658238D01*
X88776659Y-49593808D01*
X88780803Y-49499725D01*
X88781335Y-49444863D01*
X88781335Y-49217807D01*
X88857448Y-49217807D01*
X88933561Y-49217807D01*
X88933561Y-49466315D01*
X88933147Y-49573696D01*
X88930758Y-49646413D01*
X88924669Y-49693292D01*
X88913159Y-49723161D01*
X88894505Y-49744846D01*
X88876262Y-49759893D01*
X88815997Y-49788274D01*
X88735356Y-49803207D01*
X88651903Y-49803732D01*
X88583205Y-49788886D01*
X88561985Y-49777090D01*
X88524229Y-49738650D01*
X88498977Y-49686418D01*
X88484146Y-49612064D01*
X88477655Y-49507258D01*
X88476883Y-49436703D01*
X88476883Y-49217807D01*
X88552996Y-49217807D01*
X88629109Y-49217807D01*
X88629109Y-49445732D01*
G37*
G36*
X89407993Y-49277611D02*
G01*
X89400461Y-49312307D01*
X89380564Y-49331787D01*
X89337017Y-49342365D01*
X89281695Y-49348287D01*
X89207072Y-49358876D01*
X89167498Y-49375460D01*
X89155285Y-49396033D01*
X89158675Y-49418295D01*
X89185508Y-49431192D01*
X89244770Y-49438327D01*
X89263830Y-49439526D01*
X89331229Y-49445167D01*
X89366667Y-49456263D01*
X89381667Y-49479067D01*
X89386247Y-49505950D01*
X89388054Y-49539979D01*
X89376694Y-49557790D01*
X89342148Y-49564631D01*
X89274393Y-49565753D01*
X89272077Y-49565753D01*
X89203033Y-49567162D01*
X89166894Y-49574492D01*
X89153092Y-49592395D01*
X89151027Y-49619034D01*
X89154493Y-49649275D01*
X89171809Y-49666129D01*
X89213347Y-49674558D01*
X89276069Y-49678837D01*
X89346769Y-49683973D01*
X89385030Y-49693630D01*
X89401891Y-49713359D01*
X89407993Y-49745162D01*
X89414874Y-49804965D01*
X89228584Y-49804965D01*
X89042294Y-49804965D01*
X89042294Y-49511386D01*
X89042294Y-49217807D01*
X89228584Y-49217807D01*
X89414874Y-49217807D01*
X89407993Y-49277611D01*
G37*
G36*
X89775623Y-49224086D02*
G01*
X89855690Y-49245659D01*
X89904949Y-49286631D01*
X89929013Y-49351108D01*
X89933903Y-49418829D01*
X89924687Y-49511856D01*
X89898191Y-49569170D01*
X89878578Y-49596046D01*
X89878284Y-49623084D01*
X89899718Y-49664275D01*
X89919937Y-49695459D01*
X89953626Y-49748534D01*
X89974301Y-49785285D01*
X89977396Y-49793625D01*
X89958357Y-49801223D01*
X89911992Y-49804504D01*
X89906720Y-49804501D01*
X89856050Y-49796636D01*
X89814536Y-49767364D01*
X89774830Y-49717514D01*
X89720484Y-49654301D01*
X89676217Y-49629620D01*
X89645117Y-49643463D01*
X89630274Y-49695818D01*
X89629451Y-49717979D01*
X89626875Y-49773755D01*
X89612914Y-49798550D01*
X89578220Y-49804828D01*
X89564212Y-49804965D01*
X89498972Y-49804965D01*
X89498972Y-49511386D01*
X89498972Y-49424400D01*
X89629451Y-49424400D01*
X89632085Y-49473132D01*
X89648345Y-49494789D01*
X89690770Y-49500343D01*
X89716438Y-49500513D01*
X89772132Y-49498209D01*
X89796883Y-49483981D01*
X89803229Y-49446859D01*
X89803424Y-49424400D01*
X89800790Y-49375667D01*
X89784531Y-49354010D01*
X89742105Y-49348457D01*
X89716438Y-49348287D01*
X89660743Y-49350591D01*
X89635992Y-49364818D01*
X89629646Y-49401941D01*
X89629451Y-49424400D01*
X89498972Y-49424400D01*
X89498972Y-49217807D01*
X89659138Y-49217807D01*
X89775623Y-49224086D01*
G37*
G36*
X90352750Y-49218223D02*
G01*
X90410274Y-49221043D01*
X90441046Y-49228623D01*
X90453435Y-49243323D01*
X90455811Y-49267499D01*
X90455821Y-49272939D01*
X90438709Y-49343962D01*
X90391483Y-49427132D01*
X90346109Y-49483705D01*
X90314438Y-49525908D01*
X90275865Y-49586526D01*
X90262995Y-49608747D01*
X90213826Y-49696232D01*
X90334824Y-49696232D01*
X90403821Y-49697606D01*
X90439926Y-49704897D01*
X90453724Y-49722863D01*
X90455821Y-49750599D01*
X90454386Y-49775785D01*
X90444651Y-49791669D01*
X90418469Y-49800396D01*
X90367692Y-49804108D01*
X90284174Y-49804951D01*
X90249229Y-49804965D01*
X90153483Y-49804471D01*
X90093144Y-49801705D01*
X90060126Y-49794742D01*
X90046343Y-49781655D01*
X90043710Y-49760520D01*
X90043788Y-49756035D01*
X90056249Y-49718110D01*
X90088909Y-49655131D01*
X90136239Y-49577113D01*
X90172820Y-49522260D01*
X90300700Y-49337414D01*
X90182541Y-49330892D01*
X90114414Y-49325446D01*
X90079130Y-49315241D01*
X90066040Y-49294890D01*
X90064383Y-49271089D01*
X90066064Y-49245865D01*
X90076686Y-49230203D01*
X90104618Y-49221825D01*
X90158227Y-49218453D01*
X90245880Y-49217810D01*
X90260102Y-49217807D01*
X90352750Y-49218223D01*
G37*
G36*
X90786926Y-49222050D02*
G01*
X90847731Y-49231395D01*
X90879468Y-49253029D01*
X90893003Y-49283047D01*
X90906346Y-49326543D01*
X90928949Y-49399768D01*
X90957163Y-49490914D01*
X90976243Y-49552440D01*
X91004043Y-49643727D01*
X91026172Y-49719656D01*
X91039875Y-49770575D01*
X91042979Y-49786215D01*
X91024079Y-49799416D01*
X90978586Y-49804965D01*
X90978153Y-49804965D01*
X90927732Y-49796246D01*
X90903293Y-49763058D01*
X90899683Y-49750599D01*
X90885933Y-49717325D01*
X90858582Y-49699209D01*
X90806618Y-49691868D01*
X90749400Y-49690795D01*
X90698943Y-49694879D01*
X90676701Y-49713931D01*
X90669363Y-49745162D01*
X90649673Y-49780289D01*
X90612459Y-49801225D01*
X90572970Y-49804771D01*
X90546453Y-49787731D01*
X90542807Y-49771700D01*
X90548982Y-49728674D01*
X90564771Y-49659655D01*
X90586071Y-49579922D01*
X90594617Y-49551632D01*
X90730839Y-49551632D01*
X90733436Y-49575159D01*
X90762168Y-49585434D01*
X90804292Y-49586771D01*
X90838667Y-49579912D01*
X90846840Y-49571189D01*
X90840388Y-49527294D01*
X90825751Y-49472546D01*
X90807359Y-49419364D01*
X90789642Y-49380171D01*
X90777031Y-49367385D01*
X90775090Y-49370033D01*
X90754240Y-49434238D01*
X90738506Y-49499619D01*
X90730839Y-49551632D01*
X90594617Y-49551632D01*
X90608778Y-49504756D01*
X90628789Y-49449437D01*
X90630231Y-49446146D01*
X90647828Y-49397815D01*
X90667908Y-49330383D01*
X90673539Y-49309037D01*
X90690225Y-49251376D01*
X90710458Y-49225185D01*
X90748244Y-49219721D01*
X90786926Y-49222050D01*
G37*
G36*
X91658673Y-49397217D02*
G01*
X91689278Y-49497737D01*
X91719421Y-49599077D01*
X91743295Y-49681672D01*
X91746195Y-49692022D01*
X91778319Y-49807419D01*
X91709664Y-49800755D01*
X91657298Y-49786991D01*
X91635621Y-49754078D01*
X91634195Y-49746190D01*
X91612133Y-49701412D01*
X91560664Y-49683962D01*
X91477910Y-49692567D01*
X91420450Y-49713700D01*
X91396278Y-49749263D01*
X91394848Y-49756840D01*
X91378667Y-49792782D01*
X91336342Y-49804702D01*
X91324172Y-49804965D01*
X91279016Y-49798945D01*
X91260444Y-49784634D01*
X91267738Y-49751236D01*
X91284220Y-49703084D01*
X91301307Y-49651942D01*
X91324072Y-49574506D01*
X91329902Y-49552978D01*
X91464757Y-49552978D01*
X91465386Y-49578896D01*
X91500004Y-49587382D01*
X91508203Y-49587499D01*
X91552400Y-49577705D01*
X91563225Y-49549443D01*
X91555934Y-49504893D01*
X91539905Y-49441631D01*
X91534786Y-49424400D01*
X91508018Y-49337414D01*
X91493011Y-49427935D01*
X91480410Y-49493499D01*
X91467667Y-49544384D01*
X91464757Y-49552978D01*
X91329902Y-49552978D01*
X91347845Y-49486724D01*
X91349899Y-49478766D01*
X91378571Y-49370047D01*
X91401444Y-49296659D01*
X91422993Y-49251672D01*
X91447691Y-49228157D01*
X91480014Y-49219181D01*
X91518379Y-49217807D01*
X91603274Y-49217807D01*
X91658673Y-49397217D01*
G37*
G36*
X92213302Y-49277611D02*
G01*
X92205759Y-49312754D01*
X92185854Y-49331566D01*
X92141988Y-49340407D01*
X92092251Y-49343987D01*
X92024494Y-49350342D01*
X91989999Y-49362217D01*
X91978550Y-49383991D01*
X91978081Y-49392917D01*
X91984158Y-49418378D01*
X92009447Y-49431073D01*
X92064536Y-49435126D01*
X92086814Y-49435273D01*
X92151181Y-49436699D01*
X92183279Y-49445462D01*
X92194326Y-49468296D01*
X92195547Y-49500513D01*
X92193172Y-49539133D01*
X92178565Y-49558392D01*
X92140509Y-49565020D01*
X92086814Y-49565753D01*
X92022247Y-49567558D01*
X91990034Y-49576598D01*
X91979074Y-49598308D01*
X91978081Y-49618983D01*
X91982006Y-49650307D01*
X92000989Y-49667262D01*
X92045838Y-49675510D01*
X92092251Y-49678786D01*
X92159167Y-49684471D01*
X92194195Y-49695780D01*
X92208933Y-49719073D01*
X92213302Y-49745162D01*
X92220183Y-49804965D01*
X92033892Y-49804965D01*
X91847602Y-49804965D01*
X91847602Y-49511386D01*
X91847602Y-49217807D01*
X92033892Y-49217807D01*
X92220183Y-49217807D01*
X92213302Y-49277611D01*
G37*
G36*
X92592404Y-49226521D02*
G01*
X92677672Y-49252971D01*
X92722569Y-49291739D01*
X92735890Y-49336699D01*
X92739641Y-49404875D01*
X92734802Y-49479023D01*
X92722348Y-49541900D01*
X92706592Y-49573519D01*
X92677791Y-49610118D01*
X92682063Y-49640265D01*
X92696122Y-49659093D01*
X92760515Y-49736723D01*
X92796195Y-49782882D01*
X92804451Y-49797419D01*
X92785219Y-49802078D01*
X92737538Y-49804165D01*
X92722902Y-49804140D01*
X92667908Y-49798133D01*
X92627874Y-49774685D01*
X92586241Y-49723593D01*
X92581756Y-49717153D01*
X92532822Y-49660051D01*
X92488193Y-49632343D01*
X92478459Y-49630992D01*
X92449884Y-49638216D01*
X92437251Y-49667508D01*
X92434760Y-49717979D01*
X92431792Y-49774022D01*
X92417795Y-49798932D01*
X92385128Y-49804934D01*
X92380393Y-49804965D01*
X92326027Y-49804965D01*
X92326027Y-49511386D01*
X92326027Y-49503014D01*
X92434760Y-49503014D01*
X92527182Y-49496327D01*
X92585266Y-49489619D01*
X92611957Y-49474484D01*
X92619343Y-49441513D01*
X92619605Y-49424400D01*
X92616057Y-49383143D01*
X92597351Y-49362949D01*
X92551400Y-49354410D01*
X92527182Y-49352473D01*
X92434760Y-49345786D01*
X92434760Y-49424400D01*
X92434760Y-49503014D01*
X92326027Y-49503014D01*
X92326027Y-49424400D01*
X92326027Y-49217807D01*
X92468809Y-49217807D01*
X92592404Y-49226521D01*
G37*
G36*
X93177365Y-49237381D02*
G01*
X93237714Y-49274107D01*
X93270308Y-49303653D01*
X93290116Y-49332508D01*
X93300317Y-49372090D01*
X93304092Y-49433816D01*
X93304623Y-49514358D01*
X93303589Y-49605699D01*
X93298641Y-49664993D01*
X93287007Y-49703667D01*
X93265914Y-49733152D01*
X93247081Y-49751637D01*
X93175589Y-49791684D01*
X93084645Y-49807556D01*
X92991223Y-49798843D01*
X92912297Y-49765133D01*
X92905244Y-49759893D01*
X92878007Y-49735803D01*
X92861120Y-49708879D01*
X92852123Y-49668718D01*
X92848552Y-49604919D01*
X92847944Y-49517775D01*
X92848010Y-49509700D01*
X92978424Y-49509700D01*
X92985216Y-49609224D01*
X93007149Y-49670085D01*
X93046560Y-49695181D01*
X93105783Y-49687415D01*
X93117998Y-49683032D01*
X93136600Y-49666249D01*
X93147325Y-49627868D01*
X93151889Y-49559234D01*
X93152396Y-49509474D01*
X93151501Y-49426933D01*
X93146710Y-49377815D01*
X93134862Y-49352056D01*
X93112799Y-49339592D01*
X93097748Y-49335400D01*
X93040738Y-49332139D01*
X93003668Y-49359085D01*
X92983818Y-49420214D01*
X92978424Y-49509700D01*
X92848010Y-49509700D01*
X92848712Y-49423474D01*
X92852728Y-49361972D01*
X92862567Y-49322578D01*
X92880800Y-49294604D01*
X92907748Y-49269294D01*
X92988618Y-49226269D01*
X93083416Y-49215704D01*
X93177365Y-49237381D01*
G37*
G36*
X93761301Y-49283047D02*
G01*
X93759292Y-49320344D01*
X93746130Y-49339756D01*
X93711109Y-49347124D01*
X93643523Y-49348287D01*
X93641694Y-49348287D01*
X93572433Y-49350247D01*
X93536354Y-49358537D01*
X93523234Y-49376773D01*
X93522088Y-49390589D01*
X93529519Y-49417232D01*
X93558801Y-49431778D01*
X93620421Y-49439191D01*
X93625385Y-49439518D01*
X93688397Y-49445935D01*
X93720152Y-49459486D01*
X93732885Y-49487550D01*
X93735562Y-49505950D01*
X93737177Y-49541166D01*
X93724493Y-49558849D01*
X93687088Y-49565032D01*
X93632266Y-49565753D01*
X93567162Y-49567504D01*
X93534481Y-49576314D01*
X93523189Y-49597514D01*
X93522088Y-49618983D01*
X93526013Y-49650307D01*
X93544995Y-49667262D01*
X93589845Y-49675510D01*
X93636258Y-49678786D01*
X93703174Y-49684471D01*
X93738202Y-49695780D01*
X93752940Y-49719073D01*
X93757308Y-49745162D01*
X93764190Y-49804965D01*
X93577899Y-49804965D01*
X93391609Y-49804965D01*
X93391609Y-49511386D01*
X93391609Y-49217807D01*
X93576455Y-49217807D01*
X93761301Y-49217807D01*
X93761301Y-49283047D01*
G37*
G36*
X94170407Y-49221856D02*
G01*
X94218870Y-49236187D01*
X94235945Y-49264081D01*
X94230222Y-49300478D01*
X94213388Y-49324125D01*
X94175206Y-49335668D01*
X94104847Y-49338349D01*
X94103775Y-49338340D01*
X94036346Y-49339851D01*
X94000904Y-49348770D01*
X93986041Y-49369549D01*
X93982791Y-49385575D01*
X93987636Y-49423427D01*
X94023311Y-49443399D01*
X94037158Y-49446706D01*
X94101623Y-49465112D01*
X94169049Y-49490616D01*
X94211780Y-49513046D01*
X94232580Y-49541100D01*
X94239251Y-49589861D01*
X94239725Y-49627270D01*
X94231939Y-49711041D01*
X94204111Y-49764662D01*
X94149539Y-49793840D01*
X94061520Y-49804283D01*
X94031420Y-49804632D01*
X93957490Y-49801766D01*
X93899803Y-49794702D01*
X93876288Y-49787544D01*
X93862247Y-49759072D01*
X93863943Y-49717009D01*
X93878248Y-49682632D01*
X93892901Y-49674486D01*
X93924680Y-49681580D01*
X93967901Y-49696235D01*
X94031547Y-49705730D01*
X94081044Y-49687182D01*
X94105156Y-49646433D01*
X94105129Y-49624890D01*
X94080602Y-49583559D01*
X94033133Y-49564898D01*
X93948715Y-49542114D01*
X93899150Y-49510093D01*
X93875802Y-49459091D01*
X93870033Y-49380907D01*
X93874761Y-49305905D01*
X93894029Y-49257901D01*
X93935464Y-49231102D01*
X94006693Y-49219716D01*
X94084786Y-49217807D01*
X94170407Y-49221856D01*
G37*
G36*
X94571796Y-49221649D02*
G01*
X94644568Y-49231618D01*
X94683878Y-49242758D01*
X94735738Y-49288033D01*
X94766684Y-49358197D01*
X94775869Y-49439548D01*
X94762445Y-49518389D01*
X94725563Y-49581018D01*
X94705817Y-49597329D01*
X94651928Y-49618369D01*
X94579576Y-49630110D01*
X94555816Y-49630992D01*
X94457191Y-49630992D01*
X94457191Y-49717979D01*
X94454224Y-49774022D01*
X94440227Y-49798932D01*
X94407559Y-49804934D01*
X94402825Y-49804965D01*
X94348458Y-49804965D01*
X94348458Y-49511386D01*
X94348458Y-49419463D01*
X94457191Y-49419463D01*
X94461101Y-49473658D01*
X94470621Y-49506494D01*
X94471689Y-49507762D01*
X94508465Y-49520546D01*
X94561717Y-49518414D01*
X94605722Y-49503257D01*
X94624991Y-49469346D01*
X94627468Y-49422040D01*
X94617140Y-49379795D01*
X94589922Y-49360042D01*
X94538741Y-49352411D01*
X94485465Y-49350446D01*
X94462594Y-49363637D01*
X94457282Y-49402545D01*
X94457191Y-49419463D01*
X94348458Y-49419463D01*
X94348458Y-49217807D01*
X94488788Y-49217807D01*
X94571796Y-49221649D01*
G37*
G36*
X95185223Y-49462456D02*
G01*
X95226687Y-49589408D01*
X95255169Y-49680699D01*
X95271161Y-49742023D01*
X95275153Y-49779072D01*
X95267636Y-49797540D01*
X95249102Y-49803120D01*
X95220041Y-49801505D01*
X95214424Y-49800957D01*
X95160005Y-49786733D01*
X95134508Y-49752098D01*
X95131794Y-49742203D01*
X95117411Y-49708789D01*
X95086162Y-49692939D01*
X95025995Y-49687836D01*
X94966500Y-49689020D01*
X94936692Y-49701669D01*
X94922955Y-49733175D01*
X94920376Y-49745162D01*
X94905298Y-49786680D01*
X94872854Y-49802884D01*
X94835038Y-49804965D01*
X94785791Y-49801785D01*
X94762034Y-49794003D01*
X94761643Y-49792741D01*
X94767747Y-49765682D01*
X94783232Y-49711203D01*
X94803857Y-49643190D01*
X94825383Y-49575530D01*
X94837376Y-49540299D01*
X94968006Y-49540299D01*
X94979070Y-49576053D01*
X95016315Y-49584735D01*
X95030091Y-49583296D01*
X95066230Y-49565243D01*
X95069995Y-49533122D01*
X95052446Y-49440685D01*
X95035541Y-49390852D01*
X95018041Y-49382778D01*
X94998708Y-49415615D01*
X94980729Y-49472075D01*
X94968006Y-49540299D01*
X94837376Y-49540299D01*
X94843568Y-49522107D01*
X94847563Y-49511386D01*
X94882993Y-49409642D01*
X94906238Y-49322182D01*
X94913869Y-49265193D01*
X94919369Y-49235503D01*
X94943519Y-49221620D01*
X94997794Y-49217852D01*
X95009417Y-49217807D01*
X95104965Y-49217807D01*
X95185223Y-49462456D01*
G37*
G36*
X95648334Y-49220550D02*
G01*
X95693317Y-49231800D01*
X95709692Y-49256093D01*
X95704812Y-49297962D01*
X95703794Y-49301936D01*
X95691155Y-49331521D01*
X95665505Y-49342236D01*
X95613507Y-49338395D01*
X95598042Y-49336150D01*
X95533124Y-49333505D01*
X95491128Y-49352944D01*
X95467655Y-49400505D01*
X95458307Y-49482227D01*
X95457533Y-49529040D01*
X95464108Y-49617608D01*
X95487480Y-49669886D01*
X95533121Y-49691580D01*
X95606501Y-49688393D01*
X95609877Y-49687862D01*
X95663973Y-49682841D01*
X95694534Y-49687035D01*
X95697043Y-49690538D01*
X95702415Y-49722835D01*
X95710452Y-49756035D01*
X95714967Y-49781627D01*
X95705556Y-49796261D01*
X95673581Y-49802994D01*
X95610408Y-49804882D01*
X95572173Y-49804965D01*
X95486932Y-49802733D01*
X95432715Y-49794086D01*
X95397195Y-49776096D01*
X95379354Y-49759189D01*
X95359270Y-49730001D01*
X95346776Y-49689773D01*
X95340233Y-49628539D01*
X95338003Y-49536336D01*
X95337927Y-49507182D01*
X95338767Y-49409818D01*
X95342661Y-49345985D01*
X95351670Y-49305732D01*
X95367857Y-49279107D01*
X95389266Y-49259379D01*
X95441329Y-49231712D01*
X95516416Y-49219256D01*
X95567392Y-49217807D01*
X95648334Y-49220550D01*
G37*
G36*
X95935958Y-49511386D02*
G01*
X95935958Y-49804965D01*
X95870718Y-49804965D01*
X95805479Y-49804965D01*
X95805479Y-49511386D01*
X95805479Y-49217807D01*
X95870718Y-49217807D01*
X95935958Y-49217807D01*
X95935958Y-49511386D01*
G37*
G36*
X96403359Y-49375470D02*
G01*
X96432033Y-49479004D01*
X96465450Y-49589447D01*
X96491664Y-49669049D01*
X96539116Y-49804965D01*
X96466290Y-49804965D01*
X96413170Y-49798563D01*
X96387217Y-49772965D01*
X96379820Y-49750599D01*
X96352068Y-49704797D01*
X96319602Y-49694616D01*
X96257287Y-49688999D01*
X96226075Y-49684181D01*
X96188140Y-49688104D01*
X96162688Y-49723947D01*
X96156530Y-49740163D01*
X96131139Y-49787469D01*
X96090157Y-49804057D01*
X96069104Y-49804965D01*
X96004268Y-49804965D01*
X96048097Y-49658176D01*
X96074408Y-49568519D01*
X96078557Y-49553952D01*
X96220323Y-49553952D01*
X96226771Y-49579977D01*
X96252552Y-49587196D01*
X96270251Y-49587499D01*
X96312273Y-49578634D01*
X96327069Y-49560316D01*
X96320137Y-49518023D01*
X96303824Y-49466302D01*
X96283655Y-49418548D01*
X96265156Y-49388157D01*
X96255037Y-49385707D01*
X96243618Y-49419146D01*
X96231032Y-49476860D01*
X96227552Y-49497151D01*
X96220323Y-49553952D01*
X96078557Y-49553952D01*
X96099118Y-49481755D01*
X96114806Y-49424400D01*
X96133593Y-49364526D01*
X96152133Y-49322785D01*
X96156429Y-49316754D01*
X96172799Y-49278564D01*
X96175170Y-49256951D01*
X96183629Y-49231745D01*
X96215992Y-49220182D01*
X96268838Y-49217807D01*
X96362506Y-49217807D01*
X96403359Y-49375470D01*
G37*
G36*
X96718835Y-49446146D02*
G01*
X96718835Y-49674486D01*
X96838441Y-49674486D01*
X96906818Y-49675581D01*
X96942408Y-49682760D01*
X96955916Y-49701863D01*
X96958047Y-49738728D01*
X96958047Y-49739725D01*
X96958047Y-49804965D01*
X96773201Y-49804965D01*
X96588355Y-49804965D01*
X96588355Y-49511386D01*
X96588355Y-49217807D01*
X96653595Y-49217807D01*
X96718835Y-49217807D01*
X96718835Y-49446146D01*
G37*
G36*
X89195214Y-46407886D02*
G01*
X89241517Y-46429206D01*
X89266831Y-46434246D01*
X89300376Y-46440231D01*
X89363452Y-46456132D01*
X89444083Y-46478868D01*
X89468281Y-46486072D01*
X89567327Y-46514403D01*
X89690560Y-46547399D01*
X89827543Y-46582497D01*
X89967836Y-46617136D01*
X90100999Y-46648755D01*
X90216592Y-46674790D01*
X90304176Y-46692681D01*
X90325342Y-46696392D01*
X90396976Y-46709353D01*
X90490717Y-46727982D01*
X90586274Y-46748247D01*
X90586301Y-46748253D01*
X90697249Y-46772164D01*
X90820759Y-46798035D01*
X90912499Y-46816721D01*
X90993545Y-46833149D01*
X91058433Y-46846742D01*
X91094912Y-46854925D01*
X91097345Y-46855575D01*
X91130181Y-46864950D01*
X91187517Y-46881243D01*
X91214985Y-46889034D01*
X91292841Y-46915670D01*
X91371560Y-46953048D01*
X91455215Y-47004363D01*
X91547878Y-47072810D01*
X91653623Y-47161587D01*
X91776521Y-47273888D01*
X91920646Y-47412910D01*
X92062708Y-47554299D01*
X92173442Y-47665199D01*
X92274178Y-47765269D01*
X92360867Y-47850554D01*
X92429463Y-47917099D01*
X92475916Y-47960948D01*
X92496181Y-47978146D01*
X92496559Y-47978253D01*
X92514488Y-47963535D01*
X92559311Y-47921903D01*
X92627109Y-47857137D01*
X92713963Y-47773018D01*
X92815953Y-47673327D01*
X92929160Y-47561845D01*
X92966471Y-47524936D01*
X93003186Y-47488955D01*
X94065753Y-47488955D01*
X94076626Y-47499828D01*
X94087499Y-47488955D01*
X94076626Y-47478081D01*
X94065753Y-47488955D01*
X93003186Y-47488955D01*
X93126584Y-47368026D01*
X93261608Y-47239877D01*
X93375821Y-47137173D01*
X93473503Y-47056597D01*
X93558935Y-46994830D01*
X93636396Y-46948557D01*
X93710166Y-46914461D01*
X93784525Y-46889223D01*
X93787993Y-46888231D01*
X93849612Y-46870561D01*
X93893969Y-46857528D01*
X93902653Y-46854851D01*
X93933608Y-46847352D01*
X93994413Y-46834261D01*
X94072236Y-46818335D01*
X94076626Y-46817457D01*
X94177753Y-46796917D01*
X94295595Y-46772473D01*
X94402825Y-46749803D01*
X94502405Y-46729066D01*
X94601652Y-46709365D01*
X94680367Y-46694701D01*
X94685530Y-46693804D01*
X94767733Y-46677974D01*
X94846227Y-46660262D01*
X94870376Y-46653983D01*
X94934731Y-46636188D01*
X94987491Y-46621649D01*
X94989982Y-46620965D01*
X95029993Y-46610932D01*
X95100099Y-46594228D01*
X95187971Y-46573773D01*
X95229194Y-46564311D01*
X95453505Y-46509898D01*
X95640052Y-46457612D01*
X95757870Y-46419107D01*
X95827916Y-46399022D01*
X95860709Y-46401268D01*
X95856417Y-46426008D01*
X95815204Y-46473406D01*
X95814345Y-46474252D01*
X95777681Y-46511067D01*
X95717619Y-46572257D01*
X95640938Y-46650876D01*
X95554420Y-46739982D01*
X95501027Y-46795155D01*
X95416968Y-46881051D01*
X95343259Y-46954334D01*
X95285178Y-47009918D01*
X95248002Y-47042718D01*
X95237157Y-47049375D01*
X95207237Y-47048150D01*
X95143582Y-47050478D01*
X95055740Y-47055607D01*
X94953256Y-47062788D01*
X94845677Y-47071267D01*
X94742548Y-47080294D01*
X94653415Y-47089118D01*
X94587825Y-47096987D01*
X94555682Y-47103013D01*
X94560832Y-47109097D01*
X94603431Y-47115506D01*
X94677442Y-47121698D01*
X94776830Y-47127127D01*
X94856763Y-47130136D01*
X95201968Y-47141010D01*
X95010073Y-47343216D01*
X94818179Y-47545422D01*
X94675742Y-47534950D01*
X94581791Y-47528285D01*
X94467799Y-47520544D01*
X94357133Y-47513310D01*
X94348458Y-47512759D01*
X94163612Y-47501039D01*
X94304965Y-47530564D01*
X94402909Y-47550978D01*
X94505475Y-47572288D01*
X94565160Y-47584649D01*
X94633476Y-47600900D01*
X94683451Y-47616721D01*
X94699786Y-47625194D01*
X94693811Y-47647627D01*
X94663945Y-47693048D01*
X94616112Y-47752777D01*
X94600424Y-47770751D01*
X94485278Y-47900320D01*
X94389685Y-47871568D01*
X94321081Y-47850152D01*
X94263966Y-47831016D01*
X94250599Y-47826122D01*
X94085743Y-47765787D01*
X93935011Y-47716330D01*
X93805083Y-47679669D01*
X93702638Y-47657724D01*
X93644882Y-47652054D01*
X93604191Y-47666642D01*
X93547004Y-47712169D01*
X93470089Y-47791282D01*
X93456520Y-47806355D01*
X93387070Y-47883622D01*
X93320132Y-47957250D01*
X93266717Y-48015155D01*
X93251865Y-48030935D01*
X93204729Y-48081851D01*
X93141633Y-48151785D01*
X93075074Y-48226865D01*
X93065410Y-48237888D01*
X92904589Y-48420420D01*
X92769535Y-48571046D01*
X92660583Y-48689410D01*
X92578068Y-48775155D01*
X92522325Y-48827925D01*
X92493690Y-48847363D01*
X92492474Y-48847466D01*
X92468501Y-48831651D01*
X92423858Y-48789515D01*
X92365718Y-48728150D01*
X92322023Y-48678930D01*
X92251685Y-48597940D01*
X92183860Y-48520268D01*
X92128831Y-48457673D01*
X92108734Y-48435040D01*
X92055098Y-48374258D01*
X92004747Y-48315999D01*
X91993132Y-48302279D01*
X91892074Y-48184787D01*
X91778305Y-48057094D01*
X91663597Y-47932145D01*
X91559727Y-47822880D01*
X91523714Y-47786327D01*
X91456313Y-47720213D01*
X91409572Y-47680092D01*
X91374102Y-47660512D01*
X91340516Y-47656023D01*
X91306248Y-47660029D01*
X91104438Y-47703888D01*
X90893569Y-47768634D01*
X90749400Y-47824313D01*
X90701702Y-47842022D01*
X90634625Y-47864091D01*
X90610691Y-47871443D01*
X90515476Y-47900071D01*
X90397776Y-47772600D01*
X90345100Y-47711229D01*
X90309425Y-47661110D01*
X90296681Y-47630891D01*
X90298036Y-47627168D01*
X90327997Y-47613087D01*
X90386033Y-47595919D01*
X90434839Y-47584649D01*
X90524122Y-47566147D01*
X90628217Y-47544503D01*
X90695033Y-47530573D01*
X90836386Y-47501056D01*
X90640667Y-47513228D01*
X90532158Y-47520161D01*
X90421214Y-47527550D01*
X90328521Y-47534012D01*
X90312862Y-47535154D01*
X90263823Y-47539157D01*
X90226280Y-47540023D01*
X90194085Y-47533628D01*
X90161094Y-47515849D01*
X90124478Y-47485330D01*
X90919748Y-47485330D01*
X90922733Y-47498259D01*
X90934246Y-47499828D01*
X90952146Y-47491871D01*
X90948744Y-47485330D01*
X90922935Y-47482728D01*
X90919748Y-47485330D01*
X90124478Y-47485330D01*
X90121158Y-47482563D01*
X90068132Y-47429646D01*
X89995868Y-47352974D01*
X89919818Y-47271489D01*
X89797769Y-47141010D01*
X90208345Y-47130136D01*
X90618920Y-47119263D01*
X90357962Y-47092264D01*
X90232083Y-47079846D01*
X90099388Y-47067749D01*
X89978397Y-47057618D01*
X89910383Y-47052561D01*
X89723763Y-47039856D01*
X89483438Y-46785981D01*
X89396602Y-46694463D01*
X89315656Y-46609547D01*
X89247386Y-46538322D01*
X89198577Y-46487877D01*
X89182902Y-46471973D01*
X89146662Y-46426677D01*
X89139354Y-46397528D01*
X89159658Y-46391398D01*
X89195214Y-46407886D01*
G37*
G36*
X90279713Y-47776919D02*
G01*
X90339689Y-47838977D01*
X90385539Y-47890384D01*
X90410082Y-47922923D01*
X90412328Y-47928676D01*
X90392890Y-47943121D01*
X90339969Y-47967481D01*
X90261659Y-47998892D01*
X90166053Y-48034494D01*
X90061241Y-48071423D01*
X89955317Y-48106818D01*
X89856373Y-48137816D01*
X89772502Y-48161555D01*
X89718906Y-48173927D01*
X89621286Y-48185988D01*
X89500894Y-48192057D01*
X89373248Y-48192205D01*
X89253866Y-48186501D01*
X89158264Y-48175016D01*
X89140153Y-48171309D01*
X89062146Y-48146784D01*
X88964215Y-48107002D01*
X88863439Y-48059563D01*
X88776899Y-48012064D01*
X88763908Y-48003937D01*
X88733943Y-47978650D01*
X88733974Y-47969568D01*
X88792208Y-47969568D01*
X88851167Y-48008478D01*
X88901985Y-48035506D01*
X88977539Y-48068339D01*
X89057759Y-48098531D01*
X89168731Y-48126634D01*
X89302366Y-48144918D01*
X89443781Y-48152741D01*
X89578097Y-48149462D01*
X89690433Y-48134441D01*
X89719351Y-48127036D01*
X89771568Y-48108433D01*
X89799940Y-48092539D01*
X89801737Y-48088980D01*
X89784018Y-48072270D01*
X89737726Y-48037785D01*
X89670844Y-47991317D01*
X89623858Y-47959900D01*
X89562523Y-47919563D01*
X89511398Y-47888974D01*
X89464095Y-47868088D01*
X89414229Y-47856860D01*
X89355412Y-47855245D01*
X89281258Y-47863198D01*
X89185379Y-47880675D01*
X89061391Y-47907631D01*
X88902905Y-47944021D01*
X88857448Y-47954517D01*
X88792208Y-47969568D01*
X88733974Y-47969568D01*
X88734016Y-47957434D01*
X88767675Y-47937845D01*
X88838471Y-47917440D01*
X88913222Y-47901117D01*
X89000934Y-47883258D01*
X89115513Y-47859988D01*
X89241194Y-47834508D01*
X89346746Y-47813143D01*
X89457836Y-47790426D01*
X89560282Y-47769027D01*
X89642811Y-47751328D01*
X89694152Y-47739712D01*
X89694691Y-47739581D01*
X89751569Y-47726562D01*
X89835547Y-47708372D01*
X89931078Y-47688360D01*
X89958951Y-47682648D01*
X90147099Y-47644304D01*
X90279713Y-47776919D01*
G37*
G36*
X95039803Y-47683746D02*
G01*
X95138026Y-47703387D01*
X95231054Y-47722783D01*
X95302411Y-47738477D01*
X95316181Y-47741718D01*
X95372195Y-47754333D01*
X95458663Y-47772745D01*
X95563359Y-47794390D01*
X95664126Y-47814725D01*
X95840779Y-47850116D01*
X95979361Y-47878380D01*
X96084514Y-47900584D01*
X96160882Y-47917797D01*
X96213106Y-47931089D01*
X96245830Y-47941527D01*
X96263696Y-47950180D01*
X96268081Y-47953731D01*
X96277549Y-47964173D01*
X96277289Y-47974073D01*
X96260995Y-47987990D01*
X96222367Y-48010481D01*
X96155100Y-48046107D01*
X96102294Y-48073638D01*
X96009604Y-48116146D01*
X95911270Y-48152221D01*
X95832591Y-48173149D01*
X95720828Y-48186643D01*
X95585887Y-48192392D01*
X95446251Y-48190437D01*
X95320401Y-48180818D01*
X95261814Y-48171901D01*
X95197883Y-48155954D01*
X95104983Y-48128443D01*
X94994801Y-48093264D01*
X94982947Y-48089276D01*
X95197006Y-48089276D01*
X95216581Y-48109088D01*
X95271059Y-48125393D01*
X95351959Y-48137796D01*
X95450804Y-48145902D01*
X95559113Y-48149315D01*
X95668407Y-48147641D01*
X95770208Y-48140484D01*
X95856035Y-48127448D01*
X95881592Y-48121183D01*
X95989130Y-48088236D01*
X96070372Y-48057686D01*
X96119466Y-48031974D01*
X96131677Y-48016978D01*
X96149357Y-48001897D01*
X96164297Y-47999999D01*
X96193271Y-47990740D01*
X96196917Y-47982914D01*
X96176448Y-47970247D01*
X96119042Y-47952097D01*
X96030696Y-47929912D01*
X95917412Y-47905141D01*
X95785188Y-47879230D01*
X95713519Y-47866242D01*
X95631844Y-47853494D01*
X95577239Y-47851361D01*
X95534343Y-47860905D01*
X95490616Y-47881665D01*
X95442342Y-47910434D01*
X95415805Y-47931636D01*
X95414040Y-47935210D01*
X95396897Y-47952012D01*
X95352518Y-47982828D01*
X95305739Y-48011815D01*
X95247340Y-48048532D01*
X95207845Y-48077275D01*
X95197006Y-48089276D01*
X94982947Y-48089276D01*
X94879022Y-48054312D01*
X94769331Y-48015481D01*
X94677415Y-47980665D01*
X94634673Y-47962890D01*
X94562070Y-47930890D01*
X94706241Y-47788830D01*
X94850412Y-47646770D01*
X95039803Y-47683746D01*
G37*
G36*
X89835343Y-47325152D02*
G01*
X89912004Y-47403644D01*
X89975023Y-47471135D01*
X90019213Y-47521834D01*
X90039389Y-47549952D01*
X90039782Y-47553425D01*
X90014392Y-47560824D01*
X89956184Y-47570897D01*
X89875613Y-47581943D01*
X89834298Y-47586840D01*
X89575146Y-47615829D01*
X89355119Y-47639679D01*
X89170175Y-47658593D01*
X89016274Y-47672775D01*
X88889378Y-47682428D01*
X88785446Y-47687756D01*
X88700438Y-47688962D01*
X88630313Y-47686251D01*
X88571033Y-47679826D01*
X88518557Y-47669889D01*
X88468845Y-47656646D01*
X88466010Y-47655795D01*
X88375488Y-47624875D01*
X88284344Y-47588104D01*
X88237670Y-47566197D01*
X88147979Y-47514615D01*
X88038649Y-47443554D01*
X87922741Y-47362213D01*
X87813316Y-47279791D01*
X87723434Y-47205486D01*
X87715702Y-47198566D01*
X87668158Y-47155599D01*
X87752212Y-47155599D01*
X87772496Y-47182508D01*
X87819079Y-47221366D01*
X87889101Y-47273866D01*
X87903196Y-47284318D01*
X88009195Y-47362556D01*
X88089255Y-47419781D01*
X88152181Y-47461142D01*
X88206778Y-47491790D01*
X88261852Y-47516873D01*
X88326209Y-47541540D01*
X88369740Y-47557147D01*
X88548654Y-47609043D01*
X88722039Y-47637443D01*
X88876516Y-47640226D01*
X88887666Y-47639277D01*
X88959899Y-47633590D01*
X89021984Y-47630496D01*
X89034456Y-47630307D01*
X89076888Y-47622482D01*
X89079228Y-47599611D01*
X89041845Y-47562601D01*
X88993364Y-47529470D01*
X88937898Y-47493430D01*
X88899384Y-47465998D01*
X88890068Y-47457769D01*
X88867589Y-47439384D01*
X88819430Y-47404795D01*
X88759588Y-47363904D01*
X88678659Y-47309419D01*
X88595867Y-47253184D01*
X88547660Y-47220133D01*
X88508898Y-47194840D01*
X88472191Y-47176780D01*
X88428748Y-47164227D01*
X88369779Y-47155455D01*
X88286491Y-47148735D01*
X88170093Y-47142341D01*
X88145349Y-47141112D01*
X87991248Y-47133638D01*
X87877744Y-47129660D01*
X87801976Y-47130866D01*
X87761085Y-47138949D01*
X87752212Y-47155599D01*
X87668158Y-47155599D01*
X87617893Y-47110173D01*
X88618644Y-47109282D01*
X89619394Y-47108390D01*
X89835343Y-47325152D01*
G37*
G36*
X96611502Y-47108532D02*
G01*
X96807774Y-47109036D01*
X96967549Y-47110015D01*
X97094324Y-47111580D01*
X97191598Y-47113847D01*
X97262867Y-47116927D01*
X97311629Y-47120934D01*
X97341383Y-47125982D01*
X97355626Y-47132183D01*
X97357855Y-47139650D01*
X97357667Y-47140182D01*
X97327789Y-47174400D01*
X97309420Y-47183618D01*
X97270853Y-47205434D01*
X97220439Y-47244921D01*
X97208133Y-47256027D01*
X97065056Y-47374392D01*
X96904378Y-47482268D01*
X96738220Y-47572728D01*
X96578703Y-47638845D01*
X96496349Y-47662761D01*
X96423012Y-47676173D01*
X96335039Y-47686658D01*
X96243846Y-47693593D01*
X96160847Y-47696356D01*
X96097458Y-47694326D01*
X96065093Y-47686879D01*
X96064439Y-47686300D01*
X96040775Y-47681237D01*
X95981168Y-47673105D01*
X95892992Y-47662782D01*
X95783619Y-47651145D01*
X95696560Y-47642511D01*
X95487729Y-47622130D01*
X95348454Y-47608012D01*
X95914212Y-47608012D01*
X95934278Y-47624575D01*
X95988645Y-47635097D01*
X96068564Y-47639738D01*
X96165287Y-47638659D01*
X96270066Y-47632020D01*
X96374153Y-47619981D01*
X96468799Y-47602703D01*
X96490496Y-47597446D01*
X96633194Y-47554728D01*
X96760971Y-47501749D01*
X96887348Y-47431726D01*
X97025840Y-47337876D01*
X97064727Y-47309311D01*
X97149955Y-47245805D01*
X97209798Y-47198372D01*
X97241758Y-47165008D01*
X97243337Y-47143707D01*
X97212038Y-47132467D01*
X97145362Y-47129283D01*
X97040812Y-47132150D01*
X96895891Y-47139064D01*
X96855092Y-47141089D01*
X96732153Y-47147571D01*
X96643633Y-47154091D01*
X96580492Y-47162462D01*
X96533694Y-47174498D01*
X96494199Y-47192014D01*
X96452969Y-47216822D01*
X96441907Y-47224000D01*
X96383497Y-47262865D01*
X96341263Y-47292360D01*
X96327396Y-47303306D01*
X96299598Y-47325792D01*
X96241549Y-47367580D01*
X96159489Y-47424302D01*
X96059653Y-47491588D01*
X96039760Y-47504827D01*
X95977156Y-47549063D01*
X95932169Y-47585915D01*
X95914233Y-47607627D01*
X95914212Y-47608012D01*
X95348454Y-47608012D01*
X95318967Y-47605023D01*
X95187002Y-47590799D01*
X95088566Y-47579067D01*
X95020388Y-47569438D01*
X94979198Y-47561520D01*
X94961725Y-47554922D01*
X94961516Y-47554724D01*
X94971358Y-47535642D01*
X95007145Y-47491978D01*
X95063727Y-47429555D01*
X95135950Y-47354195D01*
X95164655Y-47325152D01*
X95380604Y-47108390D01*
X96375236Y-47108390D01*
X96611502Y-47108532D01*
G37*
G36*
X92499156Y-45875577D02*
G01*
X92521363Y-45916900D01*
X92547919Y-45988942D01*
X92552917Y-46004751D01*
X92576808Y-46078161D01*
X92597634Y-46135485D01*
X92609868Y-46162414D01*
X92622786Y-46194453D01*
X92640257Y-46253927D01*
X92652737Y-46303766D01*
X92671332Y-46376007D01*
X92689226Y-46433752D01*
X92698329Y-46455992D01*
X92712492Y-46490734D01*
X92735144Y-46555436D01*
X92762256Y-46638408D01*
X92773250Y-46673458D01*
X92815313Y-46807571D01*
X92854995Y-46931114D01*
X92889387Y-47035214D01*
X92915582Y-47111000D01*
X92924723Y-47135573D01*
X92930839Y-47163257D01*
X92917504Y-47169838D01*
X92881363Y-47153721D01*
X92819059Y-47113310D01*
X92727237Y-47047010D01*
X92707413Y-47032277D01*
X92629011Y-46974857D01*
X92563295Y-46928657D01*
X92518078Y-46899051D01*
X92501855Y-46890924D01*
X92480023Y-46902847D01*
X92432463Y-46934298D01*
X92368308Y-46978795D01*
X92296693Y-47029859D01*
X92226750Y-47081011D01*
X92167614Y-47125770D01*
X92141181Y-47146810D01*
X92091631Y-47182927D01*
X92070094Y-47186446D01*
X92074531Y-47160887D01*
X92088028Y-47122791D01*
X92110513Y-47054466D01*
X92138283Y-46967283D01*
X92155317Y-46912670D01*
X92184662Y-46819476D01*
X92211141Y-46738292D01*
X92230958Y-46680619D01*
X92237855Y-46662585D01*
X92254567Y-46618181D01*
X92279869Y-46544482D01*
X92311133Y-46449827D01*
X92345734Y-46342551D01*
X92381042Y-46230992D01*
X92414431Y-46123486D01*
X92443273Y-46028370D01*
X92464942Y-45953982D01*
X92476808Y-45908657D01*
X92478253Y-45899795D01*
X92483914Y-45868650D01*
X92499156Y-45875577D01*
G37*
G36*
X85766743Y-45637407D02*
G01*
X85850842Y-45655363D01*
X85889040Y-45664483D01*
X85981244Y-45686320D01*
X86093438Y-45712207D01*
X86203114Y-45736956D01*
X86215239Y-45739648D01*
X86323060Y-45763858D01*
X86436148Y-45789767D01*
X86531996Y-45812213D01*
X86541438Y-45814468D01*
X86633541Y-45836279D01*
X86745619Y-45862449D01*
X86855226Y-45887742D01*
X86867636Y-45890581D01*
X86975359Y-45915425D01*
X87088360Y-45941846D01*
X87184188Y-45964592D01*
X87193835Y-45966914D01*
X87276549Y-45986298D01*
X87385119Y-46010960D01*
X87502859Y-46037137D01*
X87574400Y-46052749D01*
X87681155Y-46076297D01*
X87781312Y-46099192D01*
X87861723Y-46118388D01*
X87900599Y-46128368D01*
X87958092Y-46142948D01*
X88044982Y-46163551D01*
X88148133Y-46187110D01*
X88226797Y-46204552D01*
X88353944Y-46233099D01*
X88494197Y-46265760D01*
X88625188Y-46297286D01*
X88679085Y-46310696D01*
X88892160Y-46364532D01*
X89206439Y-46679843D01*
X89301119Y-46775446D01*
X89384370Y-46860680D01*
X89451618Y-46930764D01*
X89498287Y-46980917D01*
X89519805Y-47006360D01*
X89520718Y-47008279D01*
X89501778Y-47016038D01*
X89455934Y-47020332D01*
X89399650Y-47020993D01*
X89349391Y-47017850D01*
X89321620Y-47010734D01*
X89321179Y-47010334D01*
X89314896Y-47007529D01*
X89299322Y-47004304D01*
X89271304Y-47000376D01*
X89227689Y-46995461D01*
X89165321Y-46989276D01*
X89081047Y-46981537D01*
X88971714Y-46971961D01*
X88834167Y-46960264D01*
X88665252Y-46946164D01*
X88461816Y-46929377D01*
X88220704Y-46909618D01*
X87998458Y-46891473D01*
X87847939Y-46878536D01*
X87706700Y-46865161D01*
X87582278Y-46852159D01*
X87482209Y-46840341D01*
X87414028Y-46830516D01*
X87393565Y-46826437D01*
X87314008Y-46801834D01*
X87222415Y-46766357D01*
X87131470Y-46725751D01*
X87053857Y-46685759D01*
X87002262Y-46652126D01*
X86995845Y-46646334D01*
X86967912Y-46622549D01*
X86911362Y-46577525D01*
X86832396Y-46516088D01*
X86737214Y-46443065D01*
X86637126Y-46367136D01*
X86521178Y-46279216D01*
X86404973Y-46190348D01*
X86297879Y-46107746D01*
X86209262Y-46038629D01*
X86160873Y-46000232D01*
X86073335Y-45931131D01*
X85980652Y-45860001D01*
X85900608Y-45800459D01*
X85889040Y-45792113D01*
X85792224Y-45721466D01*
X85905803Y-45721466D01*
X85912505Y-45731950D01*
X85936163Y-45753296D01*
X85980092Y-45788404D01*
X86047607Y-45840173D01*
X86142023Y-45911501D01*
X86266657Y-46005290D01*
X86315052Y-46041716D01*
X86382214Y-46093152D01*
X86438033Y-46137467D01*
X86471116Y-46165601D01*
X86472315Y-46166759D01*
X86504468Y-46190837D01*
X86517144Y-46195033D01*
X86543770Y-46208170D01*
X86575394Y-46233215D01*
X86643500Y-46290969D01*
X86731720Y-46360121D01*
X86832271Y-46435180D01*
X86937370Y-46510659D01*
X87039232Y-46581067D01*
X87130073Y-46640916D01*
X87202110Y-46684715D01*
X87246827Y-46706732D01*
X87322564Y-46727981D01*
X87417691Y-46748128D01*
X87523875Y-46766207D01*
X87632784Y-46781253D01*
X87736084Y-46792301D01*
X87825443Y-46798384D01*
X87892528Y-46798539D01*
X87929008Y-46791799D01*
X87933218Y-46786248D01*
X87915906Y-46769770D01*
X87867211Y-46732710D01*
X87791998Y-46678529D01*
X87695130Y-46610685D01*
X87581469Y-46532637D01*
X87482181Y-46465486D01*
X87356943Y-46381060D01*
X87242908Y-46303666D01*
X87145312Y-46236902D01*
X87069394Y-46184364D01*
X87020391Y-46149648D01*
X87004334Y-46137361D01*
X86969607Y-46110797D01*
X86915168Y-46074651D01*
X86895396Y-46062395D01*
X86842954Y-46029149D01*
X86808166Y-46004548D01*
X86802396Y-45999314D01*
X86753172Y-45961435D01*
X86667203Y-45919267D01*
X86550686Y-45875420D01*
X86409818Y-45832504D01*
X86400085Y-45829841D01*
X86285525Y-45798990D01*
X86198992Y-45776687D01*
X86126642Y-45759713D01*
X86054631Y-45744851D01*
X85969116Y-45728881D01*
X85954280Y-45726193D01*
X85930006Y-45721487D01*
X85912742Y-45718945D01*
X85905803Y-45721466D01*
X85792224Y-45721466D01*
X85792209Y-45721455D01*
X85731564Y-45672791D01*
X85707104Y-45643986D01*
X85718831Y-45632903D01*
X85766743Y-45637407D01*
G37*
G36*
X99305958Y-45628369D02*
G01*
X99306677Y-45629581D01*
X99290344Y-45647777D01*
X99246089Y-45685839D01*
X99181029Y-45737863D01*
X99116395Y-45787369D01*
X99018738Y-45861232D01*
X98915477Y-45939955D01*
X98822733Y-46011224D01*
X98784760Y-46040670D01*
X98654497Y-46141909D01*
X98526500Y-46240939D01*
X98406025Y-46333732D01*
X98298326Y-46416264D01*
X98208658Y-46484509D01*
X98142274Y-46534441D01*
X98104430Y-46562035D01*
X98102501Y-46563354D01*
X98052351Y-46601063D01*
X98001883Y-46643721D01*
X97928416Y-46694613D01*
X97824320Y-46746178D01*
X97702048Y-46793123D01*
X97574053Y-46830158D01*
X97550576Y-46835536D01*
X97478624Y-46847712D01*
X97374236Y-46860704D01*
X97248425Y-46873364D01*
X97112203Y-46884543D01*
X97023287Y-46890474D01*
X96893953Y-46898632D01*
X96775250Y-46906848D01*
X96675886Y-46914463D01*
X96604567Y-46920819D01*
X96574332Y-46924426D01*
X96530668Y-46929792D01*
X96452207Y-46937751D01*
X96347516Y-46947502D01*
X96225157Y-46958242D01*
X96117654Y-46967223D01*
X95981794Y-46978544D01*
X95851407Y-46989828D01*
X95736629Y-47000168D01*
X95647593Y-47008656D01*
X95604323Y-47013202D01*
X95537428Y-47018170D01*
X95492053Y-47016423D01*
X95479280Y-47010366D01*
X95493988Y-46990501D01*
X95535050Y-46944919D01*
X95597870Y-46878464D01*
X95677854Y-46795977D01*
X95688437Y-46785266D01*
X97066780Y-46785266D01*
X97088046Y-46793435D01*
X97151399Y-46793672D01*
X97256167Y-46786018D01*
X97401681Y-46770515D01*
X97499486Y-46758576D01*
X97594656Y-46743755D01*
X97686881Y-46724797D01*
X97753344Y-46706673D01*
X97798200Y-46684317D01*
X97869588Y-46640579D01*
X97959801Y-46580900D01*
X98061134Y-46510719D01*
X98165877Y-46435477D01*
X98266327Y-46360614D01*
X98354774Y-46291568D01*
X98423513Y-46233780D01*
X98424284Y-46233090D01*
X98461774Y-46204451D01*
X98482855Y-46195033D01*
X98510277Y-46181535D01*
X98527684Y-46166759D01*
X98554013Y-46143757D01*
X98602739Y-46104958D01*
X98676801Y-46048113D01*
X98779139Y-45970976D01*
X98912694Y-45871300D01*
X98967213Y-45830778D01*
X99041523Y-45772291D01*
X99078142Y-45734701D01*
X99077102Y-45717253D01*
X99038435Y-45719195D01*
X98971149Y-45737002D01*
X98918956Y-45751505D01*
X98839212Y-45772040D01*
X98746736Y-45794820D01*
X98719520Y-45801337D01*
X98580184Y-45834960D01*
X98476685Y-45861373D01*
X98402364Y-45882614D01*
X98350560Y-45900725D01*
X98314614Y-45917745D01*
X98292542Y-45932137D01*
X98239841Y-45970152D01*
X98205555Y-45993783D01*
X98173555Y-46015469D01*
X98113349Y-46056547D01*
X98032586Y-46111790D01*
X97938913Y-46175968D01*
X97903326Y-46200375D01*
X97783693Y-46282189D01*
X97644189Y-46377185D01*
X97501064Y-46474321D01*
X97370569Y-46562552D01*
X97354225Y-46573570D01*
X97256702Y-46640358D01*
X97173351Y-46699487D01*
X97110281Y-46746459D01*
X97073596Y-46776779D01*
X97066780Y-46785266D01*
X95688437Y-46785266D01*
X95770407Y-46702301D01*
X95793855Y-46678817D01*
X96108430Y-46364389D01*
X96321210Y-46310625D01*
X96439385Y-46281600D01*
X96577780Y-46248868D01*
X96714051Y-46217672D01*
X96773201Y-46204552D01*
X96879927Y-46180796D01*
X96980061Y-46157766D01*
X97060468Y-46138524D01*
X97099400Y-46128563D01*
X97156929Y-46114152D01*
X97243876Y-46093862D01*
X97347087Y-46070713D01*
X97425599Y-46053648D01*
X97540581Y-46028508D01*
X97656928Y-46002206D01*
X97757929Y-45978557D01*
X97806164Y-45966738D01*
X97898383Y-45944175D01*
X98010596Y-45917733D01*
X98120283Y-45892707D01*
X98132362Y-45890016D01*
X98240171Y-45865798D01*
X98353247Y-45839952D01*
X98449093Y-45817627D01*
X98458561Y-45815383D01*
X98548512Y-45794423D01*
X98659977Y-45769033D01*
X98771959Y-45743985D01*
X98795633Y-45738763D01*
X98908082Y-45713343D01*
X99027970Y-45685143D01*
X99132507Y-45659542D01*
X99149015Y-45655349D01*
X99224285Y-45637856D01*
X99280010Y-45628305D01*
X99305958Y-45628369D01*
G37*
G36*
X92136982Y-46369579D02*
G01*
X92202721Y-46372123D01*
X92239009Y-46377880D01*
X92252864Y-46388088D01*
X92251305Y-46403990D01*
X92250127Y-46407063D01*
X92234855Y-46450015D01*
X92213735Y-46515165D01*
X92203465Y-46548415D01*
X92182651Y-46607466D01*
X92164112Y-46644219D01*
X92156648Y-46650409D01*
X92133308Y-46637972D01*
X92083344Y-46605641D01*
X92015331Y-46559076D01*
X91972645Y-46528955D01*
X91899875Y-46475114D01*
X91842901Y-46429225D01*
X91809550Y-46397792D01*
X91804109Y-46388905D01*
X91824362Y-46380775D01*
X91879163Y-46374249D01*
X91959575Y-46370098D01*
X92034774Y-46369006D01*
X92136982Y-46369579D01*
G37*
G36*
X93082994Y-46370452D02*
G01*
X93158007Y-46374362D01*
X93205369Y-46380094D01*
X93217351Y-46385316D01*
X93200979Y-46407007D01*
X93160614Y-46440755D01*
X93146675Y-46450814D01*
X93064601Y-46507466D01*
X92984890Y-46561286D01*
X92915753Y-46606866D01*
X92865404Y-46638795D01*
X92842056Y-46651664D01*
X92841681Y-46651712D01*
X92832013Y-46632570D01*
X92815124Y-46582689D01*
X92797143Y-46521560D01*
X92778194Y-46451734D01*
X92765095Y-46400271D01*
X92760958Y-46380208D01*
X92781206Y-46375609D01*
X92835960Y-46371926D01*
X92916237Y-46369598D01*
X92989297Y-46369006D01*
X93082994Y-46370452D01*
G37*
G36*
X92438226Y-44553836D02*
G01*
X92461715Y-44560551D01*
X92466495Y-44586461D01*
X92470250Y-44649403D01*
X92472833Y-44742926D01*
X92474097Y-44860578D01*
X92473893Y-44995907D01*
X92473243Y-45064244D01*
X92467379Y-45550547D01*
X92326027Y-45585778D01*
X92207855Y-45619906D01*
X92114886Y-45660406D01*
X92028940Y-45716764D01*
X91950898Y-45781511D01*
X91887492Y-45840232D01*
X91854120Y-45881699D01*
X91853411Y-45908864D01*
X91887996Y-45924679D01*
X91960503Y-45932095D01*
X92073562Y-45934064D01*
X92086814Y-45934075D01*
X92194249Y-45935048D01*
X92265007Y-45938572D01*
X92305875Y-45945555D01*
X92323637Y-45956902D01*
X92326027Y-45966045D01*
X92318734Y-45979728D01*
X92292663Y-45989533D01*
X92241524Y-45996324D01*
X92159026Y-46000963D01*
X92048819Y-46004101D01*
X91771612Y-46010188D01*
X91743043Y-46097174D01*
X91722095Y-46178509D01*
X91708684Y-46262256D01*
X91707908Y-46271146D01*
X91701343Y-46358133D01*
X91187315Y-46363963D01*
X90673287Y-46369793D01*
X90673287Y-46262309D01*
X90678368Y-46191097D01*
X90691902Y-46094973D01*
X90711327Y-45991104D01*
X90718907Y-45956688D01*
X90801413Y-45692778D01*
X90921632Y-45447488D01*
X91076584Y-45224080D01*
X91263294Y-45025812D01*
X91478781Y-44855947D01*
X91720068Y-44717745D01*
X91928274Y-44632649D01*
X92005611Y-44610593D01*
X92099495Y-44590284D01*
X92199812Y-44573086D01*
X92296448Y-44560367D01*
X92379291Y-44553495D01*
X92438226Y-44553836D01*
G37*
G36*
X92657662Y-44552442D02*
G01*
X92758425Y-44564613D01*
X92866397Y-44579852D01*
X92920660Y-44588524D01*
X93008756Y-44610254D01*
X93116923Y-44646744D01*
X93232850Y-44692765D01*
X93344229Y-44743086D01*
X93438748Y-44792478D01*
X93504098Y-44835712D01*
X93505757Y-44837092D01*
X93551948Y-44871714D01*
X93585637Y-44889577D01*
X93589693Y-44890239D01*
X93611712Y-44904781D01*
X93656373Y-44943607D01*
X93716316Y-44999514D01*
X93784178Y-45065301D01*
X93852595Y-45133766D01*
X93914207Y-45197708D01*
X93961650Y-45249924D01*
X93979187Y-45271233D01*
X94112807Y-45478614D01*
X94219335Y-45714803D01*
X94295778Y-45972401D01*
X94324557Y-46124761D01*
X94337507Y-46202116D01*
X94346817Y-46261336D01*
X94347751Y-46304813D01*
X94335569Y-46334941D01*
X94305532Y-46354115D01*
X94252900Y-46364727D01*
X94172935Y-46369173D01*
X94060898Y-46369846D01*
X93912050Y-46369139D01*
X93841038Y-46369006D01*
X93696670Y-46368410D01*
X93567037Y-46366737D01*
X93458397Y-46364161D01*
X93377010Y-46360856D01*
X93329134Y-46356996D01*
X93319120Y-46354508D01*
X93309573Y-46325008D01*
X93304761Y-46271078D01*
X93304623Y-46259894D01*
X93297306Y-46182801D01*
X93278493Y-46105679D01*
X93252894Y-46043999D01*
X93230384Y-46015957D01*
X93200538Y-46009783D01*
X93136498Y-46004661D01*
X93047559Y-46001112D01*
X92943016Y-45999655D01*
X92938773Y-45999647D01*
X92826688Y-45998997D01*
X92751288Y-45996706D01*
X92705770Y-45991774D01*
X92683330Y-45983199D01*
X92677165Y-45969979D01*
X92678071Y-45961258D01*
X92686754Y-45943846D01*
X92710007Y-45932056D01*
X92755528Y-45924423D01*
X92831017Y-45919483D01*
X92912752Y-45916641D01*
X93007700Y-45912959D01*
X93085387Y-45908171D01*
X93136235Y-45902975D01*
X93150938Y-45899288D01*
X93152307Y-45871160D01*
X93121334Y-45829963D01*
X93065287Y-45780591D01*
X92991436Y-45727940D01*
X92907048Y-45676904D01*
X92819392Y-45632377D01*
X92735736Y-45599256D01*
X92685556Y-45585885D01*
X92613616Y-45568394D01*
X92559712Y-45549104D01*
X92538389Y-45535055D01*
X92533742Y-45506842D01*
X92529597Y-45441726D01*
X92526164Y-45346294D01*
X92523653Y-45227136D01*
X92522275Y-45090841D01*
X92522079Y-45024020D01*
X92521746Y-44538023D01*
X92657662Y-44552442D01*
G37*
G36*
X80904808Y-43217290D02*
G01*
X81333469Y-43217556D01*
X81737818Y-43218015D01*
X82115275Y-43218659D01*
X82463261Y-43219483D01*
X82779196Y-43220480D01*
X83060503Y-43221641D01*
X83304601Y-43222961D01*
X83508911Y-43224433D01*
X83670854Y-43226049D01*
X83787851Y-43227803D01*
X83857322Y-43229688D01*
X83877058Y-43231361D01*
X83887005Y-43263165D01*
X83901047Y-43336975D01*
X83917548Y-43442851D01*
X83934870Y-43570850D01*
X83940563Y-43616872D01*
X83964143Y-43873327D01*
X83979116Y-44174121D01*
X83985863Y-44512112D01*
X83984764Y-44880154D01*
X83976202Y-45271104D01*
X83960556Y-45677817D01*
X83938207Y-46093149D01*
X83909537Y-46509955D01*
X83874927Y-46921092D01*
X83834757Y-47319414D01*
X83789409Y-47697778D01*
X83739262Y-48049039D01*
X83688358Y-48346708D01*
X83659204Y-48492107D01*
X83621267Y-48666769D01*
X83577213Y-48859721D01*
X83529705Y-49059988D01*
X83481408Y-49256595D01*
X83434987Y-49438567D01*
X83393106Y-49594930D01*
X83358429Y-49714709D01*
X83349099Y-49744098D01*
X83153833Y-50266105D01*
X82912249Y-50788164D01*
X82629517Y-51301366D01*
X82310808Y-51796805D01*
X81961294Y-52265572D01*
X81717695Y-52554394D01*
X81591203Y-52692674D01*
X81440585Y-52850267D01*
X81272996Y-53020278D01*
X81095593Y-53195813D01*
X80915534Y-53369975D01*
X80739974Y-53535872D01*
X80576070Y-53686606D01*
X80430979Y-53815283D01*
X80311858Y-53915009D01*
X80277797Y-53941666D01*
X80182537Y-54015714D01*
X80082586Y-54095441D01*
X80029546Y-54138804D01*
X79964968Y-54189171D01*
X79868891Y-54260070D01*
X79753202Y-54342900D01*
X79629792Y-54429058D01*
X79601919Y-54448198D01*
X79427988Y-54566477D01*
X79288687Y-54656089D01*
X79175428Y-54717753D01*
X79079619Y-54752185D01*
X78992670Y-54760102D01*
X78905990Y-54742223D01*
X78810990Y-54699263D01*
X78699079Y-54631940D01*
X78561667Y-54540971D01*
X78553799Y-54535699D01*
X78421859Y-54446040D01*
X78291544Y-54355305D01*
X78175467Y-54272419D01*
X78086237Y-54206306D01*
X78064533Y-54189454D01*
X77975743Y-54120036D01*
X77890531Y-54054821D01*
X77829348Y-54009393D01*
X77716682Y-53921712D01*
X77575966Y-53801663D01*
X77413551Y-53655546D01*
X77235790Y-53489663D01*
X77049032Y-53310312D01*
X76859629Y-53123795D01*
X76673933Y-52936413D01*
X76498295Y-52754467D01*
X76339066Y-52584256D01*
X76202598Y-52432081D01*
X76095241Y-52304243D01*
X76047119Y-52241396D01*
X75982383Y-52155078D01*
X75907307Y-52059057D01*
X75873284Y-52016946D01*
X75728961Y-51826982D01*
X75574386Y-51598649D01*
X75415972Y-51343110D01*
X75260132Y-51071532D01*
X75113278Y-50795078D01*
X74981825Y-50524915D01*
X74874663Y-50278359D01*
X74700329Y-49800823D01*
X74545222Y-49281413D01*
X74410991Y-48727476D01*
X74299291Y-48146358D01*
X74211771Y-47545404D01*
X74167136Y-47131584D01*
X74119404Y-46571353D01*
X74082377Y-46037557D01*
X74056104Y-45533451D01*
X74040638Y-45062295D01*
X74037258Y-44743362D01*
X74183925Y-44743362D01*
X74186601Y-45048570D01*
X74188102Y-45145576D01*
X74200918Y-45667794D01*
X74221307Y-46147462D01*
X74250108Y-46593858D01*
X74288158Y-47016260D01*
X74336296Y-47423946D01*
X74395362Y-47826194D01*
X74466195Y-48232281D01*
X74468052Y-48242181D01*
X74497133Y-48397912D01*
X74525002Y-48548857D01*
X74549217Y-48681670D01*
X74567337Y-48783006D01*
X74573242Y-48817078D01*
X74611540Y-49001323D01*
X74668663Y-49221282D01*
X74740811Y-49465556D01*
X74824186Y-49722747D01*
X74914988Y-49981456D01*
X75009418Y-50230284D01*
X75103678Y-50457832D01*
X75165473Y-50594033D01*
X75266664Y-50802344D01*
X75356532Y-50975127D01*
X75442505Y-51125637D01*
X75532010Y-51267131D01*
X75592522Y-51356124D01*
X75636095Y-51423359D01*
X75663453Y-51474426D01*
X75668209Y-51489987D01*
X75683556Y-51520443D01*
X75726035Y-51584661D01*
X75790303Y-51675455D01*
X75871021Y-51785638D01*
X75962845Y-51908021D01*
X76060434Y-52035418D01*
X76158447Y-52160642D01*
X76251541Y-52276504D01*
X76264718Y-52292593D01*
X76420677Y-52473474D01*
X76610197Y-52678466D01*
X76825409Y-52899820D01*
X77058443Y-53129789D01*
X77301431Y-53360624D01*
X77546503Y-53584575D01*
X77785790Y-53793896D01*
X77812333Y-53816469D01*
X77908611Y-53896009D01*
X78020844Y-53985451D01*
X78140453Y-54078332D01*
X78258861Y-54168188D01*
X78367489Y-54248556D01*
X78457757Y-54312972D01*
X78521089Y-54354973D01*
X78542695Y-54366770D01*
X78583286Y-54388695D01*
X78652585Y-54430708D01*
X78735843Y-54483859D01*
X78738683Y-54485715D01*
X78859659Y-54564636D01*
X78941542Y-54617467D01*
X78988769Y-54647042D01*
X79005383Y-54656140D01*
X79028830Y-54644783D01*
X79084467Y-54613854D01*
X79149107Y-54576536D01*
X79239335Y-54521878D01*
X79323816Y-54467683D01*
X79365843Y-54438813D01*
X79440604Y-54389015D01*
X79512463Y-54347423D01*
X79514085Y-54346595D01*
X79572348Y-54310510D01*
X79650290Y-54254140D01*
X79710072Y-54206785D01*
X79802629Y-54133246D01*
X79901916Y-54058851D01*
X79953806Y-54022145D01*
X80076173Y-53931363D01*
X80226940Y-53807915D01*
X80399580Y-53658014D01*
X80587564Y-53487874D01*
X80784367Y-53303708D01*
X80983461Y-53111729D01*
X81178319Y-52918151D01*
X81362414Y-52729187D01*
X81529219Y-52551050D01*
X81672206Y-52389953D01*
X81688364Y-52370988D01*
X81796921Y-52240782D01*
X81907465Y-52104470D01*
X82014986Y-51968635D01*
X82114468Y-51839858D01*
X82200899Y-51724719D01*
X82269267Y-51629801D01*
X82314557Y-51561684D01*
X82331757Y-51526950D01*
X82331790Y-51526282D01*
X82345905Y-51493142D01*
X82381730Y-51434988D01*
X82404902Y-51401503D01*
X82553355Y-51173613D01*
X82703948Y-50903464D01*
X82852610Y-50600688D01*
X82995267Y-50274919D01*
X83127848Y-49935789D01*
X83246278Y-49592931D01*
X83346486Y-49255979D01*
X83398147Y-49052263D01*
X83496140Y-48595417D01*
X83585644Y-48097946D01*
X83664961Y-47571046D01*
X83732393Y-47025911D01*
X83782511Y-46517490D01*
X83797561Y-46314895D01*
X83810316Y-46086104D01*
X83820780Y-45836982D01*
X83828960Y-45573390D01*
X83834858Y-45301192D01*
X83838481Y-45026251D01*
X83839831Y-44754431D01*
X83838914Y-44491594D01*
X83835735Y-44243603D01*
X83830297Y-44016322D01*
X83822606Y-43815614D01*
X83812666Y-43647342D01*
X83800482Y-43517369D01*
X83786058Y-43431558D01*
X83780096Y-43412022D01*
X83775431Y-43406664D01*
X83764247Y-43401763D01*
X83744321Y-43397300D01*
X83713429Y-43393253D01*
X83669349Y-43389603D01*
X83609856Y-43386329D01*
X83532727Y-43383411D01*
X83435739Y-43380830D01*
X83316668Y-43378564D01*
X83173291Y-43376593D01*
X83003385Y-43374898D01*
X82804726Y-43373458D01*
X82575090Y-43372252D01*
X82312255Y-43371261D01*
X82013998Y-43370464D01*
X81678093Y-43369841D01*
X81302319Y-43369372D01*
X80884452Y-43369037D01*
X80422268Y-43368814D01*
X79913545Y-43368685D01*
X79356058Y-43368629D01*
X79013065Y-43368621D01*
X78424564Y-43368653D01*
X77886130Y-43368759D01*
X77395565Y-43368960D01*
X76950674Y-43369273D01*
X76549259Y-43369718D01*
X76189124Y-43370312D01*
X75868071Y-43371076D01*
X75583905Y-43372027D01*
X75334429Y-43373184D01*
X75117446Y-43374566D01*
X74930758Y-43376192D01*
X74772170Y-43378079D01*
X74639485Y-43380248D01*
X74530506Y-43382717D01*
X74443036Y-43385504D01*
X74374878Y-43388628D01*
X74323836Y-43392108D01*
X74287714Y-43395963D01*
X74264314Y-43400211D01*
X74251439Y-43404870D01*
X74247117Y-43409205D01*
X74230433Y-43480845D01*
X74216034Y-43599991D01*
X74204081Y-43761931D01*
X74194733Y-43961952D01*
X74188151Y-44195339D01*
X74184495Y-44457380D01*
X74183925Y-44743362D01*
X74037258Y-44743362D01*
X74036028Y-44627345D01*
X74042328Y-44231860D01*
X74059588Y-43879096D01*
X74087859Y-43572312D01*
X74108666Y-43420885D01*
X74139506Y-43224897D01*
X78998624Y-43218295D01*
X79498743Y-43217720D01*
X79984866Y-43217365D01*
X80454414Y-43217224D01*
X80904808Y-43217290D01*
G37*
G36*
X83491139Y-43780195D02*
G01*
X83505903Y-43905772D01*
X83516623Y-44077664D01*
X83523373Y-44290087D01*
X83526232Y-44537258D01*
X83525273Y-44813390D01*
X83520574Y-45112700D01*
X83512211Y-45429402D01*
X83500259Y-45757713D01*
X83484795Y-46091847D01*
X83465894Y-46426020D01*
X83453978Y-46608951D01*
X83421327Y-46992961D01*
X83375652Y-47390733D01*
X83318624Y-47793232D01*
X83251911Y-48191423D01*
X83177182Y-48576271D01*
X83096107Y-48938744D01*
X83010353Y-49269805D01*
X82921592Y-49560421D01*
X82893962Y-49640226D01*
X82851376Y-49761419D01*
X82807727Y-49889031D01*
X82773259Y-49993004D01*
X82740196Y-50080338D01*
X82687349Y-50202516D01*
X82620079Y-50348568D01*
X82543749Y-50507520D01*
X82463721Y-50668403D01*
X82385356Y-50820244D01*
X82314015Y-50952071D01*
X82256044Y-51051337D01*
X82142494Y-51232169D01*
X82042905Y-51385917D01*
X81949476Y-51523337D01*
X81854409Y-51655188D01*
X81749905Y-51792227D01*
X81628163Y-51945212D01*
X81481385Y-52124901D01*
X81450860Y-52161934D01*
X81363367Y-52262370D01*
X81246742Y-52387945D01*
X81107424Y-52532419D01*
X80951850Y-52689554D01*
X80786458Y-52853108D01*
X80617687Y-53016845D01*
X80451973Y-53174523D01*
X80295754Y-53319905D01*
X80155469Y-53446749D01*
X80037555Y-53548819D01*
X79948450Y-53619873D01*
X79940740Y-53625487D01*
X79858180Y-53688127D01*
X79778502Y-53753631D01*
X79757819Y-53771911D01*
X79698712Y-53820352D01*
X79612429Y-53884388D01*
X79508049Y-53958001D01*
X79394651Y-54035173D01*
X79281317Y-54109886D01*
X79177125Y-54176122D01*
X79091156Y-54227861D01*
X79032491Y-54259087D01*
X79013065Y-54265535D01*
X78977620Y-54251498D01*
X78908165Y-54212926D01*
X78813595Y-54155132D01*
X78702807Y-54083425D01*
X78659388Y-54054365D01*
X78539842Y-53972357D01*
X78429480Y-53894337D01*
X78338802Y-53827888D01*
X78278309Y-53780594D01*
X78268312Y-53771911D01*
X78196388Y-53710816D01*
X78111500Y-53644395D01*
X78085391Y-53625148D01*
X77986250Y-53548862D01*
X77867910Y-53448885D01*
X77727036Y-53322157D01*
X77560295Y-53165619D01*
X77364353Y-52976212D01*
X77174378Y-52789095D01*
X76917043Y-52529168D01*
X76693078Y-52291492D01*
X76494566Y-52066272D01*
X76313591Y-51843712D01*
X76142238Y-51614016D01*
X75972591Y-51367389D01*
X75796733Y-51094034D01*
X75770087Y-51051337D01*
X75707419Y-50943508D01*
X75631538Y-50802043D01*
X75548298Y-50638992D01*
X75463552Y-50466408D01*
X75383155Y-50296343D01*
X75312961Y-50140848D01*
X75258824Y-50011974D01*
X75236960Y-49953806D01*
X75113139Y-49584084D01*
X75006514Y-49230296D01*
X74914359Y-48880571D01*
X74833946Y-48523038D01*
X74762547Y-48145825D01*
X74697434Y-47737061D01*
X74651520Y-47405967D01*
X74624559Y-47177142D01*
X74599622Y-46919397D01*
X74576905Y-46638833D01*
X74556605Y-46341554D01*
X74538917Y-46033661D01*
X74524038Y-45721257D01*
X74512164Y-45410444D01*
X74503492Y-45107324D01*
X74498217Y-44818001D01*
X74496537Y-44548576D01*
X74496547Y-44547461D01*
X74624004Y-44547461D01*
X74624449Y-44784589D01*
X74627665Y-45034937D01*
X74633595Y-45288766D01*
X74642184Y-45536335D01*
X74649424Y-45694341D01*
X74664796Y-45978101D01*
X74681028Y-46236635D01*
X74699094Y-46479073D01*
X74719969Y-46714546D01*
X74744629Y-46952183D01*
X74774048Y-47201113D01*
X74809200Y-47470468D01*
X74851061Y-47769376D01*
X74900605Y-48106968D01*
X74922847Y-48255247D01*
X74960930Y-48467726D01*
X75015130Y-48714423D01*
X75081598Y-48981261D01*
X75156483Y-49254159D01*
X75235936Y-49519037D01*
X75316106Y-49761816D01*
X75387290Y-49953806D01*
X75439622Y-50079440D01*
X75503417Y-50223600D01*
X75573992Y-50376626D01*
X75646666Y-50528856D01*
X75716758Y-50670631D01*
X75779586Y-50792289D01*
X75830468Y-50884170D01*
X75861714Y-50932811D01*
X75908096Y-50999875D01*
X75965369Y-51091211D01*
X76011831Y-51170741D01*
X76125228Y-51353319D01*
X76273618Y-51562055D01*
X76451208Y-51790428D01*
X76652202Y-52031921D01*
X76870806Y-52280014D01*
X77101225Y-52528188D01*
X77337664Y-52769925D01*
X77574329Y-52998705D01*
X77805425Y-53208010D01*
X77879071Y-53271352D01*
X77936697Y-53320276D01*
X78017439Y-53388905D01*
X78104619Y-53463063D01*
X78111522Y-53468938D01*
X78218168Y-53556661D01*
X78340972Y-53652766D01*
X78472330Y-53751835D01*
X78604639Y-53848454D01*
X78730294Y-53937206D01*
X78841692Y-54012675D01*
X78931227Y-54069444D01*
X78991297Y-54102099D01*
X79008412Y-54107756D01*
X79033773Y-54096420D01*
X79090057Y-54066206D01*
X79139071Y-54038531D01*
X79282784Y-53947754D01*
X79457357Y-53823593D01*
X79657427Y-53670340D01*
X79877634Y-53492288D01*
X80112613Y-53293730D01*
X80357005Y-53078957D01*
X80503974Y-52945885D01*
X80707522Y-52751907D01*
X80918554Y-52536940D01*
X81130525Y-52308636D01*
X81336890Y-52074650D01*
X81531101Y-51842636D01*
X81706615Y-51620248D01*
X81856885Y-51415139D01*
X81975365Y-51234964D01*
X81994290Y-51203246D01*
X82057120Y-51098969D01*
X82128631Y-50984759D01*
X82166920Y-50925581D01*
X82219764Y-50836890D01*
X82287174Y-50711138D01*
X82363708Y-50559547D01*
X82443927Y-50393338D01*
X82522388Y-50223734D01*
X82593651Y-50061955D01*
X82640766Y-49948347D01*
X82691619Y-49811409D01*
X82749494Y-49639485D01*
X82811044Y-49444153D01*
X82872921Y-49236988D01*
X82931779Y-49029570D01*
X82984269Y-48833474D01*
X83027044Y-48660278D01*
X83056759Y-48521559D01*
X83062289Y-48490432D01*
X83131863Y-48059793D01*
X83190422Y-47669112D01*
X83239305Y-47307565D01*
X83279848Y-46964326D01*
X83313391Y-46628571D01*
X83341272Y-46289475D01*
X83350602Y-46158348D01*
X83363744Y-45938894D01*
X83375155Y-45694979D01*
X83384636Y-45436395D01*
X83391991Y-45172931D01*
X83397021Y-44914378D01*
X83399528Y-44670527D01*
X83399315Y-44451169D01*
X83396184Y-44266094D01*
X83391257Y-44146039D01*
X83371795Y-43812860D01*
X79014269Y-43812860D01*
X74656743Y-43812860D01*
X74639842Y-44012790D01*
X74631645Y-44151822D01*
X74626384Y-44333292D01*
X74624004Y-44547461D01*
X74496547Y-44547461D01*
X74498647Y-44305152D01*
X74504744Y-44093830D01*
X74515024Y-43920714D01*
X74529683Y-43791906D01*
X74534418Y-43765512D01*
X74551080Y-43682202D01*
X79012913Y-43682202D01*
X83474746Y-43682202D01*
X83491139Y-43780195D01*
G37*
G36*
X78538369Y-50612359D02*
G01*
X78527676Y-50629719D01*
X78470991Y-50660742D01*
X78464300Y-50663817D01*
X78353941Y-50714402D01*
X78282800Y-50748595D01*
X78242346Y-50771248D01*
X78224046Y-50787210D01*
X78219367Y-50801332D01*
X78219316Y-50803086D01*
X78244671Y-50829318D01*
X78320547Y-50848664D01*
X78445627Y-50860892D01*
X78575360Y-50865324D01*
X78670764Y-50869517D01*
X78741989Y-50877862D01*
X78776468Y-50888735D01*
X78777880Y-50891477D01*
X78753943Y-50904798D01*
X78690675Y-50918895D01*
X78600890Y-50931041D01*
X78584419Y-50932667D01*
X78480514Y-50944844D01*
X78418274Y-50959583D01*
X78387107Y-50980253D01*
X78378569Y-50998174D01*
X78374659Y-51046230D01*
X78398603Y-51080746D01*
X78459017Y-51108933D01*
X78537690Y-51131338D01*
X78624517Y-51150306D01*
X78680319Y-51152144D01*
X78723467Y-51136795D01*
X78733678Y-51130738D01*
X78808809Y-51103029D01*
X78915926Y-51086224D01*
X79035766Y-51080970D01*
X79149067Y-51087915D01*
X79236569Y-51107706D01*
X79249561Y-51113404D01*
X79322068Y-51143802D01*
X79388803Y-51153590D01*
X79469836Y-51143499D01*
X79548390Y-51124313D01*
X79621411Y-51100802D01*
X79656219Y-51074241D01*
X79666174Y-51033094D01*
X79666358Y-51022438D01*
X79663506Y-50985454D01*
X79647405Y-50962806D01*
X79606736Y-50949006D01*
X79530180Y-50938565D01*
X79483436Y-50933745D01*
X79378051Y-50919045D01*
X79318761Y-50902412D01*
X79306853Y-50886480D01*
X79343616Y-50873885D01*
X79430337Y-50867259D01*
X79450771Y-50866910D01*
X79601070Y-50860220D01*
X79712428Y-50844664D01*
X79782388Y-50821934D01*
X79808497Y-50793720D01*
X79788301Y-50761713D01*
X79719344Y-50727604D01*
X79674455Y-50712820D01*
X79587009Y-50683392D01*
X79532983Y-50658733D01*
X79516340Y-50642402D01*
X79541042Y-50637956D01*
X79601028Y-50646884D01*
X79696823Y-50661246D01*
X79803334Y-50670474D01*
X79826934Y-50671454D01*
X79897656Y-50681084D01*
X79989401Y-50703702D01*
X80089374Y-50734764D01*
X80184780Y-50769725D01*
X80262824Y-50804042D01*
X80310712Y-50833171D01*
X80319650Y-50846439D01*
X80296320Y-50859680D01*
X80237443Y-50867508D01*
X80204853Y-50868416D01*
X80123267Y-50875249D01*
X80080420Y-50898497D01*
X80071075Y-50914146D01*
X80063778Y-50957990D01*
X80058737Y-51041230D01*
X80056489Y-51151028D01*
X80057059Y-51249127D01*
X80057914Y-51382856D01*
X80054380Y-51473654D01*
X80045457Y-51530741D01*
X80030146Y-51563338D01*
X80022125Y-51571490D01*
X79974727Y-51594052D01*
X79944635Y-51568257D01*
X79931592Y-51493656D01*
X79932247Y-51416428D01*
X79933750Y-51314675D01*
X79923798Y-51257156D01*
X79899481Y-51236544D01*
X79863472Y-51243277D01*
X79838086Y-51270001D01*
X79825566Y-51331583D01*
X79823148Y-51403295D01*
X79819665Y-51490247D01*
X79807435Y-51535144D01*
X79783950Y-51547839D01*
X79759572Y-51534153D01*
X79747489Y-51486589D01*
X79744753Y-51413856D01*
X79744753Y-51279873D01*
X79612143Y-51292615D01*
X79526736Y-51303064D01*
X79467065Y-51320210D01*
X79431302Y-51351257D01*
X79417616Y-51403411D01*
X79424177Y-51483875D01*
X79449154Y-51599854D01*
X79490718Y-51758553D01*
X79492297Y-51764401D01*
X79532279Y-51912427D01*
X79571470Y-52057535D01*
X79605904Y-52185047D01*
X79631618Y-52280281D01*
X79636021Y-52296594D01*
X79666225Y-52390052D01*
X79700332Y-52468585D01*
X79725154Y-52507705D01*
X79766494Y-52578414D01*
X79758619Y-52642049D01*
X79741568Y-52664234D01*
X79697339Y-52682066D01*
X79655387Y-52666672D01*
X79640226Y-52633033D01*
X79625143Y-52590808D01*
X79588781Y-52534758D01*
X79587963Y-52533713D01*
X79549974Y-52462269D01*
X79535416Y-52392998D01*
X79527536Y-52323874D01*
X79507865Y-52232972D01*
X79495323Y-52188066D01*
X79472704Y-52107113D01*
X79443299Y-51992484D01*
X79411478Y-51861559D01*
X79390206Y-51769959D01*
X79357779Y-51628196D01*
X79334291Y-51530073D01*
X79317269Y-51468229D01*
X79304238Y-51435304D01*
X79292722Y-51423936D01*
X79280246Y-51426764D01*
X79275717Y-51429422D01*
X79263442Y-51462934D01*
X79270115Y-51497865D01*
X79277480Y-51552246D01*
X79273762Y-51630122D01*
X79261699Y-51715673D01*
X79244033Y-51793083D01*
X79223504Y-51846534D01*
X79207126Y-51861420D01*
X79172364Y-51882185D01*
X79160615Y-51932767D01*
X79172848Y-51995599D01*
X79197350Y-52038943D01*
X79235769Y-52095337D01*
X79243121Y-52140914D01*
X79217983Y-52194232D01*
X79181592Y-52244395D01*
X79110583Y-52311532D01*
X79033897Y-52329456D01*
X78945829Y-52298543D01*
X78893729Y-52263359D01*
X78827248Y-52193508D01*
X78804532Y-52123819D01*
X78827029Y-52063004D01*
X78856275Y-52038277D01*
X78901038Y-51994050D01*
X78897905Y-51943136D01*
X78846398Y-51879758D01*
X78842853Y-51876444D01*
X78808428Y-51838407D01*
X78787748Y-51793483D01*
X78776712Y-51726832D01*
X78771220Y-51623612D01*
X78770991Y-51616376D01*
X78765574Y-51502843D01*
X78757120Y-51436083D01*
X78744612Y-51416991D01*
X78727036Y-51446462D01*
X78703375Y-51525387D01*
X78672615Y-51654663D01*
X78659415Y-51714588D01*
X78632508Y-51829142D01*
X78597285Y-51966641D01*
X78560707Y-52100048D01*
X78555400Y-52118499D01*
X78525674Y-52230048D01*
X78503096Y-52331937D01*
X78491323Y-52407005D01*
X78490432Y-52423428D01*
X78481570Y-52490186D01*
X78461274Y-52533417D01*
X78426802Y-52579229D01*
X78402477Y-52621508D01*
X78360783Y-52677991D01*
X78318313Y-52691801D01*
X78299344Y-52680757D01*
X78282133Y-52632880D01*
X78286909Y-52564702D01*
X78310758Y-52501869D01*
X78321284Y-52487797D01*
X78343278Y-52447760D01*
X78374180Y-52365605D01*
X78414551Y-52239505D01*
X78464953Y-52067632D01*
X78525945Y-51848159D01*
X78585466Y-51626835D01*
X78605722Y-51531322D01*
X78615965Y-51443364D01*
X78615770Y-51404715D01*
X78605648Y-51355333D01*
X78578060Y-51327198D01*
X78518383Y-51308705D01*
X78486675Y-51302260D01*
X78385095Y-51287933D01*
X78323377Y-51297512D01*
X78292085Y-51337541D01*
X78281786Y-51414566D01*
X78281378Y-51444670D01*
X78275536Y-51531616D01*
X78261036Y-51571043D01*
X78242413Y-51566002D01*
X78224205Y-51519543D01*
X78210949Y-51434717D01*
X78208269Y-51395508D01*
X78201842Y-51305934D01*
X78190717Y-51257010D01*
X78170660Y-51237122D01*
X78149473Y-51234259D01*
X78121724Y-51239935D01*
X78106306Y-51264651D01*
X78099721Y-51319943D01*
X78098456Y-51402573D01*
X78092007Y-51512977D01*
X78073452Y-51578980D01*
X78043981Y-51597958D01*
X78017264Y-51581626D01*
X78007166Y-51547167D01*
X77998012Y-51471801D01*
X77990848Y-51366884D01*
X77986876Y-51252079D01*
X77983296Y-51119566D01*
X77977899Y-51031051D01*
X77969401Y-50978274D01*
X77956520Y-50952973D01*
X77939489Y-50946859D01*
X77890855Y-50935630D01*
X77878331Y-50927212D01*
X77838220Y-50911011D01*
X77804422Y-50907613D01*
X77755977Y-50894644D01*
X77739898Y-50876815D01*
X77756227Y-50850975D01*
X77808665Y-50813558D01*
X77884235Y-50770919D01*
X77969955Y-50729415D01*
X78052846Y-50695402D01*
X78119928Y-50675237D01*
X78154695Y-50673689D01*
X78204647Y-50674768D01*
X78282899Y-50661743D01*
X78337166Y-50647670D01*
X78438848Y-50620793D01*
X78507338Y-50609203D01*
X78538369Y-50612359D01*
G37*
G36*
X76742733Y-47339234D02*
G01*
X76940362Y-47409711D01*
X77131403Y-47520378D01*
X77307587Y-47665677D01*
X77460648Y-47840049D01*
X77560541Y-47996100D01*
X77611907Y-48102883D01*
X77644121Y-48195802D01*
X77655140Y-48265707D01*
X77642923Y-48303449D01*
X77630018Y-48307510D01*
X77598860Y-48318118D01*
X77529644Y-48347277D01*
X77431462Y-48390990D01*
X77313407Y-48445262D01*
X77264175Y-48468318D01*
X77130761Y-48531561D01*
X77037551Y-48577943D01*
X76977343Y-48612611D01*
X76942935Y-48640709D01*
X76927127Y-48667383D01*
X76922716Y-48697778D01*
X76922530Y-48712417D01*
X76924342Y-48744809D01*
X76934353Y-48772111D01*
X76959434Y-48799281D01*
X77006452Y-48831279D01*
X77082276Y-48873064D01*
X77193773Y-48929595D01*
X77287927Y-48976249D01*
X77413236Y-49039927D01*
X77520078Y-49097581D01*
X77600414Y-49144603D01*
X77646206Y-49176388D01*
X77653770Y-49185944D01*
X77642917Y-49221663D01*
X77613699Y-49290596D01*
X77571808Y-49379557D01*
X77559140Y-49405147D01*
X77429268Y-49611772D01*
X77262781Y-49792423D01*
X77069937Y-49936765D01*
X76985240Y-49983246D01*
X76888571Y-50027773D01*
X76806844Y-50055110D01*
X76719394Y-50069990D01*
X76605559Y-50077149D01*
X76570441Y-50078290D01*
X76423816Y-50078165D01*
X76311166Y-50066607D01*
X76215073Y-50041689D01*
X76203909Y-50037739D01*
X76101816Y-49992899D01*
X75986993Y-49930644D01*
X75875878Y-49861063D01*
X75784910Y-49794243D01*
X75741510Y-49753949D01*
X75658903Y-49647541D01*
X75571357Y-49511453D01*
X75489850Y-49364853D01*
X75425360Y-49226910D01*
X75399561Y-49156790D01*
X75356109Y-48955560D01*
X75343654Y-48776028D01*
X75463299Y-48776028D01*
X75502279Y-49028950D01*
X75591215Y-49289982D01*
X75625393Y-49365995D01*
X75708793Y-49510820D01*
X75814710Y-49647858D01*
X75930698Y-49762954D01*
X76043469Y-49841512D01*
X76263774Y-49931635D01*
X76481935Y-49971610D01*
X76694610Y-49961008D01*
X76793662Y-49937858D01*
X76952026Y-49883221D01*
X77080748Y-49818103D01*
X77193960Y-49732464D01*
X77305792Y-49616268D01*
X77386856Y-49516489D01*
X77469572Y-49394159D01*
X77511496Y-49293870D01*
X77511847Y-49218390D01*
X77482459Y-49178299D01*
X77435467Y-49151391D01*
X77395735Y-49152811D01*
X77354074Y-49188012D01*
X77301294Y-49262446D01*
X77277968Y-49299629D01*
X77134666Y-49483083D01*
X76953181Y-49630892D01*
X76844135Y-49693477D01*
X76695335Y-49742731D01*
X76525989Y-49756165D01*
X76353431Y-49733968D01*
X76215771Y-49686571D01*
X76015174Y-49566222D01*
X75855011Y-49413933D01*
X75736778Y-49232628D01*
X75661974Y-49025232D01*
X75632095Y-48794669D01*
X75634456Y-48752627D01*
X76389226Y-48752627D01*
X76416054Y-48836902D01*
X76476089Y-48924332D01*
X76539632Y-48961157D01*
X76604797Y-48946746D01*
X76644111Y-48913000D01*
X76676756Y-48848504D01*
X76690933Y-48761786D01*
X76685877Y-48675021D01*
X76660820Y-48610387D01*
X76654814Y-48603492D01*
X76589275Y-48569462D01*
X76508653Y-48565634D01*
X76441739Y-48592764D01*
X76396149Y-48662039D01*
X76389226Y-48752627D01*
X75634456Y-48752627D01*
X75644631Y-48571398D01*
X75690751Y-48355532D01*
X75768380Y-48173464D01*
X75883161Y-48013580D01*
X75948713Y-47945509D01*
X76094423Y-47823676D01*
X76239618Y-47744125D01*
X76400376Y-47699579D01*
X76522193Y-47685858D01*
X76629700Y-47681767D01*
X76710365Y-47689364D01*
X76789104Y-47713351D01*
X76880216Y-47753450D01*
X77041805Y-47848859D01*
X77186781Y-47971783D01*
X77300787Y-48109061D01*
X77339368Y-48174364D01*
X77389246Y-48245816D01*
X77442216Y-48280821D01*
X77488691Y-48275780D01*
X77514862Y-48240219D01*
X77518547Y-48158380D01*
X77476293Y-48052439D01*
X77388318Y-47922805D01*
X77276518Y-47792962D01*
X77182910Y-47694961D01*
X77109344Y-47627143D01*
X77042318Y-47579610D01*
X76968331Y-47542465D01*
X76895741Y-47513832D01*
X76674452Y-47457752D01*
X76455737Y-47451395D01*
X76245689Y-47492337D01*
X76050402Y-47578155D01*
X75875971Y-47706428D01*
X75728489Y-47874733D01*
X75646981Y-48010267D01*
X75535562Y-48272253D01*
X75474364Y-48525652D01*
X75463299Y-48776028D01*
X75343654Y-48776028D01*
X75340519Y-48730839D01*
X75352760Y-48503331D01*
X75392799Y-48293742D01*
X75400964Y-48265895D01*
X75454945Y-48127673D01*
X75531875Y-47978138D01*
X75622231Y-47832626D01*
X75716491Y-47706471D01*
X75805120Y-47615020D01*
X76005620Y-47474079D01*
X76215852Y-47375570D01*
X76427602Y-47322822D01*
X76546783Y-47314506D01*
X76742733Y-47339234D01*
G37*
G36*
X78533559Y-47915316D02*
G01*
X78651384Y-47919249D01*
X78749710Y-47926247D01*
X78817383Y-47936247D01*
X78843039Y-47948200D01*
X78846147Y-47988772D01*
X78843948Y-48065659D01*
X78836945Y-48163233D01*
X78835686Y-48176852D01*
X78817078Y-48372839D01*
X78563303Y-48380306D01*
X78309528Y-48387773D01*
X78292582Y-48478104D01*
X78282202Y-48558026D01*
X78293055Y-48608026D01*
X78333434Y-48635012D01*
X78411633Y-48645888D01*
X78496144Y-48647622D01*
X78594406Y-48650634D01*
X78674048Y-48658183D01*
X78718847Y-48668684D01*
X78720314Y-48669524D01*
X78739219Y-48702437D01*
X78747574Y-48774416D01*
X78746446Y-48884710D01*
X78738683Y-49078395D01*
X78521824Y-49086005D01*
X78304966Y-49093616D01*
X78312771Y-49242795D01*
X78320576Y-49391975D01*
X78568827Y-49405041D01*
X78817078Y-49418107D01*
X78840466Y-49608998D01*
X78851032Y-49721094D01*
X78849189Y-49791420D01*
X78834621Y-49829052D01*
X78832702Y-49831117D01*
X78790830Y-49847044D01*
X78708954Y-49859016D01*
X78599189Y-49866942D01*
X78473649Y-49870730D01*
X78344452Y-49870291D01*
X78223713Y-49865532D01*
X78123547Y-49856363D01*
X78056069Y-49842692D01*
X78042828Y-49837059D01*
X78000423Y-49808743D01*
X77966531Y-49772476D01*
X77940229Y-49722525D01*
X77920594Y-49653158D01*
X77906701Y-49558643D01*
X77897627Y-49433248D01*
X77892449Y-49271240D01*
X77890242Y-49066888D01*
X77889977Y-48888411D01*
X77890456Y-48675634D01*
X77891783Y-48508320D01*
X77894379Y-48379672D01*
X77898666Y-48282893D01*
X77905065Y-48211183D01*
X77913997Y-48157745D01*
X77925884Y-48115782D01*
X77940019Y-48080966D01*
X77981669Y-48007958D01*
X78027296Y-47954469D01*
X78042254Y-47943775D01*
X78090299Y-47931461D01*
X78174604Y-47922520D01*
X78284017Y-47916890D01*
X78407386Y-47914509D01*
X78533559Y-47915316D01*
G37*
G36*
X79786179Y-49809043D02*
G01*
X79791028Y-49828048D01*
X79760617Y-49864215D01*
X79720024Y-49865577D01*
X79710455Y-49858535D01*
X79693145Y-49821087D01*
X79722394Y-49799338D01*
X79746930Y-49797016D01*
X79786179Y-49809043D01*
G37*
G36*
X81064403Y-48895473D02*
G01*
X81064403Y-49862346D01*
X80874570Y-49870031D01*
X80765093Y-49871229D01*
X80700100Y-49863351D01*
X80672452Y-49845471D01*
X80671713Y-49843774D01*
X80668897Y-49810596D01*
X80666667Y-49731273D01*
X80665061Y-49611918D01*
X80664118Y-49458647D01*
X80663877Y-49277574D01*
X80664375Y-49074813D01*
X80665558Y-48869216D01*
X80672428Y-47928601D01*
X80868415Y-47928601D01*
X81064403Y-47928601D01*
X81064403Y-48895473D01*
G37*
G36*
X82093768Y-47918281D02*
G01*
X82181385Y-47924190D01*
X82236125Y-47932560D01*
X82245227Y-47936066D01*
X82276744Y-47970458D01*
X82303339Y-48034197D01*
X82326943Y-48134172D01*
X82349491Y-48277272D01*
X82356875Y-48333897D01*
X82377305Y-48475522D01*
X82403521Y-48628514D01*
X82430583Y-48764520D01*
X82436529Y-48790946D01*
X82468008Y-48933991D01*
X82499714Y-49091058D01*
X82530162Y-49253221D01*
X82557868Y-49411553D01*
X82581346Y-49557126D01*
X82599112Y-49681013D01*
X82609681Y-49774286D01*
X82611568Y-49828017D01*
X82610201Y-49835139D01*
X82592336Y-49857515D01*
X82552974Y-49869215D01*
X82480830Y-49872157D01*
X82404775Y-49870031D01*
X82215688Y-49862346D01*
X82197292Y-49757819D01*
X82180300Y-49659648D01*
X82163806Y-49561988D01*
X82162698Y-49555298D01*
X82146500Y-49457304D01*
X81993607Y-49457304D01*
X81840715Y-49457304D01*
X81805337Y-49659825D01*
X81769958Y-49862346D01*
X81580126Y-49870031D01*
X81477491Y-49872001D01*
X81415808Y-49866449D01*
X81384080Y-49851578D01*
X81374454Y-49836441D01*
X81370519Y-49818570D01*
X81370067Y-49789658D01*
X81373920Y-49744510D01*
X81382895Y-49677928D01*
X81397814Y-49584716D01*
X81419496Y-49459678D01*
X81448760Y-49297616D01*
X81486427Y-49093333D01*
X81513692Y-48946854D01*
X81924902Y-48946854D01*
X81927722Y-48987984D01*
X81928626Y-48989972D01*
X81968930Y-49011568D01*
X82028495Y-48996790D01*
X82040555Y-48989827D01*
X82056567Y-48970796D01*
X82063052Y-48933310D01*
X82060119Y-48867216D01*
X82047877Y-48762361D01*
X82043377Y-48728910D01*
X82026896Y-48624857D01*
X82009757Y-48543807D01*
X81994602Y-48497226D01*
X81988367Y-48490432D01*
X81968949Y-48512075D01*
X81965139Y-48536162D01*
X81961492Y-48583684D01*
X81952647Y-48665923D01*
X81940451Y-48765811D01*
X81939343Y-48774385D01*
X81929020Y-48870726D01*
X81924902Y-48946854D01*
X81513692Y-48946854D01*
X81520824Y-48908539D01*
X81551409Y-48743114D01*
X81582751Y-48570995D01*
X81611654Y-48409884D01*
X81634927Y-48277483D01*
X81639986Y-48248045D01*
X81662423Y-48134747D01*
X81687175Y-48038623D01*
X81710515Y-47973026D01*
X81722098Y-47954063D01*
X81761253Y-47933160D01*
X81833065Y-47920912D01*
X81945954Y-47916109D01*
X81987411Y-47915935D01*
X82093768Y-47918281D01*
G37*
G36*
X79813138Y-49644609D02*
G01*
X79843361Y-49662323D01*
X79849279Y-49692490D01*
X79840514Y-49726682D01*
X79805085Y-49741794D01*
X79744753Y-49744753D01*
X79676368Y-49740370D01*
X79646144Y-49722656D01*
X79640226Y-49692490D01*
X79648991Y-49658297D01*
X79684420Y-49643185D01*
X79744753Y-49640226D01*
X79813138Y-49644609D01*
G37*
G36*
X78644933Y-47250602D02*
G01*
X78647222Y-47258976D01*
X78669728Y-47279782D01*
X78722078Y-47296813D01*
X78789569Y-47323004D01*
X78886129Y-47377116D01*
X79001854Y-47452246D01*
X79126840Y-47541492D01*
X79251183Y-47637954D01*
X79364979Y-47734730D01*
X79409033Y-47775514D01*
X79492412Y-47853861D01*
X79551596Y-47902656D01*
X79599768Y-47928876D01*
X79650110Y-47939497D01*
X79715804Y-47941498D01*
X79722613Y-47941494D01*
X79817985Y-47934824D01*
X79898710Y-47910396D01*
X79977816Y-47861190D01*
X80068328Y-47780186D01*
X80120464Y-47727102D01*
X80209974Y-47642813D01*
X80314902Y-47556693D01*
X80375322Y-47512879D01*
X80466842Y-47450308D01*
X80556022Y-47388020D01*
X80606059Y-47352190D01*
X80690778Y-47303991D01*
X80757688Y-47301954D01*
X80815954Y-47348178D01*
X80855978Y-47409428D01*
X80916440Y-47517416D01*
X80833631Y-47595368D01*
X80747028Y-47668412D01*
X80638057Y-47748342D01*
X80521160Y-47825744D01*
X80410776Y-47891206D01*
X80321349Y-47935314D01*
X80299899Y-47943258D01*
X80144128Y-48001521D01*
X80030178Y-48064638D01*
X79947670Y-48140052D01*
X79886225Y-48235210D01*
X79882493Y-48242704D01*
X79850731Y-48309538D01*
X79831839Y-48362334D01*
X79824439Y-48415988D01*
X79827155Y-48485393D01*
X79838611Y-48585443D01*
X79845730Y-48640435D01*
X79864457Y-48803171D01*
X79879379Y-48970369D01*
X79890113Y-49132691D01*
X79896274Y-49280799D01*
X79897478Y-49405352D01*
X79893342Y-49497013D01*
X79883481Y-49546443D01*
X79883018Y-49547310D01*
X79842120Y-49580842D01*
X79762000Y-49596747D01*
X79734773Y-49598331D01*
X79658351Y-49597985D01*
X79619265Y-49585484D01*
X79603045Y-49555548D01*
X79601811Y-49549851D01*
X79585770Y-49456708D01*
X79576063Y-49364802D01*
X79573018Y-49265534D01*
X79576966Y-49150307D01*
X79588233Y-49010523D01*
X79607151Y-48837583D01*
X79634046Y-48622888D01*
X79638599Y-48587999D01*
X79651035Y-48483917D01*
X79653406Y-48413161D01*
X79643166Y-48357337D01*
X79617768Y-48298051D01*
X79591570Y-48248287D01*
X79528509Y-48152702D01*
X79513599Y-48138572D01*
X79698427Y-48138572D01*
X79718897Y-48190250D01*
X79769539Y-48225940D01*
X79814240Y-48214366D01*
X79836139Y-48177086D01*
X79840295Y-48111537D01*
X79803231Y-48077016D01*
X79768522Y-48072325D01*
X79716877Y-48092052D01*
X79698427Y-48138572D01*
X79513599Y-48138572D01*
X79447999Y-48076405D01*
X79338401Y-48010606D01*
X79195987Y-47949529D01*
X79115913Y-47912479D01*
X79012637Y-47855846D01*
X78899179Y-47787819D01*
X78788563Y-47716591D01*
X78693808Y-47650351D01*
X78627937Y-47597292D01*
X78614409Y-47583682D01*
X78585854Y-47544835D01*
X78584545Y-47507876D01*
X78609827Y-47449404D01*
X78610603Y-47447847D01*
X78634816Y-47388985D01*
X78640349Y-47352459D01*
X78638809Y-47349646D01*
X78619258Y-47360656D01*
X78589017Y-47405640D01*
X78583148Y-47416604D01*
X78543243Y-47476701D01*
X78510750Y-47495462D01*
X78492350Y-47470676D01*
X78490432Y-47447282D01*
X78503348Y-47387769D01*
X78534881Y-47320575D01*
X78574210Y-47264099D01*
X78610512Y-47236736D01*
X78614557Y-47236276D01*
X78644933Y-47250602D01*
G37*
G36*
X80877968Y-47253796D02*
G01*
X80922296Y-47290512D01*
X80964044Y-47342392D01*
X80989692Y-47393928D01*
X80991982Y-47416867D01*
X80972418Y-47457701D01*
X80937838Y-47452151D01*
X80893108Y-47402164D01*
X80872901Y-47369164D01*
X80838302Y-47295419D01*
X80837342Y-47254986D01*
X80844581Y-47247757D01*
X80877968Y-47253796D01*
G37*
G36*
X78534896Y-47254882D02*
G01*
X78512607Y-47291027D01*
X78466661Y-47345740D01*
X78431631Y-47361766D01*
X78415279Y-47337503D01*
X78416371Y-47310884D01*
X78444111Y-47257053D01*
X78488712Y-47240196D01*
X78532086Y-47237188D01*
X78534896Y-47254882D01*
G37*
G36*
X80992541Y-47214863D02*
G01*
X81032039Y-47244686D01*
X81046622Y-47282108D01*
X81042293Y-47331125D01*
X81012782Y-47335622D01*
X80978168Y-47309280D01*
X80949586Y-47262360D01*
X80954558Y-47225187D01*
X80990536Y-47214510D01*
X80992541Y-47214863D01*
G37*
G36*
X77899634Y-44497584D02*
G01*
X77904764Y-44500195D01*
X77938071Y-44525648D01*
X78003092Y-44581977D01*
X78093977Y-44663719D01*
X78204876Y-44765415D01*
X78329937Y-44881601D01*
X78463312Y-45006815D01*
X78599150Y-45135598D01*
X78731601Y-45262486D01*
X78854814Y-45382018D01*
X78952934Y-45478755D01*
X79013778Y-45537549D01*
X79058902Y-45577809D01*
X79076299Y-45589815D01*
X79086569Y-45566963D01*
X79095685Y-45511303D01*
X79096338Y-45504887D01*
X79115377Y-45439612D01*
X79149928Y-45421571D01*
X79191795Y-45451420D01*
X79218234Y-45495105D01*
X79244315Y-45540486D01*
X79276478Y-45559771D01*
X79332945Y-45559912D01*
X79375376Y-45555052D01*
X79627348Y-45520774D01*
X79828459Y-45487582D01*
X79978324Y-45455554D01*
X80076557Y-45424767D01*
X80110402Y-45407031D01*
X80164501Y-45374075D01*
X80251465Y-45327075D01*
X80356661Y-45273792D01*
X80413285Y-45246381D01*
X80594981Y-45169793D01*
X80753987Y-45128076D01*
X80905728Y-45120336D01*
X81065624Y-45145683D01*
X81236787Y-45198751D01*
X81396256Y-45260539D01*
X81514306Y-45317681D01*
X81600666Y-45376267D01*
X81665066Y-45442383D01*
X81695765Y-45485910D01*
X81742365Y-45555235D01*
X81784138Y-45611044D01*
X81790826Y-45618925D01*
X81806117Y-45644601D01*
X81800226Y-45674023D01*
X81767506Y-45717084D01*
X81702312Y-45783674D01*
X81689796Y-45795900D01*
X81590836Y-45884463D01*
X81497836Y-45945953D01*
X81396287Y-45986100D01*
X81271682Y-46010638D01*
X81109514Y-46025299D01*
X81109141Y-46025322D01*
X80996553Y-46034700D01*
X80902196Y-46046881D01*
X80839293Y-46059941D01*
X80822580Y-46067041D01*
X80793211Y-46109392D01*
X80768807Y-46174531D01*
X80740484Y-46237163D01*
X80690088Y-46262684D01*
X80679363Y-46264257D01*
X80603005Y-46288222D01*
X80569653Y-46333413D01*
X80583409Y-46393968D01*
X80585809Y-46397940D01*
X80602234Y-46461549D01*
X80579549Y-46515904D01*
X80526418Y-46543014D01*
X80515637Y-46543621D01*
X80458636Y-46522403D01*
X80430024Y-46471237D01*
X80439172Y-46408852D01*
X80443966Y-46400342D01*
X80468110Y-46335456D01*
X80476440Y-46269593D01*
X80476440Y-46190844D01*
X80249472Y-46190844D01*
X80135054Y-46189164D01*
X80059538Y-46182381D01*
X80009621Y-46167877D01*
X79971999Y-46143033D01*
X79962361Y-46134343D01*
X79918383Y-46099634D01*
X79875346Y-46091195D01*
X79810062Y-46105501D01*
X79797354Y-46109260D01*
X79732710Y-46131157D01*
X79695803Y-46148560D01*
X79692489Y-46152496D01*
X79711508Y-46187249D01*
X79760840Y-46241899D01*
X79828903Y-46305101D01*
X79904114Y-46365510D01*
X79925889Y-46381082D01*
X80017352Y-46449756D01*
X80112995Y-46529537D01*
X80147459Y-46560825D01*
X80206623Y-46619726D01*
X80231344Y-46656687D01*
X80227285Y-46683275D01*
X80214574Y-46697925D01*
X80167840Y-46721993D01*
X80089650Y-46743298D01*
X80032201Y-46752670D01*
X79941035Y-46759788D01*
X79877570Y-46751104D01*
X79818504Y-46722206D01*
X79797016Y-46708167D01*
X79704398Y-46648541D01*
X79597895Y-46584489D01*
X79488256Y-46521924D01*
X79386233Y-46466755D01*
X79302574Y-46424894D01*
X79248032Y-46402253D01*
X79236402Y-46399897D01*
X79209928Y-46422670D01*
X79196623Y-46481055D01*
X79196254Y-46560145D01*
X79208584Y-46645038D01*
X79233380Y-46720828D01*
X79241718Y-46736991D01*
X79268678Y-46817826D01*
X79249207Y-46878382D01*
X79185710Y-46913309D01*
X79160494Y-46917752D01*
X79101761Y-46911619D01*
X79069045Y-46867632D01*
X79068224Y-46865489D01*
X79060541Y-46789112D01*
X79071572Y-46755029D01*
X79085166Y-46701207D01*
X79092306Y-46615261D01*
X79093342Y-46513689D01*
X79088623Y-46412986D01*
X79078497Y-46329650D01*
X79063314Y-46280178D01*
X79061482Y-46277669D01*
X79012351Y-46248580D01*
X78952545Y-46246643D01*
X78906381Y-46270847D01*
X78898269Y-46284442D01*
X78888757Y-46334433D01*
X78883095Y-46412865D01*
X78882407Y-46451098D01*
X78870786Y-46554775D01*
X78834422Y-46614263D01*
X78771064Y-46632551D01*
X78747180Y-46630555D01*
X78689401Y-46597876D01*
X78662970Y-46552055D01*
X78653081Y-46503767D01*
X78666853Y-46458898D01*
X78710797Y-46399955D01*
X78726140Y-46382242D01*
X78767820Y-46331883D01*
X78785522Y-46298188D01*
X78774079Y-46279740D01*
X78728322Y-46275123D01*
X78643084Y-46282921D01*
X78513197Y-46301716D01*
X78461721Y-46309765D01*
X78323380Y-46330837D01*
X78155769Y-46355273D01*
X77981465Y-46379830D01*
X77843401Y-46398576D01*
X77687386Y-46421914D01*
X77564898Y-46445694D01*
X77482693Y-46468445D01*
X77451426Y-46484044D01*
X77390132Y-46520950D01*
X77336995Y-46539884D01*
X77272927Y-46578208D01*
X77251569Y-46621789D01*
X77224712Y-46672897D01*
X77189909Y-46685981D01*
X77163193Y-46660309D01*
X77157716Y-46626066D01*
X77147122Y-46574137D01*
X77110248Y-46526288D01*
X77039457Y-46475595D01*
X76927112Y-46415135D01*
X76922530Y-46412854D01*
X76804235Y-46346765D01*
X76699607Y-46274822D01*
X76617758Y-46204560D01*
X76567801Y-46143517D01*
X76556687Y-46110276D01*
X76581902Y-46060030D01*
X76650592Y-46014559D01*
X76687767Y-45997016D01*
X76713553Y-45980009D01*
X76727932Y-45955656D01*
X76730887Y-45916073D01*
X76722399Y-45853374D01*
X76702450Y-45759676D01*
X76671023Y-45627096D01*
X76649511Y-45537551D01*
X76623245Y-45405047D01*
X76602752Y-45256535D01*
X76588415Y-45102154D01*
X76580618Y-44952045D01*
X76579743Y-44816348D01*
X76586172Y-44705200D01*
X76600290Y-44628743D01*
X76614177Y-44602037D01*
X76672648Y-44574837D01*
X76746129Y-44576529D01*
X76786172Y-44592735D01*
X76805903Y-44622574D01*
X76841257Y-44693289D01*
X76888709Y-44797127D01*
X76944731Y-44926336D01*
X77005795Y-45073162D01*
X77014825Y-45095369D01*
X77075481Y-45242859D01*
X77130556Y-45372775D01*
X77176757Y-45477675D01*
X77210794Y-45550114D01*
X77229375Y-45582648D01*
X77230724Y-45583664D01*
X77251809Y-45566288D01*
X77278519Y-45514514D01*
X77285636Y-45496086D01*
X77335738Y-45391841D01*
X77400746Y-45331066D01*
X77492525Y-45305057D01*
X77549691Y-45302366D01*
X77618339Y-45304700D01*
X77660374Y-45317214D01*
X77677666Y-45348179D01*
X77672088Y-45405863D01*
X77645512Y-45498535D01*
X77614855Y-45590299D01*
X77586269Y-45683400D01*
X77569465Y-45756798D01*
X77567311Y-45797314D01*
X77569125Y-45800540D01*
X77599523Y-45802549D01*
X77669961Y-45797898D01*
X77768853Y-45788061D01*
X77884611Y-45774511D01*
X78005649Y-45758722D01*
X78120381Y-45742166D01*
X78217219Y-45726317D01*
X78284577Y-45712647D01*
X78303305Y-45707193D01*
X78304262Y-45682531D01*
X78275816Y-45626720D01*
X78223431Y-45547543D01*
X78152570Y-45452785D01*
X78068696Y-45350230D01*
X77991646Y-45263169D01*
X77915616Y-45177234D01*
X77818230Y-45062315D01*
X77709903Y-44930926D01*
X77601048Y-44795584D01*
X77571929Y-44758732D01*
X77512718Y-44677024D01*
X77489415Y-44619582D01*
X77505806Y-44578466D01*
X77565675Y-44545736D01*
X77672805Y-44513455D01*
X77691105Y-44508696D01*
X77787710Y-44487361D01*
X77851773Y-44483874D01*
X77899634Y-44497584D01*
G37*
G36*
X81985168Y-45620501D02*
G01*
X81974738Y-45636151D01*
X81965946Y-45642078D01*
X81917385Y-45663623D01*
X81880367Y-45665333D01*
X81871837Y-45647206D01*
X81874485Y-45642078D01*
X81910885Y-45621203D01*
X81947890Y-45616347D01*
X81985168Y-45620501D01*
G37*
G36*
X82114026Y-45624657D02*
G01*
X82110439Y-45640192D01*
X82096605Y-45642078D01*
X82075095Y-45632517D01*
X82079183Y-45624657D01*
X82110196Y-45621530D01*
X82114026Y-45624657D01*
G37*
D13*
%TO.C,J10*%
X116120000Y-148190000D02*
X90720000Y-148190000D01*
X116120000Y-149460000D02*
X90720000Y-149460000D01*
X116120000Y-155810000D02*
X116120000Y-148190000D01*
X116120000Y-155810000D02*
X90720000Y-155810000D01*
X90720000Y-155810000D02*
X90720000Y-148190000D01*
%TO.C,J2*%
X84030000Y-67370000D02*
X84030000Y-90340000D01*
X81270000Y-90340000D02*
X84030000Y-90340000D01*
X81270000Y-67370000D02*
X84030000Y-67370000D01*
X81270000Y-67370000D02*
X81270000Y-90340000D01*
X81270000Y-66100000D02*
X81270000Y-64720000D01*
X81270000Y-64720000D02*
X82650000Y-64720000D01*
%TO.C,J3*%
X98380000Y-67410000D02*
X98380000Y-90380000D01*
X95620000Y-90380000D02*
X98380000Y-90380000D01*
X95620000Y-67410000D02*
X98380000Y-67410000D01*
X95620000Y-67410000D02*
X95620000Y-90380000D01*
X95620000Y-66140000D02*
X95620000Y-64760000D01*
X95620000Y-64760000D02*
X97000000Y-64760000D01*
%TO.C,J7*%
X115380000Y-47370000D02*
X115380000Y-75420000D01*
X112620000Y-75420000D02*
X115380000Y-75420000D01*
X112620000Y-47370000D02*
X115380000Y-47370000D01*
X112620000Y-47370000D02*
X112620000Y-75420000D01*
X112620000Y-46100000D02*
X112620000Y-44720000D01*
X112620000Y-44720000D02*
X114000000Y-44720000D01*
%TO.C,J11*%
X109190000Y-114140000D02*
X109190000Y-144620000D01*
X109190000Y-144620000D02*
X116810000Y-144620000D01*
X110460000Y-114140000D02*
X110460000Y-144620000D01*
X116810000Y-114140000D02*
X109190000Y-114140000D01*
X116810000Y-114140000D02*
X116810000Y-144620000D01*
%TO.C,U2*%
X92070000Y-135360000D02*
X81850000Y-135360000D01*
X92070000Y-130740000D02*
X92070000Y-135360000D01*
X88810000Y-130740000D02*
X88810000Y-132120000D01*
X85110000Y-130740000D02*
X85110000Y-132120000D01*
X81850000Y-135360000D02*
X81850000Y-130740000D01*
X81850000Y-132120000D02*
X92070000Y-132120000D01*
X81850000Y-130740000D02*
X92070000Y-130740000D01*
%TO.C,U3*%
X54570000Y-135260000D02*
X44350000Y-135260000D01*
X54570000Y-133880000D02*
X44350000Y-133880000D01*
X54570000Y-130640000D02*
X54570000Y-135260000D01*
X51310000Y-135260000D02*
X51310000Y-133880000D01*
X47610000Y-135260000D02*
X47610000Y-133880000D01*
X44350000Y-135260000D02*
X44350000Y-130640000D01*
X44350000Y-130640000D02*
X54570000Y-130640000D01*
%TO.C,C3*%
X49370000Y-144620000D02*
X41630000Y-144620000D01*
X49370000Y-143234000D02*
X49370000Y-144620000D01*
X49370000Y-139380000D02*
X49370000Y-140766000D01*
X41630000Y-144620000D02*
X41630000Y-143234000D01*
X41630000Y-140766000D02*
X41630000Y-139380000D01*
X41630000Y-139380000D02*
X49370000Y-139380000D01*
%TO.C,R3*%
X54080000Y-64580000D02*
X57920000Y-64580000D01*
X57920000Y-66420000D01*
X54080000Y-66420000D01*
X54080000Y-64580000D01*
X58870000Y-65500000D02*
X57920000Y-65500000D01*
X53130000Y-65500000D02*
X54080000Y-65500000D01*
%TO.C,C2*%
X94130000Y-139880000D02*
X101870000Y-139880000D01*
X94130000Y-141266000D02*
X94130000Y-139880000D01*
X94130000Y-145120000D02*
X94130000Y-143734000D01*
X101870000Y-139880000D02*
X101870000Y-141266000D01*
X101870000Y-143734000D02*
X101870000Y-145120000D01*
X101870000Y-145120000D02*
X94130000Y-145120000D01*
%TO.C,J6*%
X33190000Y-92540000D02*
X33190000Y-77300000D01*
X39540000Y-92540000D02*
X39540000Y-77300000D01*
X40810000Y-77300000D02*
X33190000Y-77300000D01*
X40810000Y-92540000D02*
X33190000Y-92540000D01*
X40810000Y-92540000D02*
X40810000Y-77300000D01*
%TO.C,J1*%
X116810000Y-87540000D02*
X116810000Y-77380000D01*
X116810000Y-77380000D02*
X109190000Y-77380000D01*
X110460000Y-87540000D02*
X110460000Y-77380000D01*
X109190000Y-87540000D02*
X116810000Y-87540000D01*
X109190000Y-77380000D02*
X109190000Y-87540000D01*
%TO.C,C4*%
X66370000Y-144620000D02*
X58630000Y-144620000D01*
X66370000Y-143234000D02*
X66370000Y-144620000D01*
X66370000Y-139380000D02*
X66370000Y-140766000D01*
X58630000Y-144620000D02*
X58630000Y-143234000D01*
X58630000Y-140766000D02*
X58630000Y-139380000D01*
X58630000Y-139380000D02*
X66370000Y-139380000D01*
%TO.C,C1*%
X78630000Y-139880000D02*
X86370000Y-139880000D01*
X78630000Y-141266000D02*
X78630000Y-139880000D01*
X78630000Y-145120000D02*
X78630000Y-143734000D01*
X86370000Y-139880000D02*
X86370000Y-141266000D01*
X86370000Y-143734000D02*
X86370000Y-145120000D01*
X86370000Y-145120000D02*
X78630000Y-145120000D01*
%TO.C,R2*%
X41630000Y-44500000D02*
X42580000Y-44500000D01*
X47370000Y-44500000D02*
X46420000Y-44500000D01*
X42580000Y-43580000D02*
X46420000Y-43580000D01*
X46420000Y-45420000D01*
X42580000Y-45420000D01*
X42580000Y-43580000D01*
%TO.C,J5*%
X33190000Y-111620000D02*
X33190000Y-96380000D01*
X39540000Y-111620000D02*
X39540000Y-96380000D01*
X40810000Y-96380000D02*
X33190000Y-96380000D01*
X40810000Y-111620000D02*
X33190000Y-111620000D01*
X40810000Y-111620000D02*
X40810000Y-96380000D01*
%TO.C,J4*%
X41810000Y-58540000D02*
X41810000Y-48380000D01*
X41810000Y-48380000D02*
X34190000Y-48380000D01*
X40540000Y-48380000D02*
X40540000Y-58540000D01*
X34190000Y-58540000D02*
X41810000Y-58540000D01*
X34190000Y-48380000D02*
X34190000Y-58540000D01*
%TO.C,J8*%
X116810000Y-99580000D02*
X116810000Y-89420000D01*
X116810000Y-89420000D02*
X109190000Y-89420000D01*
X110460000Y-99580000D02*
X110460000Y-89420000D01*
X109190000Y-99580000D02*
X116810000Y-99580000D01*
X109190000Y-89420000D02*
X109190000Y-99580000D01*
%TO.C,R1*%
X53630000Y-44500000D02*
X54580000Y-44500000D01*
X59370000Y-44500000D02*
X58420000Y-44500000D01*
X54580000Y-43580000D02*
X58420000Y-43580000D01*
X58420000Y-45420000D01*
X54580000Y-45420000D01*
X54580000Y-43580000D01*
%TO.C,J9*%
X116810000Y-112080000D02*
X116810000Y-101920000D01*
X116810000Y-101920000D02*
X109190000Y-101920000D01*
X110460000Y-112080000D02*
X110460000Y-101920000D01*
X109190000Y-112080000D02*
X116810000Y-112080000D01*
X109190000Y-101920000D02*
X109190000Y-112080000D01*
%TO.C,U4*%
X47025000Y-53540000D02*
X47025000Y-58840000D01*
X47025000Y-58840000D02*
X60355000Y-58840000D01*
X60355000Y-53540000D02*
X47025000Y-53540000D01*
X60355000Y-55190000D02*
X60355000Y-53540000D01*
X60355000Y-58840000D02*
X60355000Y-57190000D01*
X60355000Y-57190000D02*
G75*
G02*
X60355000Y-55190000I0J1000000D01*
G01*
%TO.C,R4*%
X39130000Y-65500000D02*
X40080000Y-65500000D01*
X44870000Y-65500000D02*
X43920000Y-65500000D01*
X40080000Y-64580000D02*
X43920000Y-64580000D01*
X43920000Y-66420000D01*
X40080000Y-66420000D01*
X40080000Y-64580000D01*
D14*
%TO.C,U5*%
X43800000Y-69720000D02*
X43800000Y-124720000D01*
X43800000Y-69720000D02*
X71800000Y-69720000D01*
X43800000Y-124720000D02*
X71800000Y-124720000D01*
X71800000Y-69720000D02*
X71800000Y-124720000D01*
%TD*%
M02*
