%TF.GenerationSoftware,KiCad,Pcbnew,9.0.3*%
%TF.CreationDate,2025-08-08T14:41:56-05:00*%
%TF.ProjectId,baquelita,62617175-656c-4697-9461-2e6b69636164,rev?*%
%TF.SameCoordinates,Original*%
%TF.FileFunction,Copper,L2,Bot*%
%TF.FilePolarity,Positive*%
%FSLAX46Y46*%
G04 Gerber Fmt 4.6, Leading zero omitted, Abs format (unit mm)*
G04 Created by KiCad (PCBNEW 9.0.3) date 2025-08-08 14:41:56*
%MOMM*%
%LPD*%
G01*
G04 APERTURE LIST*
G04 Aperture macros list*
%AMRoundRect*
0 Rectangle with rounded corners*
0 $1 Rounding radius*
0 $2 $3 $4 $5 $6 $7 $8 $9 X,Y pos of 4 corners*
0 Add a 4 corners polygon primitive as box body*
4,1,4,$2,$3,$4,$5,$6,$7,$8,$9,$2,$3,0*
0 Add four circle primitives for the rounded corners*
1,1,$1+$1,$2,$3*
1,1,$1+$1,$4,$5*
1,1,$1+$1,$6,$7*
1,1,$1+$1,$8,$9*
0 Add four rect primitives between the rounded corners*
20,1,$1+$1,$2,$3,$4,$5,0*
20,1,$1+$1,$4,$5,$6,$7,0*
20,1,$1+$1,$6,$7,$8,$9,0*
20,1,$1+$1,$8,$9,$2,$3,0*%
G04 Aperture macros list end*
%TA.AperFunction,ComponentPad*%
%ADD10C,3.000000*%
%TD*%
%TA.AperFunction,ComponentPad*%
%ADD11R,3.000000X3.000000*%
%TD*%
%TA.AperFunction,ComponentPad*%
%ADD12C,1.700000*%
%TD*%
%TA.AperFunction,ComponentPad*%
%ADD13R,1.700000X1.700000*%
%TD*%
%TA.AperFunction,ComponentPad*%
%ADD14O,1.905000X2.000000*%
%TD*%
%TA.AperFunction,ComponentPad*%
%ADD15R,1.905000X2.000000*%
%TD*%
%TA.AperFunction,ComponentPad*%
%ADD16C,2.000000*%
%TD*%
%TA.AperFunction,ComponentPad*%
%ADD17C,1.400000*%
%TD*%
%TA.AperFunction,ComponentPad*%
%ADD18RoundRect,0.250000X-0.550000X0.550000X-0.550000X-0.550000X0.550000X-0.550000X0.550000X0.550000X0*%
%TD*%
%TA.AperFunction,ComponentPad*%
%ADD19C,1.600000*%
%TD*%
%TA.AperFunction,ComponentPad*%
%ADD20R,1.530000X1.530000*%
%TD*%
%TA.AperFunction,ComponentPad*%
%ADD21C,1.530000*%
%TD*%
%TA.AperFunction,ViaPad*%
%ADD22C,0.600000*%
%TD*%
%TA.AperFunction,Conductor*%
%ADD23C,1.000000*%
%TD*%
G04 APERTURE END LIST*
D10*
%TO.P,J10,5,Pin_5*%
%TO.N,Net-(J10-Pin_4)*%
X93260000Y-152000000D03*
%TO.P,J10,4,Pin_4*%
X98340000Y-152000000D03*
%TO.P,J10,3,Pin_3*%
%TO.N,GND*%
X103420000Y-152000000D03*
%TO.P,J10,2,Pin_2*%
X108500000Y-152000000D03*
D11*
%TO.P,J10,1,Pin_1*%
X113580000Y-152000000D03*
%TD*%
D12*
%TO.P,J2,10,Pin_10*%
%TO.N,Net-(J2-Pin_1)*%
X82650000Y-88960000D03*
%TO.P,J2,9,Pin_9*%
%TO.N,unconnected-(J2-Pin_9-Pad9)*%
X82650000Y-86420000D03*
%TO.P,J2,8,Pin_8*%
%TO.N,unconnected-(J2-Pin_8-Pad8)*%
X82650000Y-83880000D03*
%TO.P,J2,7,Pin_7*%
%TO.N,unconnected-(J2-Pin_7-Pad7)*%
X82650000Y-81340000D03*
%TO.P,J2,6,Pin_6*%
%TO.N,Net-(J2-Pin_6)*%
X82650000Y-78800000D03*
%TO.P,J2,5,Pin_5*%
%TO.N,Net-(J2-Pin_5)*%
X82650000Y-76260000D03*
%TO.P,J2,4,Pin_4*%
%TO.N,Net-(J2-Pin_4)*%
X82650000Y-73720000D03*
%TO.P,J2,3,Pin_3*%
%TO.N,Net-(J2-Pin_3)*%
X82650000Y-71180000D03*
%TO.P,J2,2,Pin_2*%
%TO.N,Net-(J2-Pin_2)*%
X82650000Y-68640000D03*
D13*
%TO.P,J2,1,Pin_1*%
%TO.N,Net-(J2-Pin_1)*%
X82650000Y-66100000D03*
%TD*%
D12*
%TO.P,J3,10,Pin_10*%
%TO.N,GND*%
X97000000Y-89000000D03*
%TO.P,J3,9,Pin_9*%
%TO.N,unconnected-(J3-Pin_9-Pad9)*%
X97000000Y-86460000D03*
%TO.P,J3,8,Pin_8*%
%TO.N,unconnected-(J3-Pin_8-Pad8)*%
X97000000Y-83920000D03*
%TO.P,J3,7,Pin_7*%
%TO.N,unconnected-(J3-Pin_7-Pad7)*%
X97000000Y-81380000D03*
%TO.P,J3,6,Pin_6*%
%TO.N,Net-(J3-Pin_6)*%
X97000000Y-78840000D03*
%TO.P,J3,5,Pin_5*%
%TO.N,Net-(J3-Pin_5)*%
X97000000Y-76300000D03*
%TO.P,J3,4,Pin_4*%
%TO.N,Net-(J3-Pin_4)*%
X97000000Y-73760000D03*
%TO.P,J3,3,Pin_3*%
%TO.N,Net-(J3-Pin_3)*%
X97000000Y-71220000D03*
%TO.P,J3,2,Pin_2*%
%TO.N,Net-(J3-Pin_2)*%
X97000000Y-68680000D03*
D13*
%TO.P,J3,1,Pin_1*%
%TO.N,Net-(J10-Pin_4)*%
X97000000Y-66140000D03*
%TD*%
D12*
%TO.P,J7,12,Pin_12*%
%TO.N,GND*%
X114000000Y-74040000D03*
%TO.P,J7,11,Pin_11*%
X114000000Y-71500000D03*
%TO.P,J7,10,Pin_10*%
%TO.N,Net-(J1-Pin_1)*%
X114000000Y-68960000D03*
%TO.P,J7,9,Pin_9*%
%TO.N,Net-(J7-Pin_9)*%
X114000000Y-66420000D03*
%TO.P,J7,8,Pin_8*%
%TO.N,Net-(J7-Pin_8)*%
X114000000Y-63880000D03*
%TO.P,J7,7,Pin_7*%
%TO.N,Net-(J7-Pin_7)*%
X114000000Y-61340000D03*
%TO.P,J7,6,Pin_6*%
%TO.N,Net-(J7-Pin_6)*%
X114000000Y-58800000D03*
%TO.P,J7,5,Pin_5*%
%TO.N,Net-(J3-Pin_6)*%
X114000000Y-56260000D03*
%TO.P,J7,4,Pin_4*%
%TO.N,Net-(J3-Pin_5)*%
X114000000Y-53720000D03*
%TO.P,J7,3,Pin_3*%
%TO.N,Net-(J3-Pin_4)*%
X114000000Y-51180000D03*
%TO.P,J7,2,Pin_2*%
%TO.N,Net-(J3-Pin_3)*%
X114000000Y-48640000D03*
D13*
%TO.P,J7,1,Pin_1*%
%TO.N,Net-(J3-Pin_2)*%
X114000000Y-46100000D03*
%TD*%
D10*
%TO.P,J11,6,Pin_6*%
%TO.N,Net-(J11-Pin_6)*%
X113000000Y-142080000D03*
%TO.P,J11,5,Pin_5*%
%TO.N,Net-(J11-Pin_5)*%
X113000000Y-137000000D03*
%TO.P,J11,4,Pin_4*%
%TO.N,Net-(J11-Pin_4)*%
X113000000Y-131920000D03*
%TO.P,J11,3,Pin_3*%
%TO.N,Net-(J11-Pin_3)*%
X113000000Y-126840000D03*
%TO.P,J11,2,Pin_2*%
%TO.N,GND*%
X113000000Y-121760000D03*
D11*
%TO.P,J11,1,Pin_1*%
%TO.N,Net-(J10-Pin_4)*%
X113000000Y-116680000D03*
%TD*%
D14*
%TO.P,U2,3,OUT*%
%TO.N,Net-(J10-Pin_4)*%
X89500000Y-134000000D03*
%TO.P,U2,2,GND*%
%TO.N,GND*%
X86960000Y-134000000D03*
D15*
%TO.P,U2,1,IN*%
%TO.N,Net-(J4-Pin_2)*%
X84420000Y-134000000D03*
%TD*%
%TO.P,U3,1,GND*%
%TO.N,GND*%
X52000000Y-132000000D03*
D14*
%TO.P,U3,2,VO*%
%TO.N,Net-(J2-Pin_1)*%
X49460000Y-132000000D03*
%TO.P,U3,3,VI*%
%TO.N,Net-(J4-Pin_2)*%
X46920000Y-132000000D03*
%TD*%
D16*
%TO.P,C3,2*%
%TO.N,GND*%
X49250000Y-142000000D03*
%TO.P,C3,1*%
%TO.N,Net-(J4-Pin_2)*%
X41750000Y-142000000D03*
%TD*%
D17*
%TO.P,R3,2*%
%TO.N,Net-(J7-Pin_7)*%
X59810000Y-65500000D03*
%TO.P,R3,1*%
%TO.N,Net-(U4B--)*%
X52190000Y-65500000D03*
%TD*%
D16*
%TO.P,C2,1*%
%TO.N,Net-(J10-Pin_4)*%
X101750000Y-142500000D03*
%TO.P,C2,2*%
%TO.N,GND*%
X94250000Y-142500000D03*
%TD*%
D11*
%TO.P,J6,1,Pin_1*%
%TO.N,GND*%
X37000000Y-90000000D03*
D10*
%TO.P,J6,2,Pin_2*%
%TO.N,Net-(J6-Pin_2)*%
X37000000Y-84920000D03*
%TO.P,J6,3,Pin_3*%
%TO.N,Net-(J6-Pin_3)*%
X37000000Y-79840000D03*
%TD*%
D11*
%TO.P,J1,1,Pin_1*%
%TO.N,Net-(J1-Pin_1)*%
X113000000Y-79920000D03*
D10*
%TO.P,J1,2,Pin_2*%
%TO.N,Net-(J1-Pin_2)*%
X113000000Y-85000000D03*
%TD*%
D16*
%TO.P,C4,1*%
%TO.N,Net-(J2-Pin_1)*%
X58750000Y-142000000D03*
%TO.P,C4,2*%
%TO.N,GND*%
X66250000Y-142000000D03*
%TD*%
%TO.P,C1,1*%
%TO.N,Net-(J4-Pin_2)*%
X78750000Y-142500000D03*
%TO.P,C1,2*%
%TO.N,GND*%
X86250000Y-142500000D03*
%TD*%
D17*
%TO.P,R2,1*%
%TO.N,GND*%
X40690000Y-44500000D03*
%TO.P,R2,2*%
%TO.N,Net-(U4A--)*%
X48310000Y-44500000D03*
%TD*%
D11*
%TO.P,J5,1,Pin_1*%
%TO.N,GND*%
X37000000Y-109080000D03*
D10*
%TO.P,J5,2,Pin_2*%
%TO.N,Net-(J5-Pin_2)*%
X37000000Y-104000000D03*
%TO.P,J5,3,Pin_3*%
%TO.N,Net-(J5-Pin_3)*%
X37000000Y-98920000D03*
%TD*%
D11*
%TO.P,J4,1,Pin_1*%
%TO.N,GND*%
X38000000Y-56000000D03*
D10*
%TO.P,J4,2,Pin_2*%
%TO.N,Net-(J4-Pin_2)*%
X38000000Y-50920000D03*
%TD*%
D11*
%TO.P,J8,1,Pin_1*%
%TO.N,Net-(J7-Pin_9)*%
X113000000Y-91960000D03*
D10*
%TO.P,J8,2,Pin_2*%
%TO.N,Net-(J8-Pin_2)*%
X113000000Y-97040000D03*
%TD*%
D17*
%TO.P,R1,1*%
%TO.N,Net-(U4A--)*%
X52690000Y-44500000D03*
%TO.P,R1,2*%
%TO.N,Net-(J7-Pin_6)*%
X60310000Y-44500000D03*
%TD*%
D11*
%TO.P,J9,1,Pin_1*%
%TO.N,Net-(J7-Pin_8)*%
X113000000Y-104460000D03*
D10*
%TO.P,J9,2,Pin_2*%
%TO.N,Net-(J9-Pin_2)*%
X113000000Y-109540000D03*
%TD*%
D18*
%TO.P,U4,1*%
%TO.N,Net-(J7-Pin_6)*%
X57500000Y-52380000D03*
D19*
%TO.P,U4,2,-*%
%TO.N,Net-(U4A--)*%
X54960000Y-52380000D03*
%TO.P,U4,3,+*%
%TO.N,Net-(U4A-+)*%
X52420000Y-52380000D03*
%TO.P,U4,4,V-*%
%TO.N,GND*%
X49880000Y-52380000D03*
%TO.P,U4,5,+*%
%TO.N,Net-(U4B-+)*%
X49880000Y-60000000D03*
%TO.P,U4,6,-*%
%TO.N,Net-(U4B--)*%
X52420000Y-60000000D03*
%TO.P,U4,7*%
%TO.N,Net-(J7-Pin_7)*%
X54960000Y-60000000D03*
%TO.P,U4,8,V+*%
%TO.N,Net-(J4-Pin_2)*%
X57500000Y-60000000D03*
%TD*%
D17*
%TO.P,R4,1*%
%TO.N,GND*%
X38190000Y-65500000D03*
%TO.P,R4,2*%
%TO.N,Net-(U4B--)*%
X45810000Y-65500000D03*
%TD*%
D20*
%TO.P,U5,J4_1,GND_1*%
%TO.N,GND*%
X70500000Y-74360000D03*
D21*
%TO.P,U5,J4_2,G23*%
%TO.N,Net-(J2-Pin_2)*%
X70500000Y-76900000D03*
%TO.P,U5,J4_3,G22*%
%TO.N,Net-(J2-Pin_3)*%
X70500000Y-79440000D03*
%TO.P,U5,J4_4,TXD*%
%TO.N,unconnected-(U5-TXD-PadJ4_4)*%
X70500000Y-81980000D03*
%TO.P,U5,J4_5,RXD*%
%TO.N,unconnected-(U5-RXD-PadJ4_5)*%
X70500000Y-84520000D03*
%TO.P,U5,J4_6,G21*%
%TO.N,Net-(J2-Pin_4)*%
X70500000Y-87060000D03*
%TO.P,U5,J4_7,GND_7*%
%TO.N,GND*%
X70500000Y-89600000D03*
%TO.P,U5,J4_8,G19*%
%TO.N,Net-(J2-Pin_5)*%
X70500000Y-92140000D03*
%TO.P,U5,J4_9,G18*%
%TO.N,Net-(J2-Pin_6)*%
X70500000Y-94680000D03*
%TO.P,U5,J4_10,G5*%
%TO.N,Net-(J1-Pin_2)*%
X70500000Y-97220000D03*
%TO.P,U5,J4_11,G17*%
%TO.N,Net-(J8-Pin_2)*%
X70500000Y-99760000D03*
%TO.P,U5,J4_12,G16*%
%TO.N,Net-(J9-Pin_2)*%
X70500000Y-102300000D03*
%TO.P,U5,J4_13,G4*%
%TO.N,Net-(J11-Pin_3)*%
X70500000Y-104840000D03*
%TO.P,U5,J4_14,G0*%
%TO.N,unconnected-(U5-G0-PadJ4_14)*%
X70500000Y-107380000D03*
%TO.P,U5,J4_15,G2*%
%TO.N,Net-(J11-Pin_4)*%
X70500000Y-109920000D03*
%TO.P,U5,J4_16,G15*%
%TO.N,Net-(J11-Pin_5)*%
X70500000Y-112460000D03*
%TO.P,U5,J4_17,SD1*%
%TO.N,unconnected-(U5-SD1-PadJ4_17)*%
X70500000Y-115000000D03*
%TO.P,U5,J4_18,SD0*%
%TO.N,unconnected-(U5-SD0-PadJ4_18)*%
X70500000Y-117540000D03*
%TO.P,U5,J4_19,CLK*%
%TO.N,unconnected-(U5-CLK-PadJ4_19)*%
X70500000Y-120080000D03*
D20*
%TO.P,U5,J5_1,5V*%
%TO.N,Net-(J10-Pin_4)*%
X45100000Y-120080000D03*
D21*
%TO.P,U5,J5_2,CMD*%
%TO.N,unconnected-(U5-CMD-PadJ5_2)*%
X45100000Y-117540000D03*
%TO.P,U5,J5_3,SD3*%
%TO.N,unconnected-(U5-SD3-PadJ5_3)*%
X45100000Y-115000000D03*
%TO.P,U5,J5_4,SD2*%
%TO.N,unconnected-(U5-SD2-PadJ5_4)*%
X45100000Y-112460000D03*
%TO.P,U5,J5_5,G13*%
%TO.N,Net-(J11-Pin_6)*%
X45100000Y-109920000D03*
%TO.P,U5,J5_6,GND_6*%
%TO.N,GND*%
X45100000Y-107380000D03*
%TO.P,U5,J5_7,G12*%
%TO.N,unconnected-(U5-G12-PadJ5_7)*%
X45100000Y-104840000D03*
%TO.P,U5,J5_8,G14*%
%TO.N,Net-(J5-Pin_2)*%
X45100000Y-102300000D03*
%TO.P,U5,J5_9,G27*%
%TO.N,Net-(J5-Pin_3)*%
X45100000Y-99760000D03*
%TO.P,U5,J5_10,G26*%
%TO.N,Net-(U4B-+)*%
X45100000Y-97220000D03*
%TO.P,U5,J5_11,G25*%
%TO.N,Net-(U4A-+)*%
X45100000Y-94680000D03*
%TO.P,U5,J5_12,G33*%
%TO.N,Net-(J6-Pin_2)*%
X45100000Y-92140000D03*
%TO.P,U5,J5_13,G32*%
%TO.N,Net-(J6-Pin_3)*%
X45100000Y-89600000D03*
%TO.P,U5,J5_14,G35*%
%TO.N,unconnected-(U5-G35-PadJ5_14)*%
X45100000Y-87060000D03*
%TO.P,U5,J5_15,G34*%
%TO.N,unconnected-(U5-G34-PadJ5_15)*%
X45100000Y-84520000D03*
%TO.P,U5,J5_16,SN*%
%TO.N,unconnected-(U5-SN-PadJ5_16)*%
X45100000Y-81980000D03*
%TO.P,U5,J5_17,SP*%
%TO.N,unconnected-(U5-SP-PadJ5_17)*%
X45100000Y-79440000D03*
%TO.P,U5,J5_18,EN*%
%TO.N,unconnected-(U5-EN-PadJ5_18)*%
X45100000Y-76900000D03*
%TO.P,U5,J5_19,3V3*%
%TO.N,unconnected-(U5-3V3-PadJ5_19)*%
X45100000Y-74360000D03*
%TD*%
D22*
%TO.N,Net-(U4B-+)*%
X49601000Y-62000000D03*
%TO.N,Net-(J10-Pin_4)*%
X93000000Y-82500000D03*
X100750000Y-116750000D03*
X88701000Y-126701000D03*
%TO.N,Net-(J7-Pin_6)*%
X72000000Y-58500000D03*
%TO.N,Net-(J7-Pin_7)*%
X110500000Y-61000000D03*
%TO.N,Net-(J7-Pin_6)*%
X111000000Y-58500000D03*
%TO.N,Net-(J2-Pin_1)*%
X76500000Y-93500000D03*
%TO.N,Net-(J7-Pin_7)*%
X60000000Y-63500000D03*
%TO.N,Net-(U4A-+)*%
X52000000Y-54500000D03*
%TO.N,Net-(J4-Pin_2)*%
X57500000Y-92000000D03*
%TO.N,GND*%
X82000000Y-146000000D03*
X70500000Y-146000000D03*
%TO.N,Net-(J2-Pin_1)*%
X69000000Y-129500000D03*
%TO.N,Net-(J4-Pin_2)*%
X47000000Y-129000000D03*
%TO.N,Net-(U4B-+)*%
X49601000Y-67500000D03*
%TO.N,Net-(U4A-+)*%
X48000000Y-68000000D03*
%TD*%
D23*
%TO.N,Net-(J7-Pin_7)*%
X114000000Y-61340000D02*
X110840000Y-61340000D01*
X110840000Y-61340000D02*
X110500000Y-61000000D01*
%TO.N,Net-(J7-Pin_6)*%
X111300000Y-58800000D02*
X111000000Y-58500000D01*
X114000000Y-58800000D02*
X111300000Y-58800000D01*
%TO.N,Net-(U4B-+)*%
X49880000Y-61721000D02*
X49601000Y-62000000D01*
X49880000Y-60000000D02*
X49880000Y-61721000D01*
%TO.N,Net-(J10-Pin_4)*%
X93000000Y-82500000D02*
X93000000Y-67794156D01*
X93000000Y-67794156D02*
X94654156Y-66140000D01*
X94654156Y-66140000D02*
X97000000Y-66140000D01*
%TO.N,GND*%
X70250000Y-146000000D02*
X66250000Y-142000000D01*
X70500000Y-146000000D02*
X70250000Y-146000000D01*
X82750000Y-145250000D02*
X82000000Y-146000000D01*
%TO.N,Net-(J10-Pin_4)*%
X93260000Y-152000000D02*
X98340000Y-152000000D01*
X98340000Y-152000000D02*
X101750000Y-148590000D01*
X101750000Y-148590000D02*
X101750000Y-148500000D01*
%TO.N,GND*%
X103420000Y-152000000D02*
X108500000Y-152000000D01*
X108500000Y-152000000D02*
X113580000Y-152000000D01*
%TO.N,Net-(J10-Pin_4)*%
X113000000Y-116680000D02*
X100820000Y-116680000D01*
X100820000Y-116680000D02*
X100750000Y-116750000D01*
X88701000Y-126701000D02*
X93250000Y-131250000D01*
X88701000Y-126701000D02*
X60201000Y-126701000D01*
X93250000Y-131250000D02*
X93250000Y-134000000D01*
X60201000Y-126701000D02*
X53580000Y-120080000D01*
X93250000Y-134000000D02*
X101750000Y-142500000D01*
X89500000Y-134000000D02*
X93250000Y-134000000D01*
X53580000Y-120080000D02*
X45100000Y-120080000D01*
X101750000Y-142500000D02*
X101750000Y-148500000D01*
%TO.N,Net-(J7-Pin_6)*%
X60310000Y-46810000D02*
X72000000Y-58500000D01*
X60310000Y-44500000D02*
X60310000Y-46810000D01*
%TO.N,Net-(J3-Pin_6)*%
X98216624Y-78840000D02*
X97000000Y-78840000D01*
X108500000Y-68556624D02*
X98216624Y-78840000D01*
X108500000Y-58264156D02*
X108500000Y-68556624D01*
X110504156Y-56260000D02*
X108500000Y-58264156D01*
X114000000Y-56260000D02*
X110504156Y-56260000D01*
%TO.N,Net-(J3-Pin_5)*%
X106803000Y-67989468D02*
X98492468Y-76300000D01*
X106803000Y-57697000D02*
X106803000Y-67989468D01*
X98492468Y-76300000D02*
X97000000Y-76300000D01*
X110780000Y-53720000D02*
X106803000Y-57697000D01*
X114000000Y-53720000D02*
X110780000Y-53720000D01*
%TO.N,Net-(J3-Pin_4)*%
X98768312Y-73760000D02*
X97000000Y-73760000D01*
X105202000Y-67326312D02*
X98768312Y-73760000D01*
X105202000Y-56663156D02*
X105202000Y-67326312D01*
X114000000Y-51180000D02*
X110685156Y-51180000D01*
X110685156Y-51180000D02*
X105202000Y-56663156D01*
%TO.N,Net-(J3-Pin_3)*%
X103601000Y-56000000D02*
X103601000Y-66663156D01*
X99044156Y-71220000D02*
X97000000Y-71220000D01*
X110961000Y-48640000D02*
X103601000Y-56000000D01*
X103601000Y-66663156D02*
X99044156Y-71220000D01*
X114000000Y-48640000D02*
X110961000Y-48640000D01*
%TO.N,Net-(J3-Pin_2)*%
X99320000Y-68680000D02*
X97000000Y-68680000D01*
X102000000Y-55250000D02*
X102000000Y-66000000D01*
X102000000Y-66000000D02*
X99320000Y-68680000D01*
X111150000Y-46100000D02*
X102000000Y-55250000D01*
X114000000Y-46100000D02*
X111150000Y-46100000D01*
%TO.N,Net-(J7-Pin_8)*%
X115202081Y-63880000D02*
X114000000Y-63880000D01*
X119153000Y-98307000D02*
X119153000Y-67830919D01*
X113000000Y-104460000D02*
X119153000Y-98307000D01*
X119153000Y-67830919D02*
X115202081Y-63880000D01*
%TO.N,Net-(J7-Pin_9)*%
X114926237Y-66420000D02*
X114000000Y-66420000D01*
X113000000Y-91960000D02*
X117552000Y-87408000D01*
X117552000Y-87408000D02*
X117552000Y-69045763D01*
X117552000Y-69045763D02*
X114926237Y-66420000D01*
%TO.N,Net-(J1-Pin_1)*%
X115951000Y-69708919D02*
X115202081Y-68960000D01*
X115202081Y-68960000D02*
X114000000Y-68960000D01*
X115951000Y-76969000D02*
X115951000Y-69708919D01*
X113000000Y-79920000D02*
X115951000Y-76969000D01*
%TO.N,GND*%
X100020000Y-88020000D02*
X114000000Y-74040000D01*
X90000000Y-83500000D02*
X95500000Y-89000000D01*
X95500000Y-89000000D02*
X97000000Y-89000000D01*
X84601000Y-64149000D02*
X90000000Y-69548000D01*
X80699000Y-64149000D02*
X84601000Y-64149000D01*
X90000000Y-69548000D02*
X90000000Y-83500000D01*
X69814000Y-75034000D02*
X80699000Y-64149000D01*
X68061000Y-75034000D02*
X69814000Y-75034000D01*
X67797500Y-75297500D02*
X68061000Y-75034000D01*
X67797500Y-75297500D02*
X64728461Y-78366539D01*
X114000000Y-71500000D02*
X114000000Y-74040000D01*
X99040000Y-89000000D02*
X100020000Y-88020000D01*
X97000000Y-89000000D02*
X99040000Y-89000000D01*
%TO.N,Net-(J2-Pin_2)*%
X74170869Y-76900000D02*
X82430869Y-68640000D01*
X82430869Y-68640000D02*
X82650000Y-68640000D01*
X70500000Y-76900000D02*
X74170869Y-76900000D01*
%TO.N,Net-(J2-Pin_3)*%
X82275451Y-71180000D02*
X82650000Y-71180000D01*
X74015451Y-79440000D02*
X82275451Y-71180000D01*
X70500000Y-79440000D02*
X74015451Y-79440000D01*
%TO.N,Net-(J2-Pin_4)*%
X81999607Y-73720000D02*
X82650000Y-73720000D01*
X71581873Y-87060000D02*
X72798000Y-85843873D01*
X70500000Y-87060000D02*
X71581873Y-87060000D01*
X72798000Y-85843873D02*
X72798000Y-82921607D01*
X72798000Y-82921607D02*
X81999607Y-73720000D01*
%TO.N,Net-(J2-Pin_5)*%
X81723763Y-76260000D02*
X82650000Y-76260000D01*
X74399000Y-88339923D02*
X74399000Y-83584763D01*
X74399000Y-83584763D02*
X81723763Y-76260000D01*
X70598923Y-92140000D02*
X74399000Y-88339923D01*
X70500000Y-92140000D02*
X70598923Y-92140000D01*
%TO.N,Net-(J2-Pin_6)*%
X71320000Y-94680000D02*
X70500000Y-94680000D01*
X76000000Y-90000000D02*
X71320000Y-94680000D01*
X76000000Y-84247919D02*
X76000000Y-90000000D01*
X81447919Y-78800000D02*
X76000000Y-84247919D01*
X82650000Y-78800000D02*
X81447919Y-78800000D01*
%TO.N,Net-(J2-Pin_1)*%
X81040000Y-88960000D02*
X76500000Y-93500000D01*
X82650000Y-88960000D02*
X81040000Y-88960000D01*
X82869131Y-66140000D02*
X84601000Y-67871869D01*
X82650000Y-66140000D02*
X82869131Y-66140000D01*
X83000000Y-89000000D02*
X82650000Y-89000000D01*
X84601000Y-67871869D02*
X84601000Y-87000000D01*
X84601000Y-87000000D02*
X84601000Y-87399000D01*
X84601000Y-87399000D02*
X83000000Y-89000000D01*
%TO.N,Net-(J2-Pin_4)*%
X82650000Y-73760000D02*
X82430869Y-73760000D01*
%TO.N,Net-(J2-Pin_3)*%
X82650000Y-71220000D02*
X82430869Y-71220000D01*
%TO.N,Net-(J1-Pin_2)*%
X100780000Y-97220000D02*
X113000000Y-85000000D01*
X70500000Y-97220000D02*
X100780000Y-97220000D01*
%TO.N,Net-(J8-Pin_2)*%
X110280000Y-99760000D02*
X70500000Y-99760000D01*
X113000000Y-97040000D02*
X110280000Y-99760000D01*
%TO.N,Net-(J9-Pin_2)*%
X89540000Y-109540000D02*
X113000000Y-109540000D01*
X82300000Y-102300000D02*
X89540000Y-109540000D01*
X70500000Y-102300000D02*
X82300000Y-102300000D01*
%TO.N,GND*%
X113000000Y-121760000D02*
X115601000Y-124361000D01*
X115601000Y-124361000D02*
X115601000Y-150559000D01*
X115601000Y-150559000D02*
X114160000Y-152000000D01*
%TO.N,Net-(J11-Pin_3)*%
X77340000Y-104840000D02*
X76500000Y-104840000D01*
X99340000Y-126840000D02*
X77340000Y-104840000D01*
X113000000Y-126840000D02*
X99340000Y-126840000D01*
X76500000Y-104840000D02*
X70500000Y-104840000D01*
%TO.N,Net-(J11-Pin_4)*%
X102000000Y-131920000D02*
X80000000Y-109920000D01*
X113000000Y-131920000D02*
X102000000Y-131920000D01*
X70500000Y-109920000D02*
X80000000Y-109920000D01*
%TO.N,Net-(J11-Pin_5)*%
X79500000Y-112460000D02*
X70500000Y-112460000D01*
X104040000Y-137000000D02*
X79500000Y-112460000D01*
X113000000Y-137000000D02*
X104040000Y-137000000D01*
%TO.N,Net-(J11-Pin_6)*%
X46181873Y-109920000D02*
X45100000Y-109920000D01*
X61361873Y-125100000D02*
X46181873Y-109920000D01*
X89500000Y-125100000D02*
X61361873Y-125100000D01*
X106480000Y-142080000D02*
X89500000Y-125100000D01*
X113000000Y-142080000D02*
X106480000Y-142080000D01*
%TO.N,GND*%
X92500000Y-156500000D02*
X99500000Y-156500000D01*
X99500000Y-156500000D02*
X104000000Y-152000000D01*
X89500000Y-147250000D02*
X89500000Y-153500000D01*
X94250000Y-142500000D02*
X89500000Y-147250000D01*
X89500000Y-153500000D02*
X92500000Y-156500000D01*
%TO.N,Net-(J4-Pin_2)*%
X63111000Y-64346844D02*
X63111000Y-86389000D01*
X58764156Y-60000000D02*
X63111000Y-64346844D01*
X63111000Y-86389000D02*
X57500000Y-92000000D01*
X57500000Y-60000000D02*
X58764156Y-60000000D01*
%TO.N,Net-(J7-Pin_7)*%
X59810000Y-63690000D02*
X60000000Y-63500000D01*
X59810000Y-65500000D02*
X59810000Y-63690000D01*
X54960000Y-60650000D02*
X54960000Y-60000000D01*
X59810000Y-65500000D02*
X54960000Y-60650000D01*
%TO.N,Net-(U4B--)*%
X52420000Y-65270000D02*
X52190000Y-65500000D01*
X52420000Y-60000000D02*
X52420000Y-65270000D01*
X45810000Y-65500000D02*
X52190000Y-65500000D01*
%TO.N,Net-(J7-Pin_6)*%
X57500000Y-47310000D02*
X60310000Y-44500000D01*
X57500000Y-52380000D02*
X57500000Y-47310000D01*
%TO.N,Net-(U4A--)*%
X52690000Y-44500000D02*
X48310000Y-44500000D01*
X54960000Y-46770000D02*
X54960000Y-52380000D01*
X52690000Y-44500000D02*
X54960000Y-46770000D01*
%TO.N,GND*%
X48570000Y-52380000D02*
X40690000Y-44500000D01*
X49880000Y-52380000D02*
X48570000Y-52380000D01*
X35399000Y-48319000D02*
X35399000Y-53399000D01*
X35399000Y-53399000D02*
X38000000Y-56000000D01*
X40690000Y-44500000D02*
X39218000Y-44500000D01*
X39218000Y-44500000D02*
X35399000Y-48319000D01*
%TO.N,Net-(J4-Pin_2)*%
X56631370Y-58000000D02*
X57500000Y-58868630D01*
X57500000Y-58868630D02*
X57500000Y-60000000D01*
X45000000Y-58000000D02*
X56631370Y-58000000D01*
X38000000Y-50920000D02*
X38000000Y-51000000D01*
X38000000Y-51000000D02*
X45000000Y-58000000D01*
%TO.N,Net-(U4A-+)*%
X45198923Y-94680000D02*
X45100000Y-94680000D01*
X48000000Y-91878923D02*
X45198923Y-94680000D01*
X48000000Y-68000000D02*
X48000000Y-91878923D01*
X52420000Y-54080000D02*
X52000000Y-54500000D01*
X52420000Y-52380000D02*
X52420000Y-54080000D01*
%TO.N,Net-(J7-Pin_7)*%
X54960000Y-59851580D02*
X54960000Y-60000000D01*
%TO.N,Net-(U4B-+)*%
X46181873Y-97220000D02*
X45100000Y-97220000D01*
X49601000Y-93800873D02*
X46181873Y-97220000D01*
X49601000Y-67500000D02*
X49601000Y-93800873D01*
%TO.N,GND*%
X38190000Y-62000000D02*
X38190000Y-56000000D01*
X38190000Y-71209000D02*
X34399000Y-75000000D01*
X34399000Y-75000000D02*
X34399000Y-87399000D01*
X38190000Y-62000000D02*
X38190000Y-71209000D01*
X34399000Y-106479000D02*
X37000000Y-109080000D01*
X34399000Y-92601000D02*
X34399000Y-106479000D01*
X37000000Y-90000000D02*
X34399000Y-92601000D01*
X34399000Y-87399000D02*
X37000000Y-90000000D01*
%TO.N,Net-(J6-Pin_3)*%
X43944156Y-89600000D02*
X45100000Y-89600000D01*
X40422078Y-86077922D02*
X43944156Y-89600000D01*
X40422078Y-83262078D02*
X40422078Y-86077922D01*
X37000000Y-79840000D02*
X40422078Y-83262078D01*
%TO.N,Net-(J6-Pin_2)*%
X44220000Y-92140000D02*
X45100000Y-92140000D01*
X37000000Y-84920000D02*
X44220000Y-92140000D01*
%TO.N,Net-(J5-Pin_3)*%
X37840000Y-99760000D02*
X37000000Y-98920000D01*
X45100000Y-99760000D02*
X37840000Y-99760000D01*
%TO.N,Net-(J5-Pin_2)*%
X38700000Y-102300000D02*
X37000000Y-104000000D01*
X45100000Y-102300000D02*
X38700000Y-102300000D01*
%TO.N,GND*%
X38700000Y-107380000D02*
X37000000Y-109080000D01*
X45100000Y-107380000D02*
X38700000Y-107380000D01*
X43101000Y-150101000D02*
X77899000Y-150101000D01*
X37000000Y-144000000D02*
X43101000Y-150101000D01*
X37000000Y-109080000D02*
X37000000Y-144000000D01*
X77899000Y-150101000D02*
X82750000Y-145250000D01*
X85500000Y-142500000D02*
X82750000Y-145250000D01*
X86250000Y-142500000D02*
X85500000Y-142500000D01*
%TO.N,Net-(J4-Pin_2)*%
X48250000Y-148500000D02*
X41750000Y-142000000D01*
X72750000Y-148500000D02*
X48250000Y-148500000D01*
X78750000Y-142500000D02*
X72750000Y-148500000D01*
X84420000Y-136830000D02*
X84420000Y-134000000D01*
X78750000Y-142500000D02*
X84420000Y-136830000D01*
%TO.N,GND*%
X91000000Y-142500000D02*
X86250000Y-142500000D01*
X86960000Y-141790000D02*
X86250000Y-142500000D01*
X86960000Y-134000000D02*
X86960000Y-141790000D01*
X94250000Y-142500000D02*
X91000000Y-142500000D01*
%TO.N,Net-(J2-Pin_1)*%
X69000000Y-129500000D02*
X50345500Y-129500000D01*
X49460000Y-132000000D02*
X49460000Y-130385500D01*
X49460000Y-130385500D02*
X50345500Y-129500000D01*
X49460000Y-133614500D02*
X57845500Y-142000000D01*
X57845500Y-142000000D02*
X58750000Y-142000000D01*
X49460000Y-132000000D02*
X49460000Y-133614500D01*
%TO.N,GND*%
X61500000Y-132000000D02*
X52000000Y-132000000D01*
X66250000Y-136750000D02*
X61500000Y-132000000D01*
X66250000Y-142000000D02*
X66250000Y-136750000D01*
X64149000Y-144101000D02*
X66250000Y-142000000D01*
X51351000Y-144101000D02*
X64149000Y-144101000D01*
X49250000Y-142000000D02*
X51351000Y-144101000D01*
%TO.N,Net-(J4-Pin_2)*%
X46920000Y-136830000D02*
X41750000Y-142000000D01*
X46920000Y-132000000D02*
X46920000Y-136830000D01*
X46920000Y-129080000D02*
X47000000Y-129000000D01*
X46920000Y-132000000D02*
X46920000Y-129080000D01*
%TO.N,GND*%
X64728461Y-78366539D02*
X64728461Y-89728461D01*
X68735000Y-74360000D02*
X67797500Y-75297500D01*
X70500000Y-74360000D02*
X68735000Y-74360000D01*
X64728461Y-89728461D02*
X47076923Y-107380000D01*
X47076923Y-107380000D02*
X45100000Y-107380000D01*
X64856923Y-89600000D02*
X64728461Y-89728461D01*
X70500000Y-89600000D02*
X64856923Y-89600000D01*
%TO.N,Net-(J2-Pin_5)*%
X70705025Y-92140000D02*
X70500000Y-92140000D01*
%TO.N,Net-(J2-Pin_4)*%
X70401077Y-87060000D02*
X70500000Y-87060000D01*
%TO.N,Net-(J2-Pin_3)*%
X70401077Y-79440000D02*
X70500000Y-79440000D01*
%TO.N,Net-(U4A-+)*%
X44780000Y-94360000D02*
X45100000Y-94680000D01*
%TD*%
M02*
