M48
; DRILL file {KiCad 9.0.3} date 2025-08-08T14:42:06-0500
; FORMAT={-:-/ absolute / metric / decimal}
; #@! TF.CreationDate,2025-08-08T14:42:06-05:00
; #@! TF.GenerationSoftware,Kicad,Pcbnew,9.0.3
; #@! TF.FileFunction,Plated,1,2,PTH
FMAT,2
METRIC
; #@! TA.AperFunction,Plated,PTH,ViaDrill
T1C0.300
; #@! TA.AperFunction,Plated,PTH,ComponentDrill
T2C0.700
; #@! TA.AperFunction,Plated,PTH,ComponentDrill
T3C0.800
; #@! TA.AperFunction,Plated,PTH,ComponentDrill
T4C1.000
; #@! TA.AperFunction,Plated,PTH,ComponentDrill
T5C1.020
; #@! TA.AperFunction,Plated,PTH,ComponentDrill
T6C1.100
; #@! TA.AperFunction,Plated,PTH,ComponentDrill
T7C1.520
%
G90
G05
T1
X47.0Y-129.0
X48.0Y-68.0
X49.601Y-62.0
X49.601Y-67.5
X52.0Y-54.5
X57.5Y-92.0
X60.0Y-63.5
X69.0Y-129.5
X70.5Y-146.0
X72.0Y-58.5
X76.5Y-93.5
X82.0Y-146.0
X88.701Y-126.701
X93.0Y-82.5
X100.75Y-116.75
X110.5Y-61.0
X111.0Y-58.5
T2
X38.19Y-65.5
X40.69Y-44.5
X45.81Y-65.5
X48.31Y-44.5
X52.19Y-65.5
X52.69Y-44.5
X59.81Y-65.5
X60.31Y-44.5
T3
X49.88Y-52.38
X49.88Y-60.0
X52.42Y-52.38
X52.42Y-60.0
X54.96Y-52.38
X54.96Y-60.0
X57.5Y-52.38
X57.5Y-60.0
T4
X41.75Y-142.0
X49.25Y-142.0
X58.75Y-142.0
X66.25Y-142.0
X78.75Y-142.5
X82.65Y-66.1
X82.65Y-68.64
X82.65Y-71.18
X82.65Y-73.72
X82.65Y-76.26
X82.65Y-78.8
X82.65Y-81.34
X82.65Y-83.88
X82.65Y-86.42
X82.65Y-88.96
X86.25Y-142.5
X94.25Y-142.5
X97.0Y-66.14
X97.0Y-68.68
X97.0Y-71.22
X97.0Y-73.76
X97.0Y-76.3
X97.0Y-78.84
X97.0Y-81.38
X97.0Y-83.92
X97.0Y-86.46
X97.0Y-89.0
X101.75Y-142.5
X114.0Y-46.1
X114.0Y-48.64
X114.0Y-51.18
X114.0Y-53.72
X114.0Y-56.26
X114.0Y-58.8
X114.0Y-61.34
X114.0Y-63.88
X114.0Y-66.42
X114.0Y-68.96
X114.0Y-71.5
X114.0Y-74.04
T5
X45.1Y-74.36
X45.1Y-76.9
X45.1Y-79.44
X45.1Y-81.98
X45.1Y-84.52
X45.1Y-87.06
X45.1Y-89.6
X45.1Y-92.14
X45.1Y-94.68
X45.1Y-97.22
X45.1Y-99.76
X45.1Y-102.3
X45.1Y-104.84
X45.1Y-107.38
X45.1Y-109.92
X45.1Y-112.46
X45.1Y-115.0
X45.1Y-117.54
X45.1Y-120.08
X70.5Y-74.36
X70.5Y-76.9
X70.5Y-79.44
X70.5Y-81.98
X70.5Y-84.52
X70.5Y-87.06
X70.5Y-89.6
X70.5Y-92.14
X70.5Y-94.68
X70.5Y-97.22
X70.5Y-99.76
X70.5Y-102.3
X70.5Y-104.84
X70.5Y-107.38
X70.5Y-109.92
X70.5Y-112.46
X70.5Y-115.0
X70.5Y-117.54
X70.5Y-120.08
T6
X46.92Y-132.0
X49.46Y-132.0
X52.0Y-132.0
X84.42Y-134.0
X86.96Y-134.0
X89.5Y-134.0
T7
X37.0Y-79.84
X37.0Y-84.92
X37.0Y-90.0
X37.0Y-98.92
X37.0Y-104.0
X37.0Y-109.08
X38.0Y-50.92
X38.0Y-56.0
X93.26Y-152.0
X98.34Y-152.0
X103.42Y-152.0
X108.5Y-152.0
X113.0Y-79.92
X113.0Y-85.0
X113.0Y-91.96
X113.0Y-97.04
X113.0Y-104.46
X113.0Y-109.54
X113.0Y-116.68
X113.0Y-121.76
X113.0Y-126.84
X113.0Y-131.92
X113.0Y-137.0
X113.0Y-142.08
X113.58Y-152.0
M30
