%TF.GenerationSoftware,KiCad,Pcbnew,9.0.3*%
%TF.CreationDate,2025-08-08T14:41:56-05:00*%
%TF.ProjectId,baquelita,62617175-656c-4697-9461-2e6b69636164,rev?*%
%TF.SameCoordinates,Original*%
%TF.FileFunction,Other,User*%
%FSLAX46Y46*%
G04 Gerber Fmt 4.6, Leading zero omitted, Abs format (unit mm)*
G04 Created by KiCad (PCBNEW 9.0.3) date 2025-08-08 14:41:56*
%MOMM*%
%LPD*%
G01*
G04 APERTURE LIST*
%ADD10C,0.050000*%
G04 APERTURE END LIST*
D10*
%TO.C,J10*%
X90520000Y-148000000D02*
X116320000Y-148000000D01*
X90520000Y-148000000D02*
X90520000Y-156000000D01*
X116320000Y-156000000D02*
X116320000Y-148000000D01*
X116320000Y-156000000D02*
X90520000Y-156000000D01*
%TO.C,J2*%
X84420000Y-90730000D02*
X84420000Y-64330000D01*
X84420000Y-64330000D02*
X80880000Y-64330000D01*
X80880000Y-90730000D02*
X84420000Y-90730000D01*
X80880000Y-64330000D02*
X80880000Y-90730000D01*
%TO.C,J3*%
X98770000Y-90770000D02*
X98770000Y-64370000D01*
X98770000Y-64370000D02*
X95230000Y-64370000D01*
X95230000Y-90770000D02*
X98770000Y-90770000D01*
X95230000Y-64370000D02*
X95230000Y-90770000D01*
%TO.C,J7*%
X115770000Y-75810000D02*
X115770000Y-44330000D01*
X115770000Y-44330000D02*
X112230000Y-44330000D01*
X112230000Y-75810000D02*
X115770000Y-75810000D01*
X112230000Y-44330000D02*
X112230000Y-75810000D01*
%TO.C,J11*%
X109000000Y-144830000D02*
X109000000Y-113930000D01*
X109000000Y-144830000D02*
X117000000Y-144830000D01*
X117000000Y-113930000D02*
X109000000Y-113930000D01*
X117000000Y-113930000D02*
X117000000Y-144830000D01*
%TO.C,U2*%
X81710000Y-130600000D02*
X92210000Y-130600000D01*
X92210000Y-135500000D01*
X81710000Y-135500000D01*
X81710000Y-130600000D01*
%TO.C,U3*%
X54710000Y-135400000D02*
X44210000Y-135400000D01*
X44210000Y-130500000D01*
X54710000Y-130500000D01*
X54710000Y-135400000D01*
%TO.C,C3*%
X40500000Y-139250000D02*
X50500000Y-139250000D01*
X50500000Y-144750000D01*
X40500000Y-144750000D01*
X40500000Y-139250000D01*
%TO.C,R3*%
X51240000Y-64450000D02*
X60760000Y-64450000D01*
X60760000Y-66550000D01*
X51240000Y-66550000D01*
X51240000Y-64450000D01*
%TO.C,C2*%
X103000000Y-145250000D02*
X93000000Y-145250000D01*
X93000000Y-139750000D01*
X103000000Y-139750000D01*
X103000000Y-145250000D01*
%TO.C,J6*%
X33000000Y-92720000D02*
X33000000Y-77120000D01*
X33000000Y-92720000D02*
X41000000Y-92720000D01*
X41000000Y-77120000D02*
X33000000Y-77120000D01*
X41000000Y-77120000D02*
X41000000Y-92720000D01*
%TO.C,J1*%
X117000000Y-77210000D02*
X117000000Y-87710000D01*
X117000000Y-77210000D02*
X109000000Y-77210000D01*
X109000000Y-87710000D02*
X117000000Y-87710000D01*
X109000000Y-87710000D02*
X109000000Y-77210000D01*
%TO.C,C4*%
X57500000Y-139250000D02*
X67500000Y-139250000D01*
X67500000Y-144750000D01*
X57500000Y-144750000D01*
X57500000Y-139250000D01*
%TO.C,C1*%
X77500000Y-139750000D02*
X87500000Y-139750000D01*
X87500000Y-145250000D01*
X77500000Y-145250000D01*
X77500000Y-139750000D01*
%TO.C,R2*%
X39740000Y-43450000D02*
X49260000Y-43450000D01*
X49260000Y-45550000D01*
X39740000Y-45550000D01*
X39740000Y-43450000D01*
%TO.C,J5*%
X33000000Y-111800000D02*
X33000000Y-96200000D01*
X33000000Y-111800000D02*
X41000000Y-111800000D01*
X41000000Y-96200000D02*
X33000000Y-96200000D01*
X41000000Y-96200000D02*
X41000000Y-111800000D01*
%TO.C,J4*%
X42000000Y-48210000D02*
X42000000Y-58710000D01*
X42000000Y-48210000D02*
X34000000Y-48210000D01*
X34000000Y-58710000D02*
X42000000Y-58710000D01*
X34000000Y-58710000D02*
X34000000Y-48210000D01*
%TO.C,J8*%
X117000000Y-89250000D02*
X117000000Y-99750000D01*
X117000000Y-89250000D02*
X109000000Y-89250000D01*
X109000000Y-99750000D02*
X117000000Y-99750000D01*
X109000000Y-99750000D02*
X109000000Y-89250000D01*
%TO.C,R1*%
X51740000Y-43450000D02*
X61260000Y-43450000D01*
X61260000Y-45550000D01*
X51740000Y-45550000D01*
X51740000Y-43450000D01*
%TO.C,J9*%
X117000000Y-101750000D02*
X117000000Y-112250000D01*
X117000000Y-101750000D02*
X109000000Y-101750000D01*
X109000000Y-112250000D02*
X117000000Y-112250000D01*
X109000000Y-112250000D02*
X109000000Y-101750000D01*
%TO.C,U4*%
X60550000Y-51320000D02*
X46830000Y-51320000D01*
X46830000Y-61050000D01*
X60550000Y-61050000D01*
X60550000Y-51320000D01*
%TO.C,R4*%
X37240000Y-64450000D02*
X46760000Y-64450000D01*
X46760000Y-66550000D01*
X37240000Y-66550000D01*
X37240000Y-64450000D01*
%TO.C,U5*%
X43550000Y-69470000D02*
X43550000Y-124970000D01*
X43550000Y-124970000D02*
X72050000Y-124970000D01*
X72050000Y-69470000D02*
X43550000Y-69470000D01*
X72050000Y-124970000D02*
X72050000Y-69470000D01*
%TD*%
M02*
