%TF.GenerationSoftware,KiCad,Pcbnew,9.0.3*%
%TF.CreationDate,2025-08-08T14:41:56-05:00*%
%TF.ProjectId,baquelita,62617175-656c-4697-9461-2e6b69636164,rev?*%
%TF.SameCoordinates,Original*%
%TF.FileFunction,AssemblyDrawing,Top*%
%FSLAX46Y46*%
G04 Gerber Fmt 4.6, Leading zero omitted, Abs format (unit mm)*
G04 Created by KiCad (PCBNEW 9.0.3) date 2025-08-08 14:41:56*
%MOMM*%
%LPD*%
G01*
G04 APERTURE LIST*
%ADD10C,0.150000*%
%ADD11C,0.108000*%
%ADD12C,0.100000*%
%ADD13C,0.127000*%
G04 APERTURE END LIST*
D10*
X95191904Y-147807200D02*
X95334761Y-147854819D01*
X95334761Y-147854819D02*
X95572856Y-147854819D01*
X95572856Y-147854819D02*
X95668094Y-147807200D01*
X95668094Y-147807200D02*
X95715713Y-147759580D01*
X95715713Y-147759580D02*
X95763332Y-147664342D01*
X95763332Y-147664342D02*
X95763332Y-147569104D01*
X95763332Y-147569104D02*
X95715713Y-147473866D01*
X95715713Y-147473866D02*
X95668094Y-147426247D01*
X95668094Y-147426247D02*
X95572856Y-147378628D01*
X95572856Y-147378628D02*
X95382380Y-147331009D01*
X95382380Y-147331009D02*
X95287142Y-147283390D01*
X95287142Y-147283390D02*
X95239523Y-147235771D01*
X95239523Y-147235771D02*
X95191904Y-147140533D01*
X95191904Y-147140533D02*
X95191904Y-147045295D01*
X95191904Y-147045295D02*
X95239523Y-146950057D01*
X95239523Y-146950057D02*
X95287142Y-146902438D01*
X95287142Y-146902438D02*
X95382380Y-146854819D01*
X95382380Y-146854819D02*
X95620475Y-146854819D01*
X95620475Y-146854819D02*
X95763332Y-146902438D01*
X96620475Y-147807200D02*
X96525237Y-147854819D01*
X96525237Y-147854819D02*
X96334761Y-147854819D01*
X96334761Y-147854819D02*
X96239523Y-147807200D01*
X96239523Y-147807200D02*
X96191904Y-147759580D01*
X96191904Y-147759580D02*
X96144285Y-147664342D01*
X96144285Y-147664342D02*
X96144285Y-147378628D01*
X96144285Y-147378628D02*
X96191904Y-147283390D01*
X96191904Y-147283390D02*
X96239523Y-147235771D01*
X96239523Y-147235771D02*
X96334761Y-147188152D01*
X96334761Y-147188152D02*
X96525237Y-147188152D01*
X96525237Y-147188152D02*
X96620475Y-147235771D01*
X97049047Y-147854819D02*
X97049047Y-147188152D01*
X97049047Y-147378628D02*
X97096666Y-147283390D01*
X97096666Y-147283390D02*
X97144285Y-147235771D01*
X97144285Y-147235771D02*
X97239523Y-147188152D01*
X97239523Y-147188152D02*
X97334761Y-147188152D01*
X98049047Y-147807200D02*
X97953809Y-147854819D01*
X97953809Y-147854819D02*
X97763333Y-147854819D01*
X97763333Y-147854819D02*
X97668095Y-147807200D01*
X97668095Y-147807200D02*
X97620476Y-147711961D01*
X97620476Y-147711961D02*
X97620476Y-147331009D01*
X97620476Y-147331009D02*
X97668095Y-147235771D01*
X97668095Y-147235771D02*
X97763333Y-147188152D01*
X97763333Y-147188152D02*
X97953809Y-147188152D01*
X97953809Y-147188152D02*
X98049047Y-147235771D01*
X98049047Y-147235771D02*
X98096666Y-147331009D01*
X98096666Y-147331009D02*
X98096666Y-147426247D01*
X98096666Y-147426247D02*
X97620476Y-147521485D01*
X98430000Y-147188152D02*
X98620476Y-147854819D01*
X98620476Y-147854819D02*
X98810952Y-147378628D01*
X98810952Y-147378628D02*
X99001428Y-147854819D01*
X99001428Y-147854819D02*
X99191904Y-147188152D01*
X99334762Y-147950057D02*
X100096666Y-147950057D01*
X100191905Y-146854819D02*
X100763333Y-146854819D01*
X100477619Y-147854819D02*
X100477619Y-146854819D01*
X101477619Y-147807200D02*
X101382381Y-147854819D01*
X101382381Y-147854819D02*
X101191905Y-147854819D01*
X101191905Y-147854819D02*
X101096667Y-147807200D01*
X101096667Y-147807200D02*
X101049048Y-147711961D01*
X101049048Y-147711961D02*
X101049048Y-147331009D01*
X101049048Y-147331009D02*
X101096667Y-147235771D01*
X101096667Y-147235771D02*
X101191905Y-147188152D01*
X101191905Y-147188152D02*
X101382381Y-147188152D01*
X101382381Y-147188152D02*
X101477619Y-147235771D01*
X101477619Y-147235771D02*
X101525238Y-147331009D01*
X101525238Y-147331009D02*
X101525238Y-147426247D01*
X101525238Y-147426247D02*
X101049048Y-147521485D01*
X101953810Y-147854819D02*
X101953810Y-147188152D01*
X101953810Y-147378628D02*
X102001429Y-147283390D01*
X102001429Y-147283390D02*
X102049048Y-147235771D01*
X102049048Y-147235771D02*
X102144286Y-147188152D01*
X102144286Y-147188152D02*
X102239524Y-147188152D01*
X102572858Y-147854819D02*
X102572858Y-147188152D01*
X102572858Y-147283390D02*
X102620477Y-147235771D01*
X102620477Y-147235771D02*
X102715715Y-147188152D01*
X102715715Y-147188152D02*
X102858572Y-147188152D01*
X102858572Y-147188152D02*
X102953810Y-147235771D01*
X102953810Y-147235771D02*
X103001429Y-147331009D01*
X103001429Y-147331009D02*
X103001429Y-147854819D01*
X103001429Y-147331009D02*
X103049048Y-147235771D01*
X103049048Y-147235771D02*
X103144286Y-147188152D01*
X103144286Y-147188152D02*
X103287143Y-147188152D01*
X103287143Y-147188152D02*
X103382382Y-147235771D01*
X103382382Y-147235771D02*
X103430001Y-147331009D01*
X103430001Y-147331009D02*
X103430001Y-147854819D01*
X103906191Y-147854819D02*
X103906191Y-147188152D01*
X103906191Y-146854819D02*
X103858572Y-146902438D01*
X103858572Y-146902438D02*
X103906191Y-146950057D01*
X103906191Y-146950057D02*
X103953810Y-146902438D01*
X103953810Y-146902438D02*
X103906191Y-146854819D01*
X103906191Y-146854819D02*
X103906191Y-146950057D01*
X104382381Y-147188152D02*
X104382381Y-147854819D01*
X104382381Y-147283390D02*
X104430000Y-147235771D01*
X104430000Y-147235771D02*
X104525238Y-147188152D01*
X104525238Y-147188152D02*
X104668095Y-147188152D01*
X104668095Y-147188152D02*
X104763333Y-147235771D01*
X104763333Y-147235771D02*
X104810952Y-147331009D01*
X104810952Y-147331009D02*
X104810952Y-147854819D01*
X105715714Y-147854819D02*
X105715714Y-147331009D01*
X105715714Y-147331009D02*
X105668095Y-147235771D01*
X105668095Y-147235771D02*
X105572857Y-147188152D01*
X105572857Y-147188152D02*
X105382381Y-147188152D01*
X105382381Y-147188152D02*
X105287143Y-147235771D01*
X105715714Y-147807200D02*
X105620476Y-147854819D01*
X105620476Y-147854819D02*
X105382381Y-147854819D01*
X105382381Y-147854819D02*
X105287143Y-147807200D01*
X105287143Y-147807200D02*
X105239524Y-147711961D01*
X105239524Y-147711961D02*
X105239524Y-147616723D01*
X105239524Y-147616723D02*
X105287143Y-147521485D01*
X105287143Y-147521485D02*
X105382381Y-147473866D01*
X105382381Y-147473866D02*
X105620476Y-147473866D01*
X105620476Y-147473866D02*
X105715714Y-147426247D01*
X106334762Y-147854819D02*
X106239524Y-147807200D01*
X106239524Y-147807200D02*
X106191905Y-147711961D01*
X106191905Y-147711961D02*
X106191905Y-146854819D01*
X106477620Y-147950057D02*
X107239524Y-147950057D01*
X107668096Y-146854819D02*
X107763334Y-146854819D01*
X107763334Y-146854819D02*
X107858572Y-146902438D01*
X107858572Y-146902438D02*
X107906191Y-146950057D01*
X107906191Y-146950057D02*
X107953810Y-147045295D01*
X107953810Y-147045295D02*
X108001429Y-147235771D01*
X108001429Y-147235771D02*
X108001429Y-147473866D01*
X108001429Y-147473866D02*
X107953810Y-147664342D01*
X107953810Y-147664342D02*
X107906191Y-147759580D01*
X107906191Y-147759580D02*
X107858572Y-147807200D01*
X107858572Y-147807200D02*
X107763334Y-147854819D01*
X107763334Y-147854819D02*
X107668096Y-147854819D01*
X107668096Y-147854819D02*
X107572858Y-147807200D01*
X107572858Y-147807200D02*
X107525239Y-147759580D01*
X107525239Y-147759580D02*
X107477620Y-147664342D01*
X107477620Y-147664342D02*
X107430001Y-147473866D01*
X107430001Y-147473866D02*
X107430001Y-147235771D01*
X107430001Y-147235771D02*
X107477620Y-147045295D01*
X107477620Y-147045295D02*
X107525239Y-146950057D01*
X107525239Y-146950057D02*
X107572858Y-146902438D01*
X107572858Y-146902438D02*
X107668096Y-146854819D01*
X108953810Y-147854819D02*
X108382382Y-147854819D01*
X108668096Y-147854819D02*
X108668096Y-146854819D01*
X108668096Y-146854819D02*
X108572858Y-146997676D01*
X108572858Y-146997676D02*
X108477620Y-147092914D01*
X108477620Y-147092914D02*
X108382382Y-147140533D01*
X109287144Y-147854819D02*
X109810953Y-147188152D01*
X109287144Y-147188152D02*
X109810953Y-147854819D01*
X110382382Y-146854819D02*
X110477620Y-146854819D01*
X110477620Y-146854819D02*
X110572858Y-146902438D01*
X110572858Y-146902438D02*
X110620477Y-146950057D01*
X110620477Y-146950057D02*
X110668096Y-147045295D01*
X110668096Y-147045295D02*
X110715715Y-147235771D01*
X110715715Y-147235771D02*
X110715715Y-147473866D01*
X110715715Y-147473866D02*
X110668096Y-147664342D01*
X110668096Y-147664342D02*
X110620477Y-147759580D01*
X110620477Y-147759580D02*
X110572858Y-147807200D01*
X110572858Y-147807200D02*
X110477620Y-147854819D01*
X110477620Y-147854819D02*
X110382382Y-147854819D01*
X110382382Y-147854819D02*
X110287144Y-147807200D01*
X110287144Y-147807200D02*
X110239525Y-147759580D01*
X110239525Y-147759580D02*
X110191906Y-147664342D01*
X110191906Y-147664342D02*
X110144287Y-147473866D01*
X110144287Y-147473866D02*
X110144287Y-147235771D01*
X110144287Y-147235771D02*
X110191906Y-147045295D01*
X110191906Y-147045295D02*
X110239525Y-146950057D01*
X110239525Y-146950057D02*
X110287144Y-146902438D01*
X110287144Y-146902438D02*
X110382382Y-146854819D01*
X111572858Y-147188152D02*
X111572858Y-147854819D01*
X111334763Y-146807200D02*
X111096668Y-147521485D01*
X111096668Y-147521485D02*
X111715715Y-147521485D01*
X102610476Y-151454819D02*
X102610476Y-152169104D01*
X102610476Y-152169104D02*
X102562857Y-152311961D01*
X102562857Y-152311961D02*
X102467619Y-152407200D01*
X102467619Y-152407200D02*
X102324762Y-152454819D01*
X102324762Y-152454819D02*
X102229524Y-152454819D01*
X103610476Y-152454819D02*
X103039048Y-152454819D01*
X103324762Y-152454819D02*
X103324762Y-151454819D01*
X103324762Y-151454819D02*
X103229524Y-151597676D01*
X103229524Y-151597676D02*
X103134286Y-151692914D01*
X103134286Y-151692914D02*
X103039048Y-151740533D01*
X104229524Y-151454819D02*
X104324762Y-151454819D01*
X104324762Y-151454819D02*
X104420000Y-151502438D01*
X104420000Y-151502438D02*
X104467619Y-151550057D01*
X104467619Y-151550057D02*
X104515238Y-151645295D01*
X104515238Y-151645295D02*
X104562857Y-151835771D01*
X104562857Y-151835771D02*
X104562857Y-152073866D01*
X104562857Y-152073866D02*
X104515238Y-152264342D01*
X104515238Y-152264342D02*
X104467619Y-152359580D01*
X104467619Y-152359580D02*
X104420000Y-152407200D01*
X104420000Y-152407200D02*
X104324762Y-152454819D01*
X104324762Y-152454819D02*
X104229524Y-152454819D01*
X104229524Y-152454819D02*
X104134286Y-152407200D01*
X104134286Y-152407200D02*
X104086667Y-152359580D01*
X104086667Y-152359580D02*
X104039048Y-152264342D01*
X104039048Y-152264342D02*
X103991429Y-152073866D01*
X103991429Y-152073866D02*
X103991429Y-151835771D01*
X103991429Y-151835771D02*
X104039048Y-151645295D01*
X104039048Y-151645295D02*
X104086667Y-151550057D01*
X104086667Y-151550057D02*
X104134286Y-151502438D01*
X104134286Y-151502438D02*
X104229524Y-151454819D01*
X82104819Y-77863333D02*
X82819104Y-77863333D01*
X82819104Y-77863333D02*
X82961961Y-77910952D01*
X82961961Y-77910952D02*
X83057200Y-78006190D01*
X83057200Y-78006190D02*
X83104819Y-78149047D01*
X83104819Y-78149047D02*
X83104819Y-78244285D01*
X82200057Y-77434761D02*
X82152438Y-77387142D01*
X82152438Y-77387142D02*
X82104819Y-77291904D01*
X82104819Y-77291904D02*
X82104819Y-77053809D01*
X82104819Y-77053809D02*
X82152438Y-76958571D01*
X82152438Y-76958571D02*
X82200057Y-76910952D01*
X82200057Y-76910952D02*
X82295295Y-76863333D01*
X82295295Y-76863333D02*
X82390533Y-76863333D01*
X82390533Y-76863333D02*
X82533390Y-76910952D01*
X82533390Y-76910952D02*
X83104819Y-77482380D01*
X83104819Y-77482380D02*
X83104819Y-76863333D01*
X90404760Y-91739580D02*
X90357141Y-91787200D01*
X90357141Y-91787200D02*
X90214284Y-91834819D01*
X90214284Y-91834819D02*
X90119046Y-91834819D01*
X90119046Y-91834819D02*
X89976189Y-91787200D01*
X89976189Y-91787200D02*
X89880951Y-91691961D01*
X89880951Y-91691961D02*
X89833332Y-91596723D01*
X89833332Y-91596723D02*
X89785713Y-91406247D01*
X89785713Y-91406247D02*
X89785713Y-91263390D01*
X89785713Y-91263390D02*
X89833332Y-91072914D01*
X89833332Y-91072914D02*
X89880951Y-90977676D01*
X89880951Y-90977676D02*
X89976189Y-90882438D01*
X89976189Y-90882438D02*
X90119046Y-90834819D01*
X90119046Y-90834819D02*
X90214284Y-90834819D01*
X90214284Y-90834819D02*
X90357141Y-90882438D01*
X90357141Y-90882438D02*
X90404760Y-90930057D01*
X90976189Y-91834819D02*
X90880951Y-91787200D01*
X90880951Y-91787200D02*
X90833332Y-91739580D01*
X90833332Y-91739580D02*
X90785713Y-91644342D01*
X90785713Y-91644342D02*
X90785713Y-91358628D01*
X90785713Y-91358628D02*
X90833332Y-91263390D01*
X90833332Y-91263390D02*
X90880951Y-91215771D01*
X90880951Y-91215771D02*
X90976189Y-91168152D01*
X90976189Y-91168152D02*
X91119046Y-91168152D01*
X91119046Y-91168152D02*
X91214284Y-91215771D01*
X91214284Y-91215771D02*
X91261903Y-91263390D01*
X91261903Y-91263390D02*
X91309522Y-91358628D01*
X91309522Y-91358628D02*
X91309522Y-91644342D01*
X91309522Y-91644342D02*
X91261903Y-91739580D01*
X91261903Y-91739580D02*
X91214284Y-91787200D01*
X91214284Y-91787200D02*
X91119046Y-91834819D01*
X91119046Y-91834819D02*
X90976189Y-91834819D01*
X91738094Y-91168152D02*
X91738094Y-91834819D01*
X91738094Y-91263390D02*
X91785713Y-91215771D01*
X91785713Y-91215771D02*
X91880951Y-91168152D01*
X91880951Y-91168152D02*
X92023808Y-91168152D01*
X92023808Y-91168152D02*
X92119046Y-91215771D01*
X92119046Y-91215771D02*
X92166665Y-91311009D01*
X92166665Y-91311009D02*
X92166665Y-91834819D01*
X92642856Y-91168152D02*
X92642856Y-91834819D01*
X92642856Y-91263390D02*
X92690475Y-91215771D01*
X92690475Y-91215771D02*
X92785713Y-91168152D01*
X92785713Y-91168152D02*
X92928570Y-91168152D01*
X92928570Y-91168152D02*
X93023808Y-91215771D01*
X93023808Y-91215771D02*
X93071427Y-91311009D01*
X93071427Y-91311009D02*
X93071427Y-91834819D01*
X93309523Y-91930057D02*
X94071427Y-91930057D01*
X94499999Y-90834819D02*
X94595237Y-90834819D01*
X94595237Y-90834819D02*
X94690475Y-90882438D01*
X94690475Y-90882438D02*
X94738094Y-90930057D01*
X94738094Y-90930057D02*
X94785713Y-91025295D01*
X94785713Y-91025295D02*
X94833332Y-91215771D01*
X94833332Y-91215771D02*
X94833332Y-91453866D01*
X94833332Y-91453866D02*
X94785713Y-91644342D01*
X94785713Y-91644342D02*
X94738094Y-91739580D01*
X94738094Y-91739580D02*
X94690475Y-91787200D01*
X94690475Y-91787200D02*
X94595237Y-91834819D01*
X94595237Y-91834819D02*
X94499999Y-91834819D01*
X94499999Y-91834819D02*
X94404761Y-91787200D01*
X94404761Y-91787200D02*
X94357142Y-91739580D01*
X94357142Y-91739580D02*
X94309523Y-91644342D01*
X94309523Y-91644342D02*
X94261904Y-91453866D01*
X94261904Y-91453866D02*
X94261904Y-91215771D01*
X94261904Y-91215771D02*
X94309523Y-91025295D01*
X94309523Y-91025295D02*
X94357142Y-90930057D01*
X94357142Y-90930057D02*
X94404761Y-90882438D01*
X94404761Y-90882438D02*
X94499999Y-90834819D01*
X95785713Y-91834819D02*
X95214285Y-91834819D01*
X95499999Y-91834819D02*
X95499999Y-90834819D01*
X95499999Y-90834819D02*
X95404761Y-90977676D01*
X95404761Y-90977676D02*
X95309523Y-91072914D01*
X95309523Y-91072914D02*
X95214285Y-91120533D01*
X96119047Y-91834819D02*
X96642856Y-91168152D01*
X96119047Y-91168152D02*
X96642856Y-91834819D01*
X97547618Y-91834819D02*
X96976190Y-91834819D01*
X97261904Y-91834819D02*
X97261904Y-90834819D01*
X97261904Y-90834819D02*
X97166666Y-90977676D01*
X97166666Y-90977676D02*
X97071428Y-91072914D01*
X97071428Y-91072914D02*
X96976190Y-91120533D01*
X98166666Y-90834819D02*
X98261904Y-90834819D01*
X98261904Y-90834819D02*
X98357142Y-90882438D01*
X98357142Y-90882438D02*
X98404761Y-90930057D01*
X98404761Y-90930057D02*
X98452380Y-91025295D01*
X98452380Y-91025295D02*
X98499999Y-91215771D01*
X98499999Y-91215771D02*
X98499999Y-91453866D01*
X98499999Y-91453866D02*
X98452380Y-91644342D01*
X98452380Y-91644342D02*
X98404761Y-91739580D01*
X98404761Y-91739580D02*
X98357142Y-91787200D01*
X98357142Y-91787200D02*
X98261904Y-91834819D01*
X98261904Y-91834819D02*
X98166666Y-91834819D01*
X98166666Y-91834819D02*
X98071428Y-91787200D01*
X98071428Y-91787200D02*
X98023809Y-91739580D01*
X98023809Y-91739580D02*
X97976190Y-91644342D01*
X97976190Y-91644342D02*
X97928571Y-91453866D01*
X97928571Y-91453866D02*
X97928571Y-91215771D01*
X97928571Y-91215771D02*
X97976190Y-91025295D01*
X97976190Y-91025295D02*
X98023809Y-90930057D01*
X98023809Y-90930057D02*
X98071428Y-90882438D01*
X98071428Y-90882438D02*
X98166666Y-90834819D01*
X98690476Y-91930057D02*
X99452380Y-91930057D01*
X99642857Y-91787200D02*
X99785714Y-91834819D01*
X99785714Y-91834819D02*
X100023809Y-91834819D01*
X100023809Y-91834819D02*
X100119047Y-91787200D01*
X100119047Y-91787200D02*
X100166666Y-91739580D01*
X100166666Y-91739580D02*
X100214285Y-91644342D01*
X100214285Y-91644342D02*
X100214285Y-91549104D01*
X100214285Y-91549104D02*
X100166666Y-91453866D01*
X100166666Y-91453866D02*
X100119047Y-91406247D01*
X100119047Y-91406247D02*
X100023809Y-91358628D01*
X100023809Y-91358628D02*
X99833333Y-91311009D01*
X99833333Y-91311009D02*
X99738095Y-91263390D01*
X99738095Y-91263390D02*
X99690476Y-91215771D01*
X99690476Y-91215771D02*
X99642857Y-91120533D01*
X99642857Y-91120533D02*
X99642857Y-91025295D01*
X99642857Y-91025295D02*
X99690476Y-90930057D01*
X99690476Y-90930057D02*
X99738095Y-90882438D01*
X99738095Y-90882438D02*
X99833333Y-90834819D01*
X99833333Y-90834819D02*
X100071428Y-90834819D01*
X100071428Y-90834819D02*
X100214285Y-90882438D01*
X100785714Y-91834819D02*
X100690476Y-91787200D01*
X100690476Y-91787200D02*
X100642857Y-91739580D01*
X100642857Y-91739580D02*
X100595238Y-91644342D01*
X100595238Y-91644342D02*
X100595238Y-91358628D01*
X100595238Y-91358628D02*
X100642857Y-91263390D01*
X100642857Y-91263390D02*
X100690476Y-91215771D01*
X100690476Y-91215771D02*
X100785714Y-91168152D01*
X100785714Y-91168152D02*
X100928571Y-91168152D01*
X100928571Y-91168152D02*
X101023809Y-91215771D01*
X101023809Y-91215771D02*
X101071428Y-91263390D01*
X101071428Y-91263390D02*
X101119047Y-91358628D01*
X101119047Y-91358628D02*
X101119047Y-91644342D01*
X101119047Y-91644342D02*
X101071428Y-91739580D01*
X101071428Y-91739580D02*
X101023809Y-91787200D01*
X101023809Y-91787200D02*
X100928571Y-91834819D01*
X100928571Y-91834819D02*
X100785714Y-91834819D01*
X101976190Y-91787200D02*
X101880952Y-91834819D01*
X101880952Y-91834819D02*
X101690476Y-91834819D01*
X101690476Y-91834819D02*
X101595238Y-91787200D01*
X101595238Y-91787200D02*
X101547619Y-91739580D01*
X101547619Y-91739580D02*
X101500000Y-91644342D01*
X101500000Y-91644342D02*
X101500000Y-91358628D01*
X101500000Y-91358628D02*
X101547619Y-91263390D01*
X101547619Y-91263390D02*
X101595238Y-91215771D01*
X101595238Y-91215771D02*
X101690476Y-91168152D01*
X101690476Y-91168152D02*
X101880952Y-91168152D01*
X101880952Y-91168152D02*
X101976190Y-91215771D01*
X102404762Y-91834819D02*
X102404762Y-90834819D01*
X102500000Y-91453866D02*
X102785714Y-91834819D01*
X102785714Y-91168152D02*
X102404762Y-91549104D01*
X103595238Y-91787200D02*
X103500000Y-91834819D01*
X103500000Y-91834819D02*
X103309524Y-91834819D01*
X103309524Y-91834819D02*
X103214286Y-91787200D01*
X103214286Y-91787200D02*
X103166667Y-91691961D01*
X103166667Y-91691961D02*
X103166667Y-91311009D01*
X103166667Y-91311009D02*
X103214286Y-91215771D01*
X103214286Y-91215771D02*
X103309524Y-91168152D01*
X103309524Y-91168152D02*
X103500000Y-91168152D01*
X103500000Y-91168152D02*
X103595238Y-91215771D01*
X103595238Y-91215771D02*
X103642857Y-91311009D01*
X103642857Y-91311009D02*
X103642857Y-91406247D01*
X103642857Y-91406247D02*
X103166667Y-91501485D01*
X103928572Y-91168152D02*
X104309524Y-91168152D01*
X104071429Y-90834819D02*
X104071429Y-91691961D01*
X104071429Y-91691961D02*
X104119048Y-91787200D01*
X104119048Y-91787200D02*
X104214286Y-91834819D01*
X104214286Y-91834819D02*
X104309524Y-91834819D01*
X96454819Y-77903333D02*
X97169104Y-77903333D01*
X97169104Y-77903333D02*
X97311961Y-77950952D01*
X97311961Y-77950952D02*
X97407200Y-78046190D01*
X97407200Y-78046190D02*
X97454819Y-78189047D01*
X97454819Y-78189047D02*
X97454819Y-78284285D01*
X96454819Y-77522380D02*
X96454819Y-76903333D01*
X96454819Y-76903333D02*
X96835771Y-77236666D01*
X96835771Y-77236666D02*
X96835771Y-77093809D01*
X96835771Y-77093809D02*
X96883390Y-76998571D01*
X96883390Y-76998571D02*
X96931009Y-76950952D01*
X96931009Y-76950952D02*
X97026247Y-76903333D01*
X97026247Y-76903333D02*
X97264342Y-76903333D01*
X97264342Y-76903333D02*
X97359580Y-76950952D01*
X97359580Y-76950952D02*
X97407200Y-76998571D01*
X97407200Y-76998571D02*
X97454819Y-77093809D01*
X97454819Y-77093809D02*
X97454819Y-77379523D01*
X97454819Y-77379523D02*
X97407200Y-77474761D01*
X97407200Y-77474761D02*
X97359580Y-77522380D01*
X113454819Y-60403333D02*
X114169104Y-60403333D01*
X114169104Y-60403333D02*
X114311961Y-60450952D01*
X114311961Y-60450952D02*
X114407200Y-60546190D01*
X114407200Y-60546190D02*
X114454819Y-60689047D01*
X114454819Y-60689047D02*
X114454819Y-60784285D01*
X113454819Y-60022380D02*
X113454819Y-59355714D01*
X113454819Y-59355714D02*
X114454819Y-59784285D01*
X112454819Y-130189523D02*
X113169104Y-130189523D01*
X113169104Y-130189523D02*
X113311961Y-130237142D01*
X113311961Y-130237142D02*
X113407200Y-130332380D01*
X113407200Y-130332380D02*
X113454819Y-130475237D01*
X113454819Y-130475237D02*
X113454819Y-130570475D01*
X113454819Y-129189523D02*
X113454819Y-129760951D01*
X113454819Y-129475237D02*
X112454819Y-129475237D01*
X112454819Y-129475237D02*
X112597676Y-129570475D01*
X112597676Y-129570475D02*
X112692914Y-129665713D01*
X112692914Y-129665713D02*
X112740533Y-129760951D01*
X113454819Y-128237142D02*
X113454819Y-128808570D01*
X113454819Y-128522856D02*
X112454819Y-128522856D01*
X112454819Y-128522856D02*
X112597676Y-128618094D01*
X112597676Y-128618094D02*
X112692914Y-128713332D01*
X112692914Y-128713332D02*
X112740533Y-128808570D01*
X85364761Y-136654819D02*
X84888571Y-136654819D01*
X84888571Y-136654819D02*
X84888571Y-135654819D01*
X85602857Y-135654819D02*
X86269523Y-135654819D01*
X86269523Y-135654819D02*
X85840952Y-136654819D01*
X86793333Y-136083390D02*
X86698095Y-136035771D01*
X86698095Y-136035771D02*
X86650476Y-135988152D01*
X86650476Y-135988152D02*
X86602857Y-135892914D01*
X86602857Y-135892914D02*
X86602857Y-135845295D01*
X86602857Y-135845295D02*
X86650476Y-135750057D01*
X86650476Y-135750057D02*
X86698095Y-135702438D01*
X86698095Y-135702438D02*
X86793333Y-135654819D01*
X86793333Y-135654819D02*
X86983809Y-135654819D01*
X86983809Y-135654819D02*
X87079047Y-135702438D01*
X87079047Y-135702438D02*
X87126666Y-135750057D01*
X87126666Y-135750057D02*
X87174285Y-135845295D01*
X87174285Y-135845295D02*
X87174285Y-135892914D01*
X87174285Y-135892914D02*
X87126666Y-135988152D01*
X87126666Y-135988152D02*
X87079047Y-136035771D01*
X87079047Y-136035771D02*
X86983809Y-136083390D01*
X86983809Y-136083390D02*
X86793333Y-136083390D01*
X86793333Y-136083390D02*
X86698095Y-136131009D01*
X86698095Y-136131009D02*
X86650476Y-136178628D01*
X86650476Y-136178628D02*
X86602857Y-136273866D01*
X86602857Y-136273866D02*
X86602857Y-136464342D01*
X86602857Y-136464342D02*
X86650476Y-136559580D01*
X86650476Y-136559580D02*
X86698095Y-136607200D01*
X86698095Y-136607200D02*
X86793333Y-136654819D01*
X86793333Y-136654819D02*
X86983809Y-136654819D01*
X86983809Y-136654819D02*
X87079047Y-136607200D01*
X87079047Y-136607200D02*
X87126666Y-136559580D01*
X87126666Y-136559580D02*
X87174285Y-136464342D01*
X87174285Y-136464342D02*
X87174285Y-136273866D01*
X87174285Y-136273866D02*
X87126666Y-136178628D01*
X87126666Y-136178628D02*
X87079047Y-136131009D01*
X87079047Y-136131009D02*
X86983809Y-136083390D01*
X87793333Y-135654819D02*
X87888571Y-135654819D01*
X87888571Y-135654819D02*
X87983809Y-135702438D01*
X87983809Y-135702438D02*
X88031428Y-135750057D01*
X88031428Y-135750057D02*
X88079047Y-135845295D01*
X88079047Y-135845295D02*
X88126666Y-136035771D01*
X88126666Y-136035771D02*
X88126666Y-136273866D01*
X88126666Y-136273866D02*
X88079047Y-136464342D01*
X88079047Y-136464342D02*
X88031428Y-136559580D01*
X88031428Y-136559580D02*
X87983809Y-136607200D01*
X87983809Y-136607200D02*
X87888571Y-136654819D01*
X87888571Y-136654819D02*
X87793333Y-136654819D01*
X87793333Y-136654819D02*
X87698095Y-136607200D01*
X87698095Y-136607200D02*
X87650476Y-136559580D01*
X87650476Y-136559580D02*
X87602857Y-136464342D01*
X87602857Y-136464342D02*
X87555238Y-136273866D01*
X87555238Y-136273866D02*
X87555238Y-136035771D01*
X87555238Y-136035771D02*
X87602857Y-135845295D01*
X87602857Y-135845295D02*
X87650476Y-135750057D01*
X87650476Y-135750057D02*
X87698095Y-135702438D01*
X87698095Y-135702438D02*
X87793333Y-135654819D01*
X89031428Y-135654819D02*
X88555238Y-135654819D01*
X88555238Y-135654819D02*
X88507619Y-136131009D01*
X88507619Y-136131009D02*
X88555238Y-136083390D01*
X88555238Y-136083390D02*
X88650476Y-136035771D01*
X88650476Y-136035771D02*
X88888571Y-136035771D01*
X88888571Y-136035771D02*
X88983809Y-136083390D01*
X88983809Y-136083390D02*
X89031428Y-136131009D01*
X89031428Y-136131009D02*
X89079047Y-136226247D01*
X89079047Y-136226247D02*
X89079047Y-136464342D01*
X89079047Y-136464342D02*
X89031428Y-136559580D01*
X89031428Y-136559580D02*
X88983809Y-136607200D01*
X88983809Y-136607200D02*
X88888571Y-136654819D01*
X88888571Y-136654819D02*
X88650476Y-136654819D01*
X88650476Y-136654819D02*
X88555238Y-136607200D01*
X88555238Y-136607200D02*
X88507619Y-136559580D01*
X86198095Y-132504819D02*
X86198095Y-133314342D01*
X86198095Y-133314342D02*
X86245714Y-133409580D01*
X86245714Y-133409580D02*
X86293333Y-133457200D01*
X86293333Y-133457200D02*
X86388571Y-133504819D01*
X86388571Y-133504819D02*
X86579047Y-133504819D01*
X86579047Y-133504819D02*
X86674285Y-133457200D01*
X86674285Y-133457200D02*
X86721904Y-133409580D01*
X86721904Y-133409580D02*
X86769523Y-133314342D01*
X86769523Y-133314342D02*
X86769523Y-132504819D01*
X87198095Y-132600057D02*
X87245714Y-132552438D01*
X87245714Y-132552438D02*
X87340952Y-132504819D01*
X87340952Y-132504819D02*
X87579047Y-132504819D01*
X87579047Y-132504819D02*
X87674285Y-132552438D01*
X87674285Y-132552438D02*
X87721904Y-132600057D01*
X87721904Y-132600057D02*
X87769523Y-132695295D01*
X87769523Y-132695295D02*
X87769523Y-132790533D01*
X87769523Y-132790533D02*
X87721904Y-132933390D01*
X87721904Y-132933390D02*
X87150476Y-133504819D01*
X87150476Y-133504819D02*
X87769523Y-133504819D01*
X45102857Y-130254819D02*
X44626667Y-130254819D01*
X44626667Y-130254819D02*
X44626667Y-129254819D01*
X45436191Y-130254819D02*
X45436191Y-129254819D01*
X45436191Y-129254819D02*
X45769524Y-129969104D01*
X45769524Y-129969104D02*
X46102857Y-129254819D01*
X46102857Y-129254819D02*
X46102857Y-130254819D01*
X47102857Y-130254819D02*
X46531429Y-130254819D01*
X46817143Y-130254819D02*
X46817143Y-129254819D01*
X46817143Y-129254819D02*
X46721905Y-129397676D01*
X46721905Y-129397676D02*
X46626667Y-129492914D01*
X46626667Y-129492914D02*
X46531429Y-129540533D01*
X48055238Y-130254819D02*
X47483810Y-130254819D01*
X47769524Y-130254819D02*
X47769524Y-129254819D01*
X47769524Y-129254819D02*
X47674286Y-129397676D01*
X47674286Y-129397676D02*
X47579048Y-129492914D01*
X47579048Y-129492914D02*
X47483810Y-129540533D01*
X49007619Y-130254819D02*
X48436191Y-130254819D01*
X48721905Y-130254819D02*
X48721905Y-129254819D01*
X48721905Y-129254819D02*
X48626667Y-129397676D01*
X48626667Y-129397676D02*
X48531429Y-129492914D01*
X48531429Y-129492914D02*
X48436191Y-129540533D01*
X49340953Y-129254819D02*
X50007619Y-129254819D01*
X50007619Y-129254819D02*
X49579048Y-130254819D01*
X50245715Y-129254819D02*
X50817143Y-129254819D01*
X50531429Y-130254819D02*
X50531429Y-129254819D01*
X51150477Y-129873866D02*
X51912382Y-129873866D01*
X52293334Y-129254819D02*
X52912381Y-129254819D01*
X52912381Y-129254819D02*
X52579048Y-129635771D01*
X52579048Y-129635771D02*
X52721905Y-129635771D01*
X52721905Y-129635771D02*
X52817143Y-129683390D01*
X52817143Y-129683390D02*
X52864762Y-129731009D01*
X52864762Y-129731009D02*
X52912381Y-129826247D01*
X52912381Y-129826247D02*
X52912381Y-130064342D01*
X52912381Y-130064342D02*
X52864762Y-130159580D01*
X52864762Y-130159580D02*
X52817143Y-130207200D01*
X52817143Y-130207200D02*
X52721905Y-130254819D01*
X52721905Y-130254819D02*
X52436191Y-130254819D01*
X52436191Y-130254819D02*
X52340953Y-130207200D01*
X52340953Y-130207200D02*
X52293334Y-130159580D01*
X53340953Y-130159580D02*
X53388572Y-130207200D01*
X53388572Y-130207200D02*
X53340953Y-130254819D01*
X53340953Y-130254819D02*
X53293334Y-130207200D01*
X53293334Y-130207200D02*
X53340953Y-130159580D01*
X53340953Y-130159580D02*
X53340953Y-130254819D01*
X53721905Y-129254819D02*
X54340952Y-129254819D01*
X54340952Y-129254819D02*
X54007619Y-129635771D01*
X54007619Y-129635771D02*
X54150476Y-129635771D01*
X54150476Y-129635771D02*
X54245714Y-129683390D01*
X54245714Y-129683390D02*
X54293333Y-129731009D01*
X54293333Y-129731009D02*
X54340952Y-129826247D01*
X54340952Y-129826247D02*
X54340952Y-130064342D01*
X54340952Y-130064342D02*
X54293333Y-130159580D01*
X54293333Y-130159580D02*
X54245714Y-130207200D01*
X54245714Y-130207200D02*
X54150476Y-130254819D01*
X54150476Y-130254819D02*
X53864762Y-130254819D01*
X53864762Y-130254819D02*
X53769524Y-130207200D01*
X53769524Y-130207200D02*
X53721905Y-130159580D01*
X48698095Y-132404819D02*
X48698095Y-133214342D01*
X48698095Y-133214342D02*
X48745714Y-133309580D01*
X48745714Y-133309580D02*
X48793333Y-133357200D01*
X48793333Y-133357200D02*
X48888571Y-133404819D01*
X48888571Y-133404819D02*
X49079047Y-133404819D01*
X49079047Y-133404819D02*
X49174285Y-133357200D01*
X49174285Y-133357200D02*
X49221904Y-133309580D01*
X49221904Y-133309580D02*
X49269523Y-133214342D01*
X49269523Y-133214342D02*
X49269523Y-132404819D01*
X49650476Y-132404819D02*
X50269523Y-132404819D01*
X50269523Y-132404819D02*
X49936190Y-132785771D01*
X49936190Y-132785771D02*
X50079047Y-132785771D01*
X50079047Y-132785771D02*
X50174285Y-132833390D01*
X50174285Y-132833390D02*
X50221904Y-132881009D01*
X50221904Y-132881009D02*
X50269523Y-132976247D01*
X50269523Y-132976247D02*
X50269523Y-133214342D01*
X50269523Y-133214342D02*
X50221904Y-133309580D01*
X50221904Y-133309580D02*
X50174285Y-133357200D01*
X50174285Y-133357200D02*
X50079047Y-133404819D01*
X50079047Y-133404819D02*
X49793333Y-133404819D01*
X49793333Y-133404819D02*
X49698095Y-133357200D01*
X49698095Y-133357200D02*
X49650476Y-133309580D01*
X45809523Y-146109580D02*
X45761904Y-146157200D01*
X45761904Y-146157200D02*
X45619047Y-146204819D01*
X45619047Y-146204819D02*
X45523809Y-146204819D01*
X45523809Y-146204819D02*
X45380952Y-146157200D01*
X45380952Y-146157200D02*
X45285714Y-146061961D01*
X45285714Y-146061961D02*
X45238095Y-145966723D01*
X45238095Y-145966723D02*
X45190476Y-145776247D01*
X45190476Y-145776247D02*
X45190476Y-145633390D01*
X45190476Y-145633390D02*
X45238095Y-145442914D01*
X45238095Y-145442914D02*
X45285714Y-145347676D01*
X45285714Y-145347676D02*
X45380952Y-145252438D01*
X45380952Y-145252438D02*
X45523809Y-145204819D01*
X45523809Y-145204819D02*
X45619047Y-145204819D01*
X45619047Y-145204819D02*
X45761904Y-145252438D01*
X45761904Y-145252438D02*
X45809523Y-145300057D01*
X45333333Y-142359580D02*
X45285714Y-142407200D01*
X45285714Y-142407200D02*
X45142857Y-142454819D01*
X45142857Y-142454819D02*
X45047619Y-142454819D01*
X45047619Y-142454819D02*
X44904762Y-142407200D01*
X44904762Y-142407200D02*
X44809524Y-142311961D01*
X44809524Y-142311961D02*
X44761905Y-142216723D01*
X44761905Y-142216723D02*
X44714286Y-142026247D01*
X44714286Y-142026247D02*
X44714286Y-141883390D01*
X44714286Y-141883390D02*
X44761905Y-141692914D01*
X44761905Y-141692914D02*
X44809524Y-141597676D01*
X44809524Y-141597676D02*
X44904762Y-141502438D01*
X44904762Y-141502438D02*
X45047619Y-141454819D01*
X45047619Y-141454819D02*
X45142857Y-141454819D01*
X45142857Y-141454819D02*
X45285714Y-141502438D01*
X45285714Y-141502438D02*
X45333333Y-141550057D01*
X45666667Y-141454819D02*
X46285714Y-141454819D01*
X46285714Y-141454819D02*
X45952381Y-141835771D01*
X45952381Y-141835771D02*
X46095238Y-141835771D01*
X46095238Y-141835771D02*
X46190476Y-141883390D01*
X46190476Y-141883390D02*
X46238095Y-141931009D01*
X46238095Y-141931009D02*
X46285714Y-142026247D01*
X46285714Y-142026247D02*
X46285714Y-142264342D01*
X46285714Y-142264342D02*
X46238095Y-142359580D01*
X46238095Y-142359580D02*
X46190476Y-142407200D01*
X46190476Y-142407200D02*
X46095238Y-142454819D01*
X46095238Y-142454819D02*
X45809524Y-142454819D01*
X45809524Y-142454819D02*
X45714286Y-142407200D01*
X45714286Y-142407200D02*
X45666667Y-142359580D01*
X56309523Y-67874819D02*
X55976190Y-67398628D01*
X55738095Y-67874819D02*
X55738095Y-66874819D01*
X55738095Y-66874819D02*
X56119047Y-66874819D01*
X56119047Y-66874819D02*
X56214285Y-66922438D01*
X56214285Y-66922438D02*
X56261904Y-66970057D01*
X56261904Y-66970057D02*
X56309523Y-67065295D01*
X56309523Y-67065295D02*
X56309523Y-67208152D01*
X56309523Y-67208152D02*
X56261904Y-67303390D01*
X56261904Y-67303390D02*
X56214285Y-67351009D01*
X56214285Y-67351009D02*
X56119047Y-67398628D01*
X56119047Y-67398628D02*
X55738095Y-67398628D01*
D11*
X55880000Y-65827469D02*
X55640000Y-65484612D01*
X55468571Y-65827469D02*
X55468571Y-65107469D01*
X55468571Y-65107469D02*
X55742857Y-65107469D01*
X55742857Y-65107469D02*
X55811428Y-65141755D01*
X55811428Y-65141755D02*
X55845714Y-65176041D01*
X55845714Y-65176041D02*
X55880000Y-65244612D01*
X55880000Y-65244612D02*
X55880000Y-65347469D01*
X55880000Y-65347469D02*
X55845714Y-65416041D01*
X55845714Y-65416041D02*
X55811428Y-65450326D01*
X55811428Y-65450326D02*
X55742857Y-65484612D01*
X55742857Y-65484612D02*
X55468571Y-65484612D01*
X56120000Y-65107469D02*
X56565714Y-65107469D01*
X56565714Y-65107469D02*
X56325714Y-65381755D01*
X56325714Y-65381755D02*
X56428571Y-65381755D01*
X56428571Y-65381755D02*
X56497143Y-65416041D01*
X56497143Y-65416041D02*
X56531428Y-65450326D01*
X56531428Y-65450326D02*
X56565714Y-65518898D01*
X56565714Y-65518898D02*
X56565714Y-65690326D01*
X56565714Y-65690326D02*
X56531428Y-65758898D01*
X56531428Y-65758898D02*
X56497143Y-65793184D01*
X56497143Y-65793184D02*
X56428571Y-65827469D01*
X56428571Y-65827469D02*
X56222857Y-65827469D01*
X56222857Y-65827469D02*
X56154285Y-65793184D01*
X56154285Y-65793184D02*
X56120000Y-65758898D01*
D10*
X98309523Y-139109580D02*
X98261904Y-139157200D01*
X98261904Y-139157200D02*
X98119047Y-139204819D01*
X98119047Y-139204819D02*
X98023809Y-139204819D01*
X98023809Y-139204819D02*
X97880952Y-139157200D01*
X97880952Y-139157200D02*
X97785714Y-139061961D01*
X97785714Y-139061961D02*
X97738095Y-138966723D01*
X97738095Y-138966723D02*
X97690476Y-138776247D01*
X97690476Y-138776247D02*
X97690476Y-138633390D01*
X97690476Y-138633390D02*
X97738095Y-138442914D01*
X97738095Y-138442914D02*
X97785714Y-138347676D01*
X97785714Y-138347676D02*
X97880952Y-138252438D01*
X97880952Y-138252438D02*
X98023809Y-138204819D01*
X98023809Y-138204819D02*
X98119047Y-138204819D01*
X98119047Y-138204819D02*
X98261904Y-138252438D01*
X98261904Y-138252438D02*
X98309523Y-138300057D01*
X97833333Y-142859580D02*
X97785714Y-142907200D01*
X97785714Y-142907200D02*
X97642857Y-142954819D01*
X97642857Y-142954819D02*
X97547619Y-142954819D01*
X97547619Y-142954819D02*
X97404762Y-142907200D01*
X97404762Y-142907200D02*
X97309524Y-142811961D01*
X97309524Y-142811961D02*
X97261905Y-142716723D01*
X97261905Y-142716723D02*
X97214286Y-142526247D01*
X97214286Y-142526247D02*
X97214286Y-142383390D01*
X97214286Y-142383390D02*
X97261905Y-142192914D01*
X97261905Y-142192914D02*
X97309524Y-142097676D01*
X97309524Y-142097676D02*
X97404762Y-142002438D01*
X97404762Y-142002438D02*
X97547619Y-141954819D01*
X97547619Y-141954819D02*
X97642857Y-141954819D01*
X97642857Y-141954819D02*
X97785714Y-142002438D01*
X97785714Y-142002438D02*
X97833333Y-142050057D01*
X98214286Y-142050057D02*
X98261905Y-142002438D01*
X98261905Y-142002438D02*
X98357143Y-141954819D01*
X98357143Y-141954819D02*
X98595238Y-141954819D01*
X98595238Y-141954819D02*
X98690476Y-142002438D01*
X98690476Y-142002438D02*
X98738095Y-142050057D01*
X98738095Y-142050057D02*
X98785714Y-142145295D01*
X98785714Y-142145295D02*
X98785714Y-142240533D01*
X98785714Y-142240533D02*
X98738095Y-142383390D01*
X98738095Y-142383390D02*
X98166667Y-142954819D01*
X98166667Y-142954819D02*
X98785714Y-142954819D01*
X36454819Y-85253333D02*
X37169104Y-85253333D01*
X37169104Y-85253333D02*
X37311961Y-85300952D01*
X37311961Y-85300952D02*
X37407200Y-85396190D01*
X37407200Y-85396190D02*
X37454819Y-85539047D01*
X37454819Y-85539047D02*
X37454819Y-85634285D01*
X36454819Y-84348571D02*
X36454819Y-84539047D01*
X36454819Y-84539047D02*
X36502438Y-84634285D01*
X36502438Y-84634285D02*
X36550057Y-84681904D01*
X36550057Y-84681904D02*
X36692914Y-84777142D01*
X36692914Y-84777142D02*
X36883390Y-84824761D01*
X36883390Y-84824761D02*
X37264342Y-84824761D01*
X37264342Y-84824761D02*
X37359580Y-84777142D01*
X37359580Y-84777142D02*
X37407200Y-84729523D01*
X37407200Y-84729523D02*
X37454819Y-84634285D01*
X37454819Y-84634285D02*
X37454819Y-84443809D01*
X37454819Y-84443809D02*
X37407200Y-84348571D01*
X37407200Y-84348571D02*
X37359580Y-84300952D01*
X37359580Y-84300952D02*
X37264342Y-84253333D01*
X37264342Y-84253333D02*
X37026247Y-84253333D01*
X37026247Y-84253333D02*
X36931009Y-84300952D01*
X36931009Y-84300952D02*
X36883390Y-84348571D01*
X36883390Y-84348571D02*
X36835771Y-84443809D01*
X36835771Y-84443809D02*
X36835771Y-84634285D01*
X36835771Y-84634285D02*
X36883390Y-84729523D01*
X36883390Y-84729523D02*
X36931009Y-84777142D01*
X36931009Y-84777142D02*
X37026247Y-84824761D01*
X112454819Y-82793333D02*
X113169104Y-82793333D01*
X113169104Y-82793333D02*
X113311961Y-82840952D01*
X113311961Y-82840952D02*
X113407200Y-82936190D01*
X113407200Y-82936190D02*
X113454819Y-83079047D01*
X113454819Y-83079047D02*
X113454819Y-83174285D01*
X113454819Y-81793333D02*
X113454819Y-82364761D01*
X113454819Y-82079047D02*
X112454819Y-82079047D01*
X112454819Y-82079047D02*
X112597676Y-82174285D01*
X112597676Y-82174285D02*
X112692914Y-82269523D01*
X112692914Y-82269523D02*
X112740533Y-82364761D01*
X62333333Y-142359580D02*
X62285714Y-142407200D01*
X62285714Y-142407200D02*
X62142857Y-142454819D01*
X62142857Y-142454819D02*
X62047619Y-142454819D01*
X62047619Y-142454819D02*
X61904762Y-142407200D01*
X61904762Y-142407200D02*
X61809524Y-142311961D01*
X61809524Y-142311961D02*
X61761905Y-142216723D01*
X61761905Y-142216723D02*
X61714286Y-142026247D01*
X61714286Y-142026247D02*
X61714286Y-141883390D01*
X61714286Y-141883390D02*
X61761905Y-141692914D01*
X61761905Y-141692914D02*
X61809524Y-141597676D01*
X61809524Y-141597676D02*
X61904762Y-141502438D01*
X61904762Y-141502438D02*
X62047619Y-141454819D01*
X62047619Y-141454819D02*
X62142857Y-141454819D01*
X62142857Y-141454819D02*
X62285714Y-141502438D01*
X62285714Y-141502438D02*
X62333333Y-141550057D01*
X63190476Y-141788152D02*
X63190476Y-142454819D01*
X62952381Y-141407200D02*
X62714286Y-142121485D01*
X62714286Y-142121485D02*
X63333333Y-142121485D01*
X82809523Y-146609580D02*
X82761904Y-146657200D01*
X82761904Y-146657200D02*
X82619047Y-146704819D01*
X82619047Y-146704819D02*
X82523809Y-146704819D01*
X82523809Y-146704819D02*
X82380952Y-146657200D01*
X82380952Y-146657200D02*
X82285714Y-146561961D01*
X82285714Y-146561961D02*
X82238095Y-146466723D01*
X82238095Y-146466723D02*
X82190476Y-146276247D01*
X82190476Y-146276247D02*
X82190476Y-146133390D01*
X82190476Y-146133390D02*
X82238095Y-145942914D01*
X82238095Y-145942914D02*
X82285714Y-145847676D01*
X82285714Y-145847676D02*
X82380952Y-145752438D01*
X82380952Y-145752438D02*
X82523809Y-145704819D01*
X82523809Y-145704819D02*
X82619047Y-145704819D01*
X82619047Y-145704819D02*
X82761904Y-145752438D01*
X82761904Y-145752438D02*
X82809523Y-145800057D01*
X82333333Y-142859580D02*
X82285714Y-142907200D01*
X82285714Y-142907200D02*
X82142857Y-142954819D01*
X82142857Y-142954819D02*
X82047619Y-142954819D01*
X82047619Y-142954819D02*
X81904762Y-142907200D01*
X81904762Y-142907200D02*
X81809524Y-142811961D01*
X81809524Y-142811961D02*
X81761905Y-142716723D01*
X81761905Y-142716723D02*
X81714286Y-142526247D01*
X81714286Y-142526247D02*
X81714286Y-142383390D01*
X81714286Y-142383390D02*
X81761905Y-142192914D01*
X81761905Y-142192914D02*
X81809524Y-142097676D01*
X81809524Y-142097676D02*
X81904762Y-142002438D01*
X81904762Y-142002438D02*
X82047619Y-141954819D01*
X82047619Y-141954819D02*
X82142857Y-141954819D01*
X82142857Y-141954819D02*
X82285714Y-142002438D01*
X82285714Y-142002438D02*
X82333333Y-142050057D01*
X83285714Y-142954819D02*
X82714286Y-142954819D01*
X83000000Y-142954819D02*
X83000000Y-141954819D01*
X83000000Y-141954819D02*
X82904762Y-142097676D01*
X82904762Y-142097676D02*
X82809524Y-142192914D01*
X82809524Y-142192914D02*
X82714286Y-142240533D01*
X44809523Y-46874819D02*
X44476190Y-46398628D01*
X44238095Y-46874819D02*
X44238095Y-45874819D01*
X44238095Y-45874819D02*
X44619047Y-45874819D01*
X44619047Y-45874819D02*
X44714285Y-45922438D01*
X44714285Y-45922438D02*
X44761904Y-45970057D01*
X44761904Y-45970057D02*
X44809523Y-46065295D01*
X44809523Y-46065295D02*
X44809523Y-46208152D01*
X44809523Y-46208152D02*
X44761904Y-46303390D01*
X44761904Y-46303390D02*
X44714285Y-46351009D01*
X44714285Y-46351009D02*
X44619047Y-46398628D01*
X44619047Y-46398628D02*
X44238095Y-46398628D01*
D11*
X44380000Y-44827469D02*
X44140000Y-44484612D01*
X43968571Y-44827469D02*
X43968571Y-44107469D01*
X43968571Y-44107469D02*
X44242857Y-44107469D01*
X44242857Y-44107469D02*
X44311428Y-44141755D01*
X44311428Y-44141755D02*
X44345714Y-44176041D01*
X44345714Y-44176041D02*
X44380000Y-44244612D01*
X44380000Y-44244612D02*
X44380000Y-44347469D01*
X44380000Y-44347469D02*
X44345714Y-44416041D01*
X44345714Y-44416041D02*
X44311428Y-44450326D01*
X44311428Y-44450326D02*
X44242857Y-44484612D01*
X44242857Y-44484612D02*
X43968571Y-44484612D01*
X44654285Y-44176041D02*
X44688571Y-44141755D01*
X44688571Y-44141755D02*
X44757143Y-44107469D01*
X44757143Y-44107469D02*
X44928571Y-44107469D01*
X44928571Y-44107469D02*
X44997143Y-44141755D01*
X44997143Y-44141755D02*
X45031428Y-44176041D01*
X45031428Y-44176041D02*
X45065714Y-44244612D01*
X45065714Y-44244612D02*
X45065714Y-44313184D01*
X45065714Y-44313184D02*
X45031428Y-44416041D01*
X45031428Y-44416041D02*
X44620000Y-44827469D01*
X44620000Y-44827469D02*
X45065714Y-44827469D01*
D10*
X42487200Y-112238095D02*
X42534819Y-112095238D01*
X42534819Y-112095238D02*
X42534819Y-111857143D01*
X42534819Y-111857143D02*
X42487200Y-111761905D01*
X42487200Y-111761905D02*
X42439580Y-111714286D01*
X42439580Y-111714286D02*
X42344342Y-111666667D01*
X42344342Y-111666667D02*
X42249104Y-111666667D01*
X42249104Y-111666667D02*
X42153866Y-111714286D01*
X42153866Y-111714286D02*
X42106247Y-111761905D01*
X42106247Y-111761905D02*
X42058628Y-111857143D01*
X42058628Y-111857143D02*
X42011009Y-112047619D01*
X42011009Y-112047619D02*
X41963390Y-112142857D01*
X41963390Y-112142857D02*
X41915771Y-112190476D01*
X41915771Y-112190476D02*
X41820533Y-112238095D01*
X41820533Y-112238095D02*
X41725295Y-112238095D01*
X41725295Y-112238095D02*
X41630057Y-112190476D01*
X41630057Y-112190476D02*
X41582438Y-112142857D01*
X41582438Y-112142857D02*
X41534819Y-112047619D01*
X41534819Y-112047619D02*
X41534819Y-111809524D01*
X41534819Y-111809524D02*
X41582438Y-111666667D01*
X42487200Y-110809524D02*
X42534819Y-110904762D01*
X42534819Y-110904762D02*
X42534819Y-111095238D01*
X42534819Y-111095238D02*
X42487200Y-111190476D01*
X42487200Y-111190476D02*
X42439580Y-111238095D01*
X42439580Y-111238095D02*
X42344342Y-111285714D01*
X42344342Y-111285714D02*
X42058628Y-111285714D01*
X42058628Y-111285714D02*
X41963390Y-111238095D01*
X41963390Y-111238095D02*
X41915771Y-111190476D01*
X41915771Y-111190476D02*
X41868152Y-111095238D01*
X41868152Y-111095238D02*
X41868152Y-110904762D01*
X41868152Y-110904762D02*
X41915771Y-110809524D01*
X42534819Y-110380952D02*
X41868152Y-110380952D01*
X42058628Y-110380952D02*
X41963390Y-110333333D01*
X41963390Y-110333333D02*
X41915771Y-110285714D01*
X41915771Y-110285714D02*
X41868152Y-110190476D01*
X41868152Y-110190476D02*
X41868152Y-110095238D01*
X42487200Y-109380952D02*
X42534819Y-109476190D01*
X42534819Y-109476190D02*
X42534819Y-109666666D01*
X42534819Y-109666666D02*
X42487200Y-109761904D01*
X42487200Y-109761904D02*
X42391961Y-109809523D01*
X42391961Y-109809523D02*
X42011009Y-109809523D01*
X42011009Y-109809523D02*
X41915771Y-109761904D01*
X41915771Y-109761904D02*
X41868152Y-109666666D01*
X41868152Y-109666666D02*
X41868152Y-109476190D01*
X41868152Y-109476190D02*
X41915771Y-109380952D01*
X41915771Y-109380952D02*
X42011009Y-109333333D01*
X42011009Y-109333333D02*
X42106247Y-109333333D01*
X42106247Y-109333333D02*
X42201485Y-109809523D01*
X41868152Y-108999999D02*
X42534819Y-108809523D01*
X42534819Y-108809523D02*
X42058628Y-108619047D01*
X42058628Y-108619047D02*
X42534819Y-108428571D01*
X42534819Y-108428571D02*
X41868152Y-108238095D01*
X42630057Y-108095238D02*
X42630057Y-107333333D01*
X41534819Y-107238094D02*
X41534819Y-106666666D01*
X42534819Y-106952380D02*
X41534819Y-106952380D01*
X42487200Y-105952380D02*
X42534819Y-106047618D01*
X42534819Y-106047618D02*
X42534819Y-106238094D01*
X42534819Y-106238094D02*
X42487200Y-106333332D01*
X42487200Y-106333332D02*
X42391961Y-106380951D01*
X42391961Y-106380951D02*
X42011009Y-106380951D01*
X42011009Y-106380951D02*
X41915771Y-106333332D01*
X41915771Y-106333332D02*
X41868152Y-106238094D01*
X41868152Y-106238094D02*
X41868152Y-106047618D01*
X41868152Y-106047618D02*
X41915771Y-105952380D01*
X41915771Y-105952380D02*
X42011009Y-105904761D01*
X42011009Y-105904761D02*
X42106247Y-105904761D01*
X42106247Y-105904761D02*
X42201485Y-106380951D01*
X42534819Y-105476189D02*
X41868152Y-105476189D01*
X42058628Y-105476189D02*
X41963390Y-105428570D01*
X41963390Y-105428570D02*
X41915771Y-105380951D01*
X41915771Y-105380951D02*
X41868152Y-105285713D01*
X41868152Y-105285713D02*
X41868152Y-105190475D01*
X42534819Y-104857141D02*
X41868152Y-104857141D01*
X41963390Y-104857141D02*
X41915771Y-104809522D01*
X41915771Y-104809522D02*
X41868152Y-104714284D01*
X41868152Y-104714284D02*
X41868152Y-104571427D01*
X41868152Y-104571427D02*
X41915771Y-104476189D01*
X41915771Y-104476189D02*
X42011009Y-104428570D01*
X42011009Y-104428570D02*
X42534819Y-104428570D01*
X42011009Y-104428570D02*
X41915771Y-104380951D01*
X41915771Y-104380951D02*
X41868152Y-104285713D01*
X41868152Y-104285713D02*
X41868152Y-104142856D01*
X41868152Y-104142856D02*
X41915771Y-104047617D01*
X41915771Y-104047617D02*
X42011009Y-103999998D01*
X42011009Y-103999998D02*
X42534819Y-103999998D01*
X42534819Y-103523808D02*
X41868152Y-103523808D01*
X41534819Y-103523808D02*
X41582438Y-103571427D01*
X41582438Y-103571427D02*
X41630057Y-103523808D01*
X41630057Y-103523808D02*
X41582438Y-103476189D01*
X41582438Y-103476189D02*
X41534819Y-103523808D01*
X41534819Y-103523808D02*
X41630057Y-103523808D01*
X41868152Y-103047618D02*
X42534819Y-103047618D01*
X41963390Y-103047618D02*
X41915771Y-102999999D01*
X41915771Y-102999999D02*
X41868152Y-102904761D01*
X41868152Y-102904761D02*
X41868152Y-102761904D01*
X41868152Y-102761904D02*
X41915771Y-102666666D01*
X41915771Y-102666666D02*
X42011009Y-102619047D01*
X42011009Y-102619047D02*
X42534819Y-102619047D01*
X42534819Y-101714285D02*
X42011009Y-101714285D01*
X42011009Y-101714285D02*
X41915771Y-101761904D01*
X41915771Y-101761904D02*
X41868152Y-101857142D01*
X41868152Y-101857142D02*
X41868152Y-102047618D01*
X41868152Y-102047618D02*
X41915771Y-102142856D01*
X42487200Y-101714285D02*
X42534819Y-101809523D01*
X42534819Y-101809523D02*
X42534819Y-102047618D01*
X42534819Y-102047618D02*
X42487200Y-102142856D01*
X42487200Y-102142856D02*
X42391961Y-102190475D01*
X42391961Y-102190475D02*
X42296723Y-102190475D01*
X42296723Y-102190475D02*
X42201485Y-102142856D01*
X42201485Y-102142856D02*
X42153866Y-102047618D01*
X42153866Y-102047618D02*
X42153866Y-101809523D01*
X42153866Y-101809523D02*
X42106247Y-101714285D01*
X42534819Y-101095237D02*
X42487200Y-101190475D01*
X42487200Y-101190475D02*
X42391961Y-101238094D01*
X42391961Y-101238094D02*
X41534819Y-101238094D01*
X42630057Y-100952380D02*
X42630057Y-100190475D01*
X41534819Y-99761903D02*
X41534819Y-99666665D01*
X41534819Y-99666665D02*
X41582438Y-99571427D01*
X41582438Y-99571427D02*
X41630057Y-99523808D01*
X41630057Y-99523808D02*
X41725295Y-99476189D01*
X41725295Y-99476189D02*
X41915771Y-99428570D01*
X41915771Y-99428570D02*
X42153866Y-99428570D01*
X42153866Y-99428570D02*
X42344342Y-99476189D01*
X42344342Y-99476189D02*
X42439580Y-99523808D01*
X42439580Y-99523808D02*
X42487200Y-99571427D01*
X42487200Y-99571427D02*
X42534819Y-99666665D01*
X42534819Y-99666665D02*
X42534819Y-99761903D01*
X42534819Y-99761903D02*
X42487200Y-99857141D01*
X42487200Y-99857141D02*
X42439580Y-99904760D01*
X42439580Y-99904760D02*
X42344342Y-99952379D01*
X42344342Y-99952379D02*
X42153866Y-99999998D01*
X42153866Y-99999998D02*
X41915771Y-99999998D01*
X41915771Y-99999998D02*
X41725295Y-99952379D01*
X41725295Y-99952379D02*
X41630057Y-99904760D01*
X41630057Y-99904760D02*
X41582438Y-99857141D01*
X41582438Y-99857141D02*
X41534819Y-99761903D01*
X42534819Y-98476189D02*
X42534819Y-99047617D01*
X42534819Y-98761903D02*
X41534819Y-98761903D01*
X41534819Y-98761903D02*
X41677676Y-98857141D01*
X41677676Y-98857141D02*
X41772914Y-98952379D01*
X41772914Y-98952379D02*
X41820533Y-99047617D01*
X42534819Y-98142855D02*
X41868152Y-97619046D01*
X41868152Y-98142855D02*
X42534819Y-97619046D01*
X41534819Y-97047617D02*
X41534819Y-96952379D01*
X41534819Y-96952379D02*
X41582438Y-96857141D01*
X41582438Y-96857141D02*
X41630057Y-96809522D01*
X41630057Y-96809522D02*
X41725295Y-96761903D01*
X41725295Y-96761903D02*
X41915771Y-96714284D01*
X41915771Y-96714284D02*
X42153866Y-96714284D01*
X42153866Y-96714284D02*
X42344342Y-96761903D01*
X42344342Y-96761903D02*
X42439580Y-96809522D01*
X42439580Y-96809522D02*
X42487200Y-96857141D01*
X42487200Y-96857141D02*
X42534819Y-96952379D01*
X42534819Y-96952379D02*
X42534819Y-97047617D01*
X42534819Y-97047617D02*
X42487200Y-97142855D01*
X42487200Y-97142855D02*
X42439580Y-97190474D01*
X42439580Y-97190474D02*
X42344342Y-97238093D01*
X42344342Y-97238093D02*
X42153866Y-97285712D01*
X42153866Y-97285712D02*
X41915771Y-97285712D01*
X41915771Y-97285712D02*
X41725295Y-97238093D01*
X41725295Y-97238093D02*
X41630057Y-97190474D01*
X41630057Y-97190474D02*
X41582438Y-97142855D01*
X41582438Y-97142855D02*
X41534819Y-97047617D01*
X41534819Y-96380950D02*
X41534819Y-95761903D01*
X41534819Y-95761903D02*
X41915771Y-96095236D01*
X41915771Y-96095236D02*
X41915771Y-95952379D01*
X41915771Y-95952379D02*
X41963390Y-95857141D01*
X41963390Y-95857141D02*
X42011009Y-95809522D01*
X42011009Y-95809522D02*
X42106247Y-95761903D01*
X42106247Y-95761903D02*
X42344342Y-95761903D01*
X42344342Y-95761903D02*
X42439580Y-95809522D01*
X42439580Y-95809522D02*
X42487200Y-95857141D01*
X42487200Y-95857141D02*
X42534819Y-95952379D01*
X42534819Y-95952379D02*
X42534819Y-96238093D01*
X42534819Y-96238093D02*
X42487200Y-96333331D01*
X42487200Y-96333331D02*
X42439580Y-96380950D01*
X36454819Y-104333333D02*
X37169104Y-104333333D01*
X37169104Y-104333333D02*
X37311961Y-104380952D01*
X37311961Y-104380952D02*
X37407200Y-104476190D01*
X37407200Y-104476190D02*
X37454819Y-104619047D01*
X37454819Y-104619047D02*
X37454819Y-104714285D01*
X36454819Y-103380952D02*
X36454819Y-103857142D01*
X36454819Y-103857142D02*
X36931009Y-103904761D01*
X36931009Y-103904761D02*
X36883390Y-103857142D01*
X36883390Y-103857142D02*
X36835771Y-103761904D01*
X36835771Y-103761904D02*
X36835771Y-103523809D01*
X36835771Y-103523809D02*
X36883390Y-103428571D01*
X36883390Y-103428571D02*
X36931009Y-103380952D01*
X36931009Y-103380952D02*
X37026247Y-103333333D01*
X37026247Y-103333333D02*
X37264342Y-103333333D01*
X37264342Y-103333333D02*
X37359580Y-103380952D01*
X37359580Y-103380952D02*
X37407200Y-103428571D01*
X37407200Y-103428571D02*
X37454819Y-103523809D01*
X37454819Y-103523809D02*
X37454819Y-103761904D01*
X37454819Y-103761904D02*
X37407200Y-103857142D01*
X37407200Y-103857142D02*
X37359580Y-103904761D01*
X43487200Y-61698095D02*
X43534819Y-61555238D01*
X43534819Y-61555238D02*
X43534819Y-61317143D01*
X43534819Y-61317143D02*
X43487200Y-61221905D01*
X43487200Y-61221905D02*
X43439580Y-61174286D01*
X43439580Y-61174286D02*
X43344342Y-61126667D01*
X43344342Y-61126667D02*
X43249104Y-61126667D01*
X43249104Y-61126667D02*
X43153866Y-61174286D01*
X43153866Y-61174286D02*
X43106247Y-61221905D01*
X43106247Y-61221905D02*
X43058628Y-61317143D01*
X43058628Y-61317143D02*
X43011009Y-61507619D01*
X43011009Y-61507619D02*
X42963390Y-61602857D01*
X42963390Y-61602857D02*
X42915771Y-61650476D01*
X42915771Y-61650476D02*
X42820533Y-61698095D01*
X42820533Y-61698095D02*
X42725295Y-61698095D01*
X42725295Y-61698095D02*
X42630057Y-61650476D01*
X42630057Y-61650476D02*
X42582438Y-61602857D01*
X42582438Y-61602857D02*
X42534819Y-61507619D01*
X42534819Y-61507619D02*
X42534819Y-61269524D01*
X42534819Y-61269524D02*
X42582438Y-61126667D01*
X43487200Y-60269524D02*
X43534819Y-60364762D01*
X43534819Y-60364762D02*
X43534819Y-60555238D01*
X43534819Y-60555238D02*
X43487200Y-60650476D01*
X43487200Y-60650476D02*
X43439580Y-60698095D01*
X43439580Y-60698095D02*
X43344342Y-60745714D01*
X43344342Y-60745714D02*
X43058628Y-60745714D01*
X43058628Y-60745714D02*
X42963390Y-60698095D01*
X42963390Y-60698095D02*
X42915771Y-60650476D01*
X42915771Y-60650476D02*
X42868152Y-60555238D01*
X42868152Y-60555238D02*
X42868152Y-60364762D01*
X42868152Y-60364762D02*
X42915771Y-60269524D01*
X43534819Y-59840952D02*
X42868152Y-59840952D01*
X43058628Y-59840952D02*
X42963390Y-59793333D01*
X42963390Y-59793333D02*
X42915771Y-59745714D01*
X42915771Y-59745714D02*
X42868152Y-59650476D01*
X42868152Y-59650476D02*
X42868152Y-59555238D01*
X43487200Y-58840952D02*
X43534819Y-58936190D01*
X43534819Y-58936190D02*
X43534819Y-59126666D01*
X43534819Y-59126666D02*
X43487200Y-59221904D01*
X43487200Y-59221904D02*
X43391961Y-59269523D01*
X43391961Y-59269523D02*
X43011009Y-59269523D01*
X43011009Y-59269523D02*
X42915771Y-59221904D01*
X42915771Y-59221904D02*
X42868152Y-59126666D01*
X42868152Y-59126666D02*
X42868152Y-58936190D01*
X42868152Y-58936190D02*
X42915771Y-58840952D01*
X42915771Y-58840952D02*
X43011009Y-58793333D01*
X43011009Y-58793333D02*
X43106247Y-58793333D01*
X43106247Y-58793333D02*
X43201485Y-59269523D01*
X42868152Y-58459999D02*
X43534819Y-58269523D01*
X43534819Y-58269523D02*
X43058628Y-58079047D01*
X43058628Y-58079047D02*
X43534819Y-57888571D01*
X43534819Y-57888571D02*
X42868152Y-57698095D01*
X43630057Y-57555238D02*
X43630057Y-56793333D01*
X42534819Y-56698094D02*
X42534819Y-56126666D01*
X43534819Y-56412380D02*
X42534819Y-56412380D01*
X43487200Y-55412380D02*
X43534819Y-55507618D01*
X43534819Y-55507618D02*
X43534819Y-55698094D01*
X43534819Y-55698094D02*
X43487200Y-55793332D01*
X43487200Y-55793332D02*
X43391961Y-55840951D01*
X43391961Y-55840951D02*
X43011009Y-55840951D01*
X43011009Y-55840951D02*
X42915771Y-55793332D01*
X42915771Y-55793332D02*
X42868152Y-55698094D01*
X42868152Y-55698094D02*
X42868152Y-55507618D01*
X42868152Y-55507618D02*
X42915771Y-55412380D01*
X42915771Y-55412380D02*
X43011009Y-55364761D01*
X43011009Y-55364761D02*
X43106247Y-55364761D01*
X43106247Y-55364761D02*
X43201485Y-55840951D01*
X43534819Y-54936189D02*
X42868152Y-54936189D01*
X43058628Y-54936189D02*
X42963390Y-54888570D01*
X42963390Y-54888570D02*
X42915771Y-54840951D01*
X42915771Y-54840951D02*
X42868152Y-54745713D01*
X42868152Y-54745713D02*
X42868152Y-54650475D01*
X43534819Y-54317141D02*
X42868152Y-54317141D01*
X42963390Y-54317141D02*
X42915771Y-54269522D01*
X42915771Y-54269522D02*
X42868152Y-54174284D01*
X42868152Y-54174284D02*
X42868152Y-54031427D01*
X42868152Y-54031427D02*
X42915771Y-53936189D01*
X42915771Y-53936189D02*
X43011009Y-53888570D01*
X43011009Y-53888570D02*
X43534819Y-53888570D01*
X43011009Y-53888570D02*
X42915771Y-53840951D01*
X42915771Y-53840951D02*
X42868152Y-53745713D01*
X42868152Y-53745713D02*
X42868152Y-53602856D01*
X42868152Y-53602856D02*
X42915771Y-53507617D01*
X42915771Y-53507617D02*
X43011009Y-53459998D01*
X43011009Y-53459998D02*
X43534819Y-53459998D01*
X43534819Y-52983808D02*
X42868152Y-52983808D01*
X42534819Y-52983808D02*
X42582438Y-53031427D01*
X42582438Y-53031427D02*
X42630057Y-52983808D01*
X42630057Y-52983808D02*
X42582438Y-52936189D01*
X42582438Y-52936189D02*
X42534819Y-52983808D01*
X42534819Y-52983808D02*
X42630057Y-52983808D01*
X42868152Y-52507618D02*
X43534819Y-52507618D01*
X42963390Y-52507618D02*
X42915771Y-52459999D01*
X42915771Y-52459999D02*
X42868152Y-52364761D01*
X42868152Y-52364761D02*
X42868152Y-52221904D01*
X42868152Y-52221904D02*
X42915771Y-52126666D01*
X42915771Y-52126666D02*
X43011009Y-52079047D01*
X43011009Y-52079047D02*
X43534819Y-52079047D01*
X43534819Y-51174285D02*
X43011009Y-51174285D01*
X43011009Y-51174285D02*
X42915771Y-51221904D01*
X42915771Y-51221904D02*
X42868152Y-51317142D01*
X42868152Y-51317142D02*
X42868152Y-51507618D01*
X42868152Y-51507618D02*
X42915771Y-51602856D01*
X43487200Y-51174285D02*
X43534819Y-51269523D01*
X43534819Y-51269523D02*
X43534819Y-51507618D01*
X43534819Y-51507618D02*
X43487200Y-51602856D01*
X43487200Y-51602856D02*
X43391961Y-51650475D01*
X43391961Y-51650475D02*
X43296723Y-51650475D01*
X43296723Y-51650475D02*
X43201485Y-51602856D01*
X43201485Y-51602856D02*
X43153866Y-51507618D01*
X43153866Y-51507618D02*
X43153866Y-51269523D01*
X43153866Y-51269523D02*
X43106247Y-51174285D01*
X43534819Y-50555237D02*
X43487200Y-50650475D01*
X43487200Y-50650475D02*
X43391961Y-50698094D01*
X43391961Y-50698094D02*
X42534819Y-50698094D01*
X43630057Y-50412380D02*
X43630057Y-49650475D01*
X42534819Y-49221903D02*
X42534819Y-49126665D01*
X42534819Y-49126665D02*
X42582438Y-49031427D01*
X42582438Y-49031427D02*
X42630057Y-48983808D01*
X42630057Y-48983808D02*
X42725295Y-48936189D01*
X42725295Y-48936189D02*
X42915771Y-48888570D01*
X42915771Y-48888570D02*
X43153866Y-48888570D01*
X43153866Y-48888570D02*
X43344342Y-48936189D01*
X43344342Y-48936189D02*
X43439580Y-48983808D01*
X43439580Y-48983808D02*
X43487200Y-49031427D01*
X43487200Y-49031427D02*
X43534819Y-49126665D01*
X43534819Y-49126665D02*
X43534819Y-49221903D01*
X43534819Y-49221903D02*
X43487200Y-49317141D01*
X43487200Y-49317141D02*
X43439580Y-49364760D01*
X43439580Y-49364760D02*
X43344342Y-49412379D01*
X43344342Y-49412379D02*
X43153866Y-49459998D01*
X43153866Y-49459998D02*
X42915771Y-49459998D01*
X42915771Y-49459998D02*
X42725295Y-49412379D01*
X42725295Y-49412379D02*
X42630057Y-49364760D01*
X42630057Y-49364760D02*
X42582438Y-49317141D01*
X42582438Y-49317141D02*
X42534819Y-49221903D01*
X43534819Y-47936189D02*
X43534819Y-48507617D01*
X43534819Y-48221903D02*
X42534819Y-48221903D01*
X42534819Y-48221903D02*
X42677676Y-48317141D01*
X42677676Y-48317141D02*
X42772914Y-48412379D01*
X42772914Y-48412379D02*
X42820533Y-48507617D01*
X43534819Y-47602855D02*
X42868152Y-47079046D01*
X42868152Y-47602855D02*
X43534819Y-47079046D01*
X42534819Y-46507617D02*
X42534819Y-46412379D01*
X42534819Y-46412379D02*
X42582438Y-46317141D01*
X42582438Y-46317141D02*
X42630057Y-46269522D01*
X42630057Y-46269522D02*
X42725295Y-46221903D01*
X42725295Y-46221903D02*
X42915771Y-46174284D01*
X42915771Y-46174284D02*
X43153866Y-46174284D01*
X43153866Y-46174284D02*
X43344342Y-46221903D01*
X43344342Y-46221903D02*
X43439580Y-46269522D01*
X43439580Y-46269522D02*
X43487200Y-46317141D01*
X43487200Y-46317141D02*
X43534819Y-46412379D01*
X43534819Y-46412379D02*
X43534819Y-46507617D01*
X43534819Y-46507617D02*
X43487200Y-46602855D01*
X43487200Y-46602855D02*
X43439580Y-46650474D01*
X43439580Y-46650474D02*
X43344342Y-46698093D01*
X43344342Y-46698093D02*
X43153866Y-46745712D01*
X43153866Y-46745712D02*
X42915771Y-46745712D01*
X42915771Y-46745712D02*
X42725295Y-46698093D01*
X42725295Y-46698093D02*
X42630057Y-46650474D01*
X42630057Y-46650474D02*
X42582438Y-46602855D01*
X42582438Y-46602855D02*
X42534819Y-46507617D01*
X42630057Y-45793331D02*
X42582438Y-45745712D01*
X42582438Y-45745712D02*
X42534819Y-45650474D01*
X42534819Y-45650474D02*
X42534819Y-45412379D01*
X42534819Y-45412379D02*
X42582438Y-45317141D01*
X42582438Y-45317141D02*
X42630057Y-45269522D01*
X42630057Y-45269522D02*
X42725295Y-45221903D01*
X42725295Y-45221903D02*
X42820533Y-45221903D01*
X42820533Y-45221903D02*
X42963390Y-45269522D01*
X42963390Y-45269522D02*
X43534819Y-45840950D01*
X43534819Y-45840950D02*
X43534819Y-45221903D01*
X37454819Y-53793333D02*
X38169104Y-53793333D01*
X38169104Y-53793333D02*
X38311961Y-53840952D01*
X38311961Y-53840952D02*
X38407200Y-53936190D01*
X38407200Y-53936190D02*
X38454819Y-54079047D01*
X38454819Y-54079047D02*
X38454819Y-54174285D01*
X37788152Y-52888571D02*
X38454819Y-52888571D01*
X37407200Y-53126666D02*
X38121485Y-53364761D01*
X38121485Y-53364761D02*
X38121485Y-52745714D01*
X108327200Y-102738095D02*
X108374819Y-102595238D01*
X108374819Y-102595238D02*
X108374819Y-102357143D01*
X108374819Y-102357143D02*
X108327200Y-102261905D01*
X108327200Y-102261905D02*
X108279580Y-102214286D01*
X108279580Y-102214286D02*
X108184342Y-102166667D01*
X108184342Y-102166667D02*
X108089104Y-102166667D01*
X108089104Y-102166667D02*
X107993866Y-102214286D01*
X107993866Y-102214286D02*
X107946247Y-102261905D01*
X107946247Y-102261905D02*
X107898628Y-102357143D01*
X107898628Y-102357143D02*
X107851009Y-102547619D01*
X107851009Y-102547619D02*
X107803390Y-102642857D01*
X107803390Y-102642857D02*
X107755771Y-102690476D01*
X107755771Y-102690476D02*
X107660533Y-102738095D01*
X107660533Y-102738095D02*
X107565295Y-102738095D01*
X107565295Y-102738095D02*
X107470057Y-102690476D01*
X107470057Y-102690476D02*
X107422438Y-102642857D01*
X107422438Y-102642857D02*
X107374819Y-102547619D01*
X107374819Y-102547619D02*
X107374819Y-102309524D01*
X107374819Y-102309524D02*
X107422438Y-102166667D01*
X108327200Y-101309524D02*
X108374819Y-101404762D01*
X108374819Y-101404762D02*
X108374819Y-101595238D01*
X108374819Y-101595238D02*
X108327200Y-101690476D01*
X108327200Y-101690476D02*
X108279580Y-101738095D01*
X108279580Y-101738095D02*
X108184342Y-101785714D01*
X108184342Y-101785714D02*
X107898628Y-101785714D01*
X107898628Y-101785714D02*
X107803390Y-101738095D01*
X107803390Y-101738095D02*
X107755771Y-101690476D01*
X107755771Y-101690476D02*
X107708152Y-101595238D01*
X107708152Y-101595238D02*
X107708152Y-101404762D01*
X107708152Y-101404762D02*
X107755771Y-101309524D01*
X108374819Y-100880952D02*
X107708152Y-100880952D01*
X107898628Y-100880952D02*
X107803390Y-100833333D01*
X107803390Y-100833333D02*
X107755771Y-100785714D01*
X107755771Y-100785714D02*
X107708152Y-100690476D01*
X107708152Y-100690476D02*
X107708152Y-100595238D01*
X108327200Y-99880952D02*
X108374819Y-99976190D01*
X108374819Y-99976190D02*
X108374819Y-100166666D01*
X108374819Y-100166666D02*
X108327200Y-100261904D01*
X108327200Y-100261904D02*
X108231961Y-100309523D01*
X108231961Y-100309523D02*
X107851009Y-100309523D01*
X107851009Y-100309523D02*
X107755771Y-100261904D01*
X107755771Y-100261904D02*
X107708152Y-100166666D01*
X107708152Y-100166666D02*
X107708152Y-99976190D01*
X107708152Y-99976190D02*
X107755771Y-99880952D01*
X107755771Y-99880952D02*
X107851009Y-99833333D01*
X107851009Y-99833333D02*
X107946247Y-99833333D01*
X107946247Y-99833333D02*
X108041485Y-100309523D01*
X107708152Y-99499999D02*
X108374819Y-99309523D01*
X108374819Y-99309523D02*
X107898628Y-99119047D01*
X107898628Y-99119047D02*
X108374819Y-98928571D01*
X108374819Y-98928571D02*
X107708152Y-98738095D01*
X108470057Y-98595238D02*
X108470057Y-97833333D01*
X107374819Y-97738094D02*
X107374819Y-97166666D01*
X108374819Y-97452380D02*
X107374819Y-97452380D01*
X108327200Y-96452380D02*
X108374819Y-96547618D01*
X108374819Y-96547618D02*
X108374819Y-96738094D01*
X108374819Y-96738094D02*
X108327200Y-96833332D01*
X108327200Y-96833332D02*
X108231961Y-96880951D01*
X108231961Y-96880951D02*
X107851009Y-96880951D01*
X107851009Y-96880951D02*
X107755771Y-96833332D01*
X107755771Y-96833332D02*
X107708152Y-96738094D01*
X107708152Y-96738094D02*
X107708152Y-96547618D01*
X107708152Y-96547618D02*
X107755771Y-96452380D01*
X107755771Y-96452380D02*
X107851009Y-96404761D01*
X107851009Y-96404761D02*
X107946247Y-96404761D01*
X107946247Y-96404761D02*
X108041485Y-96880951D01*
X108374819Y-95976189D02*
X107708152Y-95976189D01*
X107898628Y-95976189D02*
X107803390Y-95928570D01*
X107803390Y-95928570D02*
X107755771Y-95880951D01*
X107755771Y-95880951D02*
X107708152Y-95785713D01*
X107708152Y-95785713D02*
X107708152Y-95690475D01*
X108374819Y-95357141D02*
X107708152Y-95357141D01*
X107803390Y-95357141D02*
X107755771Y-95309522D01*
X107755771Y-95309522D02*
X107708152Y-95214284D01*
X107708152Y-95214284D02*
X107708152Y-95071427D01*
X107708152Y-95071427D02*
X107755771Y-94976189D01*
X107755771Y-94976189D02*
X107851009Y-94928570D01*
X107851009Y-94928570D02*
X108374819Y-94928570D01*
X107851009Y-94928570D02*
X107755771Y-94880951D01*
X107755771Y-94880951D02*
X107708152Y-94785713D01*
X107708152Y-94785713D02*
X107708152Y-94642856D01*
X107708152Y-94642856D02*
X107755771Y-94547617D01*
X107755771Y-94547617D02*
X107851009Y-94499998D01*
X107851009Y-94499998D02*
X108374819Y-94499998D01*
X108374819Y-94023808D02*
X107708152Y-94023808D01*
X107374819Y-94023808D02*
X107422438Y-94071427D01*
X107422438Y-94071427D02*
X107470057Y-94023808D01*
X107470057Y-94023808D02*
X107422438Y-93976189D01*
X107422438Y-93976189D02*
X107374819Y-94023808D01*
X107374819Y-94023808D02*
X107470057Y-94023808D01*
X107708152Y-93547618D02*
X108374819Y-93547618D01*
X107803390Y-93547618D02*
X107755771Y-93499999D01*
X107755771Y-93499999D02*
X107708152Y-93404761D01*
X107708152Y-93404761D02*
X107708152Y-93261904D01*
X107708152Y-93261904D02*
X107755771Y-93166666D01*
X107755771Y-93166666D02*
X107851009Y-93119047D01*
X107851009Y-93119047D02*
X108374819Y-93119047D01*
X108374819Y-92214285D02*
X107851009Y-92214285D01*
X107851009Y-92214285D02*
X107755771Y-92261904D01*
X107755771Y-92261904D02*
X107708152Y-92357142D01*
X107708152Y-92357142D02*
X107708152Y-92547618D01*
X107708152Y-92547618D02*
X107755771Y-92642856D01*
X108327200Y-92214285D02*
X108374819Y-92309523D01*
X108374819Y-92309523D02*
X108374819Y-92547618D01*
X108374819Y-92547618D02*
X108327200Y-92642856D01*
X108327200Y-92642856D02*
X108231961Y-92690475D01*
X108231961Y-92690475D02*
X108136723Y-92690475D01*
X108136723Y-92690475D02*
X108041485Y-92642856D01*
X108041485Y-92642856D02*
X107993866Y-92547618D01*
X107993866Y-92547618D02*
X107993866Y-92309523D01*
X107993866Y-92309523D02*
X107946247Y-92214285D01*
X108374819Y-91595237D02*
X108327200Y-91690475D01*
X108327200Y-91690475D02*
X108231961Y-91738094D01*
X108231961Y-91738094D02*
X107374819Y-91738094D01*
X108470057Y-91452380D02*
X108470057Y-90690475D01*
X107374819Y-90261903D02*
X107374819Y-90166665D01*
X107374819Y-90166665D02*
X107422438Y-90071427D01*
X107422438Y-90071427D02*
X107470057Y-90023808D01*
X107470057Y-90023808D02*
X107565295Y-89976189D01*
X107565295Y-89976189D02*
X107755771Y-89928570D01*
X107755771Y-89928570D02*
X107993866Y-89928570D01*
X107993866Y-89928570D02*
X108184342Y-89976189D01*
X108184342Y-89976189D02*
X108279580Y-90023808D01*
X108279580Y-90023808D02*
X108327200Y-90071427D01*
X108327200Y-90071427D02*
X108374819Y-90166665D01*
X108374819Y-90166665D02*
X108374819Y-90261903D01*
X108374819Y-90261903D02*
X108327200Y-90357141D01*
X108327200Y-90357141D02*
X108279580Y-90404760D01*
X108279580Y-90404760D02*
X108184342Y-90452379D01*
X108184342Y-90452379D02*
X107993866Y-90499998D01*
X107993866Y-90499998D02*
X107755771Y-90499998D01*
X107755771Y-90499998D02*
X107565295Y-90452379D01*
X107565295Y-90452379D02*
X107470057Y-90404760D01*
X107470057Y-90404760D02*
X107422438Y-90357141D01*
X107422438Y-90357141D02*
X107374819Y-90261903D01*
X108374819Y-88976189D02*
X108374819Y-89547617D01*
X108374819Y-89261903D02*
X107374819Y-89261903D01*
X107374819Y-89261903D02*
X107517676Y-89357141D01*
X107517676Y-89357141D02*
X107612914Y-89452379D01*
X107612914Y-89452379D02*
X107660533Y-89547617D01*
X108374819Y-88642855D02*
X107708152Y-88119046D01*
X107708152Y-88642855D02*
X108374819Y-88119046D01*
X107374819Y-87547617D02*
X107374819Y-87452379D01*
X107374819Y-87452379D02*
X107422438Y-87357141D01*
X107422438Y-87357141D02*
X107470057Y-87309522D01*
X107470057Y-87309522D02*
X107565295Y-87261903D01*
X107565295Y-87261903D02*
X107755771Y-87214284D01*
X107755771Y-87214284D02*
X107993866Y-87214284D01*
X107993866Y-87214284D02*
X108184342Y-87261903D01*
X108184342Y-87261903D02*
X108279580Y-87309522D01*
X108279580Y-87309522D02*
X108327200Y-87357141D01*
X108327200Y-87357141D02*
X108374819Y-87452379D01*
X108374819Y-87452379D02*
X108374819Y-87547617D01*
X108374819Y-87547617D02*
X108327200Y-87642855D01*
X108327200Y-87642855D02*
X108279580Y-87690474D01*
X108279580Y-87690474D02*
X108184342Y-87738093D01*
X108184342Y-87738093D02*
X107993866Y-87785712D01*
X107993866Y-87785712D02*
X107755771Y-87785712D01*
X107755771Y-87785712D02*
X107565295Y-87738093D01*
X107565295Y-87738093D02*
X107470057Y-87690474D01*
X107470057Y-87690474D02*
X107422438Y-87642855D01*
X107422438Y-87642855D02*
X107374819Y-87547617D01*
X107470057Y-86833331D02*
X107422438Y-86785712D01*
X107422438Y-86785712D02*
X107374819Y-86690474D01*
X107374819Y-86690474D02*
X107374819Y-86452379D01*
X107374819Y-86452379D02*
X107422438Y-86357141D01*
X107422438Y-86357141D02*
X107470057Y-86309522D01*
X107470057Y-86309522D02*
X107565295Y-86261903D01*
X107565295Y-86261903D02*
X107660533Y-86261903D01*
X107660533Y-86261903D02*
X107803390Y-86309522D01*
X107803390Y-86309522D02*
X108374819Y-86880950D01*
X108374819Y-86880950D02*
X108374819Y-86261903D01*
X112454819Y-94833333D02*
X113169104Y-94833333D01*
X113169104Y-94833333D02*
X113311961Y-94880952D01*
X113311961Y-94880952D02*
X113407200Y-94976190D01*
X113407200Y-94976190D02*
X113454819Y-95119047D01*
X113454819Y-95119047D02*
X113454819Y-95214285D01*
X112883390Y-94214285D02*
X112835771Y-94309523D01*
X112835771Y-94309523D02*
X112788152Y-94357142D01*
X112788152Y-94357142D02*
X112692914Y-94404761D01*
X112692914Y-94404761D02*
X112645295Y-94404761D01*
X112645295Y-94404761D02*
X112550057Y-94357142D01*
X112550057Y-94357142D02*
X112502438Y-94309523D01*
X112502438Y-94309523D02*
X112454819Y-94214285D01*
X112454819Y-94214285D02*
X112454819Y-94023809D01*
X112454819Y-94023809D02*
X112502438Y-93928571D01*
X112502438Y-93928571D02*
X112550057Y-93880952D01*
X112550057Y-93880952D02*
X112645295Y-93833333D01*
X112645295Y-93833333D02*
X112692914Y-93833333D01*
X112692914Y-93833333D02*
X112788152Y-93880952D01*
X112788152Y-93880952D02*
X112835771Y-93928571D01*
X112835771Y-93928571D02*
X112883390Y-94023809D01*
X112883390Y-94023809D02*
X112883390Y-94214285D01*
X112883390Y-94214285D02*
X112931009Y-94309523D01*
X112931009Y-94309523D02*
X112978628Y-94357142D01*
X112978628Y-94357142D02*
X113073866Y-94404761D01*
X113073866Y-94404761D02*
X113264342Y-94404761D01*
X113264342Y-94404761D02*
X113359580Y-94357142D01*
X113359580Y-94357142D02*
X113407200Y-94309523D01*
X113407200Y-94309523D02*
X113454819Y-94214285D01*
X113454819Y-94214285D02*
X113454819Y-94023809D01*
X113454819Y-94023809D02*
X113407200Y-93928571D01*
X113407200Y-93928571D02*
X113359580Y-93880952D01*
X113359580Y-93880952D02*
X113264342Y-93833333D01*
X113264342Y-93833333D02*
X113073866Y-93833333D01*
X113073866Y-93833333D02*
X112978628Y-93880952D01*
X112978628Y-93880952D02*
X112931009Y-93928571D01*
X112931009Y-93928571D02*
X112883390Y-94023809D01*
X56809523Y-46874819D02*
X56476190Y-46398628D01*
X56238095Y-46874819D02*
X56238095Y-45874819D01*
X56238095Y-45874819D02*
X56619047Y-45874819D01*
X56619047Y-45874819D02*
X56714285Y-45922438D01*
X56714285Y-45922438D02*
X56761904Y-45970057D01*
X56761904Y-45970057D02*
X56809523Y-46065295D01*
X56809523Y-46065295D02*
X56809523Y-46208152D01*
X56809523Y-46208152D02*
X56761904Y-46303390D01*
X56761904Y-46303390D02*
X56714285Y-46351009D01*
X56714285Y-46351009D02*
X56619047Y-46398628D01*
X56619047Y-46398628D02*
X56238095Y-46398628D01*
D11*
X56380000Y-44827469D02*
X56140000Y-44484612D01*
X55968571Y-44827469D02*
X55968571Y-44107469D01*
X55968571Y-44107469D02*
X56242857Y-44107469D01*
X56242857Y-44107469D02*
X56311428Y-44141755D01*
X56311428Y-44141755D02*
X56345714Y-44176041D01*
X56345714Y-44176041D02*
X56380000Y-44244612D01*
X56380000Y-44244612D02*
X56380000Y-44347469D01*
X56380000Y-44347469D02*
X56345714Y-44416041D01*
X56345714Y-44416041D02*
X56311428Y-44450326D01*
X56311428Y-44450326D02*
X56242857Y-44484612D01*
X56242857Y-44484612D02*
X55968571Y-44484612D01*
X57065714Y-44827469D02*
X56654285Y-44827469D01*
X56860000Y-44827469D02*
X56860000Y-44107469D01*
X56860000Y-44107469D02*
X56791428Y-44210326D01*
X56791428Y-44210326D02*
X56722857Y-44278898D01*
X56722857Y-44278898D02*
X56654285Y-44313184D01*
D10*
X108327200Y-115238095D02*
X108374819Y-115095238D01*
X108374819Y-115095238D02*
X108374819Y-114857143D01*
X108374819Y-114857143D02*
X108327200Y-114761905D01*
X108327200Y-114761905D02*
X108279580Y-114714286D01*
X108279580Y-114714286D02*
X108184342Y-114666667D01*
X108184342Y-114666667D02*
X108089104Y-114666667D01*
X108089104Y-114666667D02*
X107993866Y-114714286D01*
X107993866Y-114714286D02*
X107946247Y-114761905D01*
X107946247Y-114761905D02*
X107898628Y-114857143D01*
X107898628Y-114857143D02*
X107851009Y-115047619D01*
X107851009Y-115047619D02*
X107803390Y-115142857D01*
X107803390Y-115142857D02*
X107755771Y-115190476D01*
X107755771Y-115190476D02*
X107660533Y-115238095D01*
X107660533Y-115238095D02*
X107565295Y-115238095D01*
X107565295Y-115238095D02*
X107470057Y-115190476D01*
X107470057Y-115190476D02*
X107422438Y-115142857D01*
X107422438Y-115142857D02*
X107374819Y-115047619D01*
X107374819Y-115047619D02*
X107374819Y-114809524D01*
X107374819Y-114809524D02*
X107422438Y-114666667D01*
X108327200Y-113809524D02*
X108374819Y-113904762D01*
X108374819Y-113904762D02*
X108374819Y-114095238D01*
X108374819Y-114095238D02*
X108327200Y-114190476D01*
X108327200Y-114190476D02*
X108279580Y-114238095D01*
X108279580Y-114238095D02*
X108184342Y-114285714D01*
X108184342Y-114285714D02*
X107898628Y-114285714D01*
X107898628Y-114285714D02*
X107803390Y-114238095D01*
X107803390Y-114238095D02*
X107755771Y-114190476D01*
X107755771Y-114190476D02*
X107708152Y-114095238D01*
X107708152Y-114095238D02*
X107708152Y-113904762D01*
X107708152Y-113904762D02*
X107755771Y-113809524D01*
X108374819Y-113380952D02*
X107708152Y-113380952D01*
X107898628Y-113380952D02*
X107803390Y-113333333D01*
X107803390Y-113333333D02*
X107755771Y-113285714D01*
X107755771Y-113285714D02*
X107708152Y-113190476D01*
X107708152Y-113190476D02*
X107708152Y-113095238D01*
X108327200Y-112380952D02*
X108374819Y-112476190D01*
X108374819Y-112476190D02*
X108374819Y-112666666D01*
X108374819Y-112666666D02*
X108327200Y-112761904D01*
X108327200Y-112761904D02*
X108231961Y-112809523D01*
X108231961Y-112809523D02*
X107851009Y-112809523D01*
X107851009Y-112809523D02*
X107755771Y-112761904D01*
X107755771Y-112761904D02*
X107708152Y-112666666D01*
X107708152Y-112666666D02*
X107708152Y-112476190D01*
X107708152Y-112476190D02*
X107755771Y-112380952D01*
X107755771Y-112380952D02*
X107851009Y-112333333D01*
X107851009Y-112333333D02*
X107946247Y-112333333D01*
X107946247Y-112333333D02*
X108041485Y-112809523D01*
X107708152Y-111999999D02*
X108374819Y-111809523D01*
X108374819Y-111809523D02*
X107898628Y-111619047D01*
X107898628Y-111619047D02*
X108374819Y-111428571D01*
X108374819Y-111428571D02*
X107708152Y-111238095D01*
X108470057Y-111095238D02*
X108470057Y-110333333D01*
X107374819Y-110238094D02*
X107374819Y-109666666D01*
X108374819Y-109952380D02*
X107374819Y-109952380D01*
X108327200Y-108952380D02*
X108374819Y-109047618D01*
X108374819Y-109047618D02*
X108374819Y-109238094D01*
X108374819Y-109238094D02*
X108327200Y-109333332D01*
X108327200Y-109333332D02*
X108231961Y-109380951D01*
X108231961Y-109380951D02*
X107851009Y-109380951D01*
X107851009Y-109380951D02*
X107755771Y-109333332D01*
X107755771Y-109333332D02*
X107708152Y-109238094D01*
X107708152Y-109238094D02*
X107708152Y-109047618D01*
X107708152Y-109047618D02*
X107755771Y-108952380D01*
X107755771Y-108952380D02*
X107851009Y-108904761D01*
X107851009Y-108904761D02*
X107946247Y-108904761D01*
X107946247Y-108904761D02*
X108041485Y-109380951D01*
X108374819Y-108476189D02*
X107708152Y-108476189D01*
X107898628Y-108476189D02*
X107803390Y-108428570D01*
X107803390Y-108428570D02*
X107755771Y-108380951D01*
X107755771Y-108380951D02*
X107708152Y-108285713D01*
X107708152Y-108285713D02*
X107708152Y-108190475D01*
X108374819Y-107857141D02*
X107708152Y-107857141D01*
X107803390Y-107857141D02*
X107755771Y-107809522D01*
X107755771Y-107809522D02*
X107708152Y-107714284D01*
X107708152Y-107714284D02*
X107708152Y-107571427D01*
X107708152Y-107571427D02*
X107755771Y-107476189D01*
X107755771Y-107476189D02*
X107851009Y-107428570D01*
X107851009Y-107428570D02*
X108374819Y-107428570D01*
X107851009Y-107428570D02*
X107755771Y-107380951D01*
X107755771Y-107380951D02*
X107708152Y-107285713D01*
X107708152Y-107285713D02*
X107708152Y-107142856D01*
X107708152Y-107142856D02*
X107755771Y-107047617D01*
X107755771Y-107047617D02*
X107851009Y-106999998D01*
X107851009Y-106999998D02*
X108374819Y-106999998D01*
X108374819Y-106523808D02*
X107708152Y-106523808D01*
X107374819Y-106523808D02*
X107422438Y-106571427D01*
X107422438Y-106571427D02*
X107470057Y-106523808D01*
X107470057Y-106523808D02*
X107422438Y-106476189D01*
X107422438Y-106476189D02*
X107374819Y-106523808D01*
X107374819Y-106523808D02*
X107470057Y-106523808D01*
X107708152Y-106047618D02*
X108374819Y-106047618D01*
X107803390Y-106047618D02*
X107755771Y-105999999D01*
X107755771Y-105999999D02*
X107708152Y-105904761D01*
X107708152Y-105904761D02*
X107708152Y-105761904D01*
X107708152Y-105761904D02*
X107755771Y-105666666D01*
X107755771Y-105666666D02*
X107851009Y-105619047D01*
X107851009Y-105619047D02*
X108374819Y-105619047D01*
X108374819Y-104714285D02*
X107851009Y-104714285D01*
X107851009Y-104714285D02*
X107755771Y-104761904D01*
X107755771Y-104761904D02*
X107708152Y-104857142D01*
X107708152Y-104857142D02*
X107708152Y-105047618D01*
X107708152Y-105047618D02*
X107755771Y-105142856D01*
X108327200Y-104714285D02*
X108374819Y-104809523D01*
X108374819Y-104809523D02*
X108374819Y-105047618D01*
X108374819Y-105047618D02*
X108327200Y-105142856D01*
X108327200Y-105142856D02*
X108231961Y-105190475D01*
X108231961Y-105190475D02*
X108136723Y-105190475D01*
X108136723Y-105190475D02*
X108041485Y-105142856D01*
X108041485Y-105142856D02*
X107993866Y-105047618D01*
X107993866Y-105047618D02*
X107993866Y-104809523D01*
X107993866Y-104809523D02*
X107946247Y-104714285D01*
X108374819Y-104095237D02*
X108327200Y-104190475D01*
X108327200Y-104190475D02*
X108231961Y-104238094D01*
X108231961Y-104238094D02*
X107374819Y-104238094D01*
X108470057Y-103952380D02*
X108470057Y-103190475D01*
X107374819Y-102761903D02*
X107374819Y-102666665D01*
X107374819Y-102666665D02*
X107422438Y-102571427D01*
X107422438Y-102571427D02*
X107470057Y-102523808D01*
X107470057Y-102523808D02*
X107565295Y-102476189D01*
X107565295Y-102476189D02*
X107755771Y-102428570D01*
X107755771Y-102428570D02*
X107993866Y-102428570D01*
X107993866Y-102428570D02*
X108184342Y-102476189D01*
X108184342Y-102476189D02*
X108279580Y-102523808D01*
X108279580Y-102523808D02*
X108327200Y-102571427D01*
X108327200Y-102571427D02*
X108374819Y-102666665D01*
X108374819Y-102666665D02*
X108374819Y-102761903D01*
X108374819Y-102761903D02*
X108327200Y-102857141D01*
X108327200Y-102857141D02*
X108279580Y-102904760D01*
X108279580Y-102904760D02*
X108184342Y-102952379D01*
X108184342Y-102952379D02*
X107993866Y-102999998D01*
X107993866Y-102999998D02*
X107755771Y-102999998D01*
X107755771Y-102999998D02*
X107565295Y-102952379D01*
X107565295Y-102952379D02*
X107470057Y-102904760D01*
X107470057Y-102904760D02*
X107422438Y-102857141D01*
X107422438Y-102857141D02*
X107374819Y-102761903D01*
X108374819Y-101476189D02*
X108374819Y-102047617D01*
X108374819Y-101761903D02*
X107374819Y-101761903D01*
X107374819Y-101761903D02*
X107517676Y-101857141D01*
X107517676Y-101857141D02*
X107612914Y-101952379D01*
X107612914Y-101952379D02*
X107660533Y-102047617D01*
X108374819Y-101142855D02*
X107708152Y-100619046D01*
X107708152Y-101142855D02*
X108374819Y-100619046D01*
X107374819Y-100047617D02*
X107374819Y-99952379D01*
X107374819Y-99952379D02*
X107422438Y-99857141D01*
X107422438Y-99857141D02*
X107470057Y-99809522D01*
X107470057Y-99809522D02*
X107565295Y-99761903D01*
X107565295Y-99761903D02*
X107755771Y-99714284D01*
X107755771Y-99714284D02*
X107993866Y-99714284D01*
X107993866Y-99714284D02*
X108184342Y-99761903D01*
X108184342Y-99761903D02*
X108279580Y-99809522D01*
X108279580Y-99809522D02*
X108327200Y-99857141D01*
X108327200Y-99857141D02*
X108374819Y-99952379D01*
X108374819Y-99952379D02*
X108374819Y-100047617D01*
X108374819Y-100047617D02*
X108327200Y-100142855D01*
X108327200Y-100142855D02*
X108279580Y-100190474D01*
X108279580Y-100190474D02*
X108184342Y-100238093D01*
X108184342Y-100238093D02*
X107993866Y-100285712D01*
X107993866Y-100285712D02*
X107755771Y-100285712D01*
X107755771Y-100285712D02*
X107565295Y-100238093D01*
X107565295Y-100238093D02*
X107470057Y-100190474D01*
X107470057Y-100190474D02*
X107422438Y-100142855D01*
X107422438Y-100142855D02*
X107374819Y-100047617D01*
X107470057Y-99333331D02*
X107422438Y-99285712D01*
X107422438Y-99285712D02*
X107374819Y-99190474D01*
X107374819Y-99190474D02*
X107374819Y-98952379D01*
X107374819Y-98952379D02*
X107422438Y-98857141D01*
X107422438Y-98857141D02*
X107470057Y-98809522D01*
X107470057Y-98809522D02*
X107565295Y-98761903D01*
X107565295Y-98761903D02*
X107660533Y-98761903D01*
X107660533Y-98761903D02*
X107803390Y-98809522D01*
X107803390Y-98809522D02*
X108374819Y-99380950D01*
X108374819Y-99380950D02*
X108374819Y-98761903D01*
X112454819Y-107333333D02*
X113169104Y-107333333D01*
X113169104Y-107333333D02*
X113311961Y-107380952D01*
X113311961Y-107380952D02*
X113407200Y-107476190D01*
X113407200Y-107476190D02*
X113454819Y-107619047D01*
X113454819Y-107619047D02*
X113454819Y-107714285D01*
X113454819Y-106809523D02*
X113454819Y-106619047D01*
X113454819Y-106619047D02*
X113407200Y-106523809D01*
X113407200Y-106523809D02*
X113359580Y-106476190D01*
X113359580Y-106476190D02*
X113216723Y-106380952D01*
X113216723Y-106380952D02*
X113026247Y-106333333D01*
X113026247Y-106333333D02*
X112645295Y-106333333D01*
X112645295Y-106333333D02*
X112550057Y-106380952D01*
X112550057Y-106380952D02*
X112502438Y-106428571D01*
X112502438Y-106428571D02*
X112454819Y-106523809D01*
X112454819Y-106523809D02*
X112454819Y-106714285D01*
X112454819Y-106714285D02*
X112502438Y-106809523D01*
X112502438Y-106809523D02*
X112550057Y-106857142D01*
X112550057Y-106857142D02*
X112645295Y-106904761D01*
X112645295Y-106904761D02*
X112883390Y-106904761D01*
X112883390Y-106904761D02*
X112978628Y-106857142D01*
X112978628Y-106857142D02*
X113026247Y-106809523D01*
X113026247Y-106809523D02*
X113073866Y-106714285D01*
X113073866Y-106714285D02*
X113073866Y-106523809D01*
X113073866Y-106523809D02*
X113026247Y-106428571D01*
X113026247Y-106428571D02*
X112978628Y-106380952D01*
X112978628Y-106380952D02*
X112883390Y-106333333D01*
X46479819Y-57880476D02*
X46479819Y-58356666D01*
X46479819Y-58356666D02*
X45479819Y-58356666D01*
X46479819Y-57547142D02*
X45479819Y-57547142D01*
X45479819Y-57547142D02*
X46194104Y-57213809D01*
X46194104Y-57213809D02*
X45479819Y-56880476D01*
X45479819Y-56880476D02*
X46479819Y-56880476D01*
X45479819Y-56499523D02*
X45479819Y-55880476D01*
X45479819Y-55880476D02*
X45860771Y-56213809D01*
X45860771Y-56213809D02*
X45860771Y-56070952D01*
X45860771Y-56070952D02*
X45908390Y-55975714D01*
X45908390Y-55975714D02*
X45956009Y-55928095D01*
X45956009Y-55928095D02*
X46051247Y-55880476D01*
X46051247Y-55880476D02*
X46289342Y-55880476D01*
X46289342Y-55880476D02*
X46384580Y-55928095D01*
X46384580Y-55928095D02*
X46432200Y-55975714D01*
X46432200Y-55975714D02*
X46479819Y-56070952D01*
X46479819Y-56070952D02*
X46479819Y-56356666D01*
X46479819Y-56356666D02*
X46432200Y-56451904D01*
X46432200Y-56451904D02*
X46384580Y-56499523D01*
X45479819Y-54975714D02*
X45479819Y-55451904D01*
X45479819Y-55451904D02*
X45956009Y-55499523D01*
X45956009Y-55499523D02*
X45908390Y-55451904D01*
X45908390Y-55451904D02*
X45860771Y-55356666D01*
X45860771Y-55356666D02*
X45860771Y-55118571D01*
X45860771Y-55118571D02*
X45908390Y-55023333D01*
X45908390Y-55023333D02*
X45956009Y-54975714D01*
X45956009Y-54975714D02*
X46051247Y-54928095D01*
X46051247Y-54928095D02*
X46289342Y-54928095D01*
X46289342Y-54928095D02*
X46384580Y-54975714D01*
X46384580Y-54975714D02*
X46432200Y-55023333D01*
X46432200Y-55023333D02*
X46479819Y-55118571D01*
X46479819Y-55118571D02*
X46479819Y-55356666D01*
X46479819Y-55356666D02*
X46432200Y-55451904D01*
X46432200Y-55451904D02*
X46384580Y-55499523D01*
X45908390Y-54356666D02*
X45860771Y-54451904D01*
X45860771Y-54451904D02*
X45813152Y-54499523D01*
X45813152Y-54499523D02*
X45717914Y-54547142D01*
X45717914Y-54547142D02*
X45670295Y-54547142D01*
X45670295Y-54547142D02*
X45575057Y-54499523D01*
X45575057Y-54499523D02*
X45527438Y-54451904D01*
X45527438Y-54451904D02*
X45479819Y-54356666D01*
X45479819Y-54356666D02*
X45479819Y-54166190D01*
X45479819Y-54166190D02*
X45527438Y-54070952D01*
X45527438Y-54070952D02*
X45575057Y-54023333D01*
X45575057Y-54023333D02*
X45670295Y-53975714D01*
X45670295Y-53975714D02*
X45717914Y-53975714D01*
X45717914Y-53975714D02*
X45813152Y-54023333D01*
X45813152Y-54023333D02*
X45860771Y-54070952D01*
X45860771Y-54070952D02*
X45908390Y-54166190D01*
X45908390Y-54166190D02*
X45908390Y-54356666D01*
X45908390Y-54356666D02*
X45956009Y-54451904D01*
X45956009Y-54451904D02*
X46003628Y-54499523D01*
X46003628Y-54499523D02*
X46098866Y-54547142D01*
X46098866Y-54547142D02*
X46289342Y-54547142D01*
X46289342Y-54547142D02*
X46384580Y-54499523D01*
X46384580Y-54499523D02*
X46432200Y-54451904D01*
X46432200Y-54451904D02*
X46479819Y-54356666D01*
X46479819Y-54356666D02*
X46479819Y-54166190D01*
X46479819Y-54166190D02*
X46432200Y-54070952D01*
X46432200Y-54070952D02*
X46384580Y-54023333D01*
X46384580Y-54023333D02*
X46289342Y-53975714D01*
X46289342Y-53975714D02*
X46098866Y-53975714D01*
X46098866Y-53975714D02*
X46003628Y-54023333D01*
X46003628Y-54023333D02*
X45956009Y-54070952D01*
X45956009Y-54070952D02*
X45908390Y-54166190D01*
X42309523Y-67874819D02*
X41976190Y-67398628D01*
X41738095Y-67874819D02*
X41738095Y-66874819D01*
X41738095Y-66874819D02*
X42119047Y-66874819D01*
X42119047Y-66874819D02*
X42214285Y-66922438D01*
X42214285Y-66922438D02*
X42261904Y-66970057D01*
X42261904Y-66970057D02*
X42309523Y-67065295D01*
X42309523Y-67065295D02*
X42309523Y-67208152D01*
X42309523Y-67208152D02*
X42261904Y-67303390D01*
X42261904Y-67303390D02*
X42214285Y-67351009D01*
X42214285Y-67351009D02*
X42119047Y-67398628D01*
X42119047Y-67398628D02*
X41738095Y-67398628D01*
D11*
X41880000Y-65827469D02*
X41640000Y-65484612D01*
X41468571Y-65827469D02*
X41468571Y-65107469D01*
X41468571Y-65107469D02*
X41742857Y-65107469D01*
X41742857Y-65107469D02*
X41811428Y-65141755D01*
X41811428Y-65141755D02*
X41845714Y-65176041D01*
X41845714Y-65176041D02*
X41880000Y-65244612D01*
X41880000Y-65244612D02*
X41880000Y-65347469D01*
X41880000Y-65347469D02*
X41845714Y-65416041D01*
X41845714Y-65416041D02*
X41811428Y-65450326D01*
X41811428Y-65450326D02*
X41742857Y-65484612D01*
X41742857Y-65484612D02*
X41468571Y-65484612D01*
X42497143Y-65347469D02*
X42497143Y-65827469D01*
X42325714Y-65073184D02*
X42154285Y-65587469D01*
X42154285Y-65587469D02*
X42600000Y-65587469D01*
D10*
X50130952Y-126536009D02*
X50464285Y-126536009D01*
X50607142Y-127059819D02*
X50130952Y-127059819D01*
X50130952Y-127059819D02*
X50130952Y-126059819D01*
X50130952Y-126059819D02*
X50607142Y-126059819D01*
X50988095Y-127012200D02*
X51130952Y-127059819D01*
X51130952Y-127059819D02*
X51369047Y-127059819D01*
X51369047Y-127059819D02*
X51464285Y-127012200D01*
X51464285Y-127012200D02*
X51511904Y-126964580D01*
X51511904Y-126964580D02*
X51559523Y-126869342D01*
X51559523Y-126869342D02*
X51559523Y-126774104D01*
X51559523Y-126774104D02*
X51511904Y-126678866D01*
X51511904Y-126678866D02*
X51464285Y-126631247D01*
X51464285Y-126631247D02*
X51369047Y-126583628D01*
X51369047Y-126583628D02*
X51178571Y-126536009D01*
X51178571Y-126536009D02*
X51083333Y-126488390D01*
X51083333Y-126488390D02*
X51035714Y-126440771D01*
X51035714Y-126440771D02*
X50988095Y-126345533D01*
X50988095Y-126345533D02*
X50988095Y-126250295D01*
X50988095Y-126250295D02*
X51035714Y-126155057D01*
X51035714Y-126155057D02*
X51083333Y-126107438D01*
X51083333Y-126107438D02*
X51178571Y-126059819D01*
X51178571Y-126059819D02*
X51416666Y-126059819D01*
X51416666Y-126059819D02*
X51559523Y-126107438D01*
X51988095Y-127059819D02*
X51988095Y-126059819D01*
X51988095Y-126059819D02*
X52369047Y-126059819D01*
X52369047Y-126059819D02*
X52464285Y-126107438D01*
X52464285Y-126107438D02*
X52511904Y-126155057D01*
X52511904Y-126155057D02*
X52559523Y-126250295D01*
X52559523Y-126250295D02*
X52559523Y-126393152D01*
X52559523Y-126393152D02*
X52511904Y-126488390D01*
X52511904Y-126488390D02*
X52464285Y-126536009D01*
X52464285Y-126536009D02*
X52369047Y-126583628D01*
X52369047Y-126583628D02*
X51988095Y-126583628D01*
X52892857Y-126059819D02*
X53511904Y-126059819D01*
X53511904Y-126059819D02*
X53178571Y-126440771D01*
X53178571Y-126440771D02*
X53321428Y-126440771D01*
X53321428Y-126440771D02*
X53416666Y-126488390D01*
X53416666Y-126488390D02*
X53464285Y-126536009D01*
X53464285Y-126536009D02*
X53511904Y-126631247D01*
X53511904Y-126631247D02*
X53511904Y-126869342D01*
X53511904Y-126869342D02*
X53464285Y-126964580D01*
X53464285Y-126964580D02*
X53416666Y-127012200D01*
X53416666Y-127012200D02*
X53321428Y-127059819D01*
X53321428Y-127059819D02*
X53035714Y-127059819D01*
X53035714Y-127059819D02*
X52940476Y-127012200D01*
X52940476Y-127012200D02*
X52892857Y-126964580D01*
X53892857Y-126155057D02*
X53940476Y-126107438D01*
X53940476Y-126107438D02*
X54035714Y-126059819D01*
X54035714Y-126059819D02*
X54273809Y-126059819D01*
X54273809Y-126059819D02*
X54369047Y-126107438D01*
X54369047Y-126107438D02*
X54416666Y-126155057D01*
X54416666Y-126155057D02*
X54464285Y-126250295D01*
X54464285Y-126250295D02*
X54464285Y-126345533D01*
X54464285Y-126345533D02*
X54416666Y-126488390D01*
X54416666Y-126488390D02*
X53845238Y-127059819D01*
X53845238Y-127059819D02*
X54464285Y-127059819D01*
X54654762Y-127155057D02*
X55416666Y-127155057D01*
X55654762Y-127059819D02*
X55654762Y-126059819D01*
X55654762Y-126059819D02*
X56226190Y-127059819D01*
X56226190Y-127059819D02*
X56226190Y-126059819D01*
X56892857Y-126059819D02*
X57083333Y-126059819D01*
X57083333Y-126059819D02*
X57178571Y-126107438D01*
X57178571Y-126107438D02*
X57273809Y-126202676D01*
X57273809Y-126202676D02*
X57321428Y-126393152D01*
X57321428Y-126393152D02*
X57321428Y-126726485D01*
X57321428Y-126726485D02*
X57273809Y-126916961D01*
X57273809Y-126916961D02*
X57178571Y-127012200D01*
X57178571Y-127012200D02*
X57083333Y-127059819D01*
X57083333Y-127059819D02*
X56892857Y-127059819D01*
X56892857Y-127059819D02*
X56797619Y-127012200D01*
X56797619Y-127012200D02*
X56702381Y-126916961D01*
X56702381Y-126916961D02*
X56654762Y-126726485D01*
X56654762Y-126726485D02*
X56654762Y-126393152D01*
X56654762Y-126393152D02*
X56702381Y-126202676D01*
X56702381Y-126202676D02*
X56797619Y-126107438D01*
X56797619Y-126107438D02*
X56892857Y-126059819D01*
X57750000Y-127059819D02*
X57750000Y-126059819D01*
X57750000Y-126059819D02*
X57988095Y-126059819D01*
X57988095Y-126059819D02*
X58130952Y-126107438D01*
X58130952Y-126107438D02*
X58226190Y-126202676D01*
X58226190Y-126202676D02*
X58273809Y-126297914D01*
X58273809Y-126297914D02*
X58321428Y-126488390D01*
X58321428Y-126488390D02*
X58321428Y-126631247D01*
X58321428Y-126631247D02*
X58273809Y-126821723D01*
X58273809Y-126821723D02*
X58226190Y-126916961D01*
X58226190Y-126916961D02*
X58130952Y-127012200D01*
X58130952Y-127012200D02*
X57988095Y-127059819D01*
X57988095Y-127059819D02*
X57750000Y-127059819D01*
X58750000Y-126536009D02*
X59083333Y-126536009D01*
X59226190Y-127059819D02*
X58750000Y-127059819D01*
X58750000Y-127059819D02*
X58750000Y-126059819D01*
X58750000Y-126059819D02*
X59226190Y-126059819D01*
X59654762Y-127059819D02*
X59654762Y-126059819D01*
X59654762Y-126059819D02*
X59988095Y-126774104D01*
X59988095Y-126774104D02*
X60321428Y-126059819D01*
X60321428Y-126059819D02*
X60321428Y-127059819D01*
X61369047Y-126964580D02*
X61321428Y-127012200D01*
X61321428Y-127012200D02*
X61178571Y-127059819D01*
X61178571Y-127059819D02*
X61083333Y-127059819D01*
X61083333Y-127059819D02*
X60940476Y-127012200D01*
X60940476Y-127012200D02*
X60845238Y-126916961D01*
X60845238Y-126916961D02*
X60797619Y-126821723D01*
X60797619Y-126821723D02*
X60750000Y-126631247D01*
X60750000Y-126631247D02*
X60750000Y-126488390D01*
X60750000Y-126488390D02*
X60797619Y-126297914D01*
X60797619Y-126297914D02*
X60845238Y-126202676D01*
X60845238Y-126202676D02*
X60940476Y-126107438D01*
X60940476Y-126107438D02*
X61083333Y-126059819D01*
X61083333Y-126059819D02*
X61178571Y-126059819D01*
X61178571Y-126059819D02*
X61321428Y-126107438D01*
X61321428Y-126107438D02*
X61369047Y-126155057D01*
X61797619Y-126059819D02*
X61797619Y-126869342D01*
X61797619Y-126869342D02*
X61845238Y-126964580D01*
X61845238Y-126964580D02*
X61892857Y-127012200D01*
X61892857Y-127012200D02*
X61988095Y-127059819D01*
X61988095Y-127059819D02*
X62178571Y-127059819D01*
X62178571Y-127059819D02*
X62273809Y-127012200D01*
X62273809Y-127012200D02*
X62321428Y-126964580D01*
X62321428Y-126964580D02*
X62369047Y-126869342D01*
X62369047Y-126869342D02*
X62369047Y-126059819D01*
D12*
%TO.C,J10*%
X116070000Y-148250000D02*
X90770000Y-148250000D01*
X90770000Y-148250000D02*
X90770000Y-155750000D01*
X116070000Y-149450000D02*
X90770000Y-149450000D01*
X116070000Y-155750000D02*
X116070000Y-148250000D01*
X90770000Y-155750000D02*
X116070000Y-155750000D01*
%TO.C,J2*%
X83920000Y-90230000D02*
X81380000Y-90230000D01*
X83920000Y-64830000D02*
X83920000Y-90230000D01*
X82015000Y-64830000D02*
X83920000Y-64830000D01*
X81380000Y-90230000D02*
X81380000Y-65465000D01*
X81380000Y-65465000D02*
X82015000Y-64830000D01*
%TO.C,J3*%
X98270000Y-90270000D02*
X95730000Y-90270000D01*
X98270000Y-64870000D02*
X98270000Y-90270000D01*
X96365000Y-64870000D02*
X98270000Y-64870000D01*
X95730000Y-90270000D02*
X95730000Y-65505000D01*
X95730000Y-65505000D02*
X96365000Y-64870000D01*
%TO.C,J7*%
X115270000Y-75310000D02*
X112730000Y-75310000D01*
X115270000Y-44830000D02*
X115270000Y-75310000D01*
X113365000Y-44830000D02*
X115270000Y-44830000D01*
X112730000Y-75310000D02*
X112730000Y-45465000D01*
X112730000Y-45465000D02*
X113365000Y-44830000D01*
%TO.C,J11*%
X109250000Y-114180000D02*
X109250000Y-144580000D01*
X109250000Y-144580000D02*
X116750000Y-144580000D01*
X110450000Y-114180000D02*
X110450000Y-144580000D01*
X116750000Y-114180000D02*
X109250000Y-114180000D01*
X116750000Y-144580000D02*
X116750000Y-114180000D01*
%TO.C,U2*%
X81960000Y-130850000D02*
X91960000Y-130850000D01*
X91960000Y-135250000D01*
X81960000Y-135250000D01*
X81960000Y-130850000D01*
X88810000Y-130850000D02*
X88810000Y-132120000D01*
X85110000Y-130850000D02*
X85110000Y-132120000D01*
X81960000Y-132120000D02*
X91960000Y-132120000D01*
%TO.C,U3*%
X54460000Y-133880000D02*
X44460000Y-133880000D01*
X51310000Y-135150000D02*
X51310000Y-133880000D01*
X47610000Y-135150000D02*
X47610000Y-133880000D01*
X54460000Y-135150000D02*
X44460000Y-135150000D01*
X44460000Y-130750000D01*
X54460000Y-130750000D01*
X54460000Y-135150000D01*
%TO.C,C3*%
X41750000Y-139500000D02*
X49250000Y-139500000D01*
X49250000Y-144500000D01*
X41750000Y-144500000D01*
X41750000Y-139500000D01*
%TO.C,R3*%
X54200000Y-64700000D02*
X57800000Y-64700000D01*
X57800000Y-66300000D01*
X54200000Y-66300000D01*
X54200000Y-64700000D01*
X59810000Y-65500000D02*
X57800000Y-65500000D01*
X52190000Y-65500000D02*
X54200000Y-65500000D01*
%TO.C,C2*%
X101750000Y-145000000D02*
X94250000Y-145000000D01*
X94250000Y-140000000D01*
X101750000Y-140000000D01*
X101750000Y-145000000D01*
%TO.C,J6*%
X33250000Y-77370000D02*
X40750000Y-77370000D01*
X33250000Y-92470000D02*
X33250000Y-77370000D01*
X39550000Y-92470000D02*
X39550000Y-77370000D01*
X40750000Y-77370000D02*
X40750000Y-92470000D01*
X40750000Y-92470000D02*
X33250000Y-92470000D01*
%TO.C,J1*%
X116750000Y-87460000D02*
X116750000Y-77460000D01*
X116750000Y-77460000D02*
X109250000Y-77460000D01*
X110450000Y-77510000D02*
X110450000Y-87410000D01*
X109250000Y-87460000D02*
X116750000Y-87460000D01*
X109250000Y-77460000D02*
X109250000Y-87460000D01*
%TO.C,C4*%
X58750000Y-139500000D02*
X66250000Y-139500000D01*
X66250000Y-144500000D01*
X58750000Y-144500000D01*
X58750000Y-139500000D01*
%TO.C,C1*%
X78750000Y-140000000D02*
X86250000Y-140000000D01*
X86250000Y-145000000D01*
X78750000Y-145000000D01*
X78750000Y-140000000D01*
%TO.C,R2*%
X40690000Y-44500000D02*
X42700000Y-44500000D01*
X48310000Y-44500000D02*
X46300000Y-44500000D01*
X42700000Y-43700000D02*
X46300000Y-43700000D01*
X46300000Y-45300000D01*
X42700000Y-45300000D01*
X42700000Y-43700000D01*
%TO.C,J5*%
X33250000Y-96450000D02*
X40750000Y-96450000D01*
X33250000Y-111550000D02*
X33250000Y-96450000D01*
X39550000Y-111550000D02*
X39550000Y-96450000D01*
X40750000Y-96450000D02*
X40750000Y-111550000D01*
X40750000Y-111550000D02*
X33250000Y-111550000D01*
%TO.C,J4*%
X41750000Y-58460000D02*
X41750000Y-48460000D01*
X41750000Y-48460000D02*
X34250000Y-48460000D01*
X40550000Y-58410000D02*
X40550000Y-48510000D01*
X34250000Y-58460000D02*
X41750000Y-58460000D01*
X34250000Y-48460000D02*
X34250000Y-58460000D01*
%TO.C,J8*%
X116750000Y-99500000D02*
X116750000Y-89500000D01*
X116750000Y-89500000D02*
X109250000Y-89500000D01*
X110450000Y-89550000D02*
X110450000Y-99450000D01*
X109250000Y-99500000D02*
X116750000Y-99500000D01*
X109250000Y-89500000D02*
X109250000Y-99500000D01*
%TO.C,R1*%
X52690000Y-44500000D02*
X54700000Y-44500000D01*
X60310000Y-44500000D02*
X58300000Y-44500000D01*
X54700000Y-43700000D02*
X58300000Y-43700000D01*
X58300000Y-45300000D01*
X54700000Y-45300000D01*
X54700000Y-43700000D01*
%TO.C,J9*%
X116750000Y-112000000D02*
X116750000Y-102000000D01*
X116750000Y-102000000D02*
X109250000Y-102000000D01*
X110450000Y-102050000D02*
X110450000Y-111950000D01*
X109250000Y-112000000D02*
X116750000Y-112000000D01*
X109250000Y-102000000D02*
X109250000Y-112000000D01*
%TO.C,U4*%
X47085000Y-52445000D02*
X59295000Y-52445000D01*
X47085000Y-59935000D02*
X47085000Y-52445000D01*
X59295000Y-52445000D02*
X60295000Y-53445000D01*
X60295000Y-53445000D02*
X60295000Y-59935000D01*
X60295000Y-59935000D02*
X47085000Y-59935000D01*
%TO.C,R4*%
X38190000Y-65500000D02*
X40200000Y-65500000D01*
X45810000Y-65500000D02*
X43800000Y-65500000D01*
X40200000Y-64700000D02*
X43800000Y-64700000D01*
X43800000Y-66300000D01*
X40200000Y-66300000D01*
X40200000Y-64700000D01*
D13*
%TO.C,U5*%
X43800000Y-69720000D02*
X71800000Y-69720000D01*
X43800000Y-124720000D02*
X43800000Y-69720000D01*
X71800000Y-69720000D02*
X71800000Y-124720000D01*
X71800000Y-124720000D02*
X43800000Y-124720000D01*
%TD*%
M02*
